<svg width="29" height="29" fill="none" xmlns="http://www.w3.org/2000/svg"><path d="M.793 12.302C.28 10.918-.091 9.505.02 8.003c.07-.925.418-1.714 1.096-2.361.736-.695 1.43-1.426 2.155-2.132.942-.93 2.126-.925 3.068 0 .583.571 1.16 1.154 1.737 1.737.56.56 1.125 1.119 1.684 1.684.984.995.99 2.155.006 3.145-.706.707-1.407 1.419-2.126 2.114-.188.183-.206.336-.106.565.472 1.13 1.155 2.138 1.92 3.08 1.543 1.896 3.286 3.58 5.365 4.882.447.277.936.483 1.401.736.242.13.4.088.595-.112.701-.724 1.42-1.437 2.138-2.15.942-.93 2.12-.936 3.062 0a474.111 474.111 0 013.445 3.446c.96.965.954 2.15-.012 3.12-.653.66-1.342 1.285-1.955 1.974-.895 1-2.026 1.33-3.31 1.26-1.872-.1-3.597-.724-5.264-1.531-3.698-1.796-6.855-4.287-9.499-7.432-1.955-2.332-3.568-4.864-4.628-7.726zM29 14.41C29 6.466 22.534 0 14.59 0v2.744c6.43 0 11.666 5.235 11.666 11.666H29zm-7.89 0h2.743c0-5.106-4.157-9.263-9.263-9.263V7.89c1.743 0 3.38.677 4.611 1.908a6.476 6.476 0 011.908 4.611z" fill="#EFDA1B" fill-opacity=".8"/></svg>