<svg width="218" height="224" fill="none" xmlns="http://www.w3.org/2000/svg"><path fill-rule="evenodd" clip-rule="evenodd" d="M63.73 58.859c5.4-3.87 12.395.33 15.145 4.509 3.833 5.831.93 15.37-5.508 18.762-4.507 2.378-11.938.391-11.594-6.512.07-1.395.832-3.234.83-3.249-.06-.409-.002-.078-.083-.507-.689-3.501-2.772-6.958-1.04-10.346.541-1.053 1.17-1.866 2.25-2.657zm.021 9.73l.044-1.141c.081.314-.106-.102.093-.293.637-.6 1.047 2.673.722 4.969a117.03 117.03 0 00-.38 2.886c-.008.36-.003-.073-.008.375 0 0 .09 3.758 2.857 5.054.155.075.955.314.989.32.43.087-.04.013.48.075l.624.034c.616-.004.176.015.676-.038l.66-.108c.377-.083-.04.02.357-.083l.677-.214c.371-.14-.04.02.352-.145l.664-.325c.363-.198-.033.03.347-.2l.766-.525c.853-.659.856-.716 1.172-1.038 2.497-2.56 3.908-6.186 3.682-9.758-.156-2.427-.12-1.165-.32-1.891l-.209-.655c-.243-.655-.028-.12-.27-.65-.155-.34.018-.004-.25-.495-.033-.06-.511-.796-.523-.813-.251-.334.021-.005-.363-.451a29.444 29.444 0 00-.455-.468c-.43-.388-.493-.426-.736-.606-1.79-1.337-3.959-2.195-6.181-2.379 0 0-.1-.041-.94-.016-.038.003-.629.049-.655.053-.623.09.002-.031-.656.12l-.788.25c-.493.2-.064.003-.472.214-3.912 2.05-1.902 1.112-2.584 2.543l-.343 1.256c-.053.564-.03.013-.033.599 0 0 .36 2.65.76 4.722 0 .014.162-.614.244-1.179z" fill="#5B5B5B"/><path fill-rule="evenodd" clip-rule="evenodd" d="M78.587 62.442c8.1-5.815 16.462-11.784 21.558-20.876 2.249-4.014 3.751-8.56 3.156-13.045-1.467-11.095-8.995-21.668-19.324-24.255-9.082-2.277-19.33-3.455-27.385-.585-.064.022-.823.353-.84.365-.38.195-.045-.007-.531.301-.268.173-1.14.975-1.14.975-.649.758-.292.34-.542.754 0 0-.337.673-.32.63-.273.651-.056-.063-.347 1.025-.025.088-.39 2.634-.23 4.639 1.246 15.51 4.817 31.126 9.666 45.495.354 1.042.801 1.96 1.083 2.986l-.127.343-.431-.091.084-.427c-.242.653-.297-.105-.415-.408-5.688-14.539-9.035-30.115-11.362-45.39-.798-5.377-.477-11.31 5.562-13.405C63.712-.957 71.658.171 78.9.974c5.388.597 10.88 2.076 15.127 5.576 6.573 5.415 10.722 13.645 11.6 22.044 1.218 11.638-8.652 23.032-18.197 30.056-2.659 1.955-5.616 3.476-8.285 5.383l-1.252-.08.175-1.118c.167-.139.342-.267.519-.393z" fill="#5B5B5B"/><path fill-rule="evenodd" clip-rule="evenodd" d="M76.249 18.525c3.708-2.678 8.367-3.556 13.021-3.257l.493.316-.31.278c-8.317-.08-16.655 4.822-19.342 15.958-1.788 7.429-1.985 15.182-1.21 22.798.021.204.602 2.043.616 3.755 0 0-.261.417-.57.615l-1.103-1.03c-.043-.302-.04-.27-.036-.252-.183-1.034-.487-1.683-.707-3.438-.877-7.327-.793-14.807.835-21.898 1.183-5.155 3.727-10.306 7.966-13.59l.347-.255z" fill="#5B5B5B"/><path fill-rule="evenodd" clip-rule="evenodd" d="M74.983 20.316c-.858-.845 1.3-.099 1.3-.099 1.834.151 3.644.474 5.343 1.154 0 0 1.797.873 2.72 1.596 3.355 2.643 5.594 6.61 6.154 10.85 1.296 9.813-4.464 19.406-11.279 25.672-.969.893-2.018 1.726-3.186 2.343l-1.016-.295.3-1.015c.416-.236.172-.087.554-.333 6.133-4.061 10.217-11.39 11.865-17.886 1.597-6.314.387-13.76-5.437-17.89 0 0-.886-1.459-5.76-3.093-.066-.022-.134-.047-.197-.065-.153-.052-.241-.077-.204-.074-.997-.269-1.831.036-1.58-.972 0 0 .254.067.423.107zm-23.74 64.411a70.933 70.933 0 012.843-1.96c.61-.4 1.23-.783 1.85-1.17 1.58-.999 1.85-1.268 3.094-2.04.935-.58 2.239-.986 3.502-1.189l.837.472-.962 1.038c-1.798.867-1.61 1.053-2.65 1.715-7.558 4.83-15.336 9.824-19.819 18.115-2.198 4.062-2.541 8.758-1.496 13.564l.041 1.667c.515 2.786-.614.488-.56.643-.248-.397.196.624-.954-1.748 0 0-1.297-4.721-.727-8.77 1.15-8.167 7.414-14.706 14.674-20.096l.327-.241zm-12.917 30.508l-.313.096c-.003.002.441-.051.313-.096z" fill="#5B5B5B"/><path fill-rule="evenodd" clip-rule="evenodd" d="M31.638 84.897c5.698-4.07 12.552-6.19 18.969-8.274 3.721-1.21 7.705-1.934 11.692-2.446l.724.495-.51.71c-3.808.855-7.548 1.993-11.215 3.338-8.724 3.22-18.72 5.874-24.012 13.948-4.175 6.367-.823 15.29 2.788 21.524 2.677 4.628 6.054 8.898 11.702 10.397 1.433.576 2.932.944 4.47 1.243.24.048-.233.042.623-.029.305-.02.85.028.678.554 0 0-3.246.629-6.236.237 0 0-1.68-.45-2.773-.897-6.388-2.585-10.254-9.517-13.045-15.452-2.59-5.505-3.964-11.996-.905-17.511 1.71-3.092 4.199-5.765 7.05-7.837zm15.293 41.315l.161.26c-.002-.003-.145-.347-.161-.26z" fill="#5B5B5B"/><path fill-rule="evenodd" clip-rule="evenodd" d="M41.478 125.912l.13-.196s-.375.406-.573.008c0 0-.796-.476 1.237-.577 1.656-.062 3.312-.085 4.963-.263 0 0 3.87-.291 6.67-1.536 12.985-5.781 18.513-22.211 19.516-36.39 0 0 .413-3.26.641-6.04l.025-.312.614-.622.602.634c.959 16.243-3.074 34.352-17.513 42.912-3.202 1.901-6.795 3.271-10.52 3.23-1.566-.018-3.324-.486-5.04-.783-.723-.126-.314-.053-.752-.065zm-.074-.614l.212.178s-.261-.192-.212-.178z" fill="#5B5B5B"/><path fill-rule="evenodd" clip-rule="evenodd" d="M37.829 102.915s-.14-1.104.841.539c2.623 4.317 6.81 7.857 11.79 7.786 3.102-.045 6.163-1.337 8.372-3.535 2.142-2.128 3.596-4.822 5.054-7.469 3.04-5.536 5.31-11.567 5.622-17.903l.674-.786.61.664c-.305 7.688-3.488 15.061-7.41 21.656-2.113 3.554-5.001 6.856-9.02 8.122-4.697 1.479-10.117.147-13.62-3.442-1.516-1.554-2.619-3.457-3.824-5.215 0 0 .159-1.275.658-.889 0 0 .121.734.253.472zM17.658 29.241c.197.18.205.163.205.163 12.451 7.384 24.56 15.21 35.39 25.13l.232.213c1.151 1.149 2.301 2.288 3.419 3.467 1.38 1.439 2.461 2.858 3.926 4.724l.538.587c.58.482.281.192.281.192l.437.607-.612.436c-1.402-.19-2.795-2.493-2.702-2.372-.39-.456.398.376-.588-.615-.402-.397-.81-.795-1.216-1.19-9.396-9.076-19.37-17.61-30.522-24.749a1148.642 1148.642 0 01-8.968-5.861c-1.08-.761-.996-.803-.996-.803s-.518-.608.04-.739c.701-.172 1.149.82 1.136.81z" fill="#5B5B5B"/><path fill-rule="evenodd" clip-rule="evenodd" d="M16.947 28.168c4.875-.348 9.749-.59 14.633-.785 1.877-.075.772.005.721-.532-.037-.396-1.031-9.115-2.174-13.51l-.267-1.9c.326-.69.076-.48.824-.691 0 0 1.764.611 2.786 1.72 2.267 2.453 5.068 4.987 7.304 7.737 5.352 6.57 9.594 14.127 14.93 20.44 0 0 1.411 1.19 1.91 2.57l-.144.395s-.769-.88-.757-.864c-.372-.485.172.098-.675-.76C47.692 33.61 41.843 23.113 32.706 14.8l-.117-.104c.059.431.113.87.162 1.303.068.56.136 1.119.201 1.675.26 2.244.464 4.49.74 6.728.038.336 1.167 4.672-1.693 4.598-3.118-.078-4.604-.211-6.311-.231-2.912-.036-5.822.032-8.73.044l-.685-.3c.003.003.212-.315.674-.346zM8.729 65.931c-.297-.05.055-.006-.423-.058.063.119-.095-.184.149.29 1.846 3.562 3.06 4.864 4.54 7.238.368.593.74 1.227 1.078 1.767.338.54.825 1.349.825 1.349.928 1.822-.607 3.383-3.44 4.842-3.165 1.633-6.651 2.844-9.573 4.699-.21.134-.93.195.08.53 5.752 1.896 11.76 3.119 17.83 3.408a57.77 57.77 0 004.076.376c2.825.155 1.497.12 2.13.012 2.546-.462 1.18.429 1.18.429.563.06-.875.37-1.475.483-1.955.268-3.948.389-5.936.441l-.061.005c-5.98-.325-11.827-1.503-17.665-3.416-.43-.142-.337-.07-1.111-.383-1.19-.482-1.43-2.407.399-3.415 3.6-1.99 6.402-2.822 9.56-4.605.687-.39 1.718-.956 1.74-.967.435-.276-.066.093.51-.351l.205-1.185c-.168-.296.028.024-.215-.346-.525-.806-.91-1.322-1.3-1.898-1.967-2.893-4.508-5.433-5.918-8.748-.711-1.677.345-3.658 4.205-2.75 13.475 3.18 28.386 8.406 43.716 8.16 2.901-.047 5.843.402 8.621-.069.021-.005.346-.06.731-.16l.477.269s-.081.424-.532.551c-3.197.844-6.597.404-9.775.555-13.84.61-27.544-2.71-40.998-6.069-1.649-.422-1.772-.576-3.33-.915-.14-.042-.074-.026-.3-.069zm65.703 13.782c.55-.026.18.002.565-.107 0 0 2.055-.876 3.453-1.262a71.88 71.88 0 015.654-1.311s1.973-.242 3.329-.347c5.066-.394 10.22-.573 15.156-1.09 1.924-.195 3.924-.177 5.668.625 3.909 1.801 6.738 5.368 10.12 8.447 3.891 3.613 7.177 7.855 10.652 11.865 6.755 7.811 13.475 15.655 20.197 23.495l1.01 1.174a19998.896 19998.896 0 0135.042 41.071s1.47 1.967 2.574 3.545l.396.572-.045.732-.723-.081c-2.951-2.893-5.665-5.965-8.356-9.068-18.696-21.553-37.383-43.162-56.19-64.622-4.091-4.658-8.592-8.8-13.178-12.923-.602-.545-1.037-.938-1.846-1.46l-.541-.315c-.499-.257-.131-.083-.537-.248l-.737-.241c-.996-.24.001-.12-1.331-.167-2.567-.096-2.931.183-4.007.281-5.34.476-10.712.272-16.16.793 0 0-3.78.21-6.67.602-.481.065-.477.092-.656.134-.996.26-2.004.674-2.965.528L74.023 80c.006.001.52-.283.409-.286z" fill="#5B5B5B"/><path fill-rule="evenodd" clip-rule="evenodd" d="M113.769 65.593c-.259-.129.096.034-.351-.166l-1.078-.344c-.691-.144-.757-.126-1.059-.157-2.897-.272-5.823.093-8.786.15-4.07.094-8.13.425-12.191.637 0 0-2.845.035-4.935.092-1.136.03-2.847.107-2.867.107-.817.043-2.015.152-2.015.152l-.396-.172c-.935-.41-.216-.28-.216-.28l.067-.18s-.045.603-.625-.028l.985-.866c8.087-1.253 16.412-1.662 24.424-1.84 3.752-.105 7.664-.826 10.868 1.056 4.511 2.646 7.514 7.282 10.909 11.015 13.75 15.133 27.292 30.344 40.638 45.94l2.337 2.73c8.919 10.591 18.007 20.957 26.1 32.087l-.068.524-.524-.074c-8.41-10.516-17.64-20.188-26.763-30.244l-.606-.666a3807.871 3807.871 0 00-11.56-12.853l-.364-.406c-11.436-12.949-22.991-25.91-34.304-38.74a41.534 41.534 0 01-.474-.55c-.493-.58-.982-1.162-1.472-1.745-1.532-1.802-2.999-3.556-5.058-4.839-.027-.015-.296-.177-.616-.34zm-40.002-5.6s1.086-2.957 2.025-4.947c.678-1.438 1.659-3.44 1.659-3.44 3.71-6.657 6.567-13.855 11.27-19.803l.95-.241.107.85c-4.497 6.05-7.187 13.19-10.79 19.85 0 0-1.481 2.469-2.69 4.548 0 0-.835 1.374-1.591 2.596-.178.28.105-.183-.303.802-.22.487-.588.468-.784.243 0 0 .118-.381.147-.458zm.286.01s-.197-.045-.266.01c0 0 .35.048.266-.01zM48.15 87.426l1.681-.665c.282-.133-1.008.623 1.37-.79.366-.215 1.96-1.14 1.96-1.14 1.333-.733 1.917-1.044 1.917-1.044 1.467-.652 2.94-1.288 4.406-1.914.938-.407.98-.432 1.257-.557a49.41 49.41 0 003.514-1.68l.686.138s-.049.604-.628 1.031c-1.81 1.33-3.735 2.498-5.69 3.605l-2.605 1.35c-.38.161-.764.324-1.143.488-2.948 1.27-3.03 1.13-3.03 1.13-1.24.36-2.349.588-3.548.668-.722.043-.45-.373-.45-.373s.437-.241.303-.247z" fill="#5B5B5B"/><path fill-rule="evenodd" clip-rule="evenodd" d="M64.346 80.132c.146.97.155.969.2 1.95-3.613 8.274-7.251 16.567-11.259 24.677a78.294 78.294 0 00-1.45 3.112s-.384 1.865-1.045 1.868l-.298-.33s.357-.552.088-.185c0 0 2.211-5.359 3.818-9.079 2.85-6.619 5.477-13.337 8.135-20.054l.288-.727.647-.592c.29-.209.582-.423.876-.64zm-2.212 38.305c.604.034 1.267 1.347 1.267 1.347a2057.98 2057.98 0 003.99 4.622c10.152 13.821 20.114 27.927 30.977 41.873 11.501 14.773 23.574 28.979 34.839 43.992l-.05.576-.568-.086a500.517 500.517 0 00-5.308-6.267c-17.719-20.615-35.08-42.098-50.898-64.373-4.673-6.571-9.542-12.907-13.7-19.822-.256-.421-.602-1.074-.602-1.074-.472-.796.068-.165.068-.165l-.32-.304c.145-.001.156-.304.305-.319zm-9.254 7.109c8.034 9.985 16.277 19.951 24.24 29.968 3.434 4.323 6.82 8.658 10.278 12.938A10459.63 10459.63 0 00103 187.648c5.493 6.749 11.351 13.261 16.838 19.995.075.095.148.186.217.28 1.394 1.838 1.764 3.078 2.904 4.544.023.024.579.657.59.664.367.363.117.139.481.429l.291.599-.738-.02c-3.116-1.742-4.925-5.151-7.51-8.069-10.056-11.335-19.802-23.014-29.453-34.862-.815-.997-3.21-3.975-5.17-6.445a727.489 727.489 0 01-4.093-5.195c-5.092-6.516-10.05-13.202-15.004-19.85l-.461-.619a995.097 995.097 0 01-9.528-13.171c-1.123-1.599.256-.723.398-.544.035.054.076.109.12.162z" fill="#5B5B5B"/><path fill-rule="evenodd" clip-rule="evenodd" d="M22.825 104.153c-2.06 6.241-4.097 12.446-5.47 18.963-.326 1.494-.45 1.806-.653 2.764a21.34 21.34 0 00-.27 1.747c-.04.609-.062-.07-.012.872l.158.797c1.657 4.415 5.072 8.094 7.816 11.858 8.256 11.269 17.942 21.823 25.752 32.292 7.28 9.757 14.297 19.433 22.457 28.81 3.954 4.565 7.687 9.333 11.604 14.059 1.104 1.348 1.198 1.523 1.774 2.217.657.789 1.356 1.562 2.187 2.168.484.352-.65.16 1.347.669 4.917 1.259 11.005-2.085 16.557-3.56 18.045-4.793 35.982-8.912 53.074-14.998 2.194-.789 4.427-1.586 6.387-2.836.592-.382.147-.078.569-.399.364-.279.352-.295.484-.427l.975-.005.008.973c-3.14 3.223-8.208 4.198-12.696 5.838-15.697 5.722-32.046 9.45-48.245 13.915-5.418 1.496-10.768 4.127-16.266 3.915-4.484-.17-7.398-5.236-10.07-8.414-5.822-6.957-11.885-13.721-17.47-20.709-9.558-11.966-18.369-24.429-28.041-36.286-5.86-7.204-11.511-14.995-16.587-22.383-1.942-2.852-3.983-6.035-3.311-9.506 1.49-7.718 4.368-15.166 7.107-22.627.671-1.792 1.679-3.439 2.231-5.264l.226-1.075c.083-.85.02-.489-.01-.686l.244-.365s.352.145.394.399c.328 2.314-1.288 4.653-2.17 7.055a1.978 1.978 0 00-.08.229z" fill="#5B5B5B"/><path fill-rule="evenodd" clip-rule="evenodd" d="M21.684 125.054a74.638 74.638 0 012.51-1.092l2.788-1c2.525-.828 5.06-1.588 7.655-2.078l.766.464s-.03.622-1.064.934c-2.209.674-4.358 1.525-6.496 2.396l-2.956 1.145c-.95.302-1.918.595-1.918.595-2.177.561-2.968.585-4.12.871-.651.16-.26.041-.64.196l-.53.242s-1.347-.106.847-1.269c1.012-.536 2.091-.942 3.15-1.388-.008-.004.038-.023.008-.016zm47.406-13.057c-1.873.426-.58.082-.58.082l-.37.243-.243-.365c.091-.546.76-.64 1.217-.822 1.3-.518 2.655-.888 3.993-1.315 0 0 1.767-.643 3.666-1.339 0 0 2.196-.65 3.715-1.096 2.394-.701 5.055-.85 6.904-2.263 1.001-.762 4.356-6.16 6.023-8.837l.59-.96c3.831-6.297 7.311-12.84 12.294-18.096l.194-.198 1.014-.033.03 1.016c-5.464 5.964-9.043 13.505-13.226 20.476-1.907 3.218-3.128 7.109-6.566 8.879-1.627.84-3.24 1.044-5.413 1.692-1.236.368-2.476.738-3.72 1.104l-1.097.325c-2.753.601-5.763.947-8.345 1.488a.298.298 0 01-.08.019z" fill="#5B5B5B"/><path fill-rule="evenodd" clip-rule="evenodd" d="M88.611 105.597c1.062-.618 1.159 1.288 1.948 2.319 23.766 30.965 49.674 59.283 74.452 88.959l.734.882c.361.733.819 1.673.819 1.673l-.015.61-.598-.114-1.473-1.125c-10.553-12.916-21.308-25.598-31.991-38.373l-3.363-4.022c-12.967-15.54-26.221-30.903-38.206-46.927-.777-1.04-1.319-2.304-2.1-3.296l-.302.058s-.295-.381.095-.644zm49.432-78.682l-.053.917c-.523.89-1.069 2.276-1.069 2.276-.09.141-.181.288-.267.436-6.345 10.642-12.301 22.436-19.334 32.043-.601.817-1.605 1.947-1.605 1.947-.534.678-.17.4-.207.132l-.232.37s-.882.192-.014-.968c.537-.72 1.165-1.487 1.165-1.487 5.861-8.623 10.49-17.99 15.492-27.13 1.135-2.104 2.022-4.32 3.213-6.376-.003-.003 1.171-2.021 2.911-2.16zM49.942 53.834c.002.003-.324.583-.311.554-.203.464-.004-.052-.2.501a95.17 95.17 0 01-3.093 7.657s-.78 1.563-1.305 2.49c-.341.6-.69 1.192-1.041 1.785-1.036 1.737-1.838 3.372-2.922 4.775-.363.462-.65-.09-.65-.09s1.067-3.003 1.685-4.672c1.307-3.455 2.694-6.878 4.114-10.39 0 0 .595-3.175 2.287-4.477 0 0 .33.271 1.383 1.802 0-.006.092.031.053.065z" fill="#5B5B5B"/><path fill-rule="evenodd" clip-rule="evenodd" d="M43.014 68.116s-.254-.697.916-.945c3.636-.682 7.267-1.351 10.93-1.854 0 0 3.04-.299 4.71-.546a28.095 28.095 0 001.62-.3l.808.417-.44.799c-1.74.668-2.33.774-2.33.774-1.627.42-3.97.833-3.97.833-3.685.445-7.346.992-11.032 1.457-.21.025.25-.1-.558.171 0 0-1.467-.107-1.286-.77l.279-.34c-.004.003.304.23.353.304zm26.243-33.764c2.103-.412 4.227-.72 6.35-1.01l.325-.046c2.37-.274 4.744-.486 7.119-.678l3.474-.015 2.135.08.665.373-.6.467-2.099.403c-1.322.211-3.182.519-3.182.519a219.932 219.932 0 00-7.159.718c-.922.11-.973.103-1.38.147-1.786.204-3.573.408-5.347.697l-.254-.677c-1.32-.2-.408-.398-.408-.398.163-.205.271-.56.36-.58zm148.275 87.45l.209 1.179c-3.405 4.91-6.025 10.161-9.584 15.371-10.464 15.315-21.092 30.572-30.514 46.712 0 0-1.227 2.013-2.414 4.081 0 0-1.356 2.332-2.377 3.968-.826 1.318-1.696 2.603-2.654 3.824-1.203 1.53-2.941 2.552-4.411 3.795-.093.078-.727.715-.824.902l-.409.156s-.204-.324-.118-.512c.756-1.556 2.566-2.535 3.825-3.813.086-.087.621-.756 1.052-1.418 2.389-3.708 4.145-7.774 6.264-11.626l.118-.212a380.962 380.962 0 016.333-10.489c8.495-13.585 17.718-26.418 26.92-39.755 2.549-3.741 4.566-7.854 7.131-11.567.662-.951.942-.504 1.453-.596z" fill="#5B5B5B"/><path fill-rule="evenodd" clip-rule="evenodd" d="M105.972 29.733c.587-.158.146-.032.593-.292 0 0 4.499-1.889 7.557-2.51 6.653-1.349 13.501-2.666 20.064-2.506 4 .157 6.899 4.017 9.135 6.582 17.612 20.314 34.805 41.277 52.006 62.198l.752.919c7.153 9.001 14.508 17.889 20.985 27.463l-.103.646s-.565-.014-1.02-.591c-4.921-6.224-10.186-12.134-15.375-18.179l-.823-.961c-1.151-1.358-2.299-2.72-3.452-4.08l-1.488-1.755-.749-.88c-17.359-21.156-34.896-42.818-52.379-63.362-1.271-1.494-2.477-3.042-3.962-4.319-1.084-.928-.461-.394-.987-.735-.117-.078-1.656-.906-3.386-.89-7.426.112-14.793 1.402-22.072 2.918 0 0-2.852.365-2.46.28-.632.072-.201-.001-.807.206-1.093.386-2.832 1.238-2.635-.12l.348-.307s.354.264.258.275zm.028.12c.002.063.054.283 0 0z" fill="#5B5B5B"/></svg>