<svg width="149" height="158" fill="none" xmlns="http://www.w3.org/2000/svg"><path fill-rule="evenodd" clip-rule="evenodd" d="M147.45 79.172c.186.476.052-.039.127.742 1.27 14.425-6.308 29.395-16.282 38.364-11.435 10.282-26.683 15.883-41.906 18.718-11.926 2.22-24.178.863-36.26-1.817-6.284-1.394-12.255-3.731-18.066-6.916-2.284-1.233-4.359-2.771-6.31-4.453l-.42-.365-1.132.077.079 1.129c11.5 10.036 27.832 13.885 44.372 15.032 13.459.927 27.076-2.139 39.686-7.35 14.167-5.858 27.316-15.45 33.502-30.003 3.074-7.237 4.58-15.321 3.289-23.005-.381-2.074-.461-.965-.461-.965l.173-.337s-.429-.35-.632.062c-.237.478.247 1.103.241 1.087zm-32.265-34.514s.852-.367.165-.598c-.556-.185-1.348.893-1.348.893-.294.246-.287.211-.287.211-10.402 6.064-20.182 13.466-30.056 20.507-2.226 1.61-4.18 3.612-6.625 4.925l.051.358.766 1.24c.097-.054.193-.105.287-.164 3.025-1.802 5.51-4.364 8.362-6.483 8.44-6.272 16.886-12.627 25.469-18.521.222-.155.451-.307.68-.46.8-.531 1.568-1.015 2.29-1.684a2.46 2.46 0 01.246-.224zm-.063-.103c-.172-.224-.046-.028 0 0zM72.703 60.857c4-2.223 7.222-5.387 11.151-8.167a1003.93 1003.93 0 009.925-7.114c4.435-3.231 8.727-6.64 13.511-9.474.69-.409.312-.057.092-.22l.384-.014s.849-1.348-1.895.5c-.248.166-.52.352-.52.352-8.684 5.736-17.078 11.953-25.576 17.906-2.563 1.816-4.824 4.075-7.595 5.558l-.172.574c-.01-.003.442.237.695.1z" fill="#495260"/><path fill-rule="evenodd" clip-rule="evenodd" d="M72.647 62.2c-6.967-2.011-14.996 6.83-11.672 14.398 2.562 5.827 9.494 10.867 15.145 7.938 3.976-2.063 5.942-7.51 3.05-11.695-.301-.435-.416-.678-.486-1.034-.538-2.8-.9-5.743-2.992-7.905.004-.002-1.48-1.232-3.045-1.702zm2.14 6.911c-.42-.285-.138-.074-.452-.334l-.795-.345s-.537.182-.549.842c0 0 1.347 1.093 2.674 1.997.096.07 1.389 1.099 2.203 2.302.19.28-.061-.135.284.455.4.691.11.15.371.74l.208.538c.2.597.07.094.215.787.013.055.106.776.107.795.026.383.03-.05.013.59-.003.083-.112.965-.106.923-.115.54.054.013-.224.792-.019.049-.315.72-.328.738-.197.373.047-.044-.253.437l-.38.536c-.22.28.026-.021-.22.268l-.46.48c-.26.244.032-.02-.257.234l-.525.409c-.294.209.032-.012-.29.195l-.572.333c-.319.161.037-.011-.311.149l-.605.238c-.337.112.042-.006-.326.1 0 0-.599.135-.622.139-.562.087-.067.052-.806.074-.062 0-.749-.042-.774-.043-.576-.084-.063.04-.793-.173-3.218-.935-5.12-2.82-6.709-5.008-.703-.966-1.292-2.024-1.69-3.155-.026-.08-.2-.731-.2-.731-.055-.272.007.053-.049-.267a27.202 27.202 0 01-.08-.764c-.018-.454-.025-.037.004-.67 0-.047.056-.639.057-.653.031-.22.021-.129.02-.136.43-2.683 2.085-5.159 4.4-6.57.216-.13-.018.002.344-.194.044-.023.56-.266.576-.276.485-.202.135-.082.73-.262.292-.086 3.349-.584 5.208 1.051 1.425 1.252.558-.063 1.843 2.356.569 1.074 1.553 2.588.657 2.012-.471-.293-.498-.254-1.502-.903l-.036-.026z" fill="#495260"/><path fill-rule="evenodd" clip-rule="evenodd" d="M58.019 19.432c-5.921-1.666-12.265 1.12-17.127 4.714-2.556 1.887-4.94 4.25-5.993 7.093-1.535 4.142-.493 8.834.766 13.246 1.7 5.943 4.527 11.687 8.95 15.935 3.918 3.77 9.359 5.53 13.839 8.596 1.067.73 1.958 1.691 1.95 2.877l1.981.088c.08-2.528-2.402-4.536-4.415-5.606-3.777-1.98-7.667-3.828-10.87-6.6-5.453-4.715-8.498-11.812-10-19.055-.942-4.533-.8-9.287 3.09-12.925 5.572-5.217 13.722-8.866 20.024-4.773 6.555 4.258 8.478 13.287 10.105 21.34 1.115 5.577 1.93 11.32 1.515 16.883-.184 2.502-.238 1.425-.337 1.748-.03.097.065-.068.065-.068s.158 1.237.554-.06c1.108-3.617 1.008-7.015.871-10.541-.332-8.773-1.384-18.003-6.44-25.943-1.99-3.14-4.846-5.865-8.528-6.95z" fill="#495260"/><path fill-rule="evenodd" clip-rule="evenodd" d="M43.243 37.778c-1.342-.392-2.737-.61-4.133-.563l-.233.155s2.959.277 5.282 1.252c4.668 1.961 8.436 5.627 11.72 9.618 3.586 4.358 6.254 9.455 7.482 15.017.38.987.702 2 .932 3.026.18.794.11.186.11.186s.563 1.893.651-1.295c.026-.933-.123-2.294-.123-2.294-2.35-9.243-8.493-17.534-16.474-22.64-1.624-1.03-3.347-1.903-5.214-2.462zM64.84 66.494s-.281-.334-.006-.017c0 0 .014.026.006.017zm39.171 7.036c-3.319-.97-6.734-1.568-10.196-1.856-5.156-.426-10.536.949-15.32.108l-.615.403.403.611c4.948 1.154 10.132.087 15.345.574 9.23.894 19.768 2.803 23.8 11.466 2.838 6.083.358 14.143-3.207 19.145-.466.583-.924.509-.392.952l.381-.033s.218-.521-.003-.169c.093-.136 0 .277.609-.62 4.571-6.9 7.033-15.979 1.79-22.839-3.018-3.962-7.879-6.331-12.595-7.742z" fill="#495260"/><path fill-rule="evenodd" clip-rule="evenodd" d="M118.804 93.88c-.061.127.17-.367-.243.484-2.432 5.29-4.219 11.429-9.306 13.743-5.232 2.379-11.327 1.451-16.006-.488-6.154-2.55-10.996-7.582-14.027-13.581-1.451-2.875-2.791-5.84-4.907-8.257-.03-.03-1.362-1.1-2.598-1.697l-.567.078.109.562c.497.52.595.652.858.998.327.421.745 1.081.745 1.081.071.076.142.156.217.234 3.382 3.832 4.823 8.974 8.052 13.058 5.086 6.43 12.888 10.493 21.443 10.313 4.971-.104 10.02-2.054 12.689-7.214 1.434-2.773 2.742-5.457 3.762-8.488.103-.3-.063.218.295-.643.104-.245.16-.8-.365-.643 0 0-.158.469-.151.46zm.302.06c-.455-.252-.104.019 0 0z" fill="#495260"/><path fill-rule="evenodd" clip-rule="evenodd" d="M79.455 80.418l-.51 1.131-.028.393c8.94 3.954 17.439 9.199 23.475 17.042.918 1.053 1.752 2.175 2.621 3.271.076.096 1.019 1.186 1.019 1.186.924-.447.117-.325-.003-.671-.415-1.173-2.049-4.176-3.716-6.238-5.814-7.195-13.9-12.398-22.37-16.304.003.005.031-.34-.488.19zm26.231 22.652s-.006-.112.189-.154c0 0-.215.251-.189.154zM67.082 82.92c-.01.096-.39 1.073-.39 1.073-.9 2.707-1.694 5.515-2.828 8.202-2.621 6.209-5.733 12.413-9.651 17.497-.99 1.225-1.575 1.397-1.032 2.255.523.819 2.135.233 3.338-.067 2.358-.596 4.35-1.296 6.66-1.699 0 0 1.121-.113 1.742.886.167.266 1.662 5.049 2.282 7.21.284.991.411 2.258 1.344 2.448.176.035.55.43 1.195-1.046 3.403-7.898 4.486-16.673 4.227-25.34-.092-3.078-.594-6.184-1.298-9.143l-.393-.645c-.501-.926-.335-.11-.335-.11s-.582-.732-.487.209c.051.478.021-.129-.042.377 0 0 .234 2.207.363 3.766.033.404.063.807.09 1.209.61 9.284.08 18.847-3.093 27.486 0 0-.713-2.332-1.15-3.886a25.5 25.5 0 00-.34-1.107c-.09-.279-.193-.551-.299-.824a11.467 11.467 0 00-.284-.655c-.562-1.203-1.49-2.343-2.806-2.439-2.706-.199-5.333 1.244-8.344 2.009-.655.164-.282.088-.022-.262 5.554-7.53 9.463-16.298 11.947-25.184.359-1.272.394-.528.643-2.012.116-.69-.742-.744-.742-.744s-.33 1.036-.295.536c.001-.003-.003.01 0 0zm4.832 1.567c-.148.115-.345.044-.345.044s.375-.093.345-.044zm-10.269-8.184s-.927-.75-1.983-1.086c-9.755-3.11-21.028-2.412-29.768.154 0 0 1.383-2.155 2.722-3.878 1.956-2.512-.96-4.868-3.41-6.997 0 0-.466-.23-.107-.19 2.679.264 5.343-.165 8.286.27 8.193 1.234 17.003 2.44 23.148 6.51l.68.041s.005-.432-.367-.695c-7.209-4.968-16.61-6.268-24.936-7.4-2.438-.31-4.65.097-7.286-.201-1.161-.125-3.937-.335-.748 2.425 1.583 1.369 3.832 2.573 4.197 4.398.096.485-.696 1.1-.696 1.1-1.292 1.843-2.946 3.572-3.778 5.462-.179.404-.084.954.42 1.116.665.21 1.263-.34 1.803-.532 5.063-1.779 10.54-2.177 16.02-2.315 4.896-.123 9.936-.002 14.467 1.574l.499.204c.513.24.015.106.513.517.174.145.48-.083.48-.083s-.103-.305-.156-.394zm3.397 5.204c-.042.056-.037.05-.035.044l-.02.016s.527-.375-.751.565c-4.104 3.004-8.24 5.984-12.202 9.173 0 0-1.17.966-1.994 1.673-7.5 6.404-15.988 12.37-19.733 21.724-3.72 9.281-7.345 18.789-10.124 28.19l.443.839.84-.447c2.803-8.749 6.535-17.046 9.794-25.699 4.058-10.724 14.157-17.679 23.133-25.483 3.756-3.252 7.682-6.26 11.456-9.573l-.16-.989s.985-.257.341-.512c-.698-.267-1.064.587-.988.479z" fill="#495260"/><path fill-rule="evenodd" clip-rule="evenodd" d="M51.919 76.749c-5.963 3.723-11.04 6.55-16.3 10.029-4.458 2.947-9.013 5.843-12.875 9.453-5.659 5.296-6.852 13.931-8.695 20.122-1.504 5.02-2.683 10.207-4.626 15.581-.243.662-.124.308-.124.308l.055.859.856-.056c.584-.649.74-1.684 1.032-2.63.619-1.99 1.151-4.008 1.74-6.008 0 0 1.048-2.822 1.8-4.961 2.29-6.522 3.677-13.359 7.05-19.465.016-.025.595-.92.605-.928 4.386-5.903 11.68-9.756 17.794-13.881 4.5-3.037 9.282-5.892 13.577-8.976 1.131-.803.835-.55.868-.574.805-.465.268-.173.648-.308.4-.14.303-.06.303-.06l.269-.272-.272-.27c-1.284-.02-2.2 1.038-3.636 1.989a.365.365 0 01-.07.048zM31.16 114.405c-.028.436.26.221.03.771 2.993 2.277 5.82 4.671 9.188 6.545 20.147 11.215 46.614 10.628 67.889 3.084 13.697-4.853 26.483-13.28 34.273-25.401.595-.934.922-1.563 1.356-2.385a48.281 48.281 0 002.564-5.833c2.717-7.44 2.852-15.834-.652-22.885-3.061-6.173-8.048-11.184-13.942-14.766-8.655-5.234-17.804-10.175-23.752-17.684-.67-.85-1.075-1.637-1.075-1.637-.421-.77.092-.253-.345-.076l.182-.335s-.316-.337-.498-.064c-.486.733.488 1.64 1.218 2.733 3.311 4.962 7.918 8.997 12.753 12.573l.058.047c4.918 3.291 10.332 5.878 14.805 9.456 8.764 7.003 13.293 18.898 9.143 30.187-7.184 19.541-27.791 31.937-47.777 36.547-19.493 4.498-41.151 3.21-57.494-6.486-2.385-1.417-4.514-3.219-6.785-4.853l-.424.148.159.493c-.345-.207-.83-.377-.875-.179z" fill="#495260"/><path fill-rule="evenodd" clip-rule="evenodd" d="M76.309 1.66C59.519-3.29 41.11 6.954 28.627 24.8 18.131 39.802 11.494 57.323 13.011 75.632a61.51 61.51 0 006.819 23.412s.65.578 1.425.931l.095-1.6a21.9 21.9 0 01-.252-.51c-8.215-17.001-7.407-38.33.57-55.397C29.04 26.694 39.17 11.463 55.66 4.678a29.475 29.475 0 0113.786-2.103c10.918.975 20.883 7.364 27.576 15.644 3.032 3.75 5.21 8.126 7.224 12.536 1.728 3.735 4.283 7.03 7.125 10.1.292.3.571.484.571.484s.639.508.608-.106c-.035-.78-.665-.688-.734-.771-1.703-2.05-3.429-4.087-4.715-6.463-2.909-5.382-4.32-11.339-8.441-16.774-5.35-7.057-13.132-12.623-21.733-15.37a20.468 20.468 0 00-.618-.195z" fill="#495260"/><path fill-rule="evenodd" clip-rule="evenodd" d="M23.252 35.362c-.073.094.466-.62-.597.725C14.633 46.337 8.972 58.598 7.113 71.05c-1.775 11.877-.397 25.627 6.35 36.143.58.881 1.313 1.67 1.885 2.566l.35.643c.154.368.064.103.107.331l.735.505.502-.736c-.243-1.412-1.188-2.294-2.19-3.738-.34-.497-.366-.592-.503-.824-8.2-14.244-6.763-33.561-2.162-47.067 2.722-7.994 6.249-15.785 11.058-22.5.66-.92.92-1.26.92-1.26s.49-.66-.109-.62c-.595.04-.817.887-.805.87zm.814-.327c-.432-.329-.24-.026 0 0z" fill="#495260"/><path fill-rule="evenodd" clip-rule="evenodd" d="M140.424 107.17c-.612-.121-.533.625-.503.525-.774 1.188-.838 2.04-1.069 2.892-1.76 6.337-3.706 12.675-6.621 18.558-4.561 9.195-14.684 14.605-24.176 18.533-11.577 4.79-23.972 7.377-36.524 8.112-10.376.604-21.182-1.095-30.606-4.061-10.093-3.176-19.494-8.784-27.154-16.022a29.761 29.761 0 01-2.534-2.731c-8.63-10.595-9.776-25.762-8.633-37.55.906-9.376 3.662-18.547 6.719-27.554 0 0 .67-2.697 1.276-5.052l.163-.628-.2-.495-.474.242a209.032 209.032 0 00-2.15 4.413s-.381.893-.71 1.836C1.964 83.474-1.843 99.334 1.41 116.012c1.727 8.848 5.799 17.334 13.036 23.346 10.072 8.364 22.004 14.599 35.306 16.721 8.23 1.274 16.473 2.322 24.805 1.524 14.785-1.412 29.311-5.211 42.427-12.126 4.801-2.533 9.447-5.587 12.86-9.72 5.129-6.209 7.216-14.513 9.511-22.243.444-1.49.85-2.988 1.223-4.496 0 0 .424-1.365-.044-1.789a.326.326 0 00-.11-.059zm.02.531l-.293-.031s.342-.008.293.031z" fill="#495260"/></svg>