<svg width="174" height="200" fill="none" xmlns="http://www.w3.org/2000/svg"><path fill-rule="evenodd" clip-rule="evenodd" d="M127.094 52.81l.236.333s.055.774-1.118-.23c-.513-.439-1.178-1.115-1.178-1.115-.853-.931-.666-.69-.963-.959l-.799-.817c-.585-.792-1.25-1.534-2.02-2.157a42.927 42.927 0 00-.765-.54c-.585-.377-.003-.069-.865-.472a9.641 9.641 0 00-1.84-.643c-.417-.096.063-.015-.571-.103 0 0-.896-.062-.925-.061-1.076.023-.376-.01-.837.104l-1.253 1.363c-.14 1.103-.06.411.005.824l.259.822c.121.231.1.185.1.185l-.242 1.19-1.163-.201c-1.713-2.314-.344-6.498 3.521-6.649 3.401-.135 6.527 1.624 8.76 4.412l.971 1.939c.255.812.236.821.236.821.048.216.099.428.15.647.656 2.69.048 1.185.301 1.306z" fill="#495260"/><path fill-rule="evenodd" clip-rule="evenodd" d="M131.841 55.943l.228-1.194c-.085-.905-.069-.488-.115-.626-.457-1.458.025-.49-.855-1.598l-.349-.387c-.44-.423.034-.021-.705-.631-.128-.107-3.745-2.203-6.308-3.426-.801-.385-.338-.182-.746-.288l-.687-.284s.809-.476 1.741-.28c1.042.225 2.423.667 2.365.64.457.109.914.218 1.37.338 3.389.884 7.375 3.034 6.775 7.412-.39 2.886-3.609 4.916-6.409 5.445 0 0-.111.133-.557-.383l.042-2.065c.282-.053-.079.02.297-.058.048-.01.6-.16.6-.16.556-.175.162-.038.607-.212l.549-.246c.511-.259.15-.06.537-.298l.664-.489c.931-.814.397-.36.644-.689.464-.628.159-.202.312-.521z" fill="#495260"/><path fill-rule="evenodd" clip-rule="evenodd" d="M69.26 33.257c.007-.001.837-.461 1.853-.4 3.213.205 5.854.71 8.566 1.33l.23.056c10.01 3.146 19.397 7.902 28.624 12.687 10.128 5.248 19.562 11.497 28.342 19.211 10.655 9.383 21.533 18.579 30.909 29.358l.242.749s-.312.681-.36.727l-.742.268-.7-.325c-10.764-12.196-23.465-22.9-35.915-33.27-9.799-8.157-21.396-13.93-32.753-19.412-5.973-2.883-12.022-5.589-18.396-7.634 0 0-4.03-1.518-6.332-2.214a45.9 45.9 0 00-1.556-.444c-2.049-.538-.158-.236-1.899-.153-.322.009-.755-.124-.696-.57l.313-.283c.003-.01.269.234.27.319z" fill="#495260"/><path fill-rule="evenodd" clip-rule="evenodd" d="M69.278 33.627s-.938 2.288-1.517 3.397c-.47.897-1.194 2.117-1.194 2.117-.506.798-1.256 1.92-1.256 1.92-2.641 3.525-5.518 6.853-7.75 10.556l-1.031.307s-.424-.742-.04-1.428c2.09-3.69 4.842-7.032 7.325-10.413 0 0 2.637-3.308 3.659-4.776 2.179-3.133 1.14-2.1 1.597-2.027.127.034.14.229.207.347z" fill="#495260"/><path fill-rule="evenodd" clip-rule="evenodd" d="M56.8 51.56l4.166.805c24.04 8.69 45.828 23.034 66.703 37.345 9.615 6.593 18.979 13.709 26.084 22.996l.168.661-.349.611-.652.19-.583-.322c-9.575-12.486-23.314-21.14-36.376-29.74-17.605-11.582-35.38-22.753-55.564-30.084L58.21 52.88c-1.51-.686-1.607-.423-1.897-.979l.112-.405c-.007-.005.459.188.374.063z" fill="#495260"/><path fill-rule="evenodd" clip-rule="evenodd" d="M166.647 96.008l.812.59s-.473-.84.111-.673l.434 1.043c-.073.114-.153.224-.229.343-.23.336-.093.147-.093.147-3.237 6.111-7.473 11.907-12.872 16.131l-1.153.587c-.161-.079-.319-.162-.474-.242l-.447-.69c-.059-.705-.663.181.697-1.325 0 0 .246-.204.431-.345 5.049-4.041 8.663-9.648 12.203-14.82.205-.297.371-.494.58-.746zm3.46-50.962c-.187-.432-.039-.125-.274-.577-.203-.403-.051-.124-.277-.491l-.48-.65c-.334-.376-.079-.11-.381-.389l-.606-.481c-.419-.282-.019-.033-.465-.282-.297-.168-.026-.032-.484-.243-.15-.071-3.591-.919-6.09-.95-11.389-.122-22.63 3.514-33.261 7.897-1.899.779-.808.679-1.561.807-.192.033-.36-.117-.37-.315 0 0 4.83-2.501 9.131-4.133 9.734-3.691 20.111-7.233 30.003-5.968 2.812.36 5.554 1.704 6.935 4.411 2.685 5.264 1.263 11.904-.225 17.303-1.11 4.037-2.946 7.992-6.117 10.756-6.034 5.258-15.839 3.402-22.619.33a44.342 44.342 0 01-3.665-1.873l-.28-.54s.83.02 1.657.367c1.166.481 2.349.912 3.554 1.287 5.109 1.593 10.622 2.534 15.902.582 7.16-2.65 9.849-12.384 10.655-19.471.275-2.44.266-4.95-.598-7.186a1.274 1.274 0 01-.084-.19zm-43.825 4.07c.612.327-.331-.11 0 0z" fill="#495260"/><path fill-rule="evenodd" clip-rule="evenodd" d="M155.552 53.1c.507.41.988.847 1.439 1.314 2.89 3.006 4.546 7.658 2.849 11.895l-.248.126s.025-.694-.002-.608c.683-2.43.353-1.565.355-2.544l-.04-.822c-.032-.317-.035-.307-.031-.274-.002-.013-.052-.386-.097-.605-1.093-5.762-7.035-9.405-12.498-9.879-1.538-.132-3.086-.105-4.629-.027 0 0-4.353.117-6.815.288-1.731.127-2.344.282-3.588.446-.563.075-.49-.403-.49-.403s2.585-1.013 4.831-1.49a82.2 82.2 0 013.161-.573c1.139-.133 2.747-.25 2.747-.25 4.532-.09 9.203.481 12.822 3.222l.234.184z" fill="#495260"/><path fill-rule="evenodd" clip-rule="evenodd" d="M156.221 54.659c-.028.174.029-.358-.039.617-.267 3.392-3.829 6.188-6.897 7.13-3.359 1.036-7 .662-10.436-.2-1.699-.437-3.31-1.066-4.905-1.76-.16-.072-1.356-.85-2.326-1.648l-.28-.743.772-.226.533.122c.679.141 1.685.324 1.685.324 4.946 2.006 10.43 3.537 15.402 2.145.725-.203.305-.075.856-.296l.982-.465c1.363-.767.643-.352 1.231-.81l.826-.731c.734-.76.46-.411 1.084-1.36 0 0 .499-.874.507-.885.143-.298-.001.016.211-.465.106-.237-.088.395.158-.755.37-1.564.614.084.636.006zM114.689 2.34c5.24 4.21 6.998 11.973 8.455 19.238 1.031 5.148 1.942 10.333 1.969 15.667.017 3.14-.533 6.28-.818 9.39l-.031.338-.732.656-.623-.715c.343-4.8.925-9.46.381-14.363-.723-6.546-1.914-13.092-4.017-19.266-1.204-3.543-2.871-7.11-5.795-9.424-2.501-1.98-6.365-1.08-9.675.01-3.032 1.02-6 2.279-8.898 3.676-.656.317-.502.545-.96.458-.343-.067-.278-.39-.092-.547l.27-.031s-1.256.617 1.068-.915c2.68-1.766 5.509-3.33 8.436-4.603 3.112-1.354 7.77-2.035 10.896.3.06.048.113.09.166.13zM94.245 7.885c.04-.742-.164.18 0 0z" fill="#495260"/><path fill-rule="evenodd" clip-rule="evenodd" d="M104.496 3.025c-.161.022-.096.02-.096.02-.289.106-.582.209-.867.317-5.37 2.024-10.908 4.801-13.5 9.66-.02.033-.324.69-.324.69-.158.376.006-.036-.146.368 0 0-.248.797-.253.818-.149.59 0-.619-.226 1.183a9.867 9.867 0 00-.08 1.31c.015 5.14 2.961 9.897 5.938 13.886 4.9 6.565 11.402 11.717 18.191 16.395l.156.835-.835.176c-9.334-6.004-18.552-12.73-23.519-23.27-2.878-6.11-2.59-14.009 5.46-18.95 3.024-1.863 6.435-3.09 9.844-4.044 1.667-.432.489.099.601-.015-.341.391.177-.182.177-.182s1.196.648-.463.801c-.081.002-.068 0-.058.002z" fill="#495260"/><path fill-rule="evenodd" clip-rule="evenodd" d="M94.185 16.01c.74.813-.56-.203 1.395-.771 5.889-1.658 12.271.049 16.452 5.287 5.658 7.087 9.17 15.996 8.687 24.74l-.65.654-.619-.64c-.007-.974-.03-1.17-.073-1.728-.747-9.073-5.124-18.132-10.764-23.939-3.276-3.375-8.274-4.643-13.216-3.58-.364.078.185-.097-.782.427-.288.149-.68.227-.902-.096l.069-.415c-.006.007.426.09.403.061z" fill="#495260"/><path fill-rule="evenodd" clip-rule="evenodd" d="M106.886 16.954c-.995-.044-.597.192-.727.285-.307.223-.002-.013-.301.245l-1.198 1.372c-1.049 1.351-.769 1.155-.959 1.5l-.416.79c-.33.603-.062.058-.343.693l-.381 1.074c-.152.558-.059.156-.174.761 0 0-.152 1.527-.152 1.556-.037 5.095 3.03 9.756 6.06 13.977 1.683 2.343 3.535 4.588 5.881 6.27l.308.985-.886.195c-5.129-3.2-7.374-6.758-10.218-11.28-2.931-4.66-4.967-10.67-2.005-15.695 1.141-1.933 3.896-4.138 5.736-3.306l.207.377c-.009.005-.499.185-.432.201zM62.346 53.74l.085.132s.731-.924.546 1.118c0 0-.953 1.462-1.945 2.864 0 0-3.609 4.5-6.097 7.676-6.57 8.427-12.597 17.34-19.064 25.926C24.069 107.12 11.774 122.428 1.999 139l-.711.28-1.071-.603-.115-.75c10.436-18.229 23.728-34.691 36.174-51.62 7.408-10.076 14.917-20.12 22.851-29.692l2.444-2.61c.083-.025.164-.056.243-.083.715-.24.395-.118.532-.182zm.424.356s-.678-.134-.087.015c0 0 .117-.003.087-.015zm52.236-2.274s.076 1.017.001 1.148c-.752 1.294-1.819 2.44-2.74 3.673 0 0-2.658 3.363-4.782 6.3-7.981 11.01-15.518 22.298-23.998 33.047l-.598.755c-13.06 16.269-26.321 32.756-37.293 50.094-2.709 4.244-5.592 8.47-8.273 12.707-.755 1.172-1.7 2.224-2.428 3.413-.397.644-.16.248-.365.676l-.136.327-1.06.511-.464-1.048c.654-1.751 2.014-3.162 2.98-4.697.9-1.432 1.494-2.458 2.234-3.619 4.226-6.678 8.35-13.43 12.755-19.973 9.287-13.801 19.705-26.778 30.006-39.853 10.19-12.942 19.176-26.753 29.666-39.639 0 0 1.445-1.724 2.867-3.264.273-.29-.82-.05 1.338-1.172.318-.166.763-.09.805.27l-.155.395c-.006.007-.46-.1-.36-.051zm10.993 9.31s-2.325 2.851-3.808 4.813c-8.283 10.963-15.956 22.25-24.204 33.098-6.012 7.903-12.043 15.796-18.013 23.727l-2.485 3.266a645.695 645.695 0 00-2.479 3.266c-8.596 11.371-16.456 22.874-24.88 34.79-1.558 2.159-3.594 3.972-4.898 6.282-.268.479-.107.172-.306.615l-.116.278-.764.369-.337-.758c1.244-3.457 4.298-6.152 6.258-9.208 8.616-13.429 17.707-26.776 27.208-39.714l.3-.411c12.363-16.532 24.709-33.428 37.171-49.436 1.92-2.468 4.025-4.697 6.128-6.938 0 0 2.14-2.522 4.42-4.434 2.756-2.192 2.235-.741 1.833-.361-.357.338-.968.702-.891.655l-.137.1zm.613-.993c-.012-.057.219.516 0 0z" fill="#495260"/><path fill-rule="evenodd" clip-rule="evenodd" d="M93 69.436c.3.063-.357.004-.357.004-.708.056-.398.128-1.534.133-12.916-.015-25.974.4-39.113.721-1.082.03-2.464.413-2.705-.096 0 0-.198-.323.324-.442 0 0 3.067-.118 5.688-.235 11.855-.55 23.763-1.126 35.503-1.274 1.255-.025 2.136-.528 2.893.002l.142.955c-.004-.003-1.288.118-.84.232zM90.565 84.26l.13.256-.205 1.485s-.012.365-.93.34c-5.048-.113-9.987.954-15.575 1.178-10.104.405-20.173.8-30.232 1.3 0 0-3.592-.11-5.238-.125-2.068-.019-1.108.063-1.028-.338.069-.35.786-.084.368-.221 0 0 2.949-.68 5.61-1.112 0 0 4.477-.305 8.26-.526 2.503-.15 5.004-.356 7.498-.53 0 0 1.729-.112 3.105-.196 5.994-.357 11.987-.638 17.986-.95 3.37-.199 6.735-1.023 10.1-.734.003.003.102.074.15.172zm-52.576 4.36l.055-.325s-.141.406-.055.325zm81.316-3.373l-.653.664c-.254.009-.497.02-.75.03-3.296.11-6.608.248-9.888.223-.229-.008-.459-.028-.695-.047a5.054 5.054 0 00-.243-.019c-1.318-.107.136-.523.136-.523l-.218-.61s-.303 1.07-.649.637c0 0-.323-.587.371-.867l1.268-.158c.197.012.144.006.144.006 3.496.035 6.994.06 10.475.035.009-.004.437.361.702.629zm-95.433 21.469s.833-1.069 2.413-1.392c12.131-2.438 24.72-2.306 37.787-2.47l.277-.002c2.958-.002 5.918.023 8.877.058l2.156.415c.385.195.686.533 1.028.796l-1.096.791-1.588.399c-.902.012-1.804.017-2.705.028-12.738.167-25.556.312-37.733.908-2.567.123-5.14.457-7.708.871-.381.063.27-.044-1.192.52 0 0-1.35-.014-1.126-.795l.232-.353c.013-.001.397.318.378.226zm119.713-4.473l-.076 1.385s.055.441-1.03.416c-2.102-.04-4.208.238-6.315.212 0 0-4.797-.213-8.92-.324-10.63-.289-21.162-.024-32.017.148-.306-.003-.606-.066-.903-.132l-.25-.054c-2.354-.505-.51-.567-.51-.567l-.277.317s-1.309-.737.87-1.349c.212.029.416.076.621.113.98.187.337.074.509.066 13.394-.667 26.72-1.015 40.133-.592 0 0 4.328-.042 6.858.072.625.028 1.205-.07 1.307.289zm-83.158 21.433c-.587-.098-.1-.026-.407-.029-.068 0-.907.15-2.27.108-11.345-.338-22.754-.174-35.852.393-2.543.114-5.087.25-7.623.487 0 0-.91-.03-.762-.058-1.096-.01-2.355.261-3.193-.224l-.146-.317.936-.353c.518-.217-.218.138.933-.438.933-.432 1.96-.785 1.96-.785 13.84-1.643 27.782-.947 41.093-1.342a54.2 54.2 0 013.098-.004c.268.008-.064.009.274.001 1.146-.039 2.386-.183 3.255.327 0 0 .057.022-.056.45-.003-.003-1.4 1.754-1.24 1.784zm82.732-2.868l-.805.878c-17.926 1.216-36.131-.147-54.055 1.125-.517.016-1.036.036-1.551.059-2.025.087-4.052.177-6.072.266 0 0-1.137-.315-1.154-.323-1.31-.422-.312-.316-.312-.316l-.344.241s-.744-.21.256-.821c.52-.312 1.327-.7 1.327-.7a87.449 87.449 0 012.024-.188 318.181 318.181 0 014.964-.53c18.375-1.796 36.483.53 54.878-.467.283.259.56.518.844.776zm-92.367 17.149c-.645.195-1.29.383-1.938.559-5.15 1.453-10.853 1.118-16.727 1.372-8.198.351-16.364.785-24.654 1.568l-3.613-.251c-1.84-.417-.047-.602.18-.667 6.198-1.766 8.716-1.774 13.01-2.188 10.302-.992 20.649-1.129 30.623-2.271 0 0 1.616.033 2.941.057l1.069.774-.891 1.047zm-46.715 3.168c.382-.603-.482.228 0 0zm125.699-4.14c-.087.918-.021.922-.253 1.822-15.965-.816-31.742-1.17-48.023-.629-3.513.125-7.02.242-10.547.378l-.358.004c-.38-.061-.762-.129-1.14-.188-.525-.08-1.312-.186-1.322-.188-1.716-.189-.454-.149-.454-.149l-.406.109s-.985-.333.949-.859c.514-.137 1.03-.255 1.542-.376a16.766 16.766 0 011.184-.211c7.417-.697 14.85-1.16 22.306-1.338.38-.01 1.094-.032 1.472-.032 11.469-.081 22.974.346 34.375 1.109-.002.004.616-.325.675.548zm-92.922 20.63c-3.338-.512-6.782.326-10.328.092-.793-.053-.317-.623-.317-.623s2.193-.228 3.605-.475c2.478-.431 4.935-1.069 7.398-.942.224.158.44.321.643.499l.516.691-1.428.769a.337.337 0 01-.089-.011zm78.797-1.958l-.753.77c-.422.013-.844.026-1.264.036-15.665.376-31.136-1.14-47.07.131-2.604.207-5.205.453-7.806.669 0 0-3.635.528-4.68-.363-.795-.685.418-.54.297-.546.232-.032-.524.129.827-.201 7.241-1.82 14.683-1.937 21.953-2.083 12.509-.246 25 1.117 37.452.856l.302-.006c.253.252.499.493.742.737zm-61.18 1.224s.151-.018.095-.318c0 0-.193.384-.095.318zm49.448 13.194l-.911.723c-6.536-.687-13.31.757-19.993 1.364-10.5.967-20.99 2.269-31.52 3.332l-3.007-.169-.31-.267.276-.324c.972-.283 2.405-.709 2.405-.709 12.042-1.248 23.89-2.779 36.148-3.851 5.365-.488 10.691-1.531 15.958-1.026.8.081.672.557.954.927zm-14.357 16.274c-7.121 1.136-14.308 2.399-21.505 3.005l-1.49-.2a3.022 3.022 0 01-.676-.246s-1.288-.714.542-.757c.82-.016-.924.332 1.384-.399 7.205-.464 14.434-1.563 21.519-2.449l.702.439-.476.607z" fill="#495260"/><path fill-rule="evenodd" clip-rule="evenodd" d="M150.277 110.737c-1.321 3.248-4.273 5.827-6.353 8.687-2.944 4.071-5.783 8.196-8.676 12.325l-.142.203c-16.768 22.891-36.54 43.649-54.232 66.028-.161.206-.407.512-.407.512l-.613.351-.673-.178-.325-.605.199-.676c17.614-22.476 37.389-43.166 54.383-66.207 0 0 2.796-3.7 5.097-6.731a342.145 342.145 0 012.948-3.836c2.482-3.175 5.598-5.905 7.759-9.218l.386-.659.106-.215s.256-.53.543.219z" fill="#495260"/><path fill-rule="evenodd" clip-rule="evenodd" d="M.894 139.03c.37 1.052.911.727.813.663 1.979 1.202 4.066 2.223 5.823 3.395 20.117 13.395 38.384 28.945 58.31 44.74 0 0 3.158 2.652 5.896 4.766 2.629 2.028 5.479 3.862 8.066 5.805 0 0 .285.271.226.593-.162.848-1.903-.235-1.92-.242a137.628 137.628 0 01-13.025-8.902s-1.816-1.467-3.132-2.56c-16.099-13.378-32.53-26.572-48.978-39.237-2.893-2.224-5.829-4.392-8.904-6.355-1.611-1.022-1.907-.987-2.48-1.336-.531-.321-1.153-.673-1.27-1.187l.22-.361c.004.002.337.169.355.218z" fill="#495260"/></svg>