<svg width="84" height="110" fill="none" xmlns="http://www.w3.org/2000/svg"><path fill-rule="evenodd" clip-rule="evenodd" d="M31.812 23.513h.229s.372.225-.467.437c-.367.093-.891.178-.891.178-.703.09-.531.082-.75.131l-.634.101a6.523 6.523 0 00-1.64.227c-.033.01-.479.167-.495.175-.361.146-.032-.02-.495.243a5.402 5.402 0 00-.89.634c-.178.16.014-.034-.232.228 0 0-.318.39-.327.404-.338.5-.126.168-.223.416l.218 1.015c.46.42.17.16.379.264l.46.147c.145.02.117.015.117.015l.466.495-.468.468c-1.613.035-3.085-1.946-1.904-3.763 1.039-1.6 2.855-2.461 4.853-2.581l1.202.183c.454.146.452.157.452.157.114.048.228.094.345.14 1.443.571.557.362.695.286z" fill="#5B5B5B"/><path fill-rule="evenodd" clip-rule="evenodd" d="M34.781 22.354l-.472-.49c-.441-.255-.246-.127-.323-.15-.816-.263-.217-.17-1.009-.126l-.29.034c-.335.065.002-.022-.517.119-.09.024-2.22 1-3.608 1.778-.436.242-.193.096-.373.248l-.352.223s.043-.524.435-.887c.44-.405 1.089-.894 1.057-.876.198-.174.396-.348.598-.517 1.502-1.265 3.775-2.394 5.584-.703 1.195 1.112 1.083 3.242.419 4.695 0 0 .025.093-.356.13l-.931-.687c.067-.145-.016.043.07-.154l.12-.326c.1-.312.035-.087.1-.347l.064-.331c.048-.317.021-.088.038-.342l-.009-.462c-.071-.69-.036-.298-.107-.518-.137-.415-.041-.138-.138-.311z" fill="#5B5B5B"/><path fill-rule="evenodd" clip-rule="evenodd" d="M4.153 43.653c.002-.003.06-.532.417-.977 1.133-1.404 2.219-2.45 3.38-3.49l.1-.087c4.678-3.563 9.892-6.32 15.066-8.994 5.679-2.937 11.59-5.233 17.961-6.755 7.742-1.84 15.469-3.844 23.435-4.647l.421.132s.211.363.217.4l-.118.426-.375.215c-9.064.98-18.071 3.33-26.845 5.672-6.903 1.845-13.297 5.285-19.48 8.708-3.252 1.801-6.447 3.694-9.445 5.95 0 0-1.999 1.352-3.062 2.18-.237.186-.475.374-.706.57-.91.762-.16-.005-.685.818-.1.15-.3.306-.486.134l-.028-.235c-.004-.004.194-.046.233-.02z" fill="#5B5B5B"/><path fill-rule="evenodd" clip-rule="evenodd" d="M4.329 43.765s.743 1.17 1.063 1.793c.258.505.583 1.231.583 1.231.201.49.472 1.196.472 1.196.758 2.35 1.35 4.742 2.323 6.962l-.193.571s-.477-.046-.666-.443c-1.012-2.15-1.652-4.491-2.396-6.722 0 0-.66-2.277-1.002-3.22-.728-2.01-.592-1.2-.41-1.386.056-.047.15.01.226.018z" fill="#5B5B5B"/><path fill-rule="evenodd" clip-rule="evenodd" d="M8.498 55.277l1.716-1.646c11.755-8.19 25.368-13.52 38.67-18.443 6.128-2.267 12.414-4.25 18.963-4.497l.357.137.167.358-.125.36-.335.162c-8.812.342-17.218 3.83-25.378 7.025-10.997 4.31-21.86 8.83-31.745 15.694l-1.23.632c-.802.469-.713.598-1.061.552l-.15-.183c-.004.002.235-.149.15-.15z" fill="#5B5B5B"/><path fill-rule="evenodd" clip-rule="evenodd" d="M64.377 19.388l.533-.18s-.537-.056-.272-.27l.617.14c.03.07.053.142.083.215.08.214.038.09.038.09 1.749 3.459 3.03 7.273 3.217 11.11l-.104.717c-.089.049-.178.094-.264.14l-.46-.02c-.343-.2-.133.363-.382-.747 0 0-.014-.179-.018-.309-.216-3.618-1.613-7.086-2.834-10.38-.07-.189-.106-.328-.154-.506zM42.175 1.317c-.258-.054-.07-.023-.353-.061-.25-.038-.073-.017-.314-.032l-.453.009c-.28.031-.076 0-.3.049l-.417.121c-.265.1-.022-.002-.28.122-.173.081-.023.001-.268.142-.08.046-1.582 1.347-2.404 2.48-3.741 5.173-5.714 11.493-7.148 17.776-.258 1.121.05.59-.135.976-.047.098-.17.127-.264.067 0 0 .418-3.02 1.063-5.516 1.46-5.648 3.196-11.543 6.975-15.66C38.952.619 40.454-.2 42.14.043c3.277.474 5.856 3.273 7.845 5.7 1.488 1.815 2.704 3.935 2.943 6.28.455 4.462-3.567 8.349-7.166 10.458a24.89 24.89 0 01-2.044 1.071l-.337-.047s.278-.373.704-.639c.597-.378 1.177-.78 1.739-1.21 2.382-1.823 4.596-4.041 5.41-7.089 1.104-4.134-2.48-8.514-5.462-11.176-1.029-.915-2.18-1.723-3.482-2.05a.78.78 0 01-.115-.024zM29.859 22.69c.348-.175-.158.115 0 0z" fill="#5B5B5B"/><path fill-rule="evenodd" clip-rule="evenodd" d="M41.152 10.584a8.87 8.87 0 011.066-.234c2.311-.35 4.976.398 6.366 2.545l-.023.154s-.31-.236-.279-.196c-.89-1.098-.602-.668-1.049-.985l-.39-.248a6.31 6.31 0 00-.444-.226c-2.99-1.364-6.579.177-8.563 2.524-.558.66-1.047 1.378-1.51 2.109 0 0-1.355 2.03-2.073 3.212-.502.833-.63 1.164-.957 1.786-.147.282-.343.094-.343.094s.373-1.51.881-2.692c.293-.678.76-1.632.76-1.632.309-.565.775-1.338.775-1.338 1.425-2.104 3.198-4.056 5.623-4.826l.16-.047z" fill="#5B5B5B"/><path fill-rule="evenodd" clip-rule="evenodd" d="M42.081 10.782c.071.069-.154-.13.27.217 1.467 1.22 1.593 3.754 1.032 5.463-.613 1.872-1.962 3.417-3.468 4.711-.75.636-1.559 1.17-2.392 1.675-.085.05-.828.346-1.507.532l-.43-.112.146-.427.228-.205c.284-.265.694-.666.694-.666 2.517-1.614 4.992-3.629 5.964-6.354.142-.398.064-.164.141-.488l.105-.6c.09-.871.047-.407.028-.825l-.067-.614c-.11-.582-.04-.344-.272-.936 0 0-.239-.511-.241-.519-.09-.162.007.006-.145-.247-.074-.125.153.168-.294-.316-.596-.676.237-.254.209-.29zM4.702 12.861c3.622-1.036 7.743.671 11.54 2.355 2.689 1.194 5.356 2.455 7.806 4.168 1.443 1.008 2.702 2.275 4.033 3.412l.144.124.063.547-.528.054c-2.086-1.71-4.03-3.484-6.45-4.822-3.229-1.787-6.61-3.36-10.116-4.394-2.01-.595-4.182-.987-6.188-.397-1.715.503-2.553 2.563-3.125 4.43C1.367 20.057.983 21.822.684 23.6c-.066.402.087.406-.1.587-.142.136-.269.001-.28-.135l.073-.134s-.124.775-.074-.784a31.54 31.54 0 01.623-5.35c.387-1.862 1.583-4.214 3.663-4.889l.113-.034zM.625 24.011c-.326-.258.03.133 0 0z" fill="#5B5B5B"/><path fill-rule="evenodd" clip-rule="evenodd" d="M1.718 17.747c-.042.081-.022.05-.022.05-.045.167-.092.334-.135.5C.75 21.41.229 24.843 1.614 27.6c.008.02.21.372.21.372.122.194-.014-.014.122.186l.292.38c.222.26-.283-.2.469.486.181.168.374.32.574.46 2.356 1.657 5.486 1.848 8.275 1.776 4.59-.119 9.051-1.427 13.388-3.021l.433.199-.19.44c-5.767 2.328-11.828 4.37-18.258 3.234-3.727-.66-7.249-3.347-6.906-8.63.126-1.986.669-3.944 1.335-5.813.341-.903.203-.192.187-.28.069.283-.026-.14-.026-.14s.684-.338.217.471c-.026.038-.022.031-.018.027z" fill="#5B5B5B"/><path fill-rule="evenodd" clip-rule="evenodd" d="M4.324 26.667c.612-.076-.274.191.099-.888 1.147-3.231 3.992-5.6 7.742-5.818 5.074-.296 10.287.979 14.132 4.028l.09.51-.494.076c-.448-.312-.545-.365-.814-.526-4.394-2.593-9.956-3.521-14.438-2.82-2.604.408-4.802 2.285-5.914 4.891-.082.192.015-.116-.057.496-.026.18-.117.384-.336.382l-.168-.166c.001.005.18-.166.158-.165z" fill="#5B5B5B"/><path fill-rule="evenodd" clip-rule="evenodd" d="M8.866 21.16c-.342.442-.106.335-.105.425.003.213-.006-.003.015.217l.24.992c.279.918.28.726.375.924l.228.446c.17.346.006.048.206.382l.369.521c.206.25.052.078.291.326 0 0 .65.564.663.573 2.32 1.665 5.445 1.77 8.357 1.749 1.617-.012 3.243-.133 4.772-.663l.55.178-.197.468c-3.124 1.312-5.479 1.188-8.468 1.027-3.08-.167-6.49-1.179-7.831-4.16-.516-1.148-.633-3.122.343-3.695l.24.027c-.001.006-.078.289-.048.264zm2.424 32.284l.088.004s-.187-.634.688.112c0 0 .36.91.681 1.817a606 606 0 001.54 5.273c1.731 5.733 3.86 11.375 5.697 17.112 3.35 10.469 6.378 21.047 10.8 30.883l-.103.416-.622.295-.38-.191c-4.966-10.673-8.2-22.082-11.92-33.255-2.214-6.65-4.381-13.335-6.195-20.063l-.403-1.963c.015-.045.027-.093.04-.138.121-.405.074-.218.089-.302zm.3-.079s-.281.267-.021.045c0 0 .036-.055.02-.045zm15.859-24.64s.49.294.526.37c.348.763.528 1.623.794 2.443 0 0 .68 2.304 1.337 4.227 2.456 7.214 5.183 14.315 7.358 21.673l.152.518c3.22 11.24 6.475 22.643 10.86 33.273 1.065 2.613 2.066 5.3 3.138 7.897.292.725.468 1.498.776 2.215.167.391.062.154.191.386l.106.168-.109.651-.63-.127c-.59-.866-.795-1.944-1.185-2.883-.364-.876-.641-1.48-.933-2.193-1.69-4.095-3.445-8.166-5.014-12.3-3.311-8.714-5.88-17.68-8.53-26.624-2.626-8.851-6.039-17.431-8.542-26.4 0 0-.321-1.22-.566-2.368-.045-.22-.288.359-.104-.992.027-.2.205-.378.384-.281l.13.199c.002.005-.193.178-.14.148zm7.817-2.019s.553 1.987.97 3.3c2.338 7.337 5.021 14.5 7.317 21.785 1.672 5.308 3.332 10.622 5.03 15.919a10296.187 10296.187 0 001.384 4.385c2.422 7.613 5.143 14.931 7.87 22.642.485 1.41.656 2.929 1.29 4.273.133.278.045.105.183.34l.09.142-.078.47-.456-.092c-1.18-1.688-1.425-3.957-2.19-5.842-3.357-8.288-6.524-16.767-9.37-25.3l-.092-.27C43.648 57.45 39.91 46.334 36.616 35.452c-.508-1.677-.847-3.361-1.192-5.049 0 0-.462-1.795-.6-3.457-.11-1.97.385-1.263.429-.956.039.273.008.67.011.62l.002.095zm-.256-.602c-.03-.012.307.068 0 0z" fill="#5B5B5B"/><path fill-rule="evenodd" clip-rule="evenodd" d="M28.39 44.494c.126-.117-.113.165-.113.165-.204.342-.07.223-.436.745-4.185 5.906-8.22 12.016-12.324 18.132-.336.505-.608 1.262-.92 1.207 0 0-.211-.014-.096-.291 0 0 .938-1.442 1.732-2.679 3.583-5.604 7.173-11.239 10.903-16.66.395-.582.45-1.148.937-1.323l.483.244c-.002.001-.363.628-.166.46zm5.996 5.91l.16.024.613.574s.163.124-.146.536c-1.685 2.273-2.794 4.879-4.5 7.508-3.083 4.755-6.16 9.491-9.185 14.256 0 0-1.213 1.608-1.752 2.357-.678.94-.33.527-.487.36-.138-.144.216-.386.017-.24 0 0 .643-1.569 1.306-2.926 0 0 1.31-2.148 2.432-3.95.741-1.195 1.456-2.406 2.183-3.604l.915-1.484c1.776-2.858 3.586-5.691 5.385-8.537.999-1.608 1.71-3.414 2.931-4.86.003-.001.067-.023.128-.014zM19.372 75.875l-.131-.13s.14.196.13.13zm24.764-38.303l.092.513c-.077.12-.15.234-.229.353-1.015 1.544-2.023 3.105-3.096 4.597-.078.103-.161.201-.247.303-.03.034-.058.07-.087.106-.475.568-.195-.232-.195-.232l-.35-.098s.392.485.081.503c0 0-.372-.041-.276-.45l.338-.631c.07-.087.05-.064.05-.064a341.535 341.535 0 003.404-4.782 4.49 4.49 0 01.515-.118zM23.085 88.19s-.219-.727.145-1.555c2.808-6.34 6.942-12.058 11.094-18.09l.089-.128a407.94 407.94 0 012.898-4.044l.888-.852c.214-.113.466-.142.697-.213l.007.757-.331.856c-.286.416-.576.83-.862 1.247-4.045 5.883-8.126 11.796-11.792 17.561-.775 1.215-1.454 2.5-2.095 3.81-.095.195.066-.138-.148.713 0 0-.443.614-.728.258l-.087-.22c.003-.006.274-.079.226-.1zM59.77 31.96l.609.482s.219.118-.143.606c-.699.949-1.253 2.002-1.947 2.958 0 0-1.65 2.127-3.034 3.977-3.57 4.772-6.857 9.677-10.29 14.7-.1.14-.226.256-.353.37l-.105.098c-.993.913-.425.05-.425.05l.056.23s-.761.36-.336-.836c.082-.087.17-.165.252-.247.403-.388.143-.13.195-.211 4.028-6.346 8.18-12.556 12.713-18.558 0 0 1.382-1.995 2.252-3.115.215-.277.358-.574.555-.505zM42.673 76.948c-.234.237-.044.038-.144.178-.022.03-.225.463-.685 1.073-3.826 5.083-7.441 10.357-11.42 16.534a88.083 88.083 0 00-2.243 3.646s-.308.406-.273.33c-.36.498-.643 1.162-1.136 1.389l-.192-.036.141-.542c.069-.308-.007.144.102-.569.104-.567.275-1.15.275-1.15 3.725-6.866 8.555-13.021 12.68-19.24.32-.481.647-.948 1-1.42.091-.12-.016.033.09-.124.353-.537.688-1.151 1.203-1.384 0 0 .028-.02.188.17-.003.002.35 1.209.414 1.145zM68.127 38.16l.142.653c-5.243 8.597-11.757 16.487-16.974 25.1-.16.243-.318.487-.475.73-.615.954-1.23 1.911-1.842 2.865 0 0-.512.418-.521.423-.617.463-.246.04-.246.04v.236s-.338.273-.294-.383c.025-.338.11-.834.11-.834.218-.395.568-.986.568-.986a157.13 157.13 0 011.364-2.443c5.122-8.99 12.045-16.525 17.54-25.265l.628-.135zM46.092 85.978c-.12.359-.242.715-.371 1.068-1.002 2.827-3 5.328-4.784 8.099-2.492 3.865-4.935 7.742-7.259 11.789l-1.284 1.572c-.786.708-.29-.173-.246-.298 1.196-3.408 2.007-4.562 3.207-6.661 2.88-5.036 6.164-9.815 8.868-14.75 0 0 .538-.728.978-1.327l.7-.238.19.746zm-13.664 22.403c-.152-.37-.051.295 0 0zM71.2 49.519c.393.336.416.308.752.705-5.538 7.042-10.804 14.148-15.824 21.773-1.08 1.648-2.16 3.29-3.24 4.949l-.113.165c-.151.154-.306.307-.455.46-.207.216-.51.54-.514.545-.641.724-.215.16-.215.16l-.082.22s-.47.344-.086-.712c.104-.28.217-.553.327-.827.113-.274.287-.61.287-.61a178.853 178.853 0 017.066-11.325c3.673-5.275 7.59-10.401 11.629-15.372 0 .003.05-.387.468-.131zM50.579 98.716c-1.315 1.363-2.045 3.21-3.3 4.756-.28.347-.387-.056-.387-.056s.605-1.077.949-1.803c.604-1.274 1.107-2.605 1.962-3.69.145-.052.29-.098.436-.133l.483-.013-.11.902a.2.2 0 01-.033.037zm24.597-36.693l.108.594c-.13.198-.26.395-.392.59-4.896 7.29-10.595 13.88-15.168 21.583-.748 1.26-1.477 2.529-2.22 3.79 0 0-.934 1.833-1.68 2.023-.57.143-.112-.366-.154-.313.06-.116-.11.282.176-.443 1.51-3.902 3.864-7.346 6.149-10.72 3.934-5.804 8.6-11.08 12.508-16.862l.095-.14c.198-.035.387-.07.578-.102zM55.942 90.417s.04-.075-.114-.146c0 0 .113.212.114.146zm22.036-18.36l.036.65c-2.43 2.77-3.96 6.337-5.844 9.591-2.955 5.118-5.752 10.34-8.672 15.503l-1.05 1.321-.224.056-.058-.231c.185-.537.453-1.33.453-1.33 3.325-5.915 6.457-11.832 9.933-17.789 1.512-2.613 2.758-5.388 4.693-7.635.296-.34.472-.127.733-.136zm2.802 11.835c-1.784 3.627-3.53 7.324-5.582 10.814l-.574.617c-.166.148-.33.23-.33.23s-.744.358-.172-.493c.258-.38-.147.53.265-.763 2.119-3.447 3.955-7.111 5.842-10.64l.428-.18.123.415z" fill="#5B5B5B"/><path fill-rule="evenodd" clip-rule="evenodd" d="M65.821 31.645c1.06 1.655 1.285 3.84 1.92 5.717.91 2.665 1.88 5.298 2.834 7.958l.047.13c5.05 15.08 8.153 30.844 12.67 46.18.043.142.103.353.103.353l-.038.394-.299.25-.382-.047-.245-.31c-4.587-15.332-7.658-31.075-12.704-46.306 0 0-.788-2.477-1.431-4.51-.273-.862-.54-1.726-.802-2.591-.65-2.163-.89-4.472-1.708-6.533l-.177-.39-.063-.117s-.16-.289.275-.178z" fill="#5B5B5B"/><path fill-rule="evenodd" clip-rule="evenodd" d="M30.44 109.16c.6.171.627-.181.566-.158 1.19-.516 2.333-1.141 3.437-1.566 12.64-4.872 25.665-8.2 39.34-12.21 0 0 2.235-.587 4.088-1.156 1.779-.546 3.54-1.257 5.266-1.813 0 0 .216-.043.345.089.335.348-.723.795-.732.8a77.108 77.108 0 01-8.288 3.08s-1.259.357-2.184.606a950.672 950.672 0 00-33.802 9.719c-1.954.604-3.896 1.246-5.79 2.018-.988.407-1.068.554-1.413.704-.319.138-.681.309-.954.197l-.094-.218c.002-.001.186-.1.215-.092z" fill="#5B5B5B"/></svg>