<svg width="187" height="198" fill="none" xmlns="http://www.w3.org/2000/svg"><mask id="a" maskUnits="userSpaceOnUse" x="-1" y="-1" width="189" height="252" fill="#000"><path fill="#fff" d="M-1-1h189v252H-1z"/><path fill-rule="evenodd" clip-rule="evenodd" d="M134.737 68.759c15.118.02 30.366.801 44.906 4.797 2.048.68 4.07 1.427 6.063 2.244l.622.582.059.822-.552.59c-1.407.121-1.849-.215-2.506-.395a99.356 99.356 0 00-4.386-1.071s-4.035-1.072-7.342-1.728c-17.336-3.468-35.222-3.23-52.972-2.67-36.027 1.137-71.558 7.06-107.213 15.075A167.603 167.603 0 004.64 88.65c-.105.031-.105.035-.152.05-1.255.439-2.561.927-3.82.873-.18-.36-.238-.333-.262-.645 0 0 .551-1.154.32-1.119.302-.09-.101.067.427-.172.907-.406 1.505-.754 1.505-.754 4.379-1.705 9.012-2.46 13.578-3.53 38.342-8.934 77.286-14.408 116.339-14.587.715-.008 1.438-.008 2.162-.008z"/><path fill-rule="evenodd" clip-rule="evenodd" d="M.633 88.96s1.055-.095 1.141.05c.9 1.537 1.08 2.178 1.412 3.132 1.43 4.07 2.389 8.319 3.726 12.467 1.54 4.762 2.783 9.802 5.184 13.934.305.52.856 1.244.856 1.244.14.164-.07-.067.192.215l.68.594c.176.121-.082-.043.227.148l.68.341c.219.09-.055-.012.293.109 4.098 1.365 8.863-.907 13.07-1.802 7.8-1.65 15.69-2.893 23.563-4.187 0 0 1.506-.047 2.698-.012l.9.027 1.055.602-.806.911c-1.25.469-2.924 1.091-2.924 1.091-8.445 1.357-16.905 2.639-25.248 4.426-.946.207-1.08.254-1.58.379-5.078 1.325-11.04 3.495-14.88-1.376-1.595-2.025-2.424-4.563-3.303-7.034a217.4 217.4 0 01-2.495-7.487C3.358 101.314 2.424 95.508.132 90.46c-.273-.605-.12-2.197.438-2.029l.274.239c0 .012-.297.305-.211.29z"/><path fill-rule="evenodd" clip-rule="evenodd" d="M71.948 74.376l-1.005 2.19c-3.62 4.996-6.576 10.673-8.777 16.147-5.794 14.426-6.806 30.256-5.99 45.988l-.504.595s-.39-.341-.59-.513c-1.544-15.4-1.56-31.409 3.84-46.04 2.2-5.973 5.203-11.232 9.163-16.232.485-.61 1.064-1.333 1.064-1.333.774-.743 1.935-1.638 1.935-1.638.332-.008.72-.055.934.101 0 .004-.195.755-.07.735z"/><path fill-rule="evenodd" clip-rule="evenodd" d="M66.142 127.258s-.957 1.478-1.333 1.974c-1.9 2.522-3.765 5.102-5.735 7.538-.11.133.121-.203-.211.305-.505.774-.974 1.58-1.587 2.264l-1.287.129-.332-.149.14-1.223c.263-.309.052-.04.29-.391.618-.911.598-1.177 1.364-2.291 1.83-2.569 3.773-5.067 5.548-7.659 0 0 .763-1.932 1.885-2.937 0 0 .379-.418.766-.582 1.153-.477 2.963.293 2.963.293 1.04.794 1.9 1.818 2.78 2.764.54.583.755.72 1.146 1.071a75.45 75.45 0 0010.509 7.929l.48.637-.074.763-.602.457c-1.044-.09-1.376-.352-1.853-.594-4.062-2.041-7.964-4.387-11.596-7.252-1.72-1.353-1.974-1.873-2.838-2.51.004.004-.32-.43-.422-.536z"/><path fill-rule="evenodd" clip-rule="evenodd" d="M80.115 74.713s.172-.246.032.407c-2.483 11.885-2.764 24.462-2.088 36.066.407 7.033 1.282 14.078 3.773 20.666.532 1.818 1.106 3.628 1.564 5.466l-.294.876-.692-.356c-.754-1.74-1.626-3.437-2.467-5.149 0 0-1.415-3.581-2.02-6.06a59.373 59.373 0 01-.286-1.216c-3.23-14.297-3.214-29.588-1.22-43.604 0 0 .504-2.674.876-4.082a42.58 42.58 0 011.114-3.612l1.196-.051-.3-.2s.37-1.114.734.622c.012.07.047.282.078.227zm21.824-3.683l1.079.688c.305.282-.109-.258.849.962 3.647 4.61 6.454 8.812 9.121 13.304l.109.188c4.981 8.914 7.948 18.888 9.184 29.162.59 4.934.852 9.899.969 14.864l-.418 1.768-.371.512-.407-.485c-.219-.618-.532-1.486-.532-1.486-.031-.539-.062-1.079-.097-1.618-.911-14.138-3.562-28.486-10.826-40.942 0 0-1.458-2.588-2.811-4.785-1.419-2.31-2.882-4.598-4.332-6.881-.297-.466-1.298-1.674-2.084-2.893 0 0-.356-.806-.473-1.724 0 0 .168-.571.485-.77 0-.009.543.222.555.136z"/><path fill-rule="evenodd" clip-rule="evenodd" d="M135.128 120.291c-4.137-2.784-.978-.442-.978-.442-.836.974-1.474 2.94-1.97 3.785-1.513 2.553-3.3 4.973-5.36 7.068-.598.606-.583.622-.583.622-.84.676-2.189 1.548-2.189 1.548-.622-.082-1.454-.117-1.576-.59 0 0 .286-1.384.641-1.767.071-.075.141-.157.212-.235a32.93 32.93 0 00.852-1.024c2.389-2.256 4.617-4.696 6.376-7.511.458-.731.102-.117.298-.516 0 0 .512-.954.95-2.056.097-.25.715-1.685 1.876-2.041 1.764-.543 3.265.504 4.911 1.537 1.528.961 2.6 1.552 3.87 2.341l.168.106c1.799 1.177 3.574 2.389 5.353 3.601l.004.008c.559 1.083.535 1.094 1.02 2.212l-1.583.04-.86-.036a641.889 641.889 0 00-3.468-2.044c-2.592-1.509-4.891-3.019-7.855-4.536-.039-.015-.043-.023-.109-.07z"/><path fill-rule="evenodd" clip-rule="evenodd" d="M111.674 70.631s1.11.356 2.099.747c0 0 1.162.708 1.951 1.204 12.628 7.952 21.359 22.007 26.648 35.847.946 2.475 1.81 4.977 2.612 7.499 1.13 3.573 2.721 7.033 3.562 10.673l-.391.665-.661-.399c-.848-3.03-2.365-5.786-3.441-8.82-5.023-14.071-11.779-28.153-23.41-37.708-.497-.407-2.983-2.42-5.267-4.043a155.215 155.215 0 00-3.155-2.185s-1.341-.911-2.123-2.033l.118-1.095-.364-.004s-.575-.95 1.427-.579c-.008.004.227.114.395.231z"/><path fill-rule="evenodd" clip-rule="evenodd" d="M148.944 109.857c.208.004.45.004.45.004 6.627.461 13.215 1.474 20.146 1.958 1.545.102 3.105.176 4.618-.164l1.051-.36c2.139-1.188.86-.332 1.572-1.724 0 0 .927-4.41 1.142-7.96.219-3.362.832-6.693 1.677-9.961.668-2.573 1.638-5.157 2.561-7.726.07-.2.074-.2.148-.399.79-2.091 1.599-4.179 2.381-6.279l.637-.664 1.154-.727.485 1.274c.109.939-.059 1.459-.262 2.12-1.361 4.405-2.843 8.78-3.957 13.233-.977 3.945-1.763 8.035-2.17 12.269-.391 3.948-1.427 8.398-6.111 9.418-2.697.586-5.5.195-8.237.059-5.673-.294-11.373-1.15-16.948-1.455 0 0-3.097-.418-5.779-.285l-.477-.203c-1.204-.528-1.063-.391-1.063-.391l-.34-.137s.614-.884 1.399-1.466c0 0 1.678-.313 2.909-.372a55.04 55.04 0 013.014-.062zM24.923 123.923s.986 3.976 1.967 7.64c4.766 17.827 10.192 35.628 14.235 54.687 4.09 19.271 6.943 38.917 10.955 58.078l-.474.766s-.504-.324-.758-.493c-4.629-19.098-8.066-38.384-12.358-57.792-2.49-11.779-5.822-23.594-8.715-35.311-2.181-9.012-4.598-18.078-6.502-27.004-.062-.332-.164.313.02-1.232.309-2.611.493-.797.493-.797l-.243-.27s.247-.328.567-.278c.59.094.892 1.033.892 1.033-.008.324-.067.832-.063.813-.012.086-.012.086-.016.16z"/><path fill-rule="evenodd" clip-rule="evenodd" d="M174.693 115.002a101.465 101.465 0 00-.309 3.264s-.93 4.179-1.587 7.194c-6.142 28.301-8.789 57.346-12.225 86.164l-.055.473a5931.253 5931.253 0 00-3.112 25.416l-.313.599-.61.199-.547-.321-.188-.641a2529.06 2529.06 0 012.08-24.709l.074-.828c.309-3.195.626-6.389.947-9.583l.027-.266c.575-5.11 1.169-10.223 1.783-15.329l.113-.95c.551-4.438 1.126-8.879 1.724-13.313 2.542-18.864 4.434-31.922 7.984-47.435a252.938 252.938 0 011.697-6.924s.778-2.002 1.649-3.714c.9-1.709.254-.899.681-1.271.879-.766.371.579.219 1.689-.012.082.027-.207-.032.286zm.176-1.572s-.281.238 0 .008c0 0 .047-.059 0-.008zm-.461-.196l.051.161c0 .004-.043-.211-.051-.161z"/><path fill-rule="evenodd" clip-rule="evenodd" d="M156.275 237.181l1.63 1.2c-.058.825-.352 1.482-.352 1.482-1.098.774-2.408 1.157-3.671 1.603-.281.102.075-.047-.805.317-6.052 2.502-12.202 4.601-18.637 5.735-18.254 3.218-37.404.426-55.384-.555-5.602-.313-11.201-.688-16.788-.977l-.438-.024c-2.983-.184-5.954-.387-8.96-.532l-.59-1.075-.024.368s-1.001.156.473-1.071c0 0 2.948-.039 5.301.015 1.646.043 3.894.098 3.894.098 16.17.555 32.509 1.744 48.468 2.021 13.488.239 26.835-1.356 39.866-6.705 1.744-.715 3.659-1.137 5.141-2.127.008 0 .708.243.876.227z"/><path fill-rule="evenodd" clip-rule="evenodd" d="M82.715 73.106c.11.43-.164-.371.383 1.036.18.473.188 2.807.27 4.727 1.447 33.818 4.098 67.914 7.483 101.967l.121 1.227.305 3.23c1.38 14.27 2.495 28.532 4.129 42.755.684 5.947 1.583 11.878 2.928 17.711l-.074 1.431-.426.864s-.516-.379-.778-.563c-.305-.481-.692-1.103-.692-1.103-3.968-16.319-4.68-33.384-6.326-49.718-.446-4.461-.887-8.922-1.317-13.383l-.094-1.001c-2.74-30.057-4.837-60.314-6.08-89.984-.23-5.782-.363-11.54-.57-17.386-.008-.34-.345-2.424.472-2.392.458.02.266.692.266.582zm17.598-.712s.203 1.138.438 2.334c.015.087.179.872.195 1.048.227 2.592.438 5.18.657 7.769l.031.379c2.659 43.127 8.113 86.246 11.397 129.584.246 3.292.438 6.604.723 9.884.766 8.534 3.081 16.893 3.073 25.487l-.575.582-.582-.579c-.043-8.827-2.6-17.554-3.308-26.409-2.357-30.843-5.829-61.795-9.187-92.838-1.908-17.855-3.171-35.78-4-53.734 0 0-.059-2.686.383-4.257.669-2.354-.133-.32.207-.567.137-.098-.324-.223-.324-.223s.242-.536.641-.219c.512.403.231 1.61.231 1.61v.15z"/><path fill-rule="evenodd" clip-rule="evenodd" d="M83.837 112.132l.004 1.685-.191.434a24.667 24.667 0 00-1.076-.027c-1.567-.004-3.139.093-4.683.387l-.638.097-.523-.899c.02-.954.093-.598.555-.821 0 0 2.416-.86 4.351-1.11.802-.102 1.994-.18 1.994-.18.07.145.14.289.207.434zm18.735.989l.094-.821s-.32.422-.485.301c-.351-.262.552-.938.56-.938.668.019.312.004.347 0 .802-.137 1.928-.313 1.928-.313a80.91 80.91 0 0115.279-.418l.617.293.235.637-.285.602c-.599.227.422.243-2.119.219-3.476-.023-6.94.114-10.396.399l-3.073.141s-2.635-.082-2.67-.09c-.012-.008-.02-.008-.032-.012zM82.309 57.045a13.72 13.72 0 00-5.9 2.08c-.238.153.102-.097-.403.282-.152.113.075-.07-.25.2-.262.214-.094.058-.387.351-.113.114-.649.79-.649.79-.176.262.051-.094-.156.242 0 0-.364.708-.38.731-.156.344-.003-.02-.16.387l-.156.485c-.07.262.012-.074-.067.266l-.082.485c-.031.266.004-.07-.027.27 0 0-.008.782-.012.742.024.493-.004.13.043.524l.082.497c.11.485.024.137.137.524l.168.492c.188.47.043.13.227.513 0 0 1.349 2.357 3.284 3.807.305.352 1.001.974.892.911 1.794 1.686.351 1.287.351 1.287s.41-.653.485-.2l-.739.642c-.324.168.262.285-.868-.09-.825-.282-1.517-.583-1.517-.583-3.8-2.592-6.626-7.315-4.511-11.909 2.24-4.867 9.441-6.368 14.153-4.89 3.041.957 5.919 2.552 9.195 2.369l.364.293s-.196.348-.599.399c-3.862.45-7.655-1.619-11.435-1.92-.031-.004-.5-.012-.516-.012-.376.012.074-.011-.387.02 0 0 .12-.012-.18.015z"/><path fill-rule="evenodd" clip-rule="evenodd" d="M100.61 70.455c.234-.915.504-2.256.504-2.256.09-.168.18-.34.274-.512.355-.68.696-1.372 1.016-2.072.958-2.08 1.978-4.136 2.522-6.435.023-.094.133-.849.133-.849.023-.496.058 0-.016-.621l-.277-.868c-.2-.36-.012-.047-.212-.332-.172-.247-.645-.68-.672-.704-.571-.458-.102-.153-.88-.583 0 0-7.217-2.33-12.862.301-1.197.556-2.272.864-3.312 1.365-1.204.575-1.18-.031-1.18-.031l-.352.09s.129-1.549.676-1.858c.872-.48 1.81-.832 2.702-1.274.113-.055-.364.195.473-.262 4.116-2.209 9.039-2.987 13.605-1.439 2.604.884 5.016 2.78 5.251 5.614.336 4.086-2.033 7.933-4.414 11.803l-2.041 1.744-.844.211c-.004-.004-.176-.715-.094-1.032z"/><path fill-rule="evenodd" clip-rule="evenodd" d="M145.449 0c8.996.102 18.293 6.298 18.184 16.983-.078 7.608-4.14 14.81-8.539 21.198-5.985 8.7-13.574 16.272-22.195 22.348-6.056 4.12-12.569 7.55-19.47 9.86l-.07.023c-3.194.723-6.424 1.294-9.614 1.986l-.524.114-.84-.387.426-.821c2.967-1.4 6.001-2.675 8.976-4.074 0 0 2.995-1.11 5.282-2.147 15.51-7.013 29.358-18.598 38.42-33.286 4.051-6.568 7.542-14.454 3.957-21.315-1.869-3.57-5.392-6.181-9.325-7.221-10.571-2.8-22.425 3.26-30.491 10.626-10.079 9.203-17.531 21.194-22.781 33.9a64.272 64.272 0 00-2.01 4.277c-.219.52.313.036-.563.966-.195.196-.543.29-.672.055l-.086-.352s-.387-.997-.004-2.42a74.488 74.488 0 011.005-3.335l.043-.129c5.985-14.587 14.461-28.442 26.988-37.935 6.799-5.149 15.134-8.781 23.391-8.91.172-.004.34-.004.512-.004z"/><path fill-rule="evenodd" clip-rule="evenodd" d="M100.903 52.757s-.602.617-.63-.102l-.383-.485c.016-.43-.207.387.325-1.58 0 0 3.898-7.216 7.334-11.783 5.024-6.681 10.967-12.866 18.587-16.444 3.354-1.58 6.99-2.62 10.724-2.924 5.743-.47 12.174 1.638 15.318 6.877l-.024.184s-3.151-3.03-6.232-3.968a15.337 15.337 0 00-3.573-.622c-9.962-.587-19.302 4.934-25.311 10.415-5.935 5.419-10.963 11.909-14.786 19.067l-.724.966c-.156.325.09.074-.355.282l-.814-.04c.004 0 .45.028.544.157z"/><path fill-rule="evenodd" clip-rule="evenodd" d="M138.779 20.553l.239-.074.223.32-.149.767.383-.121.38-.978c.074.063.148.121.219.188 2.384 2.091 3.725 5.258 3.831 8.32.176 5-2.424 9.746-4.985 13.593-4.191 6.29-10.212 11.166-16.229 15.72 0 0-1.775 1.318-3.37 2.437a157.286 157.286 0 01-12.245 7.764c-.308.176-1.888.962-3.37 1.634 0 0-.586-.015-.993-.086l-.32-.594.344-.798.813-.527c.711-.466 1.748-1.162 1.748-1.162 9.875-5.684 19.583-12.057 27.496-20.26a43.383 43.383 0 002.834-3.22c4.227-5.341 8.203-11.995 5.493-18.071-.582-1.31-1.411-2.569-2.467-3.483l-.062-1.185c.094-.137.058-.09.187-.184zM73.02 67.867s.883-.77 1.689-.598c0 0 .32.406.234.649 0 0-.54.958-.383.84-.129.122-.121.122-.121.122-1.693 1.689-4.555 1.61-6.65 1.822a35.655 35.655 0 01-4.88.148 43.416 43.416 0 01-2.013-.121c-8.406-.696-16.964-2.506-24.463-5.622-7.002-2.913-13.042-7.91-16.588-15.08-5.606-11.33-7.952-26.042 2.631-33.423 9.829-6.857 25.354-1.9 35.41 5.27 1.184.84 2.33 1.728 3.448 2.655 2.115 1.755 4.097 3.663 5.981 5.661 2.034 2.15 3.844 4.54 5.627 6.936l.09.117c1.903 2.694 3.71 5.458 5.469 8.25.121.195.121.195.242.386 1.803 2.937 3.554 5.9 5.325 8.852l.454.758.457.755-.055.516-.5-.133c-4.578-5.81-9.043-11.74-13.985-17.328a102.903 102.903 0 00-5.168-5.668s-1.771-1.908-3.359-3.43c-7.795-7.47-17.57-13.8-28.817-13.804-5.728-.004-11.76 2.338-14.52 8.507-2.675 5.97-1.275 12.89.68 18.426 1.978 5.61 4.761 11.053 9.324 14.74 8.558 6.912 20.31 8.726 31.457 10.059 3.76.438 7.522.418 11.373-.148-.008-.004 1.442-.094 1.61-.114z"/><path fill-rule="evenodd" clip-rule="evenodd" d="M75.06 58.414c-3.311-4.086-8.147-6.744-12.24-9.966a158.536 158.536 0 00-4.207-3.198s-2.929-2.225-5.388-3.792c-6.685-4.254-14.23-7.616-22.328-7.292-1.86.075-3.725.524-5.278 1.54l-1.122.888c-.07.082.016-.027-.074.09-.829 1.06-1.54 2.193-2.373 3.272-.254.31-.47-.156-.47-.156l.267-.246s-.43.461-.028-.196c1.783-2.928 4.117-5.677 7.804-6.396 10.915-2.123 22.335 3.69 30.632 9.52 0 0 1.513 1.138 2.56 1.97 0 0 1.885 1.58 2.737 2.354 3.804 3.456 8.14 6.685 10.724 10.744l-.129 1.118c.004-.004-.934-.063-1.087-.254z"/><path fill-rule="evenodd" clip-rule="evenodd" d="M36.18 35.143c-.263.638-.134-.891-.282 1.904-.532 9.896 8.487 18.954 16.04 23.067 6.448 3.51 13.782 5.102 20.804 5.13l.594.226.27.547-.211.564c-1.06.547-1.486.387-2.084.433-5.086.407-10.224-.082-15.189-1.774l-.062-.024C47.7 61.967 40.5 55.38 36.887 47.1c-1.611-3.695-2.4-7.839-1.505-11.713.136-.599.656-1.36.61-1.271.344-.649.215-.497.215-.497l-.22-.234s.376-.516.685-.05c.504.758-.575 1.985-.493 1.81zm.09-1.485c.01.003.05.02 0 0z"/></mask><path fill-rule="evenodd" clip-rule="evenodd" d="M134.737 68.759c15.118.02 30.366.801 44.906 4.797 2.048.68 4.07 1.427 6.063 2.244l.622.582.059.822-.552.59c-1.407.121-1.849-.215-2.506-.395a99.356 99.356 0 00-4.386-1.071s-4.035-1.072-7.342-1.728c-17.336-3.468-35.222-3.23-52.972-2.67-36.027 1.137-71.558 7.06-107.213 15.075A167.603 167.603 0 004.64 88.65c-.105.031-.105.035-.152.05-1.255.439-2.561.927-3.82.873-.18-.36-.238-.333-.262-.645 0 0 .551-1.154.32-1.119.302-.09-.101.067.427-.172.907-.406 1.505-.754 1.505-.754 4.379-1.705 9.012-2.46 13.578-3.53 38.342-8.934 77.286-14.408 116.339-14.587.715-.008 1.438-.008 2.162-.008z" fill="#fff"/><path fill-rule="evenodd" clip-rule="evenodd" d="M.633 88.96s1.055-.095 1.141.05c.9 1.537 1.08 2.178 1.412 3.132 1.43 4.07 2.389 8.319 3.726 12.467 1.54 4.762 2.783 9.802 5.184 13.934.305.52.856 1.244.856 1.244.14.164-.07-.067.192.215l.68.594c.176.121-.082-.043.227.148l.68.341c.219.09-.055-.012.293.109 4.098 1.365 8.863-.907 13.07-1.802 7.8-1.65 15.69-2.893 23.563-4.187 0 0 1.506-.047 2.698-.012l.9.027 1.055.602-.806.911c-1.25.469-2.924 1.091-2.924 1.091-8.445 1.357-16.905 2.639-25.248 4.426-.946.207-1.08.254-1.58.379-5.078 1.325-11.04 3.495-14.88-1.376-1.595-2.025-2.424-4.563-3.303-7.034a217.4 217.4 0 01-2.495-7.487C3.358 101.314 2.424 95.508.132 90.46c-.273-.605-.12-2.197.438-2.029l.274.239c0 .012-.297.305-.211.29z" fill="#fff"/><path fill-rule="evenodd" clip-rule="evenodd" d="M71.948 74.376l-1.005 2.19c-3.62 4.996-6.576 10.673-8.777 16.147-5.794 14.426-6.806 30.256-5.99 45.988l-.504.595s-.39-.341-.59-.513c-1.544-15.4-1.56-31.409 3.84-46.04 2.2-5.973 5.203-11.232 9.163-16.232.485-.61 1.064-1.333 1.064-1.333.774-.743 1.935-1.638 1.935-1.638.332-.008.72-.055.934.101 0 .004-.195.755-.07.735z" fill="#fff"/><path fill-rule="evenodd" clip-rule="evenodd" d="M66.142 127.258s-.957 1.478-1.333 1.974c-1.9 2.522-3.765 5.102-5.735 7.538-.11.133.121-.203-.211.305-.505.774-.974 1.58-1.587 2.264l-1.287.129-.332-.149.14-1.223c.263-.309.052-.04.29-.391.618-.911.598-1.177 1.364-2.291 1.83-2.569 3.773-5.067 5.548-7.659 0 0 .763-1.932 1.885-2.937 0 0 .379-.418.766-.582 1.153-.477 2.963.293 2.963.293 1.04.794 1.9 1.818 2.78 2.764.54.583.755.72 1.146 1.071a75.45 75.45 0 0010.509 7.929l.48.637-.074.763-.602.457c-1.044-.09-1.376-.352-1.853-.594-4.062-2.041-7.964-4.387-11.596-7.252-1.72-1.353-1.974-1.873-2.838-2.51.004.004-.32-.43-.422-.536z" fill="#fff"/><path fill-rule="evenodd" clip-rule="evenodd" d="M80.115 74.713s.172-.246.032.407c-2.483 11.885-2.764 24.462-2.088 36.066.407 7.033 1.282 14.078 3.773 20.666.532 1.818 1.106 3.628 1.564 5.466l-.294.876-.692-.356c-.754-1.74-1.626-3.437-2.467-5.149 0 0-1.415-3.581-2.02-6.06a59.373 59.373 0 01-.286-1.216c-3.23-14.297-3.214-29.588-1.22-43.604 0 0 .504-2.674.876-4.082a42.58 42.58 0 011.114-3.612l1.196-.051-.3-.2s.37-1.114.734.622c.012.07.047.282.078.227zm21.824-3.683l1.079.688c.305.282-.109-.258.849.962 3.647 4.61 6.454 8.812 9.121 13.304l.109.188c4.981 8.914 7.948 18.888 9.184 29.162.59 4.934.852 9.899.969 14.864l-.418 1.768-.371.512-.407-.485c-.219-.618-.532-1.486-.532-1.486-.031-.539-.062-1.079-.097-1.618-.911-14.138-3.562-28.486-10.826-40.942 0 0-1.458-2.588-2.811-4.785-1.419-2.31-2.882-4.598-4.332-6.881-.297-.466-1.298-1.674-2.084-2.893 0 0-.356-.806-.473-1.724 0 0 .168-.571.485-.77 0-.009.543.222.555.136z" fill="#fff"/><path fill-rule="evenodd" clip-rule="evenodd" d="M135.128 120.291c-4.137-2.784-.978-.442-.978-.442-.836.974-1.474 2.94-1.97 3.785-1.513 2.553-3.3 4.973-5.36 7.068-.598.606-.583.622-.583.622-.84.676-2.189 1.548-2.189 1.548-.622-.082-1.454-.117-1.576-.59 0 0 .286-1.384.641-1.767.071-.075.141-.157.212-.235a32.93 32.93 0 00.852-1.024c2.389-2.256 4.617-4.696 6.376-7.511.458-.731.102-.117.298-.516 0 0 .512-.954.95-2.056.097-.25.715-1.685 1.876-2.041 1.764-.543 3.265.504 4.911 1.537 1.528.961 2.6 1.552 3.87 2.341l.168.106c1.799 1.177 3.574 2.389 5.353 3.601l.004.008c.559 1.083.535 1.094 1.02 2.212l-1.583.04-.86-.036a641.889 641.889 0 00-3.468-2.044c-2.592-1.509-4.891-3.019-7.855-4.536-.039-.015-.043-.023-.109-.07z" fill="#fff"/><path fill-rule="evenodd" clip-rule="evenodd" d="M111.674 70.631s1.11.356 2.099.747c0 0 1.162.708 1.951 1.204 12.628 7.952 21.359 22.007 26.648 35.847.946 2.475 1.81 4.977 2.612 7.499 1.13 3.573 2.721 7.033 3.562 10.673l-.391.665-.661-.399c-.848-3.03-2.365-5.786-3.441-8.82-5.023-14.071-11.779-28.153-23.41-37.708-.497-.407-2.983-2.42-5.267-4.043a155.215 155.215 0 00-3.155-2.185s-1.341-.911-2.123-2.033l.118-1.095-.364-.004s-.575-.95 1.427-.579c-.008.004.227.114.395.231z" fill="#fff"/><path fill-rule="evenodd" clip-rule="evenodd" d="M148.944 109.857c.208.004.45.004.45.004 6.627.461 13.215 1.474 20.146 1.958 1.545.102 3.105.176 4.618-.164l1.051-.36c2.139-1.188.86-.332 1.572-1.724 0 0 .927-4.41 1.142-7.96.219-3.362.832-6.693 1.677-9.961.668-2.573 1.638-5.157 2.561-7.726.07-.2.074-.2.148-.399.79-2.091 1.599-4.179 2.381-6.279l.637-.664 1.154-.727.485 1.274c.109.939-.059 1.459-.262 2.12-1.361 4.405-2.843 8.78-3.957 13.233-.977 3.945-1.763 8.035-2.17 12.269-.391 3.948-1.427 8.398-6.111 9.418-2.697.586-5.5.195-8.237.059-5.673-.294-11.373-1.15-16.948-1.455 0 0-3.097-.418-5.779-.285l-.477-.203c-1.204-.528-1.063-.391-1.063-.391l-.34-.137s.614-.884 1.399-1.466c0 0 1.678-.313 2.909-.372a55.04 55.04 0 013.014-.062zM24.923 123.923s.986 3.976 1.967 7.64c4.766 17.827 10.192 35.628 14.235 54.687 4.09 19.271 6.943 38.917 10.955 58.078l-.474.766s-.504-.324-.758-.493c-4.629-19.098-8.066-38.384-12.358-57.792-2.49-11.779-5.822-23.594-8.715-35.311-2.181-9.012-4.598-18.078-6.502-27.004-.062-.332-.164.313.02-1.232.309-2.611.493-.797.493-.797l-.243-.27s.247-.328.567-.278c.59.094.892 1.033.892 1.033-.008.324-.067.832-.063.813-.012.086-.012.086-.016.16z" fill="#fff"/><path fill-rule="evenodd" clip-rule="evenodd" d="M174.693 115.002a101.465 101.465 0 00-.309 3.264s-.93 4.179-1.587 7.194c-6.142 28.301-8.789 57.346-12.225 86.164l-.055.473a5931.253 5931.253 0 00-3.112 25.416l-.313.599-.61.199-.547-.321-.188-.641a2529.06 2529.06 0 012.08-24.709l.074-.828c.309-3.195.626-6.389.947-9.583l.027-.266c.575-5.11 1.169-10.223 1.783-15.329l.113-.95c.551-4.438 1.126-8.879 1.724-13.313 2.542-18.864 4.434-31.922 7.984-47.435a252.938 252.938 0 011.697-6.924s.778-2.002 1.649-3.714c.9-1.709.254-.899.681-1.271.879-.766.371.579.219 1.689-.012.082.027-.207-.032.286zm.176-1.572s-.281.238 0 .008c0 0 .047-.059 0-.008zm-.461-.196l.051.161c0 .004-.043-.211-.051-.161z" fill="#fff"/><path fill-rule="evenodd" clip-rule="evenodd" d="M156.275 237.181l1.63 1.2c-.058.825-.352 1.482-.352 1.482-1.098.774-2.408 1.157-3.671 1.603-.281.102.075-.047-.805.317-6.052 2.502-12.202 4.601-18.637 5.735-18.254 3.218-37.404.426-55.384-.555-5.602-.313-11.201-.688-16.788-.977l-.438-.024c-2.983-.184-5.954-.387-8.96-.532l-.59-1.075-.024.368s-1.001.156.473-1.071c0 0 2.948-.039 5.301.015 1.646.043 3.894.098 3.894.098 16.17.555 32.509 1.744 48.468 2.021 13.488.239 26.835-1.356 39.866-6.705 1.744-.715 3.659-1.137 5.141-2.127.008 0 .708.243.876.227z" fill="#fff"/><path fill-rule="evenodd" clip-rule="evenodd" d="M82.715 73.106c.11.43-.164-.371.383 1.036.18.473.188 2.807.27 4.727 1.447 33.818 4.098 67.914 7.483 101.967l.121 1.227.305 3.23c1.38 14.27 2.495 28.532 4.129 42.755.684 5.947 1.583 11.878 2.928 17.711l-.074 1.431-.426.864s-.516-.379-.778-.563c-.305-.481-.692-1.103-.692-1.103-3.968-16.319-4.68-33.384-6.326-49.718-.446-4.461-.887-8.922-1.317-13.383l-.094-1.001c-2.74-30.057-4.837-60.314-6.08-89.984-.23-5.782-.363-11.54-.57-17.386-.008-.34-.345-2.424.472-2.392.458.02.266.692.266.582zm17.598-.712s.203 1.138.438 2.334c.015.087.179.872.195 1.048.227 2.592.438 5.18.657 7.769l.031.379c2.659 43.127 8.113 86.246 11.397 129.584.246 3.292.438 6.604.723 9.884.766 8.534 3.081 16.893 3.073 25.487l-.575.582-.582-.579c-.043-8.827-2.6-17.554-3.308-26.409-2.357-30.843-5.829-61.795-9.187-92.838-1.908-17.855-3.171-35.78-4-53.734 0 0-.059-2.686.383-4.257.669-2.354-.133-.32.207-.567.137-.098-.324-.223-.324-.223s.242-.536.641-.219c.512.403.231 1.61.231 1.61v.15z" fill="#fff"/><path fill-rule="evenodd" clip-rule="evenodd" d="M83.837 112.132l.004 1.685-.191.434a24.667 24.667 0 00-1.076-.027c-1.567-.004-3.139.093-4.683.387l-.638.097-.523-.899c.02-.954.093-.598.555-.821 0 0 2.416-.86 4.351-1.11.802-.102 1.994-.18 1.994-.18.07.145.14.289.207.434zm18.735.989l.094-.821s-.32.422-.485.301c-.351-.262.552-.938.56-.938.668.019.312.004.347 0 .802-.137 1.928-.313 1.928-.313a80.91 80.91 0 0115.279-.418l.617.293.235.637-.285.602c-.599.227.422.243-2.119.219-3.476-.023-6.94.114-10.396.399l-3.073.141s-2.635-.082-2.67-.09c-.012-.008-.02-.008-.032-.012zM82.309 57.045a13.72 13.72 0 00-5.9 2.08c-.238.153.102-.097-.403.282-.152.113.075-.07-.25.2-.262.214-.094.058-.387.351-.113.114-.649.79-.649.79-.176.262.051-.094-.156.242 0 0-.364.708-.38.731-.156.344-.003-.02-.16.387l-.156.485c-.07.262.012-.074-.067.266l-.082.485c-.031.266.004-.07-.027.27 0 0-.008.782-.012.742.024.493-.004.13.043.524l.082.497c.11.485.024.137.137.524l.168.492c.188.47.043.13.227.513 0 0 1.349 2.357 3.284 3.807.305.352 1.001.974.892.911 1.794 1.686.351 1.287.351 1.287s.41-.653.485-.2l-.739.642c-.324.168.262.285-.868-.09-.825-.282-1.517-.583-1.517-.583-3.8-2.592-6.626-7.315-4.511-11.909 2.24-4.867 9.441-6.368 14.153-4.89 3.041.957 5.919 2.552 9.195 2.369l.364.293s-.196.348-.599.399c-3.862.45-7.655-1.619-11.435-1.92-.031-.004-.5-.012-.516-.012-.376.012.074-.011-.387.02 0 0 .12-.012-.18.015z" fill="#fff"/><path fill-rule="evenodd" clip-rule="evenodd" d="M100.61 70.455c.234-.915.504-2.256.504-2.256.09-.168.18-.34.274-.512.355-.68.696-1.372 1.016-2.072.958-2.08 1.978-4.136 2.522-6.435.023-.094.133-.849.133-.849.023-.496.058 0-.016-.621l-.277-.868c-.2-.36-.012-.047-.212-.332-.172-.247-.645-.68-.672-.704-.571-.458-.102-.153-.88-.583 0 0-7.217-2.33-12.862.301-1.197.556-2.272.864-3.312 1.365-1.204.575-1.18-.031-1.18-.031l-.352.09s.129-1.549.676-1.858c.872-.48 1.81-.832 2.702-1.274.113-.055-.364.195.473-.262 4.116-2.209 9.039-2.987 13.605-1.439 2.604.884 5.016 2.78 5.251 5.614.336 4.086-2.033 7.933-4.414 11.803l-2.041 1.744-.844.211c-.004-.004-.176-.715-.094-1.032z" fill="#fff"/><path fill-rule="evenodd" clip-rule="evenodd" d="M145.449 0c8.996.102 18.293 6.298 18.184 16.983-.078 7.608-4.14 14.81-8.539 21.198-5.985 8.7-13.574 16.272-22.195 22.348-6.056 4.12-12.569 7.55-19.47 9.86l-.07.023c-3.194.723-6.424 1.294-9.614 1.986l-.524.114-.84-.387.426-.821c2.967-1.4 6.001-2.675 8.976-4.074 0 0 2.995-1.11 5.282-2.147 15.51-7.013 29.358-18.598 38.42-33.286 4.051-6.568 7.542-14.454 3.957-21.315-1.869-3.57-5.392-6.181-9.325-7.221-10.571-2.8-22.425 3.26-30.491 10.626-10.079 9.203-17.531 21.194-22.781 33.9a64.272 64.272 0 00-2.01 4.277c-.219.52.313.036-.563.966-.195.196-.543.29-.672.055l-.086-.352s-.387-.997-.004-2.42a74.488 74.488 0 011.005-3.335l.043-.129c5.985-14.587 14.461-28.442 26.988-37.935 6.799-5.149 15.134-8.781 23.391-8.91.172-.004.34-.004.512-.004z" fill="#fff"/><path fill-rule="evenodd" clip-rule="evenodd" d="M100.903 52.757s-.602.617-.63-.102l-.383-.485c.016-.43-.207.387.325-1.58 0 0 3.898-7.216 7.334-11.783 5.024-6.681 10.967-12.866 18.587-16.444 3.354-1.58 6.99-2.62 10.724-2.924 5.743-.47 12.174 1.638 15.318 6.877l-.024.184s-3.151-3.03-6.232-3.968a15.337 15.337 0 00-3.573-.622c-9.962-.587-19.302 4.934-25.311 10.415-5.935 5.419-10.963 11.909-14.786 19.067l-.724.966c-.156.325.09.074-.355.282l-.814-.04c.004 0 .45.028.544.157z" fill="#fff"/><path fill-rule="evenodd" clip-rule="evenodd" d="M138.779 20.553l.239-.074.223.32-.149.767.383-.121.38-.978c.074.063.148.121.219.188 2.384 2.091 3.725 5.258 3.831 8.32.176 5-2.424 9.746-4.985 13.593-4.191 6.29-10.212 11.166-16.229 15.72 0 0-1.775 1.318-3.37 2.437a157.286 157.286 0 01-12.245 7.764c-.308.176-1.888.962-3.37 1.634 0 0-.586-.015-.993-.086l-.32-.594.344-.798.813-.527c.711-.466 1.748-1.162 1.748-1.162 9.875-5.684 19.583-12.057 27.496-20.26a43.383 43.383 0 002.834-3.22c4.227-5.341 8.203-11.995 5.493-18.071-.582-1.31-1.411-2.569-2.467-3.483l-.062-1.185c.094-.137.058-.09.187-.184zM73.02 67.867s.883-.77 1.689-.598c0 0 .32.406.234.649 0 0-.54.958-.383.84-.129.122-.121.122-.121.122-1.693 1.689-4.555 1.61-6.65 1.822a35.655 35.655 0 01-4.88.148 43.416 43.416 0 01-2.013-.121c-8.406-.696-16.964-2.506-24.463-5.622-7.002-2.913-13.042-7.91-16.588-15.08-5.606-11.33-7.952-26.042 2.631-33.423 9.829-6.857 25.354-1.9 35.41 5.27 1.184.84 2.33 1.728 3.448 2.655 2.115 1.755 4.097 3.663 5.981 5.661 2.034 2.15 3.844 4.54 5.627 6.936l.09.117c1.903 2.694 3.71 5.458 5.469 8.25.121.195.121.195.242.386 1.803 2.937 3.554 5.9 5.325 8.852l.454.758.457.755-.055.516-.5-.133c-4.578-5.81-9.043-11.74-13.985-17.328a102.903 102.903 0 00-5.168-5.668s-1.771-1.908-3.359-3.43c-7.795-7.47-17.57-13.8-28.817-13.804-5.728-.004-11.76 2.338-14.52 8.507-2.675 5.97-1.275 12.89.68 18.426 1.978 5.61 4.761 11.053 9.324 14.74 8.558 6.912 20.31 8.726 31.457 10.059 3.76.438 7.522.418 11.373-.148-.008-.004 1.442-.094 1.61-.114z" fill="#fff"/><path fill-rule="evenodd" clip-rule="evenodd" d="M75.06 58.414c-3.311-4.086-8.147-6.744-12.24-9.966a158.536 158.536 0 00-4.207-3.198s-2.929-2.225-5.388-3.792c-6.685-4.254-14.23-7.616-22.328-7.292-1.86.075-3.725.524-5.278 1.54l-1.122.888c-.07.082.016-.027-.074.09-.829 1.06-1.54 2.193-2.373 3.272-.254.31-.47-.156-.47-.156l.267-.246s-.43.461-.028-.196c1.783-2.928 4.117-5.677 7.804-6.396 10.915-2.123 22.335 3.69 30.632 9.52 0 0 1.513 1.138 2.56 1.97 0 0 1.885 1.58 2.737 2.354 3.804 3.456 8.14 6.685 10.724 10.744l-.129 1.118c.004-.004-.934-.063-1.087-.254z" fill="#fff"/><path fill-rule="evenodd" clip-rule="evenodd" d="M36.18 35.143c-.263.638-.134-.891-.282 1.904-.532 9.896 8.487 18.954 16.04 23.067 6.448 3.51 13.782 5.102 20.804 5.13l.594.226.27.547-.211.564c-1.06.547-1.486.387-2.084.433-5.086.407-10.224-.082-15.189-1.774l-.062-.024C47.7 61.967 40.5 55.38 36.887 47.1c-1.611-3.695-2.4-7.839-1.505-11.713.136-.599.656-1.36.61-1.271.344-.649.215-.497.215-.497l-.22-.234s.376-.516.685-.05c.504.758-.575 1.985-.493 1.81zm.09-1.485c.01.003.05.02 0 0z" fill="#fff"/><path clip-rule="evenodd" d="M134.737 68.759c15.118.02 30.366.801 44.906 4.797 2.048.68 4.07 1.427 6.063 2.244l.622.582.059.822-.552.59c-1.407.121-1.849-.215-2.506-.395a99.356 99.356 0 00-4.386-1.071s-4.035-1.072-7.342-1.728c-17.336-3.468-35.222-3.23-52.972-2.67-36.027 1.137-71.558 7.06-107.213 15.075A167.603 167.603 0 004.64 88.65c-.105.031-.105.035-.152.05-1.255.439-2.561.927-3.82.873-.18-.36-.238-.333-.262-.645 0 0 .551-1.154.32-1.119.302-.09-.101.067.427-.172.907-.406 1.505-.754 1.505-.754 4.379-1.705 9.012-2.46 13.578-3.53 38.342-8.934 77.286-14.408 116.339-14.587.715-.008 1.438-.008 2.162-.008z" stroke="#fff" stroke-width="2" mask="url(#a)"/><path clip-rule="evenodd" d="M.633 88.96s1.055-.095 1.141.05c.9 1.537 1.08 2.178 1.412 3.132 1.43 4.07 2.389 8.319 3.726 12.467 1.54 4.762 2.783 9.802 5.184 13.934.305.52.856 1.244.856 1.244.14.164-.07-.067.192.215l.68.594c.176.121-.082-.043.227.148l.68.341c.219.09-.055-.012.293.109 4.098 1.365 8.863-.907 13.07-1.802 7.8-1.65 15.69-2.893 23.563-4.187 0 0 1.506-.047 2.698-.012l.9.027 1.055.602-.806.911c-1.25.469-2.924 1.091-2.924 1.091-8.445 1.357-16.905 2.639-25.248 4.426-.946.207-1.08.254-1.58.379-5.078 1.325-11.04 3.495-14.88-1.376-1.595-2.025-2.424-4.563-3.303-7.034a217.4 217.4 0 01-2.495-7.487C3.358 101.314 2.424 95.508.132 90.46c-.273-.605-.12-2.197.438-2.029l.274.239c0 .012-.297.305-.211.29z" stroke="#fff" stroke-width="2" mask="url(#a)"/><path clip-rule="evenodd" d="M71.948 74.376l-1.005 2.19c-3.62 4.996-6.576 10.673-8.777 16.147-5.794 14.426-6.806 30.256-5.99 45.988l-.504.595s-.39-.341-.59-.513c-1.544-15.4-1.56-31.409 3.84-46.04 2.2-5.973 5.203-11.232 9.163-16.232.485-.61 1.064-1.333 1.064-1.333.774-.743 1.935-1.638 1.935-1.638.332-.008.72-.055.934.101 0 .004-.195.755-.07.735z" stroke="#fff" stroke-width="2" mask="url(#a)"/><path clip-rule="evenodd" d="M66.142 127.258s-.957 1.478-1.333 1.974c-1.9 2.522-3.765 5.102-5.735 7.538-.11.133.121-.203-.211.305-.505.774-.974 1.58-1.587 2.264l-1.287.129-.332-.149.14-1.223c.263-.309.052-.04.29-.391.618-.911.598-1.177 1.364-2.291 1.83-2.569 3.773-5.067 5.548-7.659 0 0 .763-1.932 1.885-2.937 0 0 .379-.418.766-.582 1.153-.477 2.963.293 2.963.293 1.04.794 1.9 1.818 2.78 2.764.54.583.755.72 1.146 1.071a75.45 75.45 0 0010.509 7.929l.48.637-.074.763-.602.457c-1.044-.09-1.376-.352-1.853-.594-4.062-2.041-7.964-4.387-11.596-7.252-1.72-1.353-1.974-1.873-2.838-2.51.004.004-.32-.43-.422-.536z" stroke="#fff" stroke-width="2" mask="url(#a)"/><path clip-rule="evenodd" d="M80.115 74.713s.172-.246.032.407c-2.483 11.885-2.764 24.462-2.088 36.066.407 7.033 1.282 14.078 3.773 20.666.532 1.818 1.106 3.628 1.564 5.466l-.294.876-.692-.356c-.754-1.74-1.626-3.437-2.467-5.149 0 0-1.415-3.581-2.02-6.06a59.373 59.373 0 01-.286-1.216c-3.23-14.297-3.214-29.588-1.22-43.604 0 0 .504-2.674.876-4.082a42.58 42.58 0 011.114-3.612l1.196-.051-.3-.2s.37-1.114.734.622c.012.07.047.282.078.227zm21.824-3.683l1.079.688c.305.282-.109-.258.849.962 3.647 4.61 6.454 8.812 9.121 13.304l.109.188c4.981 8.914 7.948 18.888 9.184 29.162.59 4.934.852 9.899.969 14.864l-.418 1.768-.371.512-.407-.485c-.219-.618-.532-1.486-.532-1.486-.031-.539-.062-1.079-.097-1.618-.911-14.138-3.562-28.486-10.826-40.942 0 0-1.458-2.588-2.811-4.785-1.419-2.31-2.882-4.598-4.332-6.881-.297-.466-1.298-1.674-2.084-2.893 0 0-.356-.806-.473-1.724 0 0 .168-.571.485-.77 0-.009.543.222.555.136z" stroke="#fff" stroke-width="2" mask="url(#a)"/><path clip-rule="evenodd" d="M135.128 120.291c-4.137-2.784-.978-.442-.978-.442-.836.974-1.474 2.94-1.97 3.785-1.513 2.553-3.3 4.973-5.36 7.068-.598.606-.583.622-.583.622-.84.676-2.189 1.548-2.189 1.548-.622-.082-1.454-.117-1.576-.59 0 0 .286-1.384.641-1.767.071-.075.141-.157.212-.235a32.93 32.93 0 00.852-1.024c2.389-2.256 4.617-4.696 6.376-7.511.458-.731.102-.117.298-.516 0 0 .512-.954.95-2.056.097-.25.715-1.685 1.876-2.041 1.764-.543 3.265.504 4.911 1.537 1.528.961 2.6 1.552 3.87 2.341l.168.106c1.799 1.177 3.574 2.389 5.353 3.601l.004.008c.559 1.083.535 1.094 1.02 2.212l-1.583.04-.86-.036a641.889 641.889 0 00-3.468-2.044c-2.592-1.509-4.891-3.019-7.855-4.536-.039-.015-.043-.023-.109-.07z" stroke="#fff" stroke-width="2" mask="url(#a)"/><path clip-rule="evenodd" d="M111.674 70.631s1.11.356 2.099.747c0 0 1.162.708 1.951 1.204 12.628 7.952 21.359 22.007 26.648 35.847.946 2.475 1.81 4.977 2.612 7.499 1.13 3.573 2.721 7.033 3.562 10.673l-.391.665-.661-.399c-.848-3.03-2.365-5.786-3.441-8.82-5.023-14.071-11.779-28.153-23.41-37.708-.497-.407-2.983-2.42-5.267-4.043a155.215 155.215 0 00-3.155-2.185s-1.341-.911-2.123-2.033l.118-1.095-.364-.004s-.575-.95 1.427-.579c-.008.004.227.114.395.231z" stroke="#fff" stroke-width="2" mask="url(#a)"/><path clip-rule="evenodd" d="M148.944 109.857c.208.004.45.004.45.004 6.627.461 13.215 1.474 20.146 1.958 1.545.102 3.105.176 4.618-.164l1.051-.36c2.139-1.188.86-.332 1.572-1.724 0 0 .927-4.41 1.142-7.96.219-3.362.832-6.693 1.677-9.961.668-2.573 1.638-5.157 2.561-7.726.07-.2.074-.2.148-.399.79-2.091 1.599-4.179 2.381-6.279l.637-.664 1.154-.727.485 1.274c.109.939-.059 1.459-.262 2.12-1.361 4.405-2.843 8.78-3.957 13.233-.977 3.945-1.763 8.035-2.17 12.269-.391 3.948-1.427 8.398-6.111 9.418-2.697.586-5.5.195-8.237.059-5.673-.294-11.373-1.15-16.948-1.455 0 0-3.097-.418-5.779-.285l-.477-.203c-1.204-.528-1.063-.391-1.063-.391l-.34-.137s.614-.884 1.399-1.466c0 0 1.678-.313 2.909-.372a55.04 55.04 0 013.014-.062zM24.923 123.923s.986 3.976 1.967 7.64c4.766 17.827 10.192 35.628 14.235 54.687 4.09 19.271 6.943 38.917 10.955 58.078l-.474.766s-.504-.324-.758-.493c-4.629-19.098-8.066-38.384-12.358-57.792-2.49-11.779-5.822-23.594-8.715-35.311-2.181-9.012-4.598-18.078-6.502-27.004-.062-.332-.164.313.02-1.232.309-2.611.493-.797.493-.797l-.243-.27s.247-.328.567-.278c.59.094.892 1.033.892 1.033-.008.324-.067.832-.063.813-.012.086-.012.086-.016.16z" stroke="#fff" stroke-width="2" mask="url(#a)"/><path clip-rule="evenodd" d="M174.693 115.002a101.465 101.465 0 00-.309 3.264s-.93 4.179-1.587 7.194c-6.142 28.301-8.789 57.346-12.225 86.164l-.055.473a5931.253 5931.253 0 00-3.112 25.416l-.313.599-.61.199-.547-.321-.188-.641a2529.06 2529.06 0 012.08-24.709l.074-.828c.309-3.195.626-6.389.947-9.583l.027-.266c.575-5.11 1.169-10.223 1.783-15.329l.113-.95c.551-4.438 1.126-8.879 1.724-13.313 2.542-18.864 4.434-31.922 7.984-47.435a252.938 252.938 0 011.697-6.924s.778-2.002 1.649-3.714c.9-1.709.254-.899.681-1.271.879-.766.371.579.219 1.689-.012.082.027-.207-.032.286zm.176-1.572s-.281.238 0 .008c0 0 .047-.059 0-.008zm-.461-.196l.051.161c0 .004-.043-.211-.051-.161z" stroke="#fff" stroke-width="2" mask="url(#a)"/><path clip-rule="evenodd" d="M156.275 237.181l1.63 1.2c-.058.825-.352 1.482-.352 1.482-1.098.774-2.408 1.157-3.671 1.603-.281.102.075-.047-.805.317-6.052 2.502-12.202 4.601-18.637 5.735-18.254 3.218-37.404.426-55.384-.555-5.602-.313-11.201-.688-16.788-.977l-.438-.024c-2.983-.184-5.954-.387-8.96-.532l-.59-1.075-.024.368s-1.001.156.473-1.071c0 0 2.948-.039 5.301.015 1.646.043 3.894.098 3.894.098 16.17.555 32.509 1.744 48.468 2.021 13.488.239 26.835-1.356 39.866-6.705 1.744-.715 3.659-1.137 5.141-2.127.008 0 .708.243.876.227z" stroke="#fff" stroke-width="2" mask="url(#a)"/><path clip-rule="evenodd" d="M82.715 73.106c.11.43-.164-.371.383 1.036.18.473.188 2.807.27 4.727 1.447 33.818 4.098 67.914 7.483 101.967l.121 1.227.305 3.23c1.38 14.27 2.495 28.532 4.129 42.755.684 5.947 1.583 11.878 2.928 17.711l-.074 1.431-.426.864s-.516-.379-.778-.563c-.305-.481-.692-1.103-.692-1.103-3.968-16.319-4.68-33.384-6.326-49.718-.446-4.461-.887-8.922-1.317-13.383l-.094-1.001c-2.74-30.057-4.837-60.314-6.08-89.984-.23-5.782-.363-11.54-.57-17.386-.008-.34-.345-2.424.472-2.392.458.02.266.692.266.582zm17.598-.712s.203 1.138.438 2.334c.015.087.179.872.195 1.048.227 2.592.438 5.18.657 7.769l.031.379c2.659 43.127 8.113 86.246 11.397 129.584.246 3.292.438 6.604.723 9.884.766 8.534 3.081 16.893 3.073 25.487l-.575.582-.582-.579c-.043-8.827-2.6-17.554-3.308-26.409-2.357-30.843-5.829-61.795-9.187-92.838-1.908-17.855-3.171-35.78-4-53.734 0 0-.059-2.686.383-4.257.669-2.354-.133-.32.207-.567.137-.098-.324-.223-.324-.223s.242-.536.641-.219c.512.403.231 1.61.231 1.61v.15z" stroke="#fff" stroke-width="2" mask="url(#a)"/><path clip-rule="evenodd" d="M83.837 112.132l.004 1.685-.191.434a24.667 24.667 0 00-1.076-.027c-1.567-.004-3.139.093-4.683.387l-.638.097-.523-.899c.02-.954.093-.598.555-.821 0 0 2.416-.86 4.351-1.11.802-.102 1.994-.18 1.994-.18.07.145.14.289.207.434zm18.735.989l.094-.821s-.32.422-.485.301c-.351-.262.552-.938.56-.938.668.019.312.004.347 0 .802-.137 1.928-.313 1.928-.313a80.91 80.91 0 0115.279-.418l.617.293.235.637-.285.602c-.599.227.422.243-2.119.219-3.476-.023-6.94.114-10.396.399l-3.073.141s-2.635-.082-2.67-.09c-.012-.008-.02-.008-.032-.012zM82.309 57.045a13.72 13.72 0 00-5.9 2.08c-.238.153.102-.097-.403.282-.152.113.075-.07-.25.2-.262.214-.094.058-.387.351-.113.114-.649.79-.649.79-.176.262.051-.094-.156.242 0 0-.364.708-.38.731-.156.344-.003-.02-.16.387l-.156.485c-.07.262.012-.074-.067.266l-.082.485c-.031.266.004-.07-.027.27 0 0-.008.782-.012.742.024.493-.004.13.043.524l.082.497c.11.485.024.137.137.524l.168.492c.188.47.043.13.227.513 0 0 1.349 2.357 3.284 3.807.305.352 1.001.974.892.911 1.794 1.686.351 1.287.351 1.287s.41-.653.485-.2l-.739.642c-.324.168.262.285-.868-.09-.825-.282-1.517-.583-1.517-.583-3.8-2.592-6.626-7.315-4.511-11.909 2.24-4.867 9.441-6.368 14.153-4.89 3.041.957 5.919 2.552 9.195 2.369l.364.293s-.196.348-.599.399c-3.862.45-7.655-1.619-11.435-1.92-.031-.004-.5-.012-.516-.012-.376.012.074-.011-.387.02 0 0 .12-.012-.18.015z" stroke="#fff" stroke-width="2" mask="url(#a)"/><path clip-rule="evenodd" d="M100.61 70.455c.234-.915.504-2.256.504-2.256.09-.168.18-.34.274-.512.355-.68.696-1.372 1.016-2.072.958-2.08 1.978-4.136 2.522-6.435.023-.094.133-.849.133-.849.023-.496.058 0-.016-.621l-.277-.868c-.2-.36-.012-.047-.212-.332-.172-.247-.645-.68-.672-.704-.571-.458-.102-.153-.88-.583 0 0-7.217-2.33-12.862.301-1.197.556-2.272.864-3.312 1.365-1.204.575-1.18-.031-1.18-.031l-.352.09s.129-1.549.676-1.858c.872-.48 1.81-.832 2.702-1.274.113-.055-.364.195.473-.262 4.116-2.209 9.039-2.987 13.605-1.439 2.604.884 5.016 2.78 5.251 5.614.336 4.086-2.033 7.933-4.414 11.803l-2.041 1.744-.844.211c-.004-.004-.176-.715-.094-1.032z" stroke="#fff" stroke-width="2" mask="url(#a)"/><path clip-rule="evenodd" d="M145.449 0c8.996.102 18.293 6.298 18.184 16.983-.078 7.608-4.14 14.81-8.539 21.198-5.985 8.7-13.574 16.272-22.195 22.348-6.056 4.12-12.569 7.55-19.47 9.86l-.07.023c-3.194.723-6.424 1.294-9.614 1.986l-.524.114-.84-.387.426-.821c2.967-1.4 6.001-2.675 8.976-4.074 0 0 2.995-1.11 5.282-2.147 15.51-7.013 29.358-18.598 38.42-33.286 4.051-6.568 7.542-14.454 3.957-21.315-1.869-3.57-5.392-6.181-9.325-7.221-10.571-2.8-22.425 3.26-30.491 10.626-10.079 9.203-17.531 21.194-22.781 33.9a64.272 64.272 0 00-2.01 4.277c-.219.52.313.036-.563.966-.195.196-.543.29-.672.055l-.086-.352s-.387-.997-.004-2.42a74.488 74.488 0 011.005-3.335l.043-.129c5.985-14.587 14.461-28.442 26.988-37.935 6.799-5.149 15.134-8.781 23.391-8.91.172-.004.34-.004.512-.004z" stroke="#fff" stroke-width="2" mask="url(#a)"/><path clip-rule="evenodd" d="M100.903 52.757s-.602.617-.63-.102l-.383-.485c.016-.43-.207.387.325-1.58 0 0 3.898-7.216 7.334-11.783 5.024-6.681 10.967-12.866 18.587-16.444 3.354-1.58 6.99-2.62 10.724-2.924 5.743-.47 12.174 1.638 15.318 6.877l-.024.184s-3.151-3.03-6.232-3.968a15.337 15.337 0 00-3.573-.622c-9.962-.587-19.302 4.934-25.311 10.415-5.935 5.419-10.963 11.909-14.786 19.067l-.724.966c-.156.325.09.074-.355.282l-.814-.04c.004 0 .45.028.544.157z" stroke="#fff" stroke-width="2" mask="url(#a)"/><path clip-rule="evenodd" d="M138.779 20.553l.239-.074.223.32-.149.767.383-.121.38-.978c.074.063.148.121.219.188 2.384 2.091 3.725 5.258 3.831 8.32.176 5-2.424 9.746-4.985 13.593-4.191 6.29-10.212 11.166-16.229 15.72 0 0-1.775 1.318-3.37 2.437a157.286 157.286 0 01-12.245 7.764c-.308.176-1.888.962-3.37 1.634 0 0-.586-.015-.993-.086l-.32-.594.344-.798.813-.527c.711-.466 1.748-1.162 1.748-1.162 9.875-5.684 19.583-12.057 27.496-20.26a43.383 43.383 0 002.834-3.22c4.227-5.341 8.203-11.995 5.493-18.071-.582-1.31-1.411-2.569-2.467-3.483l-.062-1.185c.094-.137.058-.09.187-.184zM73.02 67.867s.883-.77 1.689-.598c0 0 .32.406.234.649 0 0-.54.958-.383.84-.129.122-.121.122-.121.122-1.693 1.689-4.555 1.61-6.65 1.822a35.655 35.655 0 01-4.88.148 43.416 43.416 0 01-2.013-.121c-8.406-.696-16.964-2.506-24.463-5.622-7.002-2.913-13.042-7.91-16.588-15.08-5.606-11.33-7.952-26.042 2.631-33.423 9.829-6.857 25.354-1.9 35.41 5.27 1.184.84 2.33 1.728 3.448 2.655 2.115 1.755 4.097 3.663 5.981 5.661 2.034 2.15 3.844 4.54 5.627 6.936l.09.117c1.903 2.694 3.71 5.458 5.469 8.25.121.195.121.195.242.386 1.803 2.937 3.554 5.9 5.325 8.852l.454.758.457.755-.055.516-.5-.133c-4.578-5.81-9.043-11.74-13.985-17.328a102.903 102.903 0 00-5.168-5.668s-1.771-1.908-3.359-3.43c-7.795-7.47-17.57-13.8-28.817-13.804-5.728-.004-11.76 2.338-14.52 8.507-2.675 5.97-1.275 12.89.68 18.426 1.978 5.61 4.761 11.053 9.324 14.74 8.558 6.912 20.31 8.726 31.457 10.059 3.76.438 7.522.418 11.373-.148-.008-.004 1.442-.094 1.61-.114z" stroke="#fff" stroke-width="2" mask="url(#a)"/><path clip-rule="evenodd" d="M75.06 58.414c-3.311-4.086-8.147-6.744-12.24-9.966a158.536 158.536 0 00-4.207-3.198s-2.929-2.225-5.388-3.792c-6.685-4.254-14.23-7.616-22.328-7.292-1.86.075-3.725.524-5.278 1.54l-1.122.888c-.07.082.016-.027-.074.09-.829 1.06-1.54 2.193-2.373 3.272-.254.31-.47-.156-.47-.156l.267-.246s-.43.461-.028-.196c1.783-2.928 4.117-5.677 7.804-6.396 10.915-2.123 22.335 3.69 30.632 9.52 0 0 1.513 1.138 2.56 1.97 0 0 1.885 1.58 2.737 2.354 3.804 3.456 8.14 6.685 10.724 10.744l-.129 1.118c.004-.004-.934-.063-1.087-.254z" stroke="#fff" stroke-width="2" mask="url(#a)"/><path clip-rule="evenodd" d="M36.18 35.143c-.263.638-.134-.891-.282 1.904-.532 9.896 8.487 18.954 16.04 23.067 6.448 3.51 13.782 5.102 20.804 5.13l.594.226.27.547-.211.564c-1.06.547-1.486.387-2.084.433-5.086.407-10.224-.082-15.189-1.774l-.062-.024C47.7 61.967 40.5 55.38 36.887 47.1c-1.611-3.695-2.4-7.839-1.505-11.713.136-.599.656-1.36.61-1.271.344-.649.215-.497.215-.497l-.22-.234s.376-.516.685-.05c.504.758-.575 1.985-.493 1.81zm.09-1.485c.01.003.05.02 0 0v0z" stroke="#fff" stroke-width="2" mask="url(#a)"/></svg>