<svg width="250" height="170" fill="none" xmlns="http://www.w3.org/2000/svg"><mask id="a" maskUnits="userSpaceOnUse" x="-.305" y=".32" width="250" height="200" fill="#000"><path fill="#fff" d="M-.305.32h250v200h-250z"/><path fill-rule="evenodd" clip-rule="evenodd" d="M139 57.157l-.456.114s-.829 1.831 2.395-.781a81.833 81.833 0 001.806-1.523c2.668-3.227 5.71-7.218 3.909-11.558-2.363-5.701-11.275-7.037-16.62-3.524-1.719 1.128-3.254 2.505-4.834 3.83 0 0-1.341 1.46-2.231 2.337-.307.306-.62.602-.944.889l-.187.67.677.146c1.442-.56 1.684-.703 2.624-1.215 3.956-2.15 6.977-6.505 12.073-6.074 3.669.311 7.848 2.597 7.135 6.42-.187.991-.044.275-.178.77 0 0-1.352 3.226-3.336 5.79-.179.333-.358.667-.542.996-.474.863-1.2 2.142-1.204 2.153-1.099 1.842-.041.576-.087.56z"/><path fill-rule="evenodd" clip-rule="evenodd" d="M110.802 46.153c.06-.207-.077.193.122-.399.608-1.78 2.061-2.641 2.241-2.759.482-.312.103-.125.805-.453l1.137-.385c1.185-.26.38-.127 1.274-.172 4.236-.21 8.543 1.26 13.12.305l1.397-.922c1.47-1.275.271-1.215.271-1.215l-1.293.084c-1.285-.159.237-.204-1.559-.032-5.663.512-11.589-2.881-16.571-.08-5.607 3.146-5.641 12.55.972 19.492l1.154.206.09-1.053c-2.18-3.104-3.558-6.862-3.499-10.442-.002-.075.089-1.057.082-1.031.069-.484-.06.056.15-.743.096-.36.021-.092.107-.401z"/><path fill-rule="evenodd" clip-rule="evenodd" d="M206.572 35.392s-.114.809-.116.834c-.087.41.041-.089-.134.545l-.374.975c-.211.416.008.029-.271.472l-.481.634c-.222.252.105-.11-.245.274-.201.21-.401.42-.602.635-11.941 12.17-31.135 16.26-47.822 16.919-5.506.215-11.02.08-16.53-.22l-.539.448.461.523c14.767 1.518 29.85 1.62 44.042-2.352 5.665-1.592 11.228-3.936 16.127-7.29 4.08-2.79 8.478-6.554 9.093-11.04.944-6.867-3.162-14.264-6.235-19.893a66.834 66.834 0 00-2.493-4.179s-1.397-2.27-2.652-4.047c-2.297-3.239-5.144-6.5-8.7-7.154-1.798-.33-2.626-.065-3.687.127-5.063.911-9.663 3.72-14.316 5.717-3.335 1.438-6.657 2.92-9.919 4.503l-.129.063c-11.875 6.205-22.122 14.73-31.348 24.538-1.176 1.287-1.361 2.293-2.058 3.504-.323.563-.136.264-.416.638l-.634.984s1.214-.111 2.177-.851c1.034-.787 2.254-1.892 2.254-1.892.782-.954.575-.653.529-.603 9.106-9.179 19.125-17.405 30.957-23.482.215-.116.424-.231.644-.348 5.093-2.74 10.34-5.19 15.469-7.88 2.964-1.543 6.049-3.083 9.347-3.243l.756.033c.523.065.145.001.577.105 0 0 .823.258.844.266.417.166-.013-.029.576.256.09.042 2.159 1.32 3.429 2.623 6.625 6.82 10.374 16.038 12.058 24.621.233 1.172.408 2.37.387 3.567-.002.608.002.286-.026.67z"/><path fill-rule="evenodd" clip-rule="evenodd" d="M92.183 59.459c-25.124 2.444-50.21 5.126-75.126 9.121-4.843.79-9.702 1.682-14.325 3.309l-.938.843s-.092 1.193-.07 1.27l.843.934 1.256.07C11.407 72.33 19.5 71.5 27.365 70.24c21.826-3.444 43.772-5.534 66.003-7.686 40.452-3.921 81.417-2.385 121.74.627 9.181.683 18.337 1.428 27.356 3.667l.642.154c4.96 1.162 2.765.99 4.638-.579l-.565-.654c-.679-.808-2.507-1.23-2.507-1.23-.195-.052-.386-.099-.576-.151-11.197-3.024-23.035-3.834-34.58-4.672-38.166-2.762-76.646-4.04-114.696-.504-.881.08-1.761.164-2.637.248z"/><path fill-rule="evenodd" clip-rule="evenodd" d="M63.835 2.355c-7.965.843-13.857 8.098-17.65 14.715-2.767 4.817-4.986 9.904-6.884 15.145-.643 1.773-1.14 3.662-.913 5.558 0 0 .227 1.48.722 2.727 3.268 8.235 12.399 12.28 19.73 15.248a77.297 77.297 0 005.91 2.115c6.68 2.091 13.646 3.292 20.65 3.776l.576.04.67-.55-.561-.67c-13.198-1.588-26.327-5.562-37.252-13.611-4.012-2.954-8.277-6.873-7.15-11.72 1.582-6.811 5.044-13.387 8.57-19.02 3.29-5.269 7.878-10.521 14.394-11.034 5.246-.412 10.412 1.699 15.38 3.944 10.766 4.867 20.464 11.9 29.171 20.006 0 0 3.253 2.896 5.784 5.37 2.032 1.984 3.989 4.08 5.895 6.157 1.058 1.148.598-.143.766.092.47.658-2.798-3.903-5.362-6.835a145.389 145.389 0 00-1.867-2.1C103.65 19.833 89.967 9.608 75.028 4.186c-3.573-1.3-7.438-2.195-11.193-1.83zm57.6 38.152c-.876-.026.308.076 0 0z"/><path fill-rule="evenodd" clip-rule="evenodd" d="M63.252 26.896c-5.388.556-10.677 2.618-14.47 6.51l-.126.569s4.027-2.655 7.343-3.72a23.598 23.598 0 012.094-.567c11.066-2.439 22.749.424 31.825 3.42 6.5 2.149 12.689 5.356 17.77 9.93.719.648 1.314 1.56 1.319 1.565.207.276.188.338.167.175 0 0 .366.572.625.126 0 0-1.263-2.239-3.348-4.037-9.285-8.016-21.799-11.953-33.075-13.555-2.666-.377-5.352-.587-8.044-.555-.006-.01-1.036.034-2.08.139zm45.916 17.862c.597-.624.013-.177 0 0z"/><path fill-rule="evenodd" clip-rule="evenodd" d="M61.765 28.188a15.416 15.416 0 00.462 3.84s.561 1.452 1.318 2.705c4.236 6.968 12.179 10.61 19.561 13.377 7.757 2.907 15.832 5.046 24.109 5.93 1.196.126 2.959.189 2.959.189.853-.112-.024-.676-.024-.676l-.277.208s.445-.179-.226-.22c-2.159-.16-2.76-.308-3.565-.427-12.954-1.927-26.38-5.908-36.06-14.016-2.473-2.073-4.644-4.626-5.766-7.69 0 0-.815-1.589-1.194-3.35l-.715-.599c-.193.24-.39.484-.582.729zm111.173-1.961c-8.728.9-17.002 4.288-25.153 7.653-3.153 1.3-6.247 2.75-9.218 4.43l-.296.998s.59.5 1.541.008c7.772-3.967 16.125-6.588 24.555-9.026 8.371-2.422 17.582-4.152 25.843-.069 2.593 1.283 4.861 3.164 6.77 5.336.597.675.244.292.515.768a32.986 32.986 0 001.247 1.964l.468.01s-.322-.952-.31-.933c-.219-.401-.128-.234-.227-.435-4.18-8.69-16.091-11.631-25.735-10.704z"/><path fill-rule="evenodd" clip-rule="evenodd" d="M181.4 30.733c-.361.788 1.096-1.344-1.521 2.41 0 0-2.577 4.382-5.621 7.67-7.713 8.353-19.498 13.19-30.711 10.88l-.758.474.479.752c14.735 3.66 30.745-5.12 38.935-18.202 0 0 1.366-2.72 1.655-4.164.119-.588.31-1.475.303-1.45.326-1.26-.194-1.03-.194-1.03s-.232-.535-1.226-.219c0 0-.714 1.565-1.29 2.784-.029.058-.029.058-.051.095zm65.922 37.417l.06-1c.17-1.056.101-.512.148-.753.063-.342-.15.055-.15.055s.527-.311.101-.627c0 0-.179-.455-.775.45-2.229 3.406-1.438 7.642-1.406 11.855.276 37.655-3.716 75.145-4.91 113.759l-.013.438.564.232 2.17.063.578-.201c.992-34.111 4.865-68.072 4.65-102.309-.037-5.9-.155-11.8-.268-17.703 0 0-.37-2.55-.733-4.246-.016-.064-.008.07-.016-.014zm-.36-1.974s.372.577.032.127c0 0-.036-.172-.032-.127z"/><path fill-rule="evenodd" clip-rule="evenodd" d="M12.405 196.313l-.449 1.027.41 1.03 1.011.445c53.967.974 108.153-4.939 161.917-6.711 20.795-.684 41.459.094 62.311 1.416.414.026.823.047 1.242.072.948.045 2.301.071 2.301.071 1.066-.288 1.58-1.21 1.58-1.21 1.035-2.925-1.576-1.466-1.576-1.466-9.699-.015-19.478-1.243-29.439-1.63-42.966-1.681-86.033 2.777-128.956 5.012-23.094 1.206-46.185 1.975-69.306 1.538a30.54 30.54 0 00-1.046.406z"/><path fill-rule="evenodd" clip-rule="evenodd" d="M1.695 73.956c2.57 38.183 5.413 76.294 9.637 114.971.29 2.723.576 5.451.843 8.181l.046.488.505.288 1.581-.152.441-.378c-3.443-35.715-7.102-71.65-9.755-107.712l-.039-.558c-.357-4.524-.72-9.047-1.092-13.569l-.144-1.718c-.77.034-.256-.05-2.023.159zm243.286-7.55c-.627.265-.542-.104-.312.828l-1.79-.873c-.795-.436-1.543-1.123-2.351-.965l-1.371-.01c-.323.298-.252.045-.252.045l-.337-.374-.736-.035-.03.525-.566.069s-.167 1.03.672.829c.083.077.166.16.244.243 3.421 3.547 4.732 9.059 6.255 12.858.807 1.77.954.115.954.115.128-.243-.125-.731.394-.77.846-.067.095-1.887-.41-3.706 0 0 1.23.53 1.084-1.103-.209-2.344-.333-3.426-.242-5.307.057-.658.319-1.491-.408-1.793-.001-.01-.336-.686-.798-.576zm-27.413 43.987c-.709.093-1.993 1.095-.695 1.342 0 0-.519.451.017.224 0 0-.665.556-.076.936 0 0 .511.358 1.006-.709 1.5-.906 2.348 1.668 3.346 1.442 0 0 .46-.435.285-.896-.74-1.967-1.418-1.917-3.057-2.262-.272-.059-.398-.122-.826-.077zm-.39 1.539c.172.063.312.16.379.34 0 0-.788-.372-.379-.34z"/><path fill-rule="evenodd" clip-rule="evenodd" d="M218.687 110.708a.61.61 0 00-.439.81s1.815.505 1.825.504c.071.008-.215-.1-.289-.349l.612.413s.671-.491.265-.899c-.322-.326-1.016-.284-1.037-.292-.732-.252-.669-.227-.937-.187zm.53.447c.075.259-.249.546-.249.546s.221-.634.249-.546zM83.376 133.068c-1.194-.518-.703-.424-.79-.537-.753-.946-2.591.088-2.24 1.083.348.961.429.391.706.605.548.435 1.301-.139 1.812.163 0 0 .183-.183-.173.393l.164.717s.96-.307.64-.086c-.213.146 1.164-.257.913-1.041-.505-1.558-.18-.896-1.032-1.297zm64.616-73.89c-.233.078-.244.224-.281.418a763.43 763.43 0 00-1.23 6.187s-.098 1.018-.155 1.736c-1.946 24.2-3.018 48.666-4.341 73.082l-.205 3.884c-.76 14.82-1.566 29.639-2.131 44.45 0 0 .188 2.02.342 3.416l.558.644.595-.609c.088-.495.176-.99.269-1.486.455-2.433.391-2.939.449-4.124 1.634-29.917 3.688-59.492 5.531-89.167l.057-.93c.509-10.262.831-20.528 1.339-30.64-.13-2.101-.257-4.207-.376-6.289-.03-.574-.155-.1-.155-.1s.209-.547-.266-.472zm-42.007.11c-.501 1.689-.324 3.54-.364 5.32l.266 4.2c.102 1.688.208 3.38.314 5.066 1.272 20.267 3.097 40.596 4.77 60.906l.227 2.738c1.549 18.449 3.078 37.05 4.763 55.341l.065.671.916.766.766-.917c-3.738-42.834-7.489-85.863-9.977-128.07-.061-.947.071-.252-.189-1.296-.292-1.162-.627-2.305-.816-3.486-.105-.678-.058-.24-.079-.83-.006-.005.123-.971-.662-.41zM65.924 28.01l-.345.545c.275 2.499.385 5.54.787 8.644l.49.455s.31-5.009.182-7.707c-.065-1.36.282-.665-.152-2.32 0 0-.428-.275-.67-.237.004-.005-.149.702-.292.62zm1.186 34.637c-.197-1.904.051-3.87-.356-5.719-.057-.275.074-.057-.114.132 0 0-.777-1.512-.5.329.028.188.018.189.018.189l.01 1.043c-.001 1.46-.183 2.913-.106 4.357l.589.485.491-.584c-.02-.113-.02-.113-.032-.232zm78.006-17.946l.137 1.322c1.77 1.457 3.959 2.297 6.003 3.31.623.318-.414.231 1.947.773.431.105-.139-.037.589.124l.301-.104.333.335s1.099.15-.39-1.398c-.379-.396-1.36-.995-1.36-.995-2.066-1.192-4.372-1.995-6.195-3.477 0 0-.813.052-1.365.11zM73.204 63.644c-.175-.098.218.341.276.531.13.455.224.917.293 1.383.22 1.404.25 2.877.05 4.286-.52 3.65-3.528 5.895-6.852 6.98-6.623 2.18-13.589-.115-16.206-6.796-.591-1.514-1.251-3.745-.686-5.385l23.125-.999z"/><path fill-rule="evenodd" clip-rule="evenodd" d="M73.955 63.211l-.261 1.1-.775-.022.203-1.495c-.793.046-.405-.037-.708.414l-.026.941c.1.839.02.254.146.79 0 0 .516 2.716.222 4.837-.016.097-.211.939-.219.964-.15.472.003.08-.248.657-.042.089-.434.81-.442.83-.263.401-.02.067-.404.56-.054.066-.631.693-.645.71-.358.345-.118.132-.537.473l-.688.512c-.807.54-.94.572-1.356.778-3.997 1.933-8.965 2.047-12.767-.55 0 0-.448-.329-.427-.311-.803-.63-.432-.32-1.025-.906-1.842-1.831-2.398-3.394-2.931-5.195 0 0-.187-.74-.185-.726-.16-.727-.098-.392-.16-.978l.135-1.69-.514-1.024-1.025.52c-1.89 5.59 3.857 12.35 9.368 13.754 8.015 2.04 18.021-2.808 16.083-13.314-.127-.69-.554-1.594-.554-1.594-.413-.11-.105.005-.26-.035zM32.68 92.89c-.24-.082.512-.049.754.014.489.124.934.372 1.356.638 1.313.823 2.087 2.245 2.342 3.751.536 3.141-2.214 6.296-5.479 5.75-1.5-.253-2.494-1.468-2.938-2.856-.614-1.904-.474-4.221.774-5.857 1.892-2.47 5.2-1.998 6.74.45l-3.55-1.89z"/><path fill-rule="evenodd" clip-rule="evenodd" d="M32.139 91.958c-5.345.637-6.474 12.757.875 11.878a5.26 5.26 0 00.988-.22c3.437-1.117 5.051-5.704 2.883-9.055 0 0-.444-.861-.982-1.347-1.027-.925-2.283-1.407-3.764-1.256zm.067 1.545c.357.217.99.066.552.103-.349.028 4.201.993 3.644 5.037-.326 2.36-2.91 4.67-5.357 3.389-3.07-1.604-2.491-7.934 1.13-8.541-.005.005.015-.001.031.012zm-8.244 30.504c-.34-.138.739.115 1.066.279a8.275 8.275 0 011.69 1.194c1.581 1.419 2.863 3.219 3.774 5.13 2.316 4.848 1.397 12.5-5.002 13.348-8.188 1.085-13.202-10.763-9.425-17.077 3.095-5.17 9.465-3.692 12.166.718l-4.269-3.592z"/><path fill-rule="evenodd" clip-rule="evenodd" d="M25.066 123.319c-.766-.394-.872-.404-1.255-.528-2.048-.682-4.376-.514-6.244.588-.817.48-3.315 2.907-3.928 6.203-1.408 7.534 4.416 16.724 12.028 15.7 7.348-.995 9.512-12.27 3.158-19.392-.983-1.1-2.14-2.074-3.529-2.578 0-.005-.002-.025-.23.007zm3.403 17.89l-.675.551c-.48.327-.125.107-.532.317l-.884.356c-.615.184-.145.064-.692.166 0 0-1.8.233-3.125-.188-6.197-1.976-9.158-12.405-3.59-16.682.053-.035.694-.418.727-.436 1.191-.561.66-.344 1.675-.441.094-.009.838 0 .863.002.75.069.162-.045 1.109.206.072.018.868.308.894.316.613.277.036-.044.893.471.08.048 1.01.752.977.72 4.877 4.327 5.739 10.765 2.637 14.334-.334.388-.057.081-.277.308zm51.21-8.64c-.197-.007.361-.156.552-.204.403-.099.83-.089 1.239-.068 1.13.052 2.272.345 3.336.719 3.256 1.135 6.585 4.244 7.136 7.79 1.078 7.025-8.694 12.171-14.631 10.656-6.04-1.54-7.967-9.602-4.916-14.547 2.728-4.433 10.706-6.195 14.825-2.649l-7.541-1.697z"/><path fill-rule="evenodd" clip-rule="evenodd" d="M79.457 131.983c-4.8.605-9.118 4.22-9.604 9.417-.566 6.107 4.229 12.359 11.09 11.613 6.8-.737 14.03-6.282 11.988-13.355-.685-2.379-2.365-4.416-4.395-5.904 0 0-3.309-1.686-5.45-1.923-1.237-.137-1.792-.059-3.629.152zm2.683.973s1.272.335 2.464.888c.74.341.207.061.942.503 1.428.867 2.54 1.84 3.49 3.003.233.289-.02-.058.379.501.028.033.406.624.412.638.258.443.028-.027.356.674.038.082.348.91.36.934.128.44.026.003.14.564 0 0 .104.834.102.804.036.639.048.241-.022.93-.02.208-.222 1.091-.23 1.117-.162.502.014.084-.285.735-.041.094-.422.783-.435.804-.17.267.14-.164-.313.462-.261.361.053-.025-.434.548 0 0-.51.551-.744.774-2.565 2.364-6.07 3.753-9.513 3.501-.227-.014.118.023-.38-.039-.112-.015-1.174-.254-1.174-.254-.564-.182-.164-.035-.667-.253l-1.158-.672c-.519-.382.288.866-1.483-1.494a18.482 18.482 0 01-.375-.562c-.389-.65.056.221-.56-1.066-.017-.033-.26-.637-.267-.652-.279-.761-.064.021-.356-1.195-.01-.05-.253-2.18-.252-2.215 0-.728-.045.05.05-1.009.001-.03.092-.706.095-.726.129-.705-.063.071.228-.976.176-.624-.037-.022.313-.928.012-.032.286-.63.294-.651.369-.708-.038-.082.582-.944.04-.054.71-.821.723-.837.468-.462-.06 0 .709-.625.577-.467.373-.292.784-.562.335-.223.199-.125.204-.125a11.966 11.966 0 015.464-1.697 5.21 5.21 0 01.557.102zm.73 62.653c-.1-.096-.423-2.118-.604-2.482-.963-1.936-2.478-3.714-4.253-4.954-7.581-5.313-15.457 1.078-18.1 8.343l22.957-.907z"/><path fill-rule="evenodd" clip-rule="evenodd" d="M72.349 187.048s.926.082.94.081c3.19.483 1.746.345 2.899.962 2.216 1.183 4.064 2.974 5.465 5.129.394.605-.024-.359.39.926.189.61.322 1.38.582 1.676l.466.041s-.172-3.211-1.398-5.106c-2.11-3.277-3.121-3.401-4.506-4.132-6.388-3.339-14.778 1.299-17.762 9.51l.285.932.754-.349c1.34-3.421 3.47-6.124 6.328-7.994.822-.535 1.86-.976 1.868-.982 3.572-1.441 1.758-.68 3.372-.699.156 0 .15.001.317.005zm91.748-10.667c-.038-.137 1.014-1.939 1.086-2.232.483-1.933.508-4.029-.032-5.95-1.644-5.801-9.197-7.412-11.609-1.253-1.747 4.459 2.459 13.794 8.268 11.501 1.388-.549 2.884-1.696 3.101-3.258.093-.661-.091-2.37.345-2.904l-1.159 4.096z"/><path fill-rule="evenodd" clip-rule="evenodd" d="M158.117 161.991c-5.459.652-7.743 8.837-3.401 14.55 2.056 2.71 5.972 3.871 8.9 1.683 1.067-.8 1.903-1.979 1.933-3.397 0 0 1.255-2.991.908-6.035-.43-3.814-4.361-7.237-8.34-6.801zm.438 2.111c1.986-.065 3.871 1.165 4.887 2.92.385.671.122.174.344.71 0 0 .313.964.305.935.081.323-.005-.06.082.333.22.988.094.187.285 1.143.162.797.208 2.008.208 2.008-.486.909-.34 2.587-.34 2.587-1.11 2.882-.358 1.349-.851 1.858l-.59.498c-.395.279-.022.038-.454.29-.057.03-.802.383-.816.389-.368.141.007.025-.482.162l-.83.134c-.919.048-.364.025-.802-.038 0 0-1.281-.43-1.5-.57-.401-.252-.018.017-.462-.322 0 0-.962-.917-.933-.884-.463-.533-.013.076-.619-.804-.401-.569-.048.13-.721-1.241a11.814 11.814 0 01-1.075-3.416l-.094-.98c-.024-.771-.087.033.034-1.168.007-.086.201-.993.201-.993.158-.502.015-.102.209-.542.05-.11.52-.963.534-.979.268-.393.062-.137.415-.542 1.641-1.894 1.169-.995 1.643-1.186-.01.001 1.362-.296 1.422-.302zm82.719 28.154c-.202.355.04-3.096-.009-3.503-.094-.819-.335-1.614-.644-2.373-.936-2.279-2.633-3.804-5.064-4.299-5.494-1.125-11.568 3.747-11.023 9.437l16.74.738z"/><path fill-rule="evenodd" clip-rule="evenodd" d="M232.862 180.994c-5.036.607-9.675 5.107-9.122 10.525l.869.786.716-.857c-.022-.279-.004.116-.02-.365 0 0 .05-.898.048-.918.087-.66-.078.083.178-.92.007-.031.196-.626.204-.642.237-.62-.077.037.375-.854.013-.026.327-.574.335-.589.294-.45-.153.18.402-.581 0 0 .575-.697.594-.709.456-.486-.111.04.684-.668.019-.017.527-.427.545-.439.54-.398-.122.027.798-.533.062-.036 2.236-1.178 4.42-1.326.031.002.653-.003.673 0 .671.037-.04-.056.918.103.062.01.921.233.942.237.607.212.035-.054.874.378.053.025.738.471.754.485.483.375.007-.081.693.626.033.037.581.722.592.736.298.439-.083-.182.423.698.174.294-.005-.105.424.863.051.115.383 1.067.389 1.077.131.474.056.165.158.703.266 1.364-.16 2.259.148 3.484.139.569.536.36.67.132 0 0 .364-2.957.175-4.309-.52-3.8-3.698-6.954-7.573-7.171a7.922 7.922 0 00-1.286.048zm-16.498-70.335c-.277.097.514-.29.799-.357.594-.142 1.163-.066 1.741.099 1.679.492 3.019 1.749 3.513 3.449 1.048 3.614-1.417 8.799-5.676 8.509-.985-.067-1.943-.366-2.755-.936-3.325-2.327-2.416-8.247.691-10.401 2.227-1.539 5.806-.596 7.09 1.7l-5.403-2.063z"/><path fill-rule="evenodd" clip-rule="evenodd" d="M216.305 109.676c-3.951.464-6.586 5.55-5.172 9.731 0 0 .578 1.531 1.659 2.497 3.966 3.515 11.997-.365 10.44-7.565-.117-.531.127-.193-.504-1.437-.831-1.648-2.519-2.821-4.353-3.047 0-.005-1.225-.269-2.07-.179zm3.651 1.744c.381.265.1.051.46.358l.571.608c.291.373.087.077.321.471l.348.755c.311.893.13.359.211.888l.056.958c-.012.503.021.063-.046.672l-.118.654c-.113.503.011.064-.182.665 0 0-.452 1.107-.378.93-.222.468-.013.081-.32.597l-.558.777c-.32.372-.042.084-.438.458l-.578.457c-1.218.804-.507.315-.984.476l-1.274.167c-.389-.023-.136-.007-.415-.041-.005.001-.706-.138-.706-.138-1.078-.303-.502-.153-.898-.356 0 0-.689-.486-.733-.527-.232-.224.048.076-.256-.267 0 0-.734-1.32-.712-1.252-.308-.909-.049-.085-.206-.733l-.149-1.24c-.007-1.39.009-.749.113-1.336l.249-.968c.295-.851.109-.387.367-.939l.473-.828c.363-.511.039-.119.443-.559 0 0 1.088-.857 1.329-.956.586-.231.197-.094.624-.195l1.4-.114c1.39.103.831.081 1.45.308.01-.001.557.263.536.25zm-49.737-25.959c-.436-.15.891.296 1.227.6.681.618 1.237 1.388 1.728 2.164 1.489 2.347 2.378 5.55 1.188 8.219-2.493 5.584-11.663 6.009-15.444 1.638-.909-1.057-1.437-2.327-1.649-3.697-.476-3.037.83-6.856 3.59-8.44 4.453-2.56 12.295-.499 13.587 4.934l-4.227-5.418z"/><path fill-rule="evenodd" clip-rule="evenodd" d="M163.896 83.802c-6.303.698-10.747 9.23-6.081 14.927 4.491 5.489 16.115 4.321 17.687-3.113.58-2.75-.546-5.815-1.433-7.688 0 0-.341-.47-.617-.774-2.404-2.626-5.896-3.712-9.556-3.352zm9.943 7.29s.219.978.221.993c.146.945.101.528.115 1.254.014.727.016.224-.031.73 0 0-.135.837-.127.816-.24 1.012-.003.337-.441 1.222-.042.084-.559.917-.573.928-.245.325.026.013-.387.469-.082.088-.785.717-.785.717-.491.379-.096.1-.603.414 0 0-.783.422-.745.398-.668.31.025.048-.943.371-.029.008-.699.198-.719.2-.682.155.261 0-1.026.188-.069.012-1.767.209-3.371-.089-.031-.007-.709-.168-.734-.17-.795-.226.076.118-1.195-.418-.032-.017-.616-.298-.637-.31-.535-.296.503.483-.999-.633-1.675-1.245-2.499-3.405-2.413-5.491l.144-1.173c.142-.722-.005-.105.19-.792l.426-1.114c.296-.626.115-.267.374-.704 0 0 .49-.704.508-.721.378-.458.104-.176.602-.635.199-.18.984-.681.927-.65.473-.252.151-.096.57-.281.077-.038.966-.344.99-.351.715-.189-.05-.055 1.114-.222.029-.003.656-.063.677-.06.664-.033-.16-.045.957-.011.937.03 2.328.36 2.354.367.656.188-.102-.076.918.304.026.007.623.266.638.27.611.298-.032-.067.831.447l.558.374c.589.44-.017-.12.853.736.039.037.583.632.583.632.764.695.249.142.752.786l.352.95.075.26zm72.414-10.297c.432-.047-.744.462-1.158.593-.882.275-1.813.409-2.74.483-2.735.206-5.659-.764-7.482-2.873-2.219-2.569-3.496-6.583-2.805-9.952.514-2.503 3.053-4.915 5.782-4.619l8.403 16.368z"/><path fill-rule="evenodd" clip-rule="evenodd" d="M231.194 67.885c-2.163 5.618 1.716 13.524 8.098 14.81 2.354.473 4.906.129 7.013-.936.868-1.68.651-.956.3-1.274 0 0-.234-.133-.379-.019 0 0-1.037.02-1.012.012-.632.22.082.017-.68.19l-1.097.18c-1.615.175-.996.086-1.503.084 0 0-.898-.054-.919-.058-.665-.081.067.064-.933-.156-.626-.136-.006.04-.896-.236-.032-.012-.619-.222-.635-.23-.711-.303-.065.046-1.033-.514a27.618 27.618 0 01-.899-.636c-.595-.505-.109.01-.803-.787-.034-.037-.452-.584-.452-.584-.469-.653-.295-.408-.686-1.084a12.181 12.181 0 01-1.475-4.085c-1.028-6.17-.3-2.923.384-4.379l.657-1.046c.652-.795.292-.364.672-.692l.705-.504c1.143-.647.451-.264.93-.4 0 0 1.435-.745 1.207-.768.948-.633.068-.7.068-.7-1.34-1.211-2.416-.44-3.464.151-.02.002-2.387 1.7-3.168 3.661zm15.104 13.272l-.367-.321c-.001-.005.446.313.367.321z"/></mask><path fill-rule="evenodd" clip-rule="evenodd" d="M139 57.157l-.456.114s-.829 1.831 2.395-.781a81.833 81.833 0 001.806-1.523c2.668-3.227 5.71-7.218 3.909-11.558-2.363-5.701-11.275-7.037-16.62-3.524-1.719 1.128-3.254 2.505-4.834 3.83 0 0-1.341 1.46-2.231 2.337-.307.306-.62.602-.944.889l-.187.67.677.146c1.442-.56 1.684-.703 2.624-1.215 3.956-2.15 6.977-6.505 12.073-6.074 3.669.311 7.848 2.597 7.135 6.42-.187.991-.044.275-.178.77 0 0-1.352 3.226-3.336 5.79-.179.333-.358.667-.542.996-.474.863-1.2 2.142-1.204 2.153-1.099 1.842-.041.576-.087.56z" fill="#fff"/><path fill-rule="evenodd" clip-rule="evenodd" d="M110.802 46.153c.06-.207-.077.193.122-.399.608-1.78 2.061-2.641 2.241-2.759.482-.312.103-.125.805-.453l1.137-.385c1.185-.26.38-.127 1.274-.172 4.236-.21 8.543 1.26 13.12.305l1.397-.922c1.47-1.275.271-1.215.271-1.215l-1.293.084c-1.285-.159.237-.204-1.559-.032-5.663.512-11.589-2.881-16.571-.08-5.607 3.146-5.641 12.55.972 19.492l1.154.206.09-1.053c-2.18-3.104-3.558-6.862-3.499-10.442-.002-.075.089-1.057.082-1.031.069-.484-.06.056.15-.743.096-.36.021-.092.107-.401z" fill="#fff"/><path fill-rule="evenodd" clip-rule="evenodd" d="M206.572 35.392s-.114.809-.116.834c-.087.41.041-.089-.134.545l-.374.975c-.211.416.008.029-.271.472l-.481.634c-.222.252.105-.11-.245.274-.201.21-.401.42-.602.635-11.941 12.17-31.135 16.26-47.822 16.919-5.506.215-11.02.08-16.53-.22l-.539.448.461.523c14.767 1.518 29.85 1.62 44.042-2.352 5.665-1.592 11.228-3.936 16.127-7.29 4.08-2.79 8.478-6.554 9.093-11.04.944-6.867-3.162-14.264-6.235-19.893a66.834 66.834 0 00-2.493-4.179s-1.397-2.27-2.652-4.047c-2.297-3.239-5.144-6.5-8.7-7.154-1.798-.33-2.626-.065-3.687.127-5.063.911-9.663 3.72-14.316 5.717-3.335 1.438-6.657 2.92-9.919 4.503l-.129.063c-11.875 6.205-22.122 14.73-31.348 24.538-1.176 1.287-1.361 2.293-2.058 3.504-.323.563-.136.264-.416.638l-.634.984s1.214-.111 2.177-.851c1.034-.787 2.254-1.892 2.254-1.892.782-.954.575-.653.529-.603 9.106-9.179 19.125-17.405 30.957-23.482.215-.116.424-.231.644-.348 5.093-2.74 10.34-5.19 15.469-7.88 2.964-1.543 6.049-3.083 9.347-3.243l.756.033c.523.065.145.001.577.105 0 0 .823.258.844.266.417.166-.013-.029.576.256.09.042 2.159 1.32 3.429 2.623 6.625 6.82 10.374 16.038 12.058 24.621.233 1.172.408 2.37.387 3.567-.002.608.002.286-.026.67z" fill="#fff"/><path fill-rule="evenodd" clip-rule="evenodd" d="M92.183 59.459c-25.124 2.444-50.21 5.126-75.126 9.121-4.843.79-9.702 1.682-14.325 3.309l-.938.843s-.092 1.193-.07 1.27l.843.934 1.256.07C11.407 72.33 19.5 71.5 27.365 70.24c21.826-3.444 43.772-5.534 66.003-7.686 40.452-3.921 81.417-2.385 121.74.627 9.181.683 18.337 1.428 27.356 3.667l.642.154c4.96 1.162 2.765.99 4.638-.579l-.565-.654c-.679-.808-2.507-1.23-2.507-1.23-.195-.052-.386-.099-.576-.151-11.197-3.024-23.035-3.834-34.58-4.672-38.166-2.762-76.646-4.04-114.696-.504-.881.08-1.761.164-2.637.248z" fill="#fff"/><path fill-rule="evenodd" clip-rule="evenodd" d="M63.835 2.355c-7.965.843-13.857 8.098-17.65 14.715-2.767 4.817-4.986 9.904-6.884 15.145-.643 1.773-1.14 3.662-.913 5.558 0 0 .227 1.48.722 2.727 3.268 8.235 12.399 12.28 19.73 15.248a77.297 77.297 0 005.91 2.115c6.68 2.091 13.646 3.292 20.65 3.776l.576.04.67-.55-.561-.67c-13.198-1.588-26.327-5.562-37.252-13.611-4.012-2.954-8.277-6.873-7.15-11.72 1.582-6.811 5.044-13.387 8.57-19.02 3.29-5.269 7.878-10.521 14.394-11.034 5.246-.412 10.412 1.699 15.38 3.944 10.766 4.867 20.464 11.9 29.171 20.006 0 0 3.253 2.896 5.784 5.37 2.032 1.984 3.989 4.08 5.895 6.157 1.058 1.148.598-.143.766.092.47.658-2.798-3.903-5.362-6.835a145.389 145.389 0 00-1.867-2.1C103.65 19.833 89.967 9.608 75.028 4.186c-3.573-1.3-7.438-2.195-11.193-1.83zm57.6 38.152c-.876-.026.308.076 0 0z" fill="#fff"/><path fill-rule="evenodd" clip-rule="evenodd" d="M63.252 26.896c-5.388.556-10.677 2.618-14.47 6.51l-.126.569s4.027-2.655 7.343-3.72a23.598 23.598 0 012.094-.567c11.066-2.439 22.749.424 31.825 3.42 6.5 2.149 12.689 5.356 17.77 9.93.719.648 1.314 1.56 1.319 1.565.207.276.188.338.167.175 0 0 .366.572.625.126 0 0-1.263-2.239-3.348-4.037-9.285-8.016-21.799-11.953-33.075-13.555-2.666-.377-5.352-.587-8.044-.555-.006-.01-1.036.034-2.08.139zm45.916 17.862c.597-.624.013-.177 0 0z" fill="#fff"/><path fill-rule="evenodd" clip-rule="evenodd" d="M61.765 28.188a15.416 15.416 0 00.462 3.84s.561 1.452 1.318 2.705c4.236 6.968 12.179 10.61 19.561 13.377 7.757 2.907 15.832 5.046 24.109 5.93 1.196.126 2.959.189 2.959.189.853-.112-.024-.676-.024-.676l-.277.208s.445-.179-.226-.22c-2.159-.16-2.76-.308-3.565-.427-12.954-1.927-26.38-5.908-36.06-14.016-2.473-2.073-4.644-4.626-5.766-7.69 0 0-.815-1.589-1.194-3.35l-.715-.599c-.193.24-.39.484-.582.729zm111.173-1.961c-8.728.9-17.002 4.288-25.153 7.653-3.153 1.3-6.247 2.75-9.218 4.43l-.296.998s.59.5 1.541.008c7.772-3.967 16.125-6.588 24.555-9.026 8.371-2.422 17.582-4.152 25.843-.069 2.593 1.283 4.861 3.164 6.77 5.336.597.675.244.292.515.768a32.986 32.986 0 001.247 1.964l.468.01s-.322-.952-.31-.933c-.219-.401-.128-.234-.227-.435-4.18-8.69-16.091-11.631-25.735-10.704z" fill="#fff"/><path fill-rule="evenodd" clip-rule="evenodd" d="M181.4 30.733c-.361.788 1.096-1.344-1.521 2.41 0 0-2.577 4.382-5.621 7.67-7.713 8.353-19.498 13.19-30.711 10.88l-.758.474.479.752c14.735 3.66 30.745-5.12 38.935-18.202 0 0 1.366-2.72 1.655-4.164.119-.588.31-1.475.303-1.45.326-1.26-.194-1.03-.194-1.03s-.232-.535-1.226-.219c0 0-.714 1.565-1.29 2.784-.029.058-.029.058-.051.095zm65.922 37.417l.06-1c.17-1.056.101-.512.148-.753.063-.342-.15.055-.15.055s.527-.311.101-.627c0 0-.179-.455-.775.45-2.229 3.406-1.438 7.642-1.406 11.855.276 37.655-3.716 75.145-4.91 113.759l-.013.438.564.232 2.17.063.578-.201c.992-34.111 4.865-68.072 4.65-102.309-.037-5.9-.155-11.8-.268-17.703 0 0-.37-2.55-.733-4.246-.016-.064-.008.07-.016-.014zm-.36-1.974s.372.577.032.127c0 0-.036-.172-.032-.127z" fill="#fff"/><path fill-rule="evenodd" clip-rule="evenodd" d="M12.405 196.313l-.449 1.027.41 1.03 1.011.445c53.967.974 108.153-4.939 161.917-6.711 20.795-.684 41.459.094 62.311 1.416.414.026.823.047 1.242.072.948.045 2.301.071 2.301.071 1.066-.288 1.58-1.21 1.58-1.21 1.035-2.925-1.576-1.466-1.576-1.466-9.699-.015-19.478-1.243-29.439-1.63-42.966-1.681-86.033 2.777-128.956 5.012-23.094 1.206-46.185 1.975-69.306 1.538a30.54 30.54 0 00-1.046.406z" fill="#fff"/><path fill-rule="evenodd" clip-rule="evenodd" d="M1.695 73.956c2.57 38.183 5.413 76.294 9.637 114.971.29 2.723.576 5.451.843 8.181l.046.488.505.288 1.581-.152.441-.378c-3.443-35.715-7.102-71.65-9.755-107.712l-.039-.558c-.357-4.524-.72-9.047-1.092-13.569l-.144-1.718c-.77.034-.256-.05-2.023.159zm243.286-7.55c-.627.265-.542-.104-.312.828l-1.79-.873c-.795-.436-1.543-1.123-2.351-.965l-1.371-.01c-.323.298-.252.045-.252.045l-.337-.374-.736-.035-.03.525-.566.069s-.167 1.03.672.829c.083.077.166.16.244.243 3.421 3.547 4.732 9.059 6.255 12.858.807 1.77.954.115.954.115.128-.243-.125-.731.394-.77.846-.067.095-1.887-.41-3.706 0 0 1.23.53 1.084-1.103-.209-2.344-.333-3.426-.242-5.307.057-.658.319-1.491-.408-1.793-.001-.01-.336-.686-.798-.576zm-27.413 43.987c-.709.093-1.993 1.095-.695 1.342 0 0-.519.451.017.224 0 0-.665.556-.076.936 0 0 .511.358 1.006-.709 1.5-.906 2.348 1.668 3.346 1.442 0 0 .46-.435.285-.896-.74-1.967-1.418-1.917-3.057-2.262-.272-.059-.398-.122-.826-.077zm-.39 1.539c.172.063.312.16.379.34 0 0-.788-.372-.379-.34z" fill="#fff"/><path fill-rule="evenodd" clip-rule="evenodd" d="M218.687 110.708a.61.61 0 00-.439.81s1.815.505 1.825.504c.071.008-.215-.1-.289-.349l.612.413s.671-.491.265-.899c-.322-.326-1.016-.284-1.037-.292-.732-.252-.669-.227-.937-.187zm.53.447c.075.259-.249.546-.249.546s.221-.634.249-.546zM83.376 133.068c-1.194-.518-.703-.424-.79-.537-.753-.946-2.591.088-2.24 1.083.348.961.429.391.706.605.548.435 1.301-.139 1.812.163 0 0 .183-.183-.173.393l.164.717s.96-.307.64-.086c-.213.146 1.164-.257.913-1.041-.505-1.558-.18-.896-1.032-1.297zm64.616-73.89c-.233.078-.244.224-.281.418a763.43 763.43 0 00-1.23 6.187s-.098 1.018-.155 1.736c-1.946 24.2-3.018 48.666-4.341 73.082l-.205 3.884c-.76 14.82-1.566 29.639-2.131 44.45 0 0 .188 2.02.342 3.416l.558.644.595-.609c.088-.495.176-.99.269-1.486.455-2.433.391-2.939.449-4.124 1.634-29.917 3.688-59.492 5.531-89.167l.057-.93c.509-10.262.831-20.528 1.339-30.64-.13-2.101-.257-4.207-.376-6.289-.03-.574-.155-.1-.155-.1s.209-.547-.266-.472zm-42.007.11c-.501 1.689-.324 3.54-.364 5.32l.266 4.2c.102 1.688.208 3.38.314 5.066 1.272 20.267 3.097 40.596 4.77 60.906l.227 2.738c1.549 18.449 3.078 37.05 4.763 55.341l.065.671.916.766.766-.917c-3.738-42.834-7.489-85.863-9.977-128.07-.061-.947.071-.252-.189-1.296-.292-1.162-.627-2.305-.816-3.486-.105-.678-.058-.24-.079-.83-.006-.005.123-.971-.662-.41zM65.924 28.01l-.345.545c.275 2.499.385 5.54.787 8.644l.49.455s.31-5.009.182-7.707c-.065-1.36.282-.665-.152-2.32 0 0-.428-.275-.67-.237.004-.005-.149.702-.292.62zm1.186 34.637c-.197-1.904.051-3.87-.356-5.719-.057-.275.074-.057-.114.132 0 0-.777-1.512-.5.329.028.188.018.189.018.189l.01 1.043c-.001 1.46-.183 2.913-.106 4.357l.589.485.491-.584c-.02-.113-.02-.113-.032-.232zm78.006-17.946l.137 1.322c1.77 1.457 3.959 2.297 6.003 3.31.623.318-.414.231 1.947.773.431.105-.139-.037.589.124l.301-.104.333.335s1.099.15-.39-1.398c-.379-.396-1.36-.995-1.36-.995-2.066-1.192-4.372-1.995-6.195-3.477 0 0-.813.052-1.365.11zM73.204 63.644c-.175-.098.218.341.276.531.13.455.224.917.293 1.383.22 1.404.25 2.877.05 4.286-.52 3.65-3.528 5.895-6.852 6.98-6.623 2.18-13.589-.115-16.206-6.796-.591-1.514-1.251-3.745-.686-5.385l23.125-.999z" fill="#fff"/><path fill-rule="evenodd" clip-rule="evenodd" d="M73.955 63.211l-.261 1.1-.775-.022.203-1.495c-.793.046-.405-.037-.708.414l-.026.941c.1.839.02.254.146.79 0 0 .516 2.716.222 4.837-.016.097-.211.939-.219.964-.15.472.003.08-.248.657-.042.089-.434.81-.442.83-.263.401-.02.067-.404.56-.054.066-.631.693-.645.71-.358.345-.118.132-.537.473l-.688.512c-.807.54-.94.572-1.356.778-3.997 1.933-8.965 2.047-12.767-.55 0 0-.448-.329-.427-.311-.803-.63-.432-.32-1.025-.906-1.842-1.831-2.398-3.394-2.931-5.195 0 0-.187-.74-.185-.726-.16-.727-.098-.392-.16-.978l.135-1.69-.514-1.024-1.025.52c-1.89 5.59 3.857 12.35 9.368 13.754 8.015 2.04 18.021-2.808 16.083-13.314-.127-.69-.554-1.594-.554-1.594-.413-.11-.105.005-.26-.035zM32.68 92.89c-.24-.082.512-.049.754.014.489.124.934.372 1.356.638 1.313.823 2.087 2.245 2.342 3.751.536 3.141-2.214 6.296-5.479 5.75-1.5-.253-2.494-1.468-2.938-2.856-.614-1.904-.474-4.221.774-5.857 1.892-2.47 5.2-1.998 6.74.45l-3.55-1.89z" fill="#fff"/><path fill-rule="evenodd" clip-rule="evenodd" d="M32.139 91.958c-5.345.637-6.474 12.757.875 11.878a5.26 5.26 0 00.988-.22c3.437-1.117 5.051-5.704 2.883-9.055 0 0-.444-.861-.982-1.347-1.027-.925-2.283-1.407-3.764-1.256zm.067 1.545c.357.217.99.066.552.103-.349.028 4.201.993 3.644 5.037-.326 2.36-2.91 4.67-5.357 3.389-3.07-1.604-2.491-7.934 1.13-8.541-.005.005.015-.001.031.012zm-8.244 30.504c-.34-.138.739.115 1.066.279a8.275 8.275 0 011.69 1.194c1.581 1.419 2.863 3.219 3.774 5.13 2.316 4.848 1.397 12.5-5.002 13.348-8.188 1.085-13.202-10.763-9.425-17.077 3.095-5.17 9.465-3.692 12.166.718l-4.269-3.592z" fill="#fff"/><path fill-rule="evenodd" clip-rule="evenodd" d="M25.066 123.319c-.766-.394-.872-.404-1.255-.528-2.048-.682-4.376-.514-6.244.588-.817.48-3.315 2.907-3.928 6.203-1.408 7.534 4.416 16.724 12.028 15.7 7.348-.995 9.512-12.27 3.158-19.392-.983-1.1-2.14-2.074-3.529-2.578 0-.005-.002-.025-.23.007zm3.403 17.89l-.675.551c-.48.327-.125.107-.532.317l-.884.356c-.615.184-.145.064-.692.166 0 0-1.8.233-3.125-.188-6.197-1.976-9.158-12.405-3.59-16.682.053-.035.694-.418.727-.436 1.191-.561.66-.344 1.675-.441.094-.009.838 0 .863.002.75.069.162-.045 1.109.206.072.018.868.308.894.316.613.277.036-.044.893.471.08.048 1.01.752.977.72 4.877 4.327 5.739 10.765 2.637 14.334-.334.388-.057.081-.277.308zm51.21-8.64c-.197-.007.361-.156.552-.204.403-.099.83-.089 1.239-.068 1.13.052 2.272.345 3.336.719 3.256 1.135 6.585 4.244 7.136 7.79 1.078 7.025-8.694 12.171-14.631 10.656-6.04-1.54-7.967-9.602-4.916-14.547 2.728-4.433 10.706-6.195 14.825-2.649l-7.541-1.697z" fill="#fff"/><path fill-rule="evenodd" clip-rule="evenodd" d="M79.457 131.983c-4.8.605-9.118 4.22-9.604 9.417-.566 6.107 4.229 12.359 11.09 11.613 6.8-.737 14.03-6.282 11.988-13.355-.685-2.379-2.365-4.416-4.395-5.904 0 0-3.309-1.686-5.45-1.923-1.237-.137-1.792-.059-3.629.152zm2.683.973s1.272.335 2.464.888c.74.341.207.061.942.503 1.428.867 2.54 1.84 3.49 3.003.233.289-.02-.058.379.501.028.033.406.624.412.638.258.443.028-.027.356.674.038.082.348.91.36.934.128.44.026.003.14.564 0 0 .104.834.102.804.036.639.048.241-.022.93-.02.208-.222 1.091-.23 1.117-.162.502.014.084-.285.735-.041.094-.422.783-.435.804-.17.267.14-.164-.313.462-.261.361.053-.025-.434.548 0 0-.51.551-.744.774-2.565 2.364-6.07 3.753-9.513 3.501-.227-.014.118.023-.38-.039-.112-.015-1.174-.254-1.174-.254-.564-.182-.164-.035-.667-.253l-1.158-.672c-.519-.382.288.866-1.483-1.494a18.482 18.482 0 01-.375-.562c-.389-.65.056.221-.56-1.066-.017-.033-.26-.637-.267-.652-.279-.761-.064.021-.356-1.195-.01-.05-.253-2.18-.252-2.215 0-.728-.045.05.05-1.009.001-.03.092-.706.095-.726.129-.705-.063.071.228-.976.176-.624-.037-.022.313-.928.012-.032.286-.63.294-.651.369-.708-.038-.082.582-.944.04-.054.71-.821.723-.837.468-.462-.06 0 .709-.625.577-.467.373-.292.784-.562.335-.223.199-.125.204-.125a11.966 11.966 0 015.464-1.697 5.21 5.21 0 01.557.102zm.73 62.653c-.1-.096-.423-2.118-.604-2.482-.963-1.936-2.478-3.714-4.253-4.954-7.581-5.313-15.457 1.078-18.1 8.343l22.957-.907z" fill="#fff"/><path fill-rule="evenodd" clip-rule="evenodd" d="M72.349 187.048s.926.082.94.081c3.19.483 1.746.345 2.899.962 2.216 1.183 4.064 2.974 5.465 5.129.394.605-.024-.359.39.926.189.61.322 1.38.582 1.676l.466.041s-.172-3.211-1.398-5.106c-2.11-3.277-3.121-3.401-4.506-4.132-6.388-3.339-14.778 1.299-17.762 9.51l.285.932.754-.349c1.34-3.421 3.47-6.124 6.328-7.994.822-.535 1.86-.976 1.868-.982 3.572-1.441 1.758-.68 3.372-.699.156 0 .15.001.317.005zm91.748-10.667c-.038-.137 1.014-1.939 1.086-2.232.483-1.933.508-4.029-.032-5.95-1.644-5.801-9.197-7.412-11.609-1.253-1.747 4.459 2.459 13.794 8.268 11.501 1.388-.549 2.884-1.696 3.101-3.258.093-.661-.091-2.37.345-2.904l-1.159 4.096z" fill="#fff"/><path fill-rule="evenodd" clip-rule="evenodd" d="M158.117 161.991c-5.459.652-7.743 8.837-3.401 14.55 2.056 2.71 5.972 3.871 8.9 1.683 1.067-.8 1.903-1.979 1.933-3.397 0 0 1.255-2.991.908-6.035-.43-3.814-4.361-7.237-8.34-6.801zm.438 2.111c1.986-.065 3.871 1.165 4.887 2.92.385.671.122.174.344.71 0 0 .313.964.305.935.081.323-.005-.06.082.333.22.988.094.187.285 1.143.162.797.208 2.008.208 2.008-.486.909-.34 2.587-.34 2.587-1.11 2.882-.358 1.349-.851 1.858l-.59.498c-.395.279-.022.038-.454.29-.057.03-.802.383-.816.389-.368.141.007.025-.482.162l-.83.134c-.919.048-.364.025-.802-.038 0 0-1.281-.43-1.5-.57-.401-.252-.018.017-.462-.322 0 0-.962-.917-.933-.884-.463-.533-.013.076-.619-.804-.401-.569-.048.13-.721-1.241a11.814 11.814 0 01-1.075-3.416l-.094-.98c-.024-.771-.087.033.034-1.168.007-.086.201-.993.201-.993.158-.502.015-.102.209-.542.05-.11.52-.963.534-.979.268-.393.062-.137.415-.542 1.641-1.894 1.169-.995 1.643-1.186-.01.001 1.362-.296 1.422-.302zm82.719 28.154c-.202.355.04-3.096-.009-3.503-.094-.819-.335-1.614-.644-2.373-.936-2.279-2.633-3.804-5.064-4.299-5.494-1.125-11.568 3.747-11.023 9.437l16.74.738z" fill="#fff"/><path fill-rule="evenodd" clip-rule="evenodd" d="M232.862 180.994c-5.036.607-9.675 5.107-9.122 10.525l.869.786.716-.857c-.022-.279-.004.116-.02-.365 0 0 .05-.898.048-.918.087-.66-.078.083.178-.92.007-.031.196-.626.204-.642.237-.62-.077.037.375-.854.013-.026.327-.574.335-.589.294-.45-.153.18.402-.581 0 0 .575-.697.594-.709.456-.486-.111.04.684-.668.019-.017.527-.427.545-.439.54-.398-.122.027.798-.533.062-.036 2.236-1.178 4.42-1.326.031.002.653-.003.673 0 .671.037-.04-.056.918.103.062.01.921.233.942.237.607.212.035-.054.874.378.053.025.738.471.754.485.483.375.007-.081.693.626.033.037.581.722.592.736.298.439-.083-.182.423.698.174.294-.005-.105.424.863.051.115.383 1.067.389 1.077.131.474.056.165.158.703.266 1.364-.16 2.259.148 3.484.139.569.536.36.67.132 0 0 .364-2.957.175-4.309-.52-3.8-3.698-6.954-7.573-7.171a7.922 7.922 0 00-1.286.048zm-16.498-70.335c-.277.097.514-.29.799-.357.594-.142 1.163-.066 1.741.099 1.679.492 3.019 1.749 3.513 3.449 1.048 3.614-1.417 8.799-5.676 8.509-.985-.067-1.943-.366-2.755-.936-3.325-2.327-2.416-8.247.691-10.401 2.227-1.539 5.806-.596 7.09 1.7l-5.403-2.063z" fill="#fff"/><path fill-rule="evenodd" clip-rule="evenodd" d="M216.305 109.676c-3.951.464-6.586 5.55-5.172 9.731 0 0 .578 1.531 1.659 2.497 3.966 3.515 11.997-.365 10.44-7.565-.117-.531.127-.193-.504-1.437-.831-1.648-2.519-2.821-4.353-3.047 0-.005-1.225-.269-2.07-.179zm3.651 1.744c.381.265.1.051.46.358l.571.608c.291.373.087.077.321.471l.348.755c.311.893.13.359.211.888l.056.958c-.012.503.021.063-.046.672l-.118.654c-.113.503.011.064-.182.665 0 0-.452 1.107-.378.93-.222.468-.013.081-.32.597l-.558.777c-.32.372-.042.084-.438.458l-.578.457c-1.218.804-.507.315-.984.476l-1.274.167c-.389-.023-.136-.007-.415-.041-.005.001-.706-.138-.706-.138-1.078-.303-.502-.153-.898-.356 0 0-.689-.486-.733-.527-.232-.224.048.076-.256-.267 0 0-.734-1.32-.712-1.252-.308-.909-.049-.085-.206-.733l-.149-1.24c-.007-1.39.009-.749.113-1.336l.249-.968c.295-.851.109-.387.367-.939l.473-.828c.363-.511.039-.119.443-.559 0 0 1.088-.857 1.329-.956.586-.231.197-.094.624-.195l1.4-.114c1.39.103.831.081 1.45.308.01-.001.557.263.536.25zm-49.737-25.959c-.436-.15.891.296 1.227.6.681.618 1.237 1.388 1.728 2.164 1.489 2.347 2.378 5.55 1.188 8.219-2.493 5.584-11.663 6.009-15.444 1.638-.909-1.057-1.437-2.327-1.649-3.697-.476-3.037.83-6.856 3.59-8.44 4.453-2.56 12.295-.499 13.587 4.934l-4.227-5.418z" fill="#fff"/><path fill-rule="evenodd" clip-rule="evenodd" d="M163.896 83.802c-6.303.698-10.747 9.23-6.081 14.927 4.491 5.489 16.115 4.321 17.687-3.113.58-2.75-.546-5.815-1.433-7.688 0 0-.341-.47-.617-.774-2.404-2.626-5.896-3.712-9.556-3.352zm9.943 7.29s.219.978.221.993c.146.945.101.528.115 1.254.014.727.016.224-.031.73 0 0-.135.837-.127.816-.24 1.012-.003.337-.441 1.222-.042.084-.559.917-.573.928-.245.325.026.013-.387.469-.082.088-.785.717-.785.717-.491.379-.096.1-.603.414 0 0-.783.422-.745.398-.668.31.025.048-.943.371-.029.008-.699.198-.719.2-.682.155.261 0-1.026.188-.069.012-1.767.209-3.371-.089-.031-.007-.709-.168-.734-.17-.795-.226.076.118-1.195-.418-.032-.017-.616-.298-.637-.31-.535-.296.503.483-.999-.633-1.675-1.245-2.499-3.405-2.413-5.491l.144-1.173c.142-.722-.005-.105.19-.792l.426-1.114c.296-.626.115-.267.374-.704 0 0 .49-.704.508-.721.378-.458.104-.176.602-.635.199-.18.984-.681.927-.65.473-.252.151-.096.57-.281.077-.038.966-.344.99-.351.715-.189-.05-.055 1.114-.222.029-.003.656-.063.677-.06.664-.033-.16-.045.957-.011.937.03 2.328.36 2.354.367.656.188-.102-.076.918.304.026.007.623.266.638.27.611.298-.032-.067.831.447l.558.374c.589.44-.017-.12.853.736.039.037.583.632.583.632.764.695.249.142.752.786l.352.95.075.26zm72.414-10.297c.432-.047-.744.462-1.158.593-.882.275-1.813.409-2.74.483-2.735.206-5.659-.764-7.482-2.873-2.219-2.569-3.496-6.583-2.805-9.952.514-2.503 3.053-4.915 5.782-4.619l8.403 16.368z" fill="#fff"/><path fill-rule="evenodd" clip-rule="evenodd" d="M231.194 67.885c-2.163 5.618 1.716 13.524 8.098 14.81 2.354.473 4.906.129 7.013-.936.868-1.68.651-.956.3-1.274 0 0-.234-.133-.379-.019 0 0-1.037.02-1.012.012-.632.22.082.017-.68.19l-1.097.18c-1.615.175-.996.086-1.503.084 0 0-.898-.054-.919-.058-.665-.081.067.064-.933-.156-.626-.136-.006.04-.896-.236-.032-.012-.619-.222-.635-.23-.711-.303-.065.046-1.033-.514a27.618 27.618 0 01-.899-.636c-.595-.505-.109.01-.803-.787-.034-.037-.452-.584-.452-.584-.469-.653-.295-.408-.686-1.084a12.181 12.181 0 01-1.475-4.085c-1.028-6.17-.3-2.923.384-4.379l.657-1.046c.652-.795.292-.364.672-.692l.705-.504c1.143-.647.451-.264.93-.4 0 0 1.435-.745 1.207-.768.948-.633.068-.7.068-.7-1.34-1.211-2.416-.44-3.464.151-.02.002-2.387 1.7-3.168 3.661zm15.104 13.272l-.367-.321c-.001-.005.446.313.367.321z" fill="#fff"/><path clip-rule="evenodd" d="M139 57.157l-.456.114s-.829 1.831 2.395-.781a81.833 81.833 0 001.806-1.523c2.668-3.227 5.71-7.218 3.909-11.558-2.363-5.701-11.275-7.037-16.62-3.524-1.719 1.128-3.254 2.505-4.834 3.83 0 0-1.341 1.46-2.231 2.337-.307.306-.62.602-.944.889l-.187.67.677.146c1.442-.56 1.684-.703 2.624-1.215 3.956-2.15 6.977-6.505 12.073-6.074 3.669.311 7.848 2.597 7.135 6.42-.187.991-.044.275-.178.77 0 0-1.352 3.226-3.336 5.79-.179.333-.358.667-.542.996-.474.863-1.2 2.142-1.204 2.153-1.099 1.842-.041.576-.087.56z" stroke="#fff" stroke-width="2" mask="url(#a)"/><path clip-rule="evenodd" d="M110.802 46.153c.06-.207-.077.193.122-.399.608-1.78 2.061-2.641 2.241-2.759.482-.312.103-.125.805-.453l1.137-.385c1.185-.26.38-.127 1.274-.172 4.236-.21 8.543 1.26 13.12.305l1.397-.922c1.47-1.275.271-1.215.271-1.215l-1.293.084c-1.285-.159.237-.204-1.559-.032-5.663.512-11.589-2.881-16.571-.08-5.607 3.146-5.641 12.55.972 19.492l1.154.206.09-1.053c-2.18-3.104-3.558-6.862-3.499-10.442-.002-.075.089-1.057.082-1.031.069-.484-.06.056.15-.743.096-.36.021-.092.107-.401z" stroke="#fff" stroke-width="2" mask="url(#a)"/><path clip-rule="evenodd" d="M206.572 35.392s-.114.809-.116.834c-.087.41.041-.089-.134.545l-.374.975c-.211.416.008.029-.271.472l-.481.634c-.222.252.105-.11-.245.274-.201.21-.401.42-.602.635-11.941 12.17-31.135 16.26-47.822 16.919-5.506.215-11.02.08-16.53-.22l-.539.448.461.523c14.767 1.518 29.85 1.62 44.042-2.352 5.665-1.592 11.228-3.936 16.127-7.29 4.08-2.79 8.478-6.554 9.093-11.04.944-6.867-3.162-14.264-6.235-19.893a66.834 66.834 0 00-2.493-4.179s-1.397-2.27-2.652-4.047c-2.297-3.239-5.144-6.5-8.7-7.154-1.798-.33-2.626-.065-3.687.127-5.063.911-9.663 3.72-14.316 5.717-3.335 1.438-6.657 2.92-9.919 4.503l-.129.063c-11.875 6.205-22.122 14.73-31.348 24.538-1.176 1.287-1.361 2.293-2.058 3.504-.323.563-.136.264-.416.638l-.634.984s1.214-.111 2.177-.851c1.034-.787 2.254-1.892 2.254-1.892.782-.954.575-.653.529-.603 9.106-9.179 19.125-17.405 30.957-23.482.215-.116.424-.231.644-.348 5.093-2.74 10.34-5.19 15.469-7.88 2.964-1.543 6.049-3.083 9.347-3.243l.756.033c.523.065.145.001.577.105 0 0 .823.258.844.266.417.166-.013-.029.576.256.09.042 2.159 1.32 3.429 2.623 6.625 6.82 10.374 16.038 12.058 24.621.233 1.172.408 2.37.387 3.567-.002.608.002.286-.026.67z" stroke="#fff" stroke-width="2" mask="url(#a)"/><path clip-rule="evenodd" d="M92.183 59.459c-25.124 2.444-50.21 5.126-75.126 9.121-4.843.79-9.702 1.682-14.325 3.309l-.938.843s-.092 1.193-.07 1.27l.843.934 1.256.07C11.407 72.33 19.5 71.5 27.365 70.24c21.826-3.444 43.772-5.534 66.003-7.686 40.452-3.921 81.417-2.385 121.74.627 9.181.683 18.337 1.428 27.356 3.667l.642.154c4.96 1.162 2.765.99 4.638-.579l-.565-.654c-.679-.808-2.507-1.23-2.507-1.23-.195-.052-.386-.099-.576-.151-11.197-3.024-23.035-3.834-34.58-4.672-38.166-2.762-76.646-4.04-114.696-.504-.881.08-1.761.164-2.637.248z" stroke="#fff" stroke-width="2" mask="url(#a)"/><path clip-rule="evenodd" d="M63.835 2.355c-7.965.843-13.857 8.098-17.65 14.715-2.767 4.817-4.986 9.904-6.884 15.145-.643 1.773-1.14 3.662-.913 5.558 0 0 .227 1.48.722 2.727 3.268 8.235 12.399 12.28 19.73 15.248a77.297 77.297 0 005.91 2.115c6.68 2.091 13.646 3.292 20.65 3.776l.576.04.67-.55-.561-.67c-13.198-1.588-26.327-5.562-37.252-13.611-4.012-2.954-8.277-6.873-7.15-11.72 1.582-6.811 5.044-13.387 8.57-19.02 3.29-5.269 7.878-10.521 14.394-11.034 5.246-.412 10.412 1.699 15.38 3.944 10.766 4.867 20.464 11.9 29.171 20.006 0 0 3.253 2.896 5.784 5.37 2.032 1.984 3.989 4.08 5.895 6.157 1.058 1.148.598-.143.766.092.47.658-2.798-3.903-5.362-6.835a145.389 145.389 0 00-1.867-2.1C103.65 19.833 89.967 9.608 75.028 4.186c-3.573-1.3-7.438-2.195-11.193-1.83zm57.6 38.152c-.876-.026.308.076 0 0v0z" stroke="#fff" stroke-width="2" mask="url(#a)"/><path clip-rule="evenodd" d="M63.252 26.896c-5.388.556-10.677 2.618-14.47 6.51l-.126.569s4.027-2.655 7.343-3.72a23.598 23.598 0 012.094-.567c11.066-2.439 22.749.424 31.825 3.42 6.5 2.149 12.689 5.356 17.77 9.93.719.648 1.314 1.56 1.319 1.565.207.276.188.338.167.175 0 0 .366.572.625.126 0 0-1.263-2.239-3.348-4.037-9.285-8.016-21.799-11.953-33.075-13.555-2.666-.377-5.352-.587-8.044-.555-.006-.01-1.036.034-2.08.139zm45.916 17.862c.597-.624.013-.177 0 0v0z" stroke="#fff" stroke-width="2" mask="url(#a)"/><path clip-rule="evenodd" d="M61.765 28.188a15.416 15.416 0 00.462 3.84s.561 1.452 1.318 2.705c4.236 6.968 12.179 10.61 19.561 13.377 7.757 2.907 15.832 5.046 24.109 5.93 1.196.126 2.959.189 2.959.189.853-.112-.024-.676-.024-.676l-.277.208s.445-.179-.226-.22c-2.159-.16-2.76-.308-3.565-.427-12.954-1.927-26.38-5.908-36.06-14.016-2.473-2.073-4.644-4.626-5.766-7.69 0 0-.815-1.589-1.194-3.35l-.715-.599c-.193.24-.39.484-.582.729zm111.173-1.961c-8.728.9-17.002 4.288-25.153 7.653-3.153 1.3-6.247 2.75-9.218 4.43l-.296.998s.59.5 1.541.008c7.772-3.967 16.125-6.588 24.555-9.026 8.371-2.422 17.582-4.152 25.843-.069 2.593 1.283 4.861 3.164 6.77 5.336.597.675.244.292.515.768a32.986 32.986 0 001.247 1.964l.468.01s-.322-.952-.31-.933c-.219-.401-.128-.234-.227-.435-4.18-8.69-16.091-11.631-25.735-10.704z" stroke="#fff" stroke-width="2" mask="url(#a)"/><path clip-rule="evenodd" d="M181.4 30.733c-.361.788 1.096-1.344-1.521 2.41 0 0-2.577 4.382-5.621 7.67-7.713 8.353-19.498 13.19-30.711 10.88l-.758.474.479.752c14.735 3.66 30.745-5.12 38.935-18.202 0 0 1.366-2.72 1.655-4.164.119-.588.31-1.475.303-1.45.326-1.26-.194-1.03-.194-1.03s-.232-.535-1.226-.219c0 0-.714 1.565-1.29 2.784-.029.058-.029.058-.051.095zm65.922 37.417l.06-1c.17-1.056.101-.512.148-.753.063-.342-.15.055-.15.055s.527-.311.101-.627c0 0-.179-.455-.775.45-2.229 3.406-1.438 7.642-1.406 11.855.276 37.655-3.716 75.145-4.91 113.759l-.013.438.564.232 2.17.063.578-.201c.992-34.111 4.865-68.072 4.65-102.309-.037-5.9-.155-11.8-.268-17.703 0 0-.37-2.55-.733-4.246-.016-.064-.008.07-.016-.014zm-.36-1.974s.372.577.032.127c0 0-.036-.172-.032-.127z" stroke="#fff" stroke-width="2" mask="url(#a)"/><path clip-rule="evenodd" d="M12.405 196.313l-.449 1.027.41 1.03 1.011.445c53.967.974 108.153-4.939 161.917-6.711 20.795-.684 41.459.094 62.311 1.416.414.026.823.047 1.242.072.948.045 2.301.071 2.301.071 1.066-.288 1.58-1.21 1.58-1.21 1.035-2.925-1.576-1.466-1.576-1.466-9.699-.015-19.478-1.243-29.439-1.63-42.966-1.681-86.033 2.777-128.956 5.012-23.094 1.206-46.185 1.975-69.306 1.538a30.54 30.54 0 00-1.046.406z" stroke="#fff" stroke-width="2" mask="url(#a)"/><path clip-rule="evenodd" d="M1.695 73.956c2.57 38.183 5.413 76.294 9.637 114.971.29 2.723.576 5.451.843 8.181l.046.488.505.288 1.581-.152.441-.378c-3.443-35.715-7.102-71.65-9.755-107.712l-.039-.558c-.357-4.524-.72-9.047-1.092-13.569l-.144-1.718c-.77.034-.256-.05-2.023.159zm243.286-7.55c-.627.265-.542-.104-.312.828l-1.79-.873c-.795-.436-1.543-1.123-2.351-.965l-1.371-.01c-.323.298-.252.045-.252.045l-.337-.374-.736-.035-.03.525-.566.069s-.167 1.03.672.829c.083.077.166.16.244.243 3.421 3.547 4.732 9.059 6.255 12.858.807 1.77.954.115.954.115.128-.243-.125-.731.394-.77.846-.067.095-1.887-.41-3.706 0 0 1.23.53 1.084-1.103-.209-2.344-.333-3.426-.242-5.307.057-.658.319-1.491-.408-1.793-.001-.01-.336-.686-.798-.576zm-27.413 43.987c-.709.093-1.993 1.095-.695 1.342 0 0-.519.451.017.224 0 0-.665.556-.076.936 0 0 .511.358 1.006-.709 1.5-.906 2.348 1.668 3.346 1.442 0 0 .46-.435.285-.896-.74-1.967-1.418-1.917-3.057-2.262-.272-.059-.398-.122-.826-.077zm-.39 1.539c.172.063.312.16.379.34 0 0-.788-.372-.379-.34z" stroke="#fff" stroke-width="2" mask="url(#a)"/><path clip-rule="evenodd" d="M218.687 110.708a.61.61 0 00-.439.81s1.815.505 1.825.504c.071.008-.215-.1-.289-.349l.612.413s.671-.491.265-.899c-.322-.326-1.016-.284-1.037-.292-.732-.252-.669-.227-.937-.187zm.53.447c.075.259-.249.546-.249.546s.221-.634.249-.546zM83.376 133.068c-1.194-.518-.703-.424-.79-.537-.753-.946-2.591.088-2.24 1.083.348.961.429.391.706.605.548.435 1.301-.139 1.812.163 0 0 .183-.183-.173.393l.164.717s.96-.307.64-.086c-.213.146 1.164-.257.913-1.041-.505-1.558-.18-.896-1.032-1.297zm64.616-73.89c-.233.078-.244.224-.281.418a763.43 763.43 0 00-1.23 6.187s-.098 1.018-.155 1.736c-1.946 24.2-3.018 48.666-4.341 73.082l-.205 3.884c-.76 14.82-1.566 29.639-2.131 44.45 0 0 .188 2.02.342 3.416l.558.644.595-.609c.088-.495.176-.99.269-1.486.455-2.433.391-2.939.449-4.124 1.634-29.917 3.688-59.492 5.531-89.167l.057-.93c.509-10.262.831-20.528 1.339-30.64-.13-2.101-.257-4.207-.376-6.289-.03-.574-.155-.1-.155-.1s.209-.547-.266-.472zm-42.007.11c-.501 1.689-.324 3.54-.364 5.32l.266 4.2c.102 1.688.208 3.38.314 5.066 1.272 20.267 3.097 40.596 4.77 60.906l.227 2.738c1.549 18.449 3.078 37.05 4.763 55.341l.065.671.916.766.766-.917c-3.738-42.834-7.489-85.863-9.977-128.07-.061-.947.071-.252-.189-1.296-.292-1.162-.627-2.305-.816-3.486-.105-.678-.058-.24-.079-.83-.006-.005.123-.971-.662-.41zM65.924 28.01l-.345.545c.275 2.499.385 5.54.787 8.644l.49.455s.31-5.009.182-7.707c-.065-1.36.282-.665-.152-2.32 0 0-.428-.275-.67-.237.004-.005-.149.702-.292.62zm1.186 34.637c-.197-1.904.051-3.87-.356-5.719-.057-.275.074-.057-.114.132 0 0-.777-1.512-.5.329.028.188.018.189.018.189l.01 1.043c-.001 1.46-.183 2.913-.106 4.357l.589.485.491-.584c-.02-.113-.02-.113-.032-.232zm78.006-17.946l.137 1.322c1.77 1.457 3.959 2.297 6.003 3.31.623.318-.414.231 1.947.773.431.105-.139-.037.589.124l.301-.104.333.335s1.099.15-.39-1.398c-.379-.396-1.36-.995-1.36-.995-2.066-1.192-4.372-1.995-6.195-3.477 0 0-.813.052-1.365.11zM73.204 63.644c-.175-.098.218.341.276.531.13.455.224.917.293 1.383.22 1.404.25 2.877.05 4.286-.52 3.65-3.528 5.895-6.852 6.98-6.623 2.18-13.589-.115-16.206-6.796-.591-1.514-1.251-3.745-.686-5.385l23.125-.999z" stroke="#fff" stroke-width="2" mask="url(#a)"/><path clip-rule="evenodd" d="M73.955 63.211l-.261 1.1-.775-.022.203-1.495c-.793.046-.405-.037-.708.414l-.026.941c.1.839.02.254.146.79 0 0 .516 2.716.222 4.837-.016.097-.211.939-.219.964-.15.472.003.08-.248.657-.042.089-.434.81-.442.83-.263.401-.02.067-.404.56-.054.066-.631.693-.645.71-.358.345-.118.132-.537.473l-.688.512c-.807.54-.94.572-1.356.778-3.997 1.933-8.965 2.047-12.767-.55 0 0-.448-.329-.427-.311-.803-.63-.432-.32-1.025-.906-1.842-1.831-2.398-3.394-2.931-5.195 0 0-.187-.74-.185-.726-.16-.727-.098-.392-.16-.978l.135-1.69-.514-1.024-1.025.52c-1.89 5.59 3.857 12.35 9.368 13.754 8.015 2.04 18.021-2.808 16.083-13.314-.127-.69-.554-1.594-.554-1.594-.413-.11-.105.005-.26-.035zM32.68 92.89c-.24-.082.512-.049.754.014.489.124.934.372 1.356.638 1.313.823 2.087 2.245 2.342 3.751.536 3.141-2.214 6.296-5.479 5.75-1.5-.253-2.494-1.468-2.938-2.856-.614-1.904-.474-4.221.774-5.857 1.892-2.47 5.2-1.998 6.74.45l-3.55-1.89z" stroke="#fff" stroke-width="2" mask="url(#a)"/><path clip-rule="evenodd" d="M32.139 91.958c-5.345.637-6.474 12.757.875 11.878a5.26 5.26 0 00.988-.22c3.437-1.117 5.051-5.704 2.883-9.055 0 0-.444-.861-.982-1.347-1.027-.925-2.283-1.407-3.764-1.256zm.067 1.545c.357.217.99.066.552.103-.349.028 4.201.993 3.644 5.037-.326 2.36-2.91 4.67-5.357 3.389-3.07-1.604-2.491-7.934 1.13-8.541-.005.005.015-.001.031.012zm-8.244 30.504c-.34-.138.739.115 1.066.279a8.275 8.275 0 011.69 1.194c1.581 1.419 2.863 3.219 3.774 5.13 2.316 4.848 1.397 12.5-5.002 13.348-8.188 1.085-13.202-10.763-9.425-17.077 3.095-5.17 9.465-3.692 12.166.718l-4.269-3.592z" stroke="#fff" stroke-width="2" mask="url(#a)"/><path clip-rule="evenodd" d="M25.066 123.319c-.766-.394-.872-.404-1.255-.528-2.048-.682-4.376-.514-6.244.588-.817.48-3.315 2.907-3.928 6.203-1.408 7.534 4.416 16.724 12.028 15.7 7.348-.995 9.512-12.27 3.158-19.392-.983-1.1-2.14-2.074-3.529-2.578 0-.005-.002-.025-.23.007zm3.403 17.89l-.675.551c-.48.327-.125.107-.532.317l-.884.356c-.615.184-.145.064-.692.166 0 0-1.8.233-3.125-.188-6.197-1.976-9.158-12.405-3.59-16.682.053-.035.694-.418.727-.436 1.191-.561.66-.344 1.675-.441.094-.009.838 0 .863.002.75.069.162-.045 1.109.206.072.018.868.308.894.316.613.277.036-.044.893.471.08.048 1.01.752.977.72 4.877 4.327 5.739 10.765 2.637 14.334-.334.388-.057.081-.277.308zm51.21-8.64c-.197-.007.361-.156.552-.204.403-.099.83-.089 1.239-.068 1.13.052 2.272.345 3.336.719 3.256 1.135 6.585 4.244 7.136 7.79 1.078 7.025-8.694 12.171-14.631 10.656-6.04-1.54-7.967-9.602-4.916-14.547 2.728-4.433 10.706-6.195 14.825-2.649l-7.541-1.697z" stroke="#fff" stroke-width="2" mask="url(#a)"/><path clip-rule="evenodd" d="M79.457 131.983c-4.8.605-9.118 4.22-9.604 9.417-.566 6.107 4.229 12.359 11.09 11.613 6.8-.737 14.03-6.282 11.988-13.355-.685-2.379-2.365-4.416-4.395-5.904 0 0-3.309-1.686-5.45-1.923-1.237-.137-1.792-.059-3.629.152zm2.683.973s1.272.335 2.464.888c.74.341.207.061.942.503 1.428.867 2.54 1.84 3.49 3.003.233.289-.02-.058.379.501.028.033.406.624.412.638.258.443.028-.027.356.674.038.082.348.91.36.934.128.44.026.003.14.564 0 0 .104.834.102.804.036.639.048.241-.022.93-.02.208-.222 1.091-.23 1.117-.162.502.014.084-.285.735-.041.094-.422.783-.435.804-.17.267.14-.164-.313.462-.261.361.053-.025-.434.548 0 0-.51.551-.744.774-2.565 2.364-6.07 3.753-9.513 3.501-.227-.014.118.023-.38-.039-.112-.015-1.174-.254-1.174-.254-.564-.182-.164-.035-.667-.253l-1.158-.672c-.519-.382.288.866-1.483-1.494a18.482 18.482 0 01-.375-.562c-.389-.65.056.221-.56-1.066-.017-.033-.26-.637-.267-.652-.279-.761-.064.021-.356-1.195-.01-.05-.253-2.18-.252-2.215 0-.728-.045.05.05-1.009.001-.03.092-.706.095-.726.129-.705-.063.071.228-.976.176-.624-.037-.022.313-.928.012-.032.286-.63.294-.651.369-.708-.038-.082.582-.944.04-.054.71-.821.723-.837.468-.462-.06 0 .709-.625.577-.467.373-.292.784-.562.335-.223.199-.125.204-.125a11.966 11.966 0 015.464-1.697 5.21 5.21 0 01.557.102zm.73 62.653c-.1-.096-.423-2.118-.604-2.482-.963-1.936-2.478-3.714-4.253-4.954-7.581-5.313-15.457 1.078-18.1 8.343l22.957-.907z" stroke="#fff" stroke-width="2" mask="url(#a)"/><path clip-rule="evenodd" d="M72.349 187.048s.926.082.94.081c3.19.483 1.746.345 2.899.962 2.216 1.183 4.064 2.974 5.465 5.129.394.605-.024-.359.39.926.189.61.322 1.38.582 1.676l.466.041s-.172-3.211-1.398-5.106c-2.11-3.277-3.121-3.401-4.506-4.132-6.388-3.339-14.778 1.299-17.762 9.51l.285.932.754-.349c1.34-3.421 3.47-6.124 6.328-7.994.822-.535 1.86-.976 1.868-.982 3.572-1.441 1.758-.68 3.372-.699.156 0 .15.001.317.005zm91.748-10.667c-.038-.137 1.014-1.939 1.086-2.232.483-1.933.508-4.029-.032-5.95-1.644-5.801-9.197-7.412-11.609-1.253-1.747 4.459 2.459 13.794 8.268 11.501 1.388-.549 2.884-1.696 3.101-3.258.093-.661-.091-2.37.345-2.904l-1.159 4.096z" stroke="#fff" stroke-width="2" mask="url(#a)"/><path clip-rule="evenodd" d="M158.117 161.991c-5.459.652-7.743 8.837-3.401 14.55 2.056 2.71 5.972 3.871 8.9 1.683 1.067-.8 1.903-1.979 1.933-3.397 0 0 1.255-2.991.908-6.035-.43-3.814-4.361-7.237-8.34-6.801zm.438 2.111c1.986-.065 3.871 1.165 4.887 2.92.385.671.122.174.344.71 0 0 .313.964.305.935.081.323-.005-.06.082.333.22.988.094.187.285 1.143.162.797.208 2.008.208 2.008-.486.909-.34 2.587-.34 2.587-1.11 2.882-.358 1.349-.851 1.858l-.59.498c-.395.279-.022.038-.454.29-.057.03-.802.383-.816.389-.368.141.007.025-.482.162l-.83.134c-.919.048-.364.025-.802-.038 0 0-1.281-.43-1.5-.57-.401-.252-.018.017-.462-.322 0 0-.962-.917-.933-.884-.463-.533-.013.076-.619-.804-.401-.569-.048.13-.721-1.241a11.814 11.814 0 01-1.075-3.416l-.094-.98c-.024-.771-.087.033.034-1.168.007-.086.201-.993.201-.993.158-.502.015-.102.209-.542.05-.11.52-.963.534-.979.268-.393.062-.137.415-.542 1.641-1.894 1.169-.995 1.643-1.186-.01.001 1.362-.296 1.422-.302zm82.719 28.154c-.202.355.04-3.096-.009-3.503-.094-.819-.335-1.614-.644-2.373-.936-2.279-2.633-3.804-5.064-4.299-5.494-1.125-11.568 3.747-11.023 9.437l16.74.738z" stroke="#fff" stroke-width="2" mask="url(#a)"/><path clip-rule="evenodd" d="M232.862 180.994c-5.036.607-9.675 5.107-9.122 10.525l.869.786.716-.857c-.022-.279-.004.116-.02-.365 0 0 .05-.898.048-.918.087-.66-.078.083.178-.92.007-.031.196-.626.204-.642.237-.62-.077.037.375-.854.013-.026.327-.574.335-.589.294-.45-.153.18.402-.581 0 0 .575-.697.594-.709.456-.486-.111.04.684-.668.019-.017.527-.427.545-.439.54-.398-.122.027.798-.533.062-.036 2.236-1.178 4.42-1.326.031.002.653-.003.673 0 .671.037-.04-.056.918.103.062.01.921.233.942.237.607.212.035-.054.874.378.053.025.738.471.754.485.483.375.007-.081.693.626.033.037.581.722.592.736.298.439-.083-.182.423.698.174.294-.005-.105.424.863.051.115.383 1.067.389 1.077.131.474.056.165.158.703.266 1.364-.16 2.259.148 3.484.139.569.536.36.67.132 0 0 .364-2.957.175-4.309-.52-3.8-3.698-6.954-7.573-7.171a7.922 7.922 0 00-1.286.048zm-16.498-70.335c-.277.097.514-.29.799-.357.594-.142 1.163-.066 1.741.099 1.679.492 3.019 1.749 3.513 3.449 1.048 3.614-1.417 8.799-5.676 8.509-.985-.067-1.943-.366-2.755-.936-3.325-2.327-2.416-8.247.691-10.401 2.227-1.539 5.806-.596 7.09 1.7l-5.403-2.063z" stroke="#fff" stroke-width="2" mask="url(#a)"/><path clip-rule="evenodd" d="M216.305 109.676c-3.951.464-6.586 5.55-5.172 9.731 0 0 .578 1.531 1.659 2.497 3.966 3.515 11.997-.365 10.44-7.565-.117-.531.127-.193-.504-1.437-.831-1.648-2.519-2.821-4.353-3.047 0-.005-1.225-.269-2.07-.179zm3.651 1.744c.381.265.1.051.46.358l.571.608c.291.373.087.077.321.471l.348.755c.311.893.13.359.211.888l.056.958c-.012.503.021.063-.046.672l-.118.654c-.113.503.011.064-.182.665 0 0-.452 1.107-.378.93-.222.468-.013.081-.32.597l-.558.777c-.32.372-.042.084-.438.458l-.578.457c-1.218.804-.507.315-.984.476l-1.274.167c-.389-.023-.136-.007-.415-.041-.005.001-.706-.138-.706-.138-1.078-.303-.502-.153-.898-.356 0 0-.689-.486-.733-.527-.232-.224.048.076-.256-.267 0 0-.734-1.32-.712-1.252-.308-.909-.049-.085-.206-.733l-.149-1.24c-.007-1.39.009-.749.113-1.336l.249-.968c.295-.851.109-.387.367-.939l.473-.828c.363-.511.039-.119.443-.559 0 0 1.088-.857 1.329-.956.586-.231.197-.094.624-.195l1.4-.114c1.39.103.831.081 1.45.308.01-.001.557.263.536.25zm-49.737-25.959c-.436-.15.891.296 1.227.6.681.618 1.237 1.388 1.728 2.164 1.489 2.347 2.378 5.55 1.188 8.219-2.493 5.584-11.663 6.009-15.444 1.638-.909-1.057-1.437-2.327-1.649-3.697-.476-3.037.83-6.856 3.59-8.44 4.453-2.56 12.295-.499 13.587 4.934l-4.227-5.418z" stroke="#fff" stroke-width="2" mask="url(#a)"/><path clip-rule="evenodd" d="M163.896 83.802c-6.303.698-10.747 9.23-6.081 14.927 4.491 5.489 16.115 4.321 17.687-3.113.58-2.75-.546-5.815-1.433-7.688 0 0-.341-.47-.617-.774-2.404-2.626-5.896-3.712-9.556-3.352zm9.943 7.29s.219.978.221.993c.146.945.101.528.115 1.254.014.727.016.224-.031.73 0 0-.135.837-.127.816-.24 1.012-.003.337-.441 1.222-.042.084-.559.917-.573.928-.245.325.026.013-.387.469-.082.088-.785.717-.785.717-.491.379-.096.1-.603.414 0 0-.783.422-.745.398-.668.31.025.048-.943.371-.029.008-.699.198-.719.2-.682.155.261 0-1.026.188-.069.012-1.767.209-3.371-.089-.031-.007-.709-.168-.734-.17-.795-.226.076.118-1.195-.418-.032-.017-.616-.298-.637-.31-.535-.296.503.483-.999-.633-1.675-1.245-2.499-3.405-2.413-5.491l.144-1.173c.142-.722-.005-.105.19-.792l.426-1.114c.296-.626.115-.267.374-.704 0 0 .49-.704.508-.721.378-.458.104-.176.602-.635.199-.18.984-.681.927-.65.473-.252.151-.096.57-.281.077-.038.966-.344.99-.351.715-.189-.05-.055 1.114-.222.029-.003.656-.063.677-.06.664-.033-.16-.045.957-.011.937.03 2.328.36 2.354.367.656.188-.102-.076.918.304.026.007.623.266.638.27.611.298-.032-.067.831.447l.558.374c.589.44-.017-.12.853.736.039.037.583.632.583.632.764.695.249.142.752.786l.352.95.075.26zm72.414-10.297c.432-.047-.744.462-1.158.593-.882.275-1.813.409-2.74.483-2.735.206-5.659-.764-7.482-2.873-2.219-2.569-3.496-6.583-2.805-9.952.514-2.503 3.053-4.915 5.782-4.619l8.403 16.368z" stroke="#fff" stroke-width="2" mask="url(#a)"/><path clip-rule="evenodd" d="M231.194 67.885c-2.163 5.618 1.716 13.524 8.098 14.81 2.354.473 4.906.129 7.013-.936.868-1.68.651-.956.3-1.274 0 0-.234-.133-.379-.019 0 0-1.037.02-1.012.012-.632.22.082.017-.68.19l-1.097.18c-1.615.175-.996.086-1.503.084 0 0-.898-.054-.919-.058-.665-.081.067.064-.933-.156-.626-.136-.006.04-.896-.236-.032-.012-.619-.222-.635-.23-.711-.303-.065.046-1.033-.514a27.618 27.618 0 01-.899-.636c-.595-.505-.109.01-.803-.787-.034-.037-.452-.584-.452-.584-.469-.653-.295-.408-.686-1.084a12.181 12.181 0 01-1.475-4.085c-1.028-6.17-.3-2.923.384-4.379l.657-1.046c.652-.795.292-.364.672-.692l.705-.504c1.143-.647.451-.264.93-.4 0 0 1.435-.745 1.207-.768.948-.633.068-.7.068-.7-1.34-1.211-2.416-.44-3.464.151-.02.002-2.387 1.7-3.168 3.661zm15.104 13.272l-.367-.321c-.001-.005.446.313.367.321z" stroke="#fff" stroke-width="2" mask="url(#a)"/></svg>