<svg width="154" height="52" fill="none" xmlns="http://www.w3.org/2000/svg"><path fill="#fff" fill-opacity=".3" d="M30.476.506h9.499v11.197h-9.499z"/><path d="M51.349 29.102h-3.307c-.58 6.031-2.03 9.04-8.067 13.27 1.253.591 12.022-4.442 11.374-13.27zM38.483 27.11l-4.183-.867 8.555-6.287 4.48-.232-8.852 7.386zm8.59-8.857c-2.063-2.36-3.93-3.222-7.828-4.119 2.504 1.608 3.72 2.745 5.084 4.351l2.744-.232z" fill="#FFC901"/><path d="M41.363 34.622c-4.85 9.687-18.018 9.854-22.606.665 2.768.519 4.486-.583 7.583-2.802 1.715-1.229 3.833-1.29 5.443 0 4.07 3.258 6.152 3.68 9.58 2.137z" fill="#FFE801"/><path d="M4.05 20.49c-.77-.854-1.384-2.14-1.14-2.384.142-.141 8.163-.137 8.304.004.174.174-.187 1.223-.662 1.925-.743 1.097-1.745 1.66-3.11 1.747-1.624.103-2.405-.194-3.393-1.292z" fill="#E31600"/><path d="M20.125 26.402c-1.016-.503-1.643-.745-2.499-1.457.781-3.207 1.615-4.77 4.104-7.338 1.212.23 1.702.572 2.494 1.21-3.63.482-5.57 4.62-4.099 7.585zm7.587.48c2.688-4.912 2.139-7.555-2.142-11.634 6.748-1.486 10.158-.287 14.815 4.77l-7.852 6.284c-1.336.322-2.095.736-3.444 1.697l-1.377-1.117z" fill="#FFE801"/><path fill-rule="evenodd" clip-rule="evenodd" d="M31.385.09C28.58.295 25.72.9 25.23 1.386l-.386.387.648 4.787c.511 3.768.598 4.82.41 4.936-.133.082-1.3.202-2.595.267-3.943.2-6.01.622-5.273 1.077.368.227 2.896.566 5.455.73l2.101.136-1.495.81c-1.31.712-1.644.811-2.702.811-.672 0-1.761.172-2.458.386-2.19.676-4.095 2.86-4.441 5.09-.117.756-.163.804-.818.859-.547.046-.694.139-.694.44 0 .292.148.395.632.442.348.033.664.162.704.286.039.124.202.7.363 1.279.603 2.174 2.188 3.76 4.496 4.5.828.265.963.362.67.477-1.134.443-2.647.1-4.079-.923l-.462-.33.114.952c.266 2.247 1.567 4.382 3.092 5.073 1.019.463 2.643.457 3.678-.012.441-.2 1.33-.721 1.974-1.158 2.044-1.387 3.128-1.786 4.865-1.79 1.751-.005 2.674.328 4.331 1.564 1.297.965 1.993 1.313 3.147 1.572 2.745.614 5.085-1.01 6.177-4.29.227-.68.385-1.472.351-1.758l-.06-.522-.687.604c-1.385 1.218-2.257 1.271-5.106.309-3.476-1.174-5.898-1.1-7.45.227l-.746.638-.456-.494c-.554-.6-1.483-1.017-2.265-1.017-.709 0-.728-.177-.083-.778.804-.75 1.407-1.95 1.71-3.404.614-2.942-.545-5.819-2.9-7.197-.46-.269-.791-.558-.738-.644.233-.376 3.094-1.361 4.783-1.646 2.855-.482 5.53-.004 8.335 1.49 1.133.603 4.24 3.309 4.129 3.595-.03.078-1.43 1.199-3.111 2.49-1.682 1.293-3.684 2.87-4.45 3.506L32.549 26.3l.847.058c.797.054.961-.03 2.825-1.452 2.602-1.985 5.898-4.32 6.587-4.668.477-.24 4.465-.644 4.465-.452 0 .039-1.977 1.682-4.393 3.652-2.417 1.97-4.394 3.66-4.394 3.757 0 .096.422.149.938.117.897-.055 1.12-.202 5.15-3.397 2.45-1.941 4.35-3.59 4.539-3.938.28-.515.29-.682.078-1.196-.479-1.155-3.465-3.523-5.793-4.595-1.052-.485-1.122-.549-.614-.566 2.593-.086 6.209-.654 6.209-.975 0-.366-3.943-.923-6.767-.955-1.95-.023-1.861.378-1.096-4.948.378-2.634.615-4.898.542-5.185C41.514.94 41.008.752 38.485.37c-2.476-.373-4.678-.46-7.1-.282zm7.387 1.05l1.337.354-1.433.096-1.433.095 1.196.355c.658.195 1.243.432 1.3.525.059.093-.48.174-1.195.18l-1.3.01 1.123.359c1.59.507 1.658.701.213.61-.683-.044-1.241-.034-1.241.022 0 .057.451.25 1.003.428 1.514.49 1.583.714.19.62-.656-.044-1.193-.058-1.193-.03 0 .028.473.199 1.05.381.578.182 1.051.38 1.051.439 0 .06-.537.089-1.193.065l-1.195-.043 1.242.458 1.242.457-1.242.032-1.242.033 1.05.282c1.488.4 1.583.623.214.499-.643-.058-1.168-.057-1.168.003 0 .06.473.245 1.05.413.578.168 1.051.357 1.051.42s-.43.057-.955-.012c-1.143-.152-1.314.174-.191.363 1.072.181.956.451-.143.333-1.071-.115-1.007.05.163.416l.84.263-.86.033-.86.032.75.274c1.093.4 1.098.516.014.36-1.12-.161-1.07.002.116.374l.84.263-1.051.034-1.05.033.763.252c.756.248.747.251-.86.257-.892.003-2.01-.063-2.483-.147l-.86-.153.86-.037c.668-.029.775-.074.478-.201-.21-.09-.683-.179-1.05-.196-.645-.03-.635-.04.286-.277.832-.214.877-.248.35-.268-.333-.012-.763-.087-.955-.165-.265-.108-.164-.168.414-.249l.764-.105-.86-.197-.86-.197 1.051-.2c.736-.14.879-.208.478-.225a5.73 5.73 0 01-1.05-.158c-.408-.112-.324-.165.572-.357.921-.198.969-.229.382-.25a5.965 5.965 0 01-1.146-.159c-.395-.112-.279-.171.669-.343l1.146-.208-1.242-.158c-.996-.127-1.147-.187-.764-.303.263-.08.779-.155 1.146-.167.985-.033.323-.391-.727-.395-1.148-.004-.832-.328.492-.503.97-.13 1.03-.161.522-.278a8.808 8.808 0 00-1.337-.16c-.961-.035-.58-.287.764-.505l.955-.154-1.337-.22-1.337-.219 1.22-.266c.982-.214 1.132-.291.765-.394-.252-.07-.844-.138-1.317-.15-1.077-.028-.709-.334.617-.514 1.085-.148 1.019-.45-.103-.47-1.576-.026-1.665-.296-.187-.561.758-.136 1.334-.32 1.279-.409-.055-.088-.61-.161-1.235-.161-1.358 0-1.504-.309-.228-.48.5-.068.994-.158 1.099-.2.441-.18 3.54.093 4.776.42zM3.9 13.63c-2.473.32-2.749.419-2.882 1.039-.218 1.015-.167 3.406.093 4.38.681 2.555 2.094 4.097 4.403 4.807.89.274 1.05.396 1.147.88.196.978.142 1.33-.184 1.205-.284-.109-2.475.692-2.838 1.037-.102.098-.066.293.09.481.216.26.477.295 1.45.195.652-.067 1.234-.043 1.292.052.06.095.41.23.778.299.557.104.671.208.671.606 0 .265.098.669.219.898.216.413.214.413-.186.058-.223-.198-.45-.498-.506-.668-.259-.795-3.157-1.177-3.157-.417 0 .566.493.82 1.441.745l.877-.07-.435.353c-.293.237-.61.317-.968.245-.665-.132-.728.298-.108.733.525.367.86.372 1.534.02.289-.15.525-.197.525-.104 0 .25-.798.762-1.189.762-.187 0-.34.076-.34.168 0 .332.565.624 1.089.563l.535-.063v6.292l-1.418.193c-1.668.228-1.973.583-.669.778.985.148 5.058-.04 5.932-.274.98-.262.583-.5-.93-.557-1.346-.05-1.487-.093-1.576-.477-.181-.781-.476-3.848-.477-4.965l-.002-1.11.62.06c.675.065.636.008 1.957 2.87.375.812.848 1.565 1.053 1.675.336.179 2.087-.174 5.281-1.066.355-.098.51.077 1.144 1.287 1.418 2.71 4.729 5.49 7.723 6.485.676.224 1.256.43 1.289.456.093.075-.562 2.264-.732 2.447-.084.09-1.085-.138-2.224-.508-2.66-.864-3.007-.935-3.809-.785-.972.182-1.62.952-2.367 2.815l-.663 1.653-1.627.03c-1.62.03-1.618.03.665.185 2.988.202 38.853.202 41.836 0 2.033-.138 2.128-.159.843-.185-.796-.017-1.492-.074-1.546-.127-.094-.095 2.728-9.394 2.97-9.786.068-.108.465-.255.885-.326.419-.07.813-.21.875-.31.204-.33-.337-.74-.977-.74-.467 0-.756-.15-1.123-.586-.73-.866-.626-1.351.338-1.587.41-.1.61-.048.805.21.323.424.356.787.043.475-.276-.275-.85-.3-1.009-.043-.063.102.034.412.216.689.292.445.424.492 1.154.41 1.534-.173 1.654-.636.714-2.763l-.442-1.002H58.41l-1.7-1.077c-1.242-.787-2.01-1.134-2.847-1.29l-1.146-.212.064-1.271c.095-1.878.05-1.897-4.479-1.831l-3.608.052-.137 1.506c-.407 4.483-2.028 7.788-4.966 10.126-4.396 3.498-9.634 4.12-14.574 1.729-2.476-1.199-4.756-3.314-5.91-5.484a2.38 2.38 0 00-1.1-1.025c-.402-.18-1.119-.744-1.595-1.252l-.864-.923-1.235.56c-.855.386-1.236.665-1.239.905-.003.353-1.127-1.459-2.113-3.408-.301-.595-.72-1.706-.932-2.468-.395-1.424-.589-1.687-1.25-1.697-.719-.011-.826-.227-.696-1.406l.124-1.119 1.044-.388c1.424-.53 2.86-1.98 3.45-3.486.36-.915.45-1.513.456-3.047.005-1.05-.097-2.261-.226-2.693-.223-.743-.283-.792-1.122-.906-1.217-.167-6.382-.11-7.909.088zm36.782.843c.63.165 1.748.6 2.483.966 1.33.662 3.725 2.421 3.725 2.734 0 .09-.88.201-1.958.246l-1.958.082-1.05-1.07c-1.197-1.22-1.906-1.778-3.535-2.778l-1.146-.703 1.146.112c.63.061 1.662.247 2.293.411zm-28.503.665c.096.367.138 1.364.095 2.215-.135 2.628-1.452 4.597-3.55 5.312-3.651 1.242-6.998-1.7-6.97-6.125.005-.752.067-1.461.138-1.576.084-.135 1.246-.217 3.317-.233 1.754-.014 3.833-.087 4.621-.163 2.105-.203 2.15-.192 2.349.57zM23.87 17.09c1.793.923 2.767 2.456 2.92 4.595l.094 1.302-.647-.394c-.672-.41-1.423-.504-1.85-.233-.199.125-.189.206.047.402.637.527.124 1.534-.781 1.534-.404 0-.458.066-.354.43.18.623.99 1.286 1.585 1.295l.514.008-.711.628c-.874.772-1.911 1.1-3.458 1.092-2.82-.014-4.866-1.478-5.605-4.011-.79-2.712.71-5.854 3.292-6.892 1.36-.546 3.637-.434 4.954.244zm-5.03 2.226c-1.148 1.716-1.943 3.473-1.943 4.298 0 .247.164.65.363.896l.363.448.23-.856c.524-1.946 1.86-4.34 3.218-5.77l.68-.715H19.98l-1.139 1.7zm4.121-.281c-1.25.445-2.298 1.397-2.96 2.685-.93 1.814-.538 4.866.627 4.866.557 0 .548.038.186-.83-1.063-2.539.662-5.629 3.343-5.988.853-.114.923-.23.414-.69-.415-.376-.659-.382-1.61-.043zm3.958 9.823c.271.106.065.182-.743.277-.615.073-2.116.531-3.336 1.02-1.92.768-2.409.888-3.65.9-1.206.012-1.531-.055-2.054-.428-.797-.567-.806-.903-.013-.493.872.45 2.875.258 5.123-.493 2.671-.891 3.878-1.094 4.673-.783zm9.632.563c1.877.627 3.52.774 4.547.407l.538-.192-.528.472c-.678.605-1.901.932-2.918.78-.44-.066-1.65-.425-2.688-.798-1.305-.469-2.362-.712-3.417-.786-1.52-.108-1.525-.11-.86-.36 1.077-.407 3.265-.21 5.326.477zm14.57.504c-.035.42-.091.79-.124.824-.032.033-.555-.03-1.162-.143-1.417-.262-1.99.037-1.99 1.036 0 .78.447 1.138 1.671 1.334.932.15.967.277.422 1.546-1.787 4.165-5.603 7.01-10.582 7.892-1.857.328-2.027.247-.834-.4 4.227-2.291 7.028-6.62 7.522-11.62l.132-1.338 2.505.053 2.506.053-.065.763zm-25.15.553a20.09 20.09 0 00-2.04 1.132c-2.273 1.456-3.924 1.79-5.322 1.078-.416-.212-.756-.415-.756-.452 0-.036.58-.026 1.29.024 1.373.095 1.512.055 5.396-1.559 1.793-.745 2.982-.93 1.433-.223zm9.119.73c1.919.661 2.593.807 3.72.804l1.376-.004-.514.337c-.812.532-2 .628-3.147.254-1.214-.395-4.575-2.19-4.11-2.194.183-.002 1.386.36 2.675.803zm18.503 2.504c.588.138 1.594.57 2.235.96.926.561 1.292.932 1.773 1.797.334.599.83 1.279 1.103 1.511l.496.422-1.21 5.207c-.665 2.864-1.248 5.271-1.295 5.35-.047.079-1.707.143-3.689.143h-3.603l-.101-.525c-.525-2.72-.556-2.811-1.174-3.428-.843-.842-1.554-.822-5.058.14-1.523.418-2.834.76-2.914.76-.079 0-.144-.543-.144-1.206V43.64l1.47-.346c4.557-1.073 8.617-4.748 10.392-9.408.19-.498.29-.508 1.72-.172zM36.402 44.476c.564 1.476.627 2.297.27 3.477l-.349 1.15H30.08v-.656c0-.36-.09-.889-.198-1.175-.167-.439-.095-.736.468-1.92l.666-1.401h5.186l.2.525zm10.823.808c.49.005.217.385-.287.399-.507.014-.501.023.143.262l.669.248-.573.08-.573.078.668.311.669.31-.669.031-.668.03.668.248.669.248-.573.083c-.5.072-.524.101-.191.23 1.13.437 1.074.472-.764.473-1.544 0-1.82-.04-1.433-.208l.478-.208-.573-.124-.574-.124.478-.17.478-.17-.574-.124-.573-.124.478-.208.477-.208-.525-.013c-.289-.006-.525-.08-.525-.166 0-.084.236-.247.525-.361l.526-.207-.67-.033c-.646-.031-.652-.038-.19-.226.73-.296 1.961-.52 2.388-.436.21.042.49.078.62.079zm-24.796.21c.94.2 1.302.534.63.578-.318.021-.318.026 0 .11.521.135.393.439-.19.452l-.526.013.477.214.478.215-.57.076-.57.077.474.262.475.263-.669.013-.668.014.477.273c.436.248.303.271-1.528.259-1.798-.012-1.933-.036-1.305-.232.976-.304 1.103-.502.334-.52l-.653-.014.765-.252.764-.251-.669-.04-.669-.04.764-.252c.69-.227.713-.253.228-.266-.596-.016-.528-.396.07-.396.204 0 .371-.086.371-.19 0-.106-.193-.193-.43-.195-.347-.002-.375-.038-.143-.188.376-.242 1.098-.237 2.283.016zm18.533 3.024c.28.523.253.585-.248.585-.59 0-.728-.165-.496-.598.244-.457.494-.452.744.013zm-14.703.203c.189.353.145.382-.573.382s-.762-.029-.573-.382c.112-.21.37-.381.573-.381.203 0 .46.171.573.381zm-5.826 1.393c3.278.252 29.618.256 33.048.005 2.054-.15-1.754-.196-16.429-.196-14.277 0-18.475.048-16.62.19zm2.579.766c2.444.238 20.716.226 24.834-.018 2.198-.13-.875-.175-11.94-.176-11.345-.002-14.422.044-12.894.194z" fill="#000"/><path d="M79.902 14.552c.528 0 1.08.048 1.656.144.576.084 1.026.198 1.35.342.108.036.174.084.198.144a.69.69 0 01.09.27l.216 2.502c0 .036-.03.06-.09.072-.06.012-.096-.006-.108-.054-.408-.948-.954-1.68-1.638-2.196-.684-.516-1.476-.774-2.376-.774-1.188 0-2.106.438-2.754 1.314-.648.876-.972 2.052-.972 3.528 0 1.104.174 2.112.522 3.024.36.912.858 1.638 1.494 2.178.648.528 1.38.792 2.196.792.768 0 1.452-.252 2.052-.756.612-.516 1.158-1.296 1.638-2.34.012-.048.048-.066.108-.054.072.012.108.036.108.072l-.27 2.448c-.024.144-.054.24-.09.288-.024.036-.09.078-.198.126a9.403 9.403 0 01-3.294.594c-1.464 0-2.688-.288-3.672-.864-.984-.588-1.71-1.326-2.178-2.214a6.137 6.137 0 01-.684-2.808c0-1.14.306-2.148.918-3.024.624-.876 1.446-1.554 2.466-2.034a7.757 7.757 0 013.312-.72zm10.313 5.094c1.272 0 2.244.252 2.916.756.672.492 1.008 1.224 1.008 2.196 0 .696-.174 1.308-.522 1.836-.348.516-.834.918-1.458 1.206-.612.288-1.308.432-2.088.432-.312 0-.678-.018-1.098-.054-.156 0-.408-.006-.756-.018a13.537 13.537 0 00-.918-.036l-1.152.018c-.252.012-.6.018-1.044.018-.036 0-.054-.036-.054-.108 0-.072.018-.108.054-.108.408-.024.69-.054.846-.09a.489.489 0 00.342-.306c.072-.168.108-.45.108-.846v-8.334c0-.396-.03-.672-.09-.828a.489.489 0 00-.342-.306c-.156-.048-.438-.084-.846-.108-.024 0-.036-.036-.036-.108 0-.072.012-.108.036-.108l.9.018c.504.024.96.036 1.368.036.396 0 .894-.012 1.494-.036l1.026-.018c.024 0 .036.036.036.108 0 .072-.012.108-.036.108-.468.024-.792.06-.972.108a.597.597 0 00-.396.324c-.084.168-.126.45-.126.846v3.546a12.872 12.872 0 011.8-.144zm9.306 6.138c.036 0 .054.036.054.108 0 .072-.018.108-.054.108-.396 0-.708-.006-.936-.018l-1.368-.018-1.332.018c-.24.012-.564.018-.972.018-.024 0-.036-.036-.036-.108 0-.072.012-.108.036-.108.384 0 .666-.03.846-.09a.54.54 0 00.36-.342c.072-.18.108-.45.108-.81v-8.334c0-.36-.036-.624-.108-.792a.54.54 0 00-.36-.342c-.18-.072-.462-.108-.846-.108-.024 0-.036-.036-.036-.108 0-.072.012-.108.036-.108l.972.018c.552.024.996.036 1.332.036.372 0 .834-.012 1.386-.036l.918-.018c.036 0 .054.036.054.108 0 .072-.018.108-.054.108-.372 0-.648.036-.828.108a.593.593 0 00-.36.378c-.06.168-.09.432-.09.792v8.298c0 .372.03.642.09.81a.54.54 0 00.342.342c.18.06.462.09.846.09zm-9.774-.162c.828 0 1.416-.216 1.764-.648.348-.444.522-1.134.522-2.07 0-.96-.186-1.656-.558-2.088-.36-.444-.984-.666-1.872-.666-.312 0-.708.03-1.188.09v4.302c0 .36.084.63.252.81.18.18.54.27 1.08.27zm14.432-1.152c0 .384.042.666.126.846.084.168.24.288.468.36.24.072.618.108 1.134.108.036 0 .054.036.054.108 0 .072-.018.108-.054.108-.492 0-.876-.006-1.152-.018l-1.566-.018-1.314.018c-.24.012-.564.018-.972.018-.036 0-.054-.036-.054-.108 0-.072.018-.108.054-.108.384 0 .66-.03.828-.09a.54.54 0 00.36-.342c.06-.18.09-.45.09-.81v-8.334c0-.36-.03-.624-.09-.792a.54.54 0 00-.36-.342c-.18-.072-.456-.108-.828-.108-.036 0-.054-.036-.054-.108 0-.072.018-.108.054-.108l.954.018c.552.024.99.036 1.314.036.288 0 .63-.018 1.026-.054a16.79 16.79 0 011.422-.054c1.224 0 2.19.258 2.898.774.708.504 1.062 1.29 1.062 2.358 0 .744-.192 1.374-.576 1.89a3.604 3.604 0 01-1.494 1.17c-.6.264-1.218.396-1.854.396-.324 0-.606-.03-.846-.09-.024 0-.036-.03-.036-.09a.34.34 0 01.018-.108c.024-.036.048-.048.072-.036.18.048.384.072.612.072.552 0 1.008-.258 1.368-.774.372-.516.558-1.248.558-2.196 0-.948-.204-1.68-.612-2.196-.396-.516-.978-.774-1.746-.774-.336 0-.564.078-.684.234-.12.156-.18.462-.18.918v8.226zm19.237 1.314c.036 0 .054.036.054.108 0 .072-.018.108-.054.108-.42 0-.756-.006-1.008-.018l-1.386-.018-1.62.018c-.216.012-.51.018-.882.018-.036 0-.054-.036-.054-.108 0-.072.018-.108.054-.108.444 0 .768-.03.972-.09.204-.06.342-.174.414-.342.072-.168.108-.438.108-.81v-4.14H114.2v4.14c0 .36.036.63.108.81.072.168.21.282.414.342.204.06.528.09.972.09.024 0 .036.036.036.108 0 .072-.012.108-.036.108-.42 0-.756-.006-1.008-.018l-1.566-.018-1.35.018c-.24.012-.57.018-.99.018-.024 0-.036-.036-.036-.108 0-.072.012-.108.036-.108.42 0 .726-.03.918-.09a.6.6 0 00.396-.342c.072-.18.108-.45.108-.81v-8.334c0-.36-.036-.624-.108-.792a.6.6 0 00-.396-.342c-.18-.072-.474-.108-.882-.108-.036 0-.054-.036-.054-.108 0-.072.018-.108.054-.108l.972.018c.552.024.996.036 1.332.036.456 0 .984-.012 1.584-.036l.99-.018c.024 0 .036.036.036.108 0 .072-.012.108-.036.108-.432 0-.75.036-.954.108a.715.715 0 00-.432.378c-.072.168-.108.432-.108.792v3.654h5.814v-3.654c0-.36-.036-.624-.108-.792a.652.652 0 00-.414-.378c-.204-.072-.528-.108-.972-.108-.036 0-.054-.036-.054-.108 0-.072.018-.108.054-.108l.882.018c.6.024 1.14.036 1.62.036.324 0 .786-.012 1.386-.036l1.008-.018c.036 0 .054.036.054.108 0 .072-.018.108-.054.108-.408 0-.714.036-.918.108a.6.6 0 00-.396.342c-.06.168-.09.432-.09.792v8.334c0 .36.03.63.09.81a.6.6 0 00.396.342c.192.06.498.09.918.09zm6.42-6.138c1.272 0 2.244.252 2.916.756.672.492 1.008 1.224 1.008 2.196 0 .696-.174 1.308-.522 1.836-.348.516-.834.918-1.458 1.206-.612.288-1.308.432-2.088.432-.312 0-.678-.018-1.098-.054-.156 0-.408-.006-.756-.018a13.537 13.537 0 00-.918-.036l-1.152.018c-.252.012-.6.018-1.044.018-.036 0-.054-.036-.054-.108 0-.072.018-.108.054-.108.408-.024.69-.054.846-.09a.489.489 0 00.342-.306c.072-.168.108-.45.108-.846v-8.334c0-.396-.03-.672-.09-.828a.489.489 0 00-.342-.306c-.156-.048-.438-.084-.846-.108-.024 0-.036-.036-.036-.108 0-.072.012-.108.036-.108l.9.018c.504.024.96.036 1.368.036.396 0 .894-.012 1.494-.036l1.026-.018c.024 0 .036.036.036.108 0 .072-.012.108-.036.108-.468.024-.792.06-.972.108a.597.597 0 00-.396.324c-.084.168-.126.45-.126.846v3.546a12.872 12.872 0 011.8-.144zm9.306 6.138c.036 0 .054.036.054.108 0 .072-.018.108-.054.108-.396 0-.708-.006-.936-.018l-1.368-.018-1.332.018c-.24.012-.564.018-.972.018-.024 0-.036-.036-.036-.108 0-.072.012-.108.036-.108.384 0 .666-.03.846-.09a.54.54 0 00.36-.342c.072-.18.108-.45.108-.81v-8.334c0-.36-.036-.624-.108-.792a.54.54 0 00-.36-.342c-.18-.072-.462-.108-.846-.108-.024 0-.036-.036-.036-.108 0-.072.012-.108.036-.108l.972.018c.552.024.996.036 1.332.036.372 0 .834-.012 1.386-.036l.918-.018c.036 0 .054.036.054.108 0 .072-.018.108-.054.108-.372 0-.648.036-.828.108a.593.593 0 00-.36.378c-.06.168-.09.432-.09.792v8.298c0 .372.03.642.09.81a.54.54 0 00.342.342c.18.06.462.09.846.09zm-9.774-.162c.828 0 1.416-.216 1.764-.648.348-.444.522-1.134.522-2.07 0-.96-.186-1.656-.558-2.088-.36-.444-.984-.666-1.872-.666-.312 0-.708.03-1.188.09v4.302c0 .36.084.63.252.81.18.18.54.27 1.08.27zm17.762-11.646c-.456 0-.888-.078-1.296-.234-.408-.156-.738-.36-.99-.612-.252-.264-.378-.54-.378-.828 0-.216.066-.39.198-.522.144-.132.342-.198.594-.198.276 0 .468.084.576.252.108.156.21.408.306.756.108.372.222.648.342.828.132.168.342.252.63.252.3 0 .516-.09.648-.27.144-.192.276-.468.396-.828.108-.336.216-.582.324-.738.12-.168.306-.252.558-.252.252 0 .444.066.576.198a.706.706 0 01.198.522c0 .3-.126.582-.378.846-.252.252-.582.456-.99.612a3.92 3.92 0 01-1.314.216zm5.976 11.808c.036 0 .054.036.054.108 0 .072-.018.108-.054.108-.42 0-.756-.006-1.008-.018l-1.386-.018-1.62.018c-.216.012-.51.018-.882.018-.036 0-.054-.036-.054-.108 0-.072.018-.108.054-.108.444 0 .768-.03.972-.09.204-.06.342-.174.414-.342.072-.168.108-.438.108-.81V17.18l-7.2 9.018c-.036.036-.126.054-.27.054-.228 0-.342-.042-.342-.126v-9.918c0-.36-.036-.624-.108-.792a.6.6 0 00-.396-.342c-.192-.072-.492-.108-.9-.108-.036 0-.054-.036-.054-.108 0-.072.018-.108.054-.108l1.008.018c.6.024 1.062.036 1.386.036.48 0 1.02-.012 1.62-.036l.882-.018c.036 0 .054.036.054.108 0 .072-.018.108-.054.108-.444 0-.768.036-.972.108-.204.06-.342.174-.414.342-.072.168-.108.432-.108.792v7.434l7.2-9.018c.036-.036.126-.054.27-.054.084 0 .162.012.234.036.072.024.108.054.108.09v9.846c0 .36.036.63.108.81a.6.6 0 00.396.342c.192.06.492.09.9.09zM87.183 39.228c-.836 0-1.545-.177-2.128-.532-.57-.367-1-.836-1.292-1.406a4.178 4.178 0 01-.418-1.824c0-.798.222-1.495.665-2.09a4.29 4.29 0 011.691-1.387 4.932 4.932 0 012.128-.494c.608 0 1.153.127 1.634.38.494.253.741.602.741 1.045a.83.83 0 01-.285.627c-.177.165-.43.247-.76.247-.304 0-.544-.076-.722-.228-.177-.165-.323-.412-.437-.741-.114-.355-.228-.595-.342-.722-.101-.14-.291-.209-.57-.209-.544 0-.981.272-1.31.817-.317.532-.476 1.241-.476 2.128 0 1.051.235 1.894.703 2.527.469.62 1.216.931 2.242.931.342 0 .634-.038.874-.114.254-.076.57-.203.95-.38h.02c.037 0 .069.019.094.057.038.038.045.07.02.095-.47.43-.938.754-1.407.969-.468.203-1.007.304-1.615.304zm8.017.019c-.785 0-1.475-.177-2.07-.532a3.746 3.746 0 01-1.35-1.463 4.367 4.367 0 01-.475-2.014c0-.823.21-1.52.627-2.09a3.772 3.772 0 011.596-1.292 4.805 4.805 0 011.995-.437c.786 0 1.47.184 2.052.551a3.61 3.61 0 011.33 1.463 4.02 4.02 0 01.475 1.919c0 .76-.19 1.438-.57 2.033a3.928 3.928 0 01-1.539 1.368 4.422 4.422 0 01-2.07.494zm.57-.399c.494 0 .868-.24 1.121-.722.266-.494.4-1.197.4-2.109 0-.887-.115-1.647-.343-2.28-.228-.633-.525-1.108-.893-1.425-.367-.33-.76-.494-1.178-.494-1.013 0-1.52.906-1.52 2.717 0 .849.108 1.602.323 2.261.216.646.507 1.153.874 1.52.368.355.773.532 1.216.532zm14.749-.076c.038 0 .057.038.057.114 0 .076-.019.114-.057.114-.367 0-.652-.006-.855-.019l-1.045-.019-1.007.019a9.805 9.805 0 01-.703.019c-.038 0-.057-.038-.057-.114 0-.076.019-.114.057-.114.304 0 .519-.044.646-.133.127-.101.19-.31.19-.627 0-.063-.013-.222-.038-.475l-.38-3.135L105.123 39c-.013.05-.057.076-.133.076-.089 0-.139-.025-.152-.076l-2.755-4.674-.209 2.698c-.076 1.165.355 1.748 1.292 1.748.038 0 .057.038.057.114 0 .076-.019.114-.057.114-.291 0-.519-.006-.684-.019l-.817-.019-.798.019a8.295 8.295 0 01-.646.019c-.038 0-.057-.038-.057-.114 0-.076.019-.114.057-.114.393 0 .69-.146.893-.437.203-.291.323-.728.361-1.311l.399-5.415c0-.038.038-.07.114-.095a.544.544 0 01.247-.057c.127 0 .209.032.247.095l3.192 5.377 2.584-5.377c.025-.038.082-.057.171-.057.076 0 .152.019.228.057.089.025.133.05.133.076l.684 5.833c.051.418.101.71.152.874a.533.533 0 00.266.342c.127.063.336.095.627.095zm7.626-1.026c.026 0 .051.025.076.076.038.05.045.089.019.114-.468.456-.943.785-1.425.988a4.021 4.021 0 01-1.577.304c-.798 0-1.488-.165-2.071-.494a3.491 3.491 0 01-1.33-1.349 3.857 3.857 0 01-.456-1.843c0-.735.184-1.412.551-2.033a3.931 3.931 0 011.52-1.463c.659-.367 1.4-.551 2.223-.551.786 0 1.394.177 1.824.532.431.355.646.906.646 1.653 0 .393-.069.589-.209.589l-4.617.019a3.626 3.626 0 00-.019.437c0 1.115.254 1.989.76 2.622.52.633 1.261.95 2.223.95.342 0 .634-.038.874-.114a6.4 6.4 0 00.95-.418l.038-.019zm-3.192-5.871c-.418 0-.766.184-1.045.551-.278.355-.462.849-.551 1.482l2.755-.038c-.012-.646-.107-1.14-.285-1.482-.177-.342-.468-.513-.874-.513zm12.122 6.897c.063 0 .095.038.095.114 0 .076-.032.114-.095.114-.228 0-.583-.013-1.064-.038a24.93 24.93 0 00-1.102-.038c-.203 0-.532.013-.988.038-.431.025-.735.038-.912.038-.051 0-.076-.038-.076-.114 0-.076.025-.114.076-.114.279 0 .481-.032.608-.095a.357.357 0 00.19-.323 1.02 1.02 0 00-.114-.399 6.182 6.182 0 00-.228-.551l-1.596-3.401-1.14 2.66c-.228.532-.342.963-.342 1.292 0 .545.304.817.912.817.063 0 .095.038.095.114 0 .076-.032.114-.095.114-.139 0-.336-.013-.589-.038a7.274 7.274 0 00-1.501 0 5.586 5.586 0 01-.608.038c-.063 0-.095-.038-.095-.114 0-.076.032-.114.095-.114.228 0 .469-.158.722-.475.266-.33.589-.931.969-1.805l2.204-5.111c.025-.05.063-.076.114-.076.051 0 .089.025.114.076l2.356 5.016c.329.722.583 1.241.76 1.558.177.304.355.52.532.646.177.114.412.171.703.171zm4.948-4.123c1.951 0 2.926.659 2.926 1.976 0 .722-.278 1.305-.836 1.748-.544.443-1.26.665-2.147.665L130.94 39a35.853 35.853 0 00-1.311-.038l-1.102.019c-.202.013-.487.019-.855.019-.038 0-.057-.038-.057-.114 0-.076.019-.114.057-.114.304 0 .526-.032.665-.095a.518.518 0 00.304-.361c.051-.19.076-.475.076-.855v-4.256c0-.38-.025-.659-.076-.836-.05-.19-.152-.317-.304-.38-.139-.063-.354-.095-.646-.095-.038 0-.057-.038-.057-.114 0-.076.019-.114.057-.114.355 0 .627.006.817.019l1.121.019 1.178-.019c.228-.013.539-.019.931-.019.026 0 .038.038.038.114 0 .076-.012.114-.038.114-.367 0-.639.038-.817.114a.64.64 0 00-.342.399c-.063.177-.095.456-.095.836v1.577a6.511 6.511 0 011.539-.171zm-.456 4.104c.507 0 .881-.133 1.121-.399.241-.279.361-.716.361-1.311 0-1.317-.57-1.976-1.71-1.976-.266 0-.551.038-.855.114v2.28c0 .456.076.785.228.988.152.203.437.304.855.304zm11.126-1.007c.026 0 .051.025.076.076.038.05.045.089.019.114-.468.456-.943.785-1.425.988a4.021 4.021 0 01-1.577.304c-.798 0-1.488-.165-2.071-.494a3.491 3.491 0 01-1.33-1.349 3.857 3.857 0 01-.456-1.843c0-.735.184-1.412.551-2.033a3.931 3.931 0 011.52-1.463c.659-.367 1.4-.551 2.223-.551.786 0 1.394.177 1.824.532.431.355.646.906.646 1.653 0 .393-.069.589-.209.589l-4.617.019a3.626 3.626 0 00-.019.437c0 1.115.254 1.989.76 2.622.52.633 1.261.95 2.223.95.342 0 .634-.038.874-.114a6.4 6.4 0 00.95-.418l.038-.019zm-3.192-5.871c-.418 0-.766.184-1.045.551-.278.355-.462.849-.551 1.482l2.755-.038c-.012-.646-.107-1.14-.285-1.482-.177-.342-.468-.513-.874-.513z" fill="#000"/></svg>