<svg width="170" height="73" fill="none" xmlns="http://www.w3.org/2000/svg"><rect width="73" height="73" rx="36.5" fill="#fff"/><g clip-path="url(#clip0_208:14)"><path fill="#fff" fill-opacity=".3" d="M34.476 8.506h9.499v11.197h-9.499z"/><path d="M55.349 37.102h-3.307c-.58 6.031-2.03 9.04-8.067 13.269 1.253.592 12.022-4.441 11.374-13.269zM42.483 35.11l-4.183-.867 8.555-6.287 4.48-.232-8.852 7.386zm8.59-8.857c-2.063-2.36-3.93-3.222-7.828-4.119 2.504 1.608 3.72 2.745 5.084 4.351l2.744-.232z" fill="#FFC901"/><path d="M45.363 42.622c-4.85 9.688-18.018 9.854-22.606.665 2.768.519 4.486-.583 7.583-2.802 1.716-1.229 3.833-1.29 5.443 0 4.07 3.258 6.152 3.68 9.58 2.137z" fill="#FFE801"/><path fill-rule="evenodd" clip-rule="evenodd" d="M35.385 8.09c-2.805.206-5.666.81-6.154 1.297l-.387.387.648 4.787c.511 3.768.598 4.82.41 4.936-.133.081-1.3.202-2.595.267-3.943.2-6.01.622-5.273 1.077.368.227 2.896.566 5.455.73l2.101.135-1.495.811c-1.31.712-1.644.811-2.702.811-.672 0-1.761.172-2.458.387-2.19.675-4.095 2.858-4.441 5.09-.117.755-.163.803-.818.858-.547.046-.694.139-.694.44 0 .292.148.395.632.442.348.033.664.162.703.286.04.124.203.7.364 1.279.603 2.174 2.188 3.76 4.496 4.5.828.266.963.362.67.477-1.134.443-2.647.1-4.079-.923l-.462-.33.113.952c.267 2.247 1.568 4.382 3.093 5.073 1.019.463 2.643.457 3.678-.012.441-.2 1.33-.721 1.974-1.158 2.044-1.387 3.128-1.786 4.865-1.79 1.751-.005 2.674.328 4.331 1.564 1.297.965 1.993 1.313 3.147 1.572 2.745.614 5.085-1.01 6.177-4.29.227-.68.385-1.472.351-1.758l-.06-.522-.687.603c-1.385 1.22-2.257 1.272-5.106.31-3.476-1.174-5.898-1.1-7.45.227l-.746.638-.456-.494c-.554-.6-1.483-1.018-2.265-1.018-.709 0-.728-.176-.083-.777.804-.75 1.407-1.95 1.71-3.404.614-2.942-.545-5.819-2.9-7.197-.46-.269-.791-.558-.738-.644.233-.376 3.094-1.361 4.783-1.646 2.855-.482 5.53-.004 8.335 1.49 1.133.603 4.24 3.309 4.129 3.595-.03.078-1.43 1.199-3.111 2.49-1.682 1.293-3.684 2.87-4.45 3.506L36.549 34.3l.847.058c.797.054.961-.03 2.825-1.452 2.602-1.985 5.898-4.32 6.587-4.668.477-.24 4.465-.644 4.465-.452 0 .039-1.977 1.682-4.393 3.652-2.417 1.97-4.394 3.66-4.394 3.757 0 .096.422.149.938.117.897-.055 1.12-.202 5.15-3.397 2.45-1.941 4.35-3.59 4.539-3.938.28-.515.29-.682.078-1.196-.479-1.155-3.465-3.523-5.793-4.595-1.052-.485-1.122-.549-.614-.566 2.593-.086 6.209-.654 6.209-.975 0-.366-3.943-.923-6.767-.955-1.95-.023-1.861.378-1.096-4.948.378-2.634.615-4.898.542-5.185-.157-.617-.663-.805-3.186-1.186-2.476-.373-4.678-.46-7.1-.282zm7.387 1.05l1.337.354-1.433.096-1.433.095 1.196.355c.658.195 1.243.432 1.3.525.059.093-.48.174-1.195.18l-1.3.01 1.123.359c1.59.507 1.658.701.213.61-.683-.044-1.241-.034-1.241.022 0 .057.451.25 1.003.428 1.514.49 1.583.715.19.62-.656-.044-1.193-.058-1.193-.03 0 .028.473.199 1.05.381.578.182 1.051.38 1.051.439 0 .06-.537.089-1.193.065l-1.195-.043 1.242.458 1.242.457-1.242.032-1.242.033 1.05.282c1.488.4 1.583.623.214.499-.643-.058-1.168-.057-1.168.002 0 .06.473.246 1.05.414.578.168 1.051.357 1.051.42s-.43.057-.955-.012c-1.143-.151-1.314.174-.191.364 1.072.18.956.45-.143.332-1.071-.115-1.007.05.163.416l.84.263-.86.033-.86.032.75.274c1.093.4 1.098.516.014.36-1.12-.161-1.07.002.116.374l.84.263-1.051.034-1.05.033.763.252c.756.248.747.251-.86.257-.892.003-2.01-.063-2.483-.147l-.86-.153.86-.037c.668-.029.775-.074.478-.201-.21-.09-.683-.179-1.05-.196-.645-.03-.635-.04.286-.277.832-.214.877-.248.35-.268-.333-.013-.763-.087-.955-.165-.265-.108-.164-.168.414-.249l.764-.105-.86-.197-.86-.197 1.051-.2c.736-.14.879-.207.478-.225a5.729 5.729 0 01-1.05-.158c-.408-.112-.324-.165.572-.357.921-.198.969-.229.382-.25a5.962 5.962 0 01-1.146-.159c-.395-.112-.279-.171.669-.343l1.146-.208-1.242-.158c-.996-.127-1.147-.187-.764-.303.263-.08.779-.155 1.146-.167.985-.032.323-.391-.727-.395-1.148-.004-.832-.327.492-.503.97-.13 1.03-.161.522-.277a8.804 8.804 0 00-1.337-.16c-.961-.036-.58-.288.764-.506l.955-.154-1.337-.22-1.337-.218 1.22-.267c.982-.214 1.132-.291.765-.394-.252-.07-.844-.138-1.317-.15-1.077-.028-.709-.334.617-.514 1.085-.148 1.019-.45-.103-.47-1.576-.026-1.665-.296-.187-.561.758-.136 1.334-.32 1.279-.409-.055-.088-.61-.161-1.235-.161-1.358 0-1.504-.309-.228-.48.5-.068.994-.158 1.099-.2.441-.18 3.54.093 4.776.42zM7.9 21.63c-2.473.32-2.749.419-2.882 1.039-.218 1.015-.167 3.406.093 4.38.681 2.555 2.094 4.097 4.403 4.807.89.274 1.05.396 1.147.88.196.978.142 1.33-.184 1.205-.284-.109-2.475.692-2.838 1.037-.102.098-.066.294.09.481.215.26.477.295 1.45.195.652-.067 1.234-.043 1.292.052.06.095.41.23.778.299.557.104.671.208.671.606 0 .265.098.669.219.898.216.413.215.413-.186.058-.223-.198-.45-.498-.506-.668-.259-.795-3.157-1.177-3.157-.417 0 .566.493.82 1.441.745l.877-.07-.435.353c-.293.237-.61.317-.968.245-.665-.132-.728.298-.108.732.525.368.86.373 1.534.021.289-.15.525-.197.525-.105 0 .25-.798.763-1.189.763-.187 0-.34.076-.34.168 0 .332.565.624 1.089.563l.535-.063v6.292l-1.418.193c-1.668.228-1.973.583-.669.778.985.148 5.058-.04 5.932-.274.98-.262.583-.5-.93-.557-1.346-.05-1.487-.093-1.576-.477-.181-.781-.476-3.848-.477-4.965l-.002-1.11.62.06c.675.065.636.008 1.957 2.87.375.812.848 1.565 1.053 1.675.336.179 2.087-.174 5.281-1.066.355-.098.51.077 1.144 1.287 1.418 2.71 4.729 5.49 7.723 6.485.676.224 1.256.43 1.289.456.093.075-.562 2.264-.732 2.447-.084.09-1.085-.138-2.224-.508-2.66-.864-3.007-.935-3.809-.785-.972.182-1.62.952-2.367 2.815l-.663 1.653-1.627.03c-1.62.03-1.618.03.665.185 2.988.202 38.853.202 41.836 0 2.033-.138 2.128-.159.843-.185-.796-.017-1.492-.074-1.546-.127-.094-.095 2.728-9.394 2.97-9.786.068-.108.466-.255.885-.326.419-.07.813-.21.875-.31.204-.33-.337-.74-.977-.74-.467 0-.755-.15-1.123-.586-.73-.866-.626-1.351.338-1.587.41-.1.61-.048.805.21.323.424.356.787.043.475-.276-.275-.85-.3-1.009-.043-.063.102.034.412.216.689.292.445.424.492 1.154.41 1.534-.173 1.654-.636.714-2.763l-.442-1.002H62.41l-1.7-1.077c-1.242-.787-2.01-1.134-2.847-1.29l-1.146-.212.064-1.271c.095-1.878.05-1.897-4.479-1.831l-3.608.052-.137 1.506c-.407 4.483-2.028 7.788-4.966 10.126-4.396 3.498-9.634 4.12-14.574 1.729-2.476-1.199-4.756-3.314-5.91-5.484a2.38 2.38 0 00-1.1-1.025c-.402-.18-1.119-.744-1.595-1.252l-.864-.923-1.235.56c-.855.386-1.236.665-1.239.905-.003.353-1.127-1.459-2.113-3.408-.301-.595-.72-1.706-.932-2.468-.395-1.424-.589-1.687-1.25-1.697-.719-.011-.826-.227-.696-1.406l.124-1.119 1.044-.388c1.424-.53 2.86-1.98 3.45-3.486.36-.915.45-1.513.456-3.047.005-1.05-.097-2.261-.226-2.693-.223-.743-.284-.792-1.122-.906-1.217-.167-6.382-.11-7.909.088zm36.782.843c.63.165 1.748.6 2.483.966 1.33.662 3.725 2.421 3.725 2.734 0 .09-.88.201-1.958.246l-1.958.082-1.05-1.07c-1.197-1.22-1.906-1.778-3.535-2.777l-1.146-.704 1.146.112c.63.061 1.662.246 2.293.411zm-28.503.665c.096.367.138 1.364.095 2.215-.135 2.628-1.452 4.597-3.55 5.312-3.651 1.242-6.998-1.7-6.97-6.125.005-.752.067-1.461.138-1.576.084-.135 1.246-.217 3.317-.233 1.754-.014 3.833-.087 4.621-.163 2.105-.203 2.15-.192 2.349.57zM27.87 25.09c1.793.923 2.767 2.456 2.92 4.595l.094 1.302-.647-.394c-.672-.41-1.423-.504-1.85-.233-.199.125-.189.206.047.402.637.527.124 1.534-.781 1.534-.404 0-.458.066-.354.43.18.623.99 1.286 1.585 1.295l.514.008-.711.628c-.874.772-1.911 1.1-3.458 1.092-2.82-.014-4.866-1.478-5.605-4.011-.79-2.712.71-5.854 3.292-6.892 1.36-.546 3.637-.434 4.954.244zm-5.03 2.226c-1.148 1.716-1.943 3.473-1.943 4.298 0 .247.164.65.363.896l.363.448.23-.856c.524-1.946 1.86-4.34 3.218-5.77l.68-.715H23.98l-1.139 1.7zm4.121-.281c-1.25.445-2.298 1.397-2.96 2.685-.93 1.814-.538 4.866.627 4.866.557 0 .548.038.186-.83-1.063-2.539.662-5.628 3.343-5.988.853-.114.923-.23.414-.69-.415-.376-.659-.382-1.61-.043zm3.958 9.823c.271.106.065.182-.743.277-.615.073-2.116.531-3.336 1.02-1.92.768-2.409.888-3.65.9-1.206.013-1.531-.055-2.054-.427-.797-.568-.806-.904-.013-.494.872.45 2.875.258 5.123-.493 2.671-.891 3.878-1.094 4.673-.783zm9.632.563c1.877.627 3.52.774 4.547.407l.538-.192-.528.472c-.678.605-1.901.932-2.918.78-.44-.066-1.65-.425-2.688-.798-1.305-.468-2.362-.712-3.417-.786-1.52-.108-1.525-.11-.86-.36 1.077-.407 3.265-.21 5.326.477zm14.57.504c-.035.42-.091.79-.124.824-.032.033-.555-.03-1.162-.143-1.417-.262-1.99.037-1.99 1.036 0 .78.447 1.138 1.671 1.334.932.15.967.277.422 1.546-1.787 4.165-5.603 7.01-10.582 7.892-1.857.328-2.027.247-.834-.4 4.227-2.291 7.028-6.62 7.522-11.62l.132-1.338 2.505.053 2.506.053-.065.763zm-25.15.553a20.09 20.09 0 00-2.04 1.132c-2.273 1.456-3.924 1.79-5.322 1.078-.416-.212-.756-.415-.756-.452 0-.036.58-.026 1.29.024 1.373.095 1.512.055 5.396-1.559 1.793-.745 2.982-.93 1.433-.223zm9.119.73c1.919.661 2.593.807 3.72.804l1.376-.004-.514.337c-.812.532-2 .628-3.147.254-1.214-.395-4.575-2.19-4.11-2.194.183-.002 1.386.36 2.675.803zm18.503 2.504c.588.138 1.594.57 2.235.96.926.561 1.292.932 1.773 1.797.334.599.83 1.279 1.103 1.511l.496.422-1.21 5.207c-.665 2.864-1.248 5.271-1.295 5.35-.047.079-1.707.143-3.689.143h-3.603l-.101-.525c-.525-2.72-.556-2.811-1.174-3.428-.843-.842-1.554-.822-5.058.14-1.523.418-2.834.76-2.914.76-.079 0-.144-.543-.144-1.206V51.64l1.47-.346c4.557-1.073 8.617-4.748 10.392-9.408.19-.498.29-.508 1.72-.172zM40.402 52.476c.564 1.476.627 2.297.27 3.477l-.349 1.15H34.08v-.656c0-.36-.09-.889-.198-1.175-.167-.439-.095-.736.468-1.92l.666-1.401h5.186l.2.525zm10.823.808c.49.005.217.385-.287.399-.507.014-.501.023.143.262l.669.248-.573.08-.573.078.668.311.669.31-.669.031-.668.03.668.248.669.248-.573.083c-.5.072-.524.101-.191.23 1.13.437 1.074.472-.764.473-1.544 0-1.82-.04-1.433-.208l.478-.208-.573-.124-.574-.124.478-.17.478-.17-.574-.124-.573-.124.478-.208.477-.208-.525-.013c-.289-.006-.525-.08-.525-.166 0-.084.236-.247.525-.361l.526-.207-.67-.033c-.646-.031-.652-.038-.19-.226.73-.296 1.961-.52 2.388-.436.21.042.49.078.62.079zm-24.796.21c.94.2 1.302.534.63.578-.318.021-.318.026 0 .11.521.135.393.439-.19.452l-.526.013.477.214.478.215-.57.076-.57.077.474.262.475.263-.669.013-.668.014.477.273c.436.248.303.271-1.528.259-1.798-.012-1.933-.036-1.305-.232.976-.304 1.103-.502.334-.52l-.653-.014.765-.252.764-.251-.669-.04-.669-.04.764-.252c.69-.227.713-.253.228-.266-.596-.016-.528-.396.07-.396.204 0 .371-.086.371-.19 0-.106-.193-.193-.43-.195-.347-.002-.375-.038-.143-.188.376-.242 1.098-.237 2.283.016zm18.533 3.024c.28.523.253.585-.248.585-.59 0-.728-.165-.496-.598.244-.457.494-.452.744.013zm-14.703.203c.189.353.145.382-.573.382s-.762-.029-.573-.382c.112-.21.37-.381.573-.381.203 0 .46.171.573.381zm-5.826 1.393c3.278.252 29.618.256 33.048.005 2.054-.15-1.754-.196-16.429-.196-14.277 0-18.475.048-16.62.19zm2.579.766c2.444.238 20.716.226 24.834-.018 2.198-.13-.875-.175-11.94-.176-11.345-.002-14.422.044-12.894.194z" fill="#1A1400"/><path d="M8.05 28.49c-.77-.854-1.384-2.14-1.14-2.384.142-.141 8.163-.138 8.304.003.174.175-.187 1.223-.662 1.926-.743 1.097-1.745 1.66-3.11 1.747-1.624.103-2.405-.194-3.393-1.292z" fill="#E31600"/><path d="M24.125 34.402c-1.016-.503-1.643-.744-2.499-1.456.781-3.208 1.615-4.77 4.104-7.339 1.212.23 1.702.572 2.494 1.21-3.63.482-5.57 4.62-4.099 7.585zm7.587.48c2.688-4.912 2.139-7.555-2.142-11.634 6.748-1.486 10.158-.287 14.815 4.77L36.533 34.3c-1.336.323-2.095.737-3.444 1.697l-1.377-1.116z" fill="#FFE801"/></g><path d="M87.725 23.28c.586 0 1.2.053 1.84.16.64.093 1.14.22 1.5.38.12.04.193.093.22.16.04.053.073.153.1.3l.24 2.78c0 .04-.034.067-.1.08-.067.013-.107-.007-.12-.06-.454-1.053-1.06-1.867-1.82-2.44s-1.64-.86-2.64-.86c-1.32 0-2.34.487-3.06 1.46-.72.973-1.08 2.28-1.08 3.92 0 1.227.193 2.347.58 3.36.4 1.013.953 1.82 1.66 2.42a3.76 3.76 0 002.44.88c.853 0 1.613-.28 2.28-.84.68-.573 1.286-1.44 1.82-2.6.013-.053.053-.073.12-.06.08.013.12.04.12.08l-.3 2.72c-.027.16-.06.267-.1.32-.027.04-.1.087-.22.14a10.45 10.45 0 01-3.66.66c-1.627 0-2.987-.32-4.08-.96-1.094-.653-1.9-1.473-2.42-2.46-.507-1-.76-2.04-.76-3.12 0-1.267.34-2.387 1.02-3.36.693-.973 1.606-1.727 2.74-2.26a8.62 8.62 0 013.68-.8zm11.459 5.66c1.413 0 2.493.28 3.24.84.746.547 1.12 1.36 1.12 2.44 0 .773-.194 1.453-.58 2.04-.387.573-.927 1.02-1.62 1.34-.68.32-1.454.48-2.32.48-.347 0-.754-.02-1.22-.06a27.6 27.6 0 01-.84-.02 15.02 15.02 0 00-1.02-.04l-1.28.02c-.28.013-.667.02-1.16.02-.04 0-.06-.04-.06-.12 0-.08.02-.12.06-.12.453-.027.766-.06.94-.1a.543.543 0 00.38-.34c.08-.187.12-.5.12-.94v-9.26c0-.44-.034-.747-.1-.92a.543.543 0 00-.38-.34c-.174-.053-.487-.093-.94-.12-.027 0-.04-.04-.04-.12 0-.08.013-.12.04-.12l1 .02c.56.027 1.066.04 1.52.04.44 0 .993-.013 1.66-.04l1.14-.02c.026 0 .04.04.04.12 0 .08-.014.12-.04.12-.52.027-.88.067-1.08.12a.663.663 0 00-.44.36c-.094.187-.14.5-.14.94v3.94a14.24 14.24 0 012-.16zm10.34 6.82c.04 0 .06.04.06.12 0 .08-.02.12-.06.12-.44 0-.787-.007-1.04-.02l-1.52-.02-1.48.02c-.267.013-.627.02-1.08.02-.027 0-.04-.04-.04-.12 0-.08.013-.12.04-.12.426 0 .74-.033.94-.1a.601.601 0 00.4-.38c.08-.2.12-.5.12-.9v-9.26c0-.4-.04-.693-.12-.88a.601.601 0 00-.4-.38c-.2-.08-.514-.12-.94-.12-.027 0-.04-.04-.04-.12 0-.08.013-.12.04-.12l1.08.02c.613.027 1.106.04 1.48.04.413 0 .926-.013 1.54-.04l1.02-.02c.04 0 .06.04.06.12 0 .08-.02.12-.06.12-.414 0-.72.04-.92.12-.2.08-.334.22-.4.42-.067.187-.1.48-.1.88v9.22c0 .413.033.713.1.9a.597.597 0 00.38.38c.2.067.513.1.94.1zm-10.86-.18c.92 0 1.573-.24 1.96-.72.386-.493.58-1.26.58-2.3 0-1.067-.207-1.84-.62-2.32-.4-.493-1.094-.74-2.08-.74-.347 0-.787.033-1.32.1v4.78c0 .4.093.7.28.9.2.2.6.3 1.2.3zm16.035-1.28c0 .427.047.74.14.94.093.187.267.32.52.4.267.08.687.12 1.26.12.04 0 .06.04.06.12 0 .08-.02.12-.06.12-.547 0-.973-.007-1.28-.02l-1.74-.02-1.46.02c-.267.013-.627.02-1.08.02-.04 0-.06-.04-.06-.12 0-.08.02-.12.06-.12.427 0 .733-.033.92-.1a.601.601 0 00.4-.38c.067-.2.1-.5.1-.9v-9.26c0-.4-.033-.693-.1-.88a.601.601 0 00-.4-.38c-.2-.08-.507-.12-.92-.12-.04 0-.06-.04-.06-.12 0-.08.02-.12.06-.12l1.06.02c.613.027 1.1.04 1.46.04.32 0 .7-.02 1.14-.06a18.697 18.697 0 011.58-.06c1.36 0 2.433.287 3.22.86.787.56 1.18 1.433 1.18 2.62 0 .827-.213 1.527-.64 2.1a4.007 4.007 0 01-1.66 1.3 5.066 5.066 0 01-2.06.44c-.36 0-.673-.033-.94-.1-.027 0-.04-.033-.04-.1 0-.04.007-.08.02-.12.027-.04.053-.053.08-.04.2.053.427.08.68.08.613 0 1.12-.287 1.52-.86.413-.573.62-1.387.62-2.44s-.227-1.867-.68-2.44c-.44-.573-1.087-.86-1.94-.86-.373 0-.627.087-.76.26-.133.173-.2.513-.2 1.02v9.14zm21.375 1.46c.04 0 .06.04.06.12 0 .08-.02.12-.06.12-.467 0-.84-.007-1.12-.02l-1.54-.02-1.8.02c-.24.013-.567.02-.98.02-.04 0-.06-.04-.06-.12 0-.08.02-.12.06-.12.493 0 .853-.033 1.08-.1.226-.067.38-.193.46-.38.08-.187.12-.487.12-.9v-4.6h-6.46v4.6c0 .4.04.7.12.9.08.187.233.313.46.38.226.067.586.1 1.08.1.026 0 .04.04.04.12 0 .08-.014.12-.04.12-.467 0-.84-.007-1.12-.02l-1.74-.02-1.5.02c-.267.013-.634.02-1.1.02-.027 0-.04-.04-.04-.12 0-.08.013-.12.04-.12.466 0 .806-.033 1.02-.1a.667.667 0 00.44-.38c.08-.2.12-.5.12-.9v-9.26c0-.4-.04-.693-.12-.88a.667.667 0 00-.44-.38c-.2-.08-.527-.12-.98-.12-.04 0-.06-.04-.06-.12 0-.08.02-.12.06-.12l1.08.02c.613.027 1.106.04 1.48.04.506 0 1.093-.013 1.76-.04l1.1-.02c.026 0 .04.04.04.12 0 .08-.014.12-.04.12-.48 0-.834.04-1.06.12a.792.792 0 00-.48.42c-.08.187-.12.48-.12.88v4.06h6.46v-4.06c0-.4-.04-.693-.12-.88a.726.726 0 00-.46-.42c-.227-.08-.587-.12-1.08-.12-.04 0-.06-.04-.06-.12 0-.08.02-.12.06-.12l.98.02c.666.027 1.266.04 1.8.04.36 0 .873-.013 1.54-.04l1.12-.02c.04 0 .06.04.06.12 0 .08-.02.12-.06.12-.454 0-.794.04-1.02.12a.664.664 0 00-.44.38c-.067.187-.1.48-.1.88v9.26c0 .4.033.7.1.9.08.187.226.313.44.38.213.067.553.1 1.02.1zm7.133-6.82c1.413 0 2.493.28 3.24.84.747.547 1.12 1.36 1.12 2.44 0 .773-.193 1.453-.58 2.04-.387.573-.927 1.02-1.62 1.34-.68.32-1.453.48-2.32.48-.347 0-.753-.02-1.22-.06-.173 0-.453-.007-.84-.02-.387-.027-.727-.04-1.02-.04l-1.28.02c-.28.013-.667.02-1.16.02-.04 0-.06-.04-.06-.12 0-.08.02-.12.06-.12.453-.027.767-.06.94-.1a.543.543 0 00.38-.34c.08-.187.12-.5.12-.94v-9.26c0-.44-.033-.747-.1-.92a.543.543 0 00-.38-.34c-.173-.053-.487-.093-.94-.12-.027 0-.04-.04-.04-.12 0-.08.013-.12.04-.12l1 .02c.56.027 1.067.04 1.52.04.44 0 .993-.013 1.66-.04l1.14-.02c.027 0 .04.04.04.12 0 .08-.013.12-.04.12-.52.027-.88.067-1.08.12a.662.662 0 00-.44.36c-.093.187-.14.5-.14.94v3.94c.747-.107 1.413-.16 2-.16zm10.34 6.82c.04 0 .06.04.06.12 0 .08-.02.12-.06.12-.44 0-.787-.007-1.04-.02l-1.52-.02-1.48.02c-.267.013-.627.02-1.08.02-.027 0-.04-.04-.04-.12 0-.08.013-.12.04-.12.427 0 .74-.033.94-.1a.601.601 0 00.4-.38c.08-.2.12-.5.12-.9v-9.26c0-.4-.04-.693-.12-.88a.601.601 0 00-.4-.38c-.2-.08-.513-.12-.94-.12-.027 0-.04-.04-.04-.12 0-.08.013-.12.04-.12l1.08.02c.613.027 1.107.04 1.48.04.413 0 .927-.013 1.54-.04l1.02-.02c.04 0 .06.04.06.12 0 .08-.02.12-.06.12-.413 0-.72.04-.92.12a.66.66 0 00-.4.42c-.067.187-.1.48-.1.88v9.22c0 .413.033.713.1.9a.6.6 0 00.38.38c.2.067.513.1.94.1zm-10.86-.18c.92 0 1.573-.24 1.96-.72.387-.493.58-1.26.58-2.3 0-1.067-.207-1.84-.62-2.32-.4-.493-1.093-.74-2.08-.74-.347 0-.787.033-1.32.1v4.78c0 .4.093.7.28.9.2.2.6.3 1.2.3zm19.735-12.94a4.01 4.01 0 01-1.44-.26c-.453-.173-.82-.4-1.1-.68-.28-.293-.42-.6-.42-.92 0-.24.074-.433.22-.58.16-.147.38-.22.66-.22.307 0 .52.093.64.28.12.173.234.453.34.84.12.413.247.72.38.92.147.187.38.28.7.28.334 0 .574-.1.72-.3.16-.213.307-.52.44-.92.12-.373.24-.647.36-.82.134-.187.34-.28.62-.28.28 0 .494.073.64.22.147.147.22.34.22.58 0 .333-.14.647-.42.94-.28.28-.646.507-1.1.68-.453.16-.94.24-1.46.24zm6.64 13.12c.04 0 .06.04.06.12 0 .08-.02.12-.06.12-.466 0-.84-.007-1.12-.02l-1.54-.02-1.8.02c-.24.013-.566.02-.98.02-.04 0-.06-.04-.06-.12 0-.08.02-.12.06-.12.494 0 .854-.033 1.08-.1.227-.067.38-.193.46-.38.08-.187.12-.487.12-.9V26.2l-8 10.02c-.04.04-.14.06-.3.06-.253 0-.38-.047-.38-.14V25.12c0-.4-.04-.693-.12-.88a.664.664 0 00-.44-.38c-.213-.08-.546-.12-1-.12-.04 0-.06-.04-.06-.12 0-.08.02-.12.06-.12l1.12.02c.667.027 1.18.04 1.54.04.534 0 1.134-.013 1.8-.04l.98-.02c.04 0 .06.04.06.12 0 .08-.02.12-.06.12-.493 0-.853.04-1.08.12-.226.067-.38.193-.46.38-.08.187-.12.48-.12.88v8.26l8-10.02c.04-.04.14-.06.3-.06.094 0 .18.013.26.04.08.027.12.06.12.1v10.94c0 .4.04.7.12.9.08.187.227.313.44.38.214.067.547.1 1 .1zM95.966 50.252c-.924 0-1.708-.196-2.352-.588a3.994 3.994 0 01-1.428-1.554 4.618 4.618 0 01-.462-2.016c0-.882.245-1.652.735-2.31a4.742 4.742 0 011.869-1.533 5.45 5.45 0 012.352-.546c.672 0 1.274.14 1.806.42.546.28.819.665.819 1.155a.918.918 0 01-.315.693c-.196.182-.476.273-.84.273-.336 0-.602-.084-.798-.252-.196-.182-.357-.455-.483-.819-.126-.392-.252-.658-.378-.798-.112-.154-.322-.231-.63-.231-.602 0-1.085.301-1.45.903-.35.588-.524 1.372-.524 2.352 0 1.162.259 2.093.777 2.793.518.686 1.344 1.029 2.478 1.029.378 0 .7-.042.966-.126.28-.084.63-.224 1.05-.42h.02c.043 0 .078.021.106.063.042.042.049.077.02.105-.517.476-1.035.833-1.553 1.071-.518.224-1.113.336-1.785.336zm8.861.021c-.868 0-1.631-.196-2.289-.588a4.142 4.142 0 01-1.491-1.617 4.827 4.827 0 01-.525-2.226c0-.91.231-1.68.693-2.31a4.17 4.17 0 011.764-1.428 5.31 5.31 0 012.205-.483c.868 0 1.624.203 2.268.609a3.99 3.99 0 011.47 1.617c.35.658.525 1.365.525 2.121 0 .84-.21 1.589-.63 2.247a4.343 4.343 0 01-1.701 1.512c-.7.364-1.463.546-2.289.546zm.63-.441c.546 0 .959-.266 1.239-.798.294-.546.441-1.323.441-2.331 0-.98-.126-1.82-.378-2.52s-.581-1.225-.987-1.575c-.406-.364-.84-.546-1.302-.546-1.12 0-1.68 1.001-1.68 3.003 0 .938.119 1.771.357 2.499.238.714.56 1.274.966 1.68.406.392.854.588 1.344.588zm16.301-.084c.042 0 .063.042.063.126 0 .084-.021.126-.063.126-.406 0-.721-.007-.945-.021l-1.155-.021-1.113.021c-.182.014-.441.021-.777.021-.042 0-.063-.042-.063-.126 0-.084.021-.126.063-.126.336 0 .574-.049.714-.147.14-.112.21-.343.21-.693 0-.07-.014-.245-.042-.525l-.42-3.465L115.794 50c-.014.056-.063.084-.147.084-.098 0-.154-.028-.168-.084l-3.045-5.166-.231 2.982c-.084 1.288.392 1.932 1.428 1.932.042 0 .063.042.063.126 0 .084-.021.126-.063.126-.322 0-.574-.007-.756-.021l-.903-.021-.882.021a9.194 9.194 0 01-.714.021c-.042 0-.063-.042-.063-.126 0-.084.021-.126.063-.126.434 0 .763-.161.987-.483.224-.322.357-.805.399-1.449l.441-5.985c0-.042.042-.077.126-.105a.602.602 0 01.273-.063c.14 0 .231.035.273.105l3.528 5.943 2.856-5.943c.028-.042.091-.063.189-.063a.56.56 0 01.252.063c.098.028.147.056.147.084l.756 6.447c.056.462.112.784.168.966.056.182.154.308.294.378.14.07.371.105.693.105zm8.429-1.134c.028 0 .056.028.084.084.042.056.049.098.021.126-.518.504-1.043.868-1.575 1.092a4.446 4.446 0 01-1.743.336c-.882 0-1.645-.182-2.289-.546a3.853 3.853 0 01-1.47-1.491 4.263 4.263 0 01-.504-2.037c0-.812.203-1.561.609-2.247a4.34 4.34 0 011.68-1.617c.728-.406 1.547-.609 2.457-.609.868 0 1.54.196 2.016.588.476.392.714 1.001.714 1.827 0 .434-.077.651-.231.651l-5.103.021a3.856 3.856 0 00-.021.483c0 1.232.28 2.198.84 2.898.574.7 1.393 1.05 2.457 1.05.378 0 .7-.042.966-.126a7.127 7.127 0 001.05-.462l.042-.021zm-3.528-6.489c-.462 0-.847.203-1.155.609-.308.392-.511.938-.609 1.638l3.045-.042c-.014-.714-.119-1.26-.315-1.638-.196-.378-.518-.567-.966-.567zm13.397 7.623c.07 0 .105.042.105.126 0 .084-.035.126-.105.126-.252 0-.644-.014-1.176-.042-.56-.028-.966-.042-1.218-.042-.224 0-.588.014-1.092.042-.476.028-.812.042-1.008.042-.056 0-.084-.042-.084-.126 0-.084.028-.126.084-.126.308 0 .532-.035.672-.105a.395.395 0 00.21-.357c0-.112-.042-.259-.126-.441a7.055 7.055 0 00-.252-.609l-1.764-3.759-1.26 2.94c-.252.588-.378 1.064-.378 1.428 0 .602.336.903 1.008.903.07 0 .105.042.105.126 0 .084-.035.126-.105.126-.154 0-.371-.014-.651-.042a8.034 8.034 0 00-1.659 0 6.16 6.16 0 01-.672.042c-.07 0-.105-.042-.105-.126 0-.084.035-.126.105-.126.252 0 .518-.175.798-.525.294-.364.651-1.029 1.071-1.995l2.436-5.649c.028-.056.07-.084.126-.084.056 0 .098.028.126.084l2.604 5.544c.364.798.644 1.372.84 1.722.196.336.392.574.588.714.196.126.455.189.777.189zm5.47-4.557c2.156 0 3.234.728 3.234 2.184 0 .798-.308 1.442-.924 1.932-.602.49-1.393.735-2.373.735L144.329 50a39.54 39.54 0 00-1.449-.042l-1.218.021a16.17 16.17 0 01-.945.021c-.042 0-.063-.042-.063-.126 0-.084.021-.126.063-.126.336 0 .581-.035.735-.105a.574.574 0 00.336-.399c.056-.21.084-.525.084-.945v-4.704c0-.42-.028-.728-.084-.924-.056-.21-.168-.35-.336-.42-.154-.07-.392-.105-.714-.105-.042 0-.063-.042-.063-.126 0-.084.021-.126.063-.126.392 0 .693.007.903.021l1.239.021 1.302-.021a19.59 19.59 0 011.029-.021c.028 0 .042.042.042.126 0 .084-.014.126-.042.126-.406 0-.707.042-.903.126a.704.704 0 00-.378.441c-.07.196-.105.504-.105.924v1.743a7.192 7.192 0 011.701-.189zm-.504 4.536c.56 0 .973-.147 1.239-.441.266-.308.399-.791.399-1.449 0-1.456-.63-2.184-1.89-2.184-.294 0-.609.042-.945.126v2.52c0 .504.084.868.252 1.092.168.224.483.336.945.336zm12.297-1.113c.028 0 .056.028.084.084.042.056.049.098.021.126-.518.504-1.043.868-1.575 1.092a4.446 4.446 0 01-1.743.336c-.882 0-1.645-.182-2.289-.546a3.853 3.853 0 01-1.47-1.491 4.263 4.263 0 01-.504-2.037c0-.812.203-1.561.609-2.247a4.34 4.34 0 011.68-1.617c.728-.406 1.547-.609 2.457-.609.868 0 1.54.196 2.016.588.476.392.714 1.001.714 1.827 0 .434-.077.651-.231.651l-5.103.021a3.856 3.856 0 00-.021.483c0 1.232.28 2.198.84 2.898.574.7 1.393 1.05 2.457 1.05.378 0 .7-.042.966-.126a7.127 7.127 0 001.05-.462l.042-.021zm-3.528-6.489c-.462 0-.847.203-1.155.609-.308.392-.511.938-.609 1.638l3.045-.042c-.014-.714-.119-1.26-.315-1.638-.196-.378-.518-.567-.966-.567z" fill="#fff"/><defs><clipPath id="clip0_208:14"><path fill="#fff" transform="translate(5 8)" d="M0 0h62v51H0z"/></clipPath></defs></svg>