<svg width="64" height="58" fill="none" xmlns="http://www.w3.org/2000/svg"><path d="M36.817 53.503V28.478L32 33.295 21.232 22.527a15.505 15.505 0 01-.818-.885H0v31.862h3.75c0-4.394 3.574-7.968 7.967-7.968s7.967 3.574 7.967 7.968h17.133zm10.315-12.182v-9.84h-6.565v22.022h3.75c0-4.393 3.574-7.967 7.967-7.967s7.967 3.574 7.967 7.967H64V43.457l-4.628-2.136h-12.24z" fill="#585854"/><path d="M54.743 31.482h-3.861v6.09h6.181l-2.32-6.09zM11.717 57.72a4.217 4.217 0 100-8.433 4.217 4.217 0 000 8.434zm40.567 0a4.217 4.217 0 100-8.434 4.217 4.217 0 000 8.435zM32 14.804a3.045 3.045 0 100-6.09 3.045 3.045 0 000 6.09z" fill="#585854"/><path d="M23.883 19.875L32 27.992l8.117-8.117a11.403 11.403 0 003.362-8.117C43.479 5.428 38.329.28 32 .28c-6.33 0-11.479 5.149-11.479 11.478 0 3.067 1.194 5.949 3.362 8.117zm1.322-8.116A6.803 6.803 0 0132 4.964a6.803 6.803 0 016.795 6.795A6.803 6.803 0 0132 18.554a6.803 6.803 0 01-6.795-6.795z" fill="#585854"/></svg>