<svg width="54" height="64" fill="none" xmlns="http://www.w3.org/2000/svg"><path d="M27 7.513c1.905 0 3.783.177 5.624.525V3.75h3.75V0H17.626v3.75h3.749v4.288A30.26 30.26 0 0127 7.513zm0 3.749C12.437 11.262.631 23.068.631 37.632.631 52.193 12.437 64 27 64s26.369-11.806 26.369-26.369S41.563 11.262 27 11.262zm0 43.365c-9.371 0-16.996-7.625-16.996-16.996 0-9.371 7.625-16.996 16.996-16.996 9.371 0 16.996 7.625 16.996 16.996 0 9.371-7.625 16.996-16.996 16.996z" fill="#585854"/><path d="M28.875 35.757h11.238c-.826-5.807-5.431-10.413-11.238-11.24v11.24z" fill="#585854"/><path d="M25.125 39.506V24.518c-6.42.913-11.371 6.445-11.371 13.113 0 7.304 5.942 13.247 13.246 13.247 6.668 0 12.2-4.953 13.113-11.372H25.125z" fill="#585854"/></svg>