<svg width="64" height="64" fill="none" xmlns="http://www.w3.org/2000/svg"><path d="M30.13.009h3.749v5.597H30.13V.01zM17.726 4.335l3.246-1.875 2.799 4.848-3.247 1.874-2.798-4.847zm-8.58 9.948l1.875-3.246 4.847 2.798-1.875 3.247-4.847-2.799zm31.087-6.974l2.799-4.847 3.246 1.874-2.798 4.847-3.247-1.874zm7.902 6.526l4.847-2.799 1.875 3.247-4.848 2.798-1.874-3.246zM26.16 23.264l8.7-11.6 2.998 2.25-8.699 11.599-2.999-2.25zm-.744-11.401h3.75v3.75h-3.75v-3.75zm9.651 9.271h3.749v3.75h-3.75v-3.75zm2.561 23.833h15.98v3.75h-15.98v-3.75zm23.722-1.134L64 41.181l-11.49-11.49H37.629v11.526h15.98v-5.126l7.741 7.74zm-23.722 8.632h15.98v11.526h-15.98V52.465zm-27.237 0h15.99v11.526H10.39V52.465zm0-7.498h15.99v3.75H10.39v-3.75zM26.38 29.692H11.49L0 41.182l2.65 2.65 7.741-7.74v5.126h15.99V29.692zm3.75 0h3.75v34.299h-3.75V29.692z" fill="#585854"/></svg>