<svg width="172" height="42" fill="none" xmlns="http://www.w3.org/2000/svg"><circle cx="20.343" cy="21.097" r="19.343" fill="#fff" stroke="#000" stroke-width="2"/><path d="M45.368 20.469h-8.9V3.14h37.6v17.33h-10.56v19.233h-17.14V20.47h-1z" fill="#fff" stroke="#000" stroke-width="2"/><path d="M90.894 13.168c-1.017 0-1.937-.22-2.758-.658a4.964 4.964 0 01-1.918-1.806c-.457-.775-.686-1.643-.686-2.604 0-.961.229-1.825.686-2.59a4.93 4.93 0 011.918-1.82c.821-.439 1.74-.658 2.758-.658 1.017 0 1.932.22 2.744.658a4.93 4.93 0 011.918 1.82c.467.765.7 1.629.7 2.59 0 .961-.233 1.83-.7 2.604a4.964 4.964 0 01-1.918 1.806c-.812.439-1.727.658-2.744.658zm0-1.932c.579 0 1.101-.13 1.568-.392.467-.27.83-.644 1.092-1.12.27-.476.406-1.017.406-1.624 0-.607-.135-1.148-.406-1.624a2.767 2.767 0 00-1.092-1.106 3.068 3.068 0 00-1.568-.406c-.579 0-1.101.135-1.568.406a2.86 2.86 0 00-1.106 1.106c-.261.476-.392 1.017-.392 1.624 0 .607.13 1.148.392 1.624.27.476.64.85 1.106 1.12.467.261.99.392 1.568.392zm18.715-3.164c0 1.297-.443 2.32-1.33 3.066-.877.737-2.142 1.148-3.794 1.232v1.064h-2.086v-1.078c-1.661-.093-2.935-.509-3.822-1.246-.877-.747-1.316-1.76-1.316-3.038 0-1.288.439-2.296 1.316-3.024.887-.737 2.161-1.157 3.822-1.26V2.78h2.086v.994c1.652.093 2.917.513 3.794 1.26.887.747 1.33 1.76 1.33 3.038zm-5.124 2.52c.989-.093 1.727-.345 2.212-.756.485-.42.728-1.013.728-1.778 0-1.493-.98-2.324-2.94-2.492v5.026zm-5.026-2.52c0 1.475.98 2.315 2.94 2.52V5.566c-.999.093-1.741.345-2.226.756-.476.401-.714.985-.714 1.75zM111.306 3.2h2.254V13h-2.254V3.2zm9.323 9.968c-.998 0-1.904-.215-2.716-.644a4.998 4.998 0 01-1.904-1.806c-.457-.775-.686-1.647-.686-2.618 0-.97.229-1.839.686-2.604a4.862 4.862 0 011.904-1.806c.812-.439 1.722-.658 2.73-.658.85 0 1.615.15 2.296.448.691.299 1.27.728 1.736 1.288l-1.456 1.344c-.662-.765-1.484-1.148-2.464-1.148-.606 0-1.148.135-1.624.406-.476.261-.849.63-1.12 1.106-.261.476-.392 1.017-.392 1.624 0 .607.131 1.148.392 1.624.271.476.644.85 1.12 1.12.476.261 1.018.392 1.624.392.98 0 1.802-.387 2.464-1.162l1.456 1.344a4.532 4.532 0 01-1.736 1.302c-.69.299-1.46.448-2.31.448zm-26.921 4.88h-3.136V26h-2.24v-7.952H85.21V16.2h8.498v1.848zm5.666-1.848c.868 0 1.619.145 2.254.434.644.29 1.139.7 1.484 1.232s.518 1.162.518 1.89c0 .719-.173 1.349-.518 1.89-.345.532-.84.943-1.484 1.232-.635.28-1.386.42-2.254.42H97.4V26h-2.268v-9.8h4.242zm-.126 5.25c.681 0 1.199-.145 1.554-.434.355-.299.532-.719.532-1.26 0-.55-.177-.97-.532-1.26-.355-.299-.873-.448-1.554-.448H97.4v3.402h1.848zm12.022 2.45h-4.55l-.868 2.1h-2.324l4.368-9.8h2.24l4.382 9.8h-2.38l-.868-2.1zm-.714-1.722l-1.554-3.752-1.554 3.752h3.108zm14.25-5.978V26h-2.268v-4.018h-4.452V26h-2.268v-9.8h2.268v3.864h4.452V16.2h2.268zm7.089 9.968c-.999 0-1.904-.215-2.716-.644a4.99 4.99 0 01-1.904-1.806c-.457-.775-.686-1.647-.686-2.618 0-.97.229-1.839.686-2.604a4.855 4.855 0 011.904-1.806c.812-.439 1.722-.658 2.73-.658.849 0 1.615.15 2.296.448a4.6 4.6 0 011.736 1.288l-1.456 1.344c-.663-.765-1.484-1.148-2.464-1.148-.607 0-1.148.135-1.624.406-.476.261-.849.63-1.12 1.106-.261.476-.392 1.017-.392 1.624 0 .607.131 1.148.392 1.624.271.476.644.85 1.12 1.12.476.261 1.017.392 1.624.392.98 0 1.801-.387 2.464-1.162l1.456 1.344a4.54 4.54 0 01-1.736 1.302c-.691.299-1.461.448-2.31.448zm16.925-5.096c0 1.297-.443 2.32-1.33 3.066-.877.737-2.142 1.148-3.794 1.232v1.064h-2.086v-1.078c-1.661-.093-2.935-.509-3.822-1.246-.877-.747-1.316-1.76-1.316-3.038 0-1.288.439-2.296 1.316-3.024.887-.737 2.161-1.157 3.822-1.26V15.78h2.086v.994c1.652.093 2.917.513 3.794 1.26.887.747 1.33 1.76 1.33 3.038zm-5.124 2.52c.989-.093 1.727-.345 2.212-.756.485-.42.728-1.013.728-1.778 0-1.493-.98-2.324-2.94-2.492v5.026zm-5.026-2.52c0 1.475.98 2.315 2.94 2.52v-5.026c-.999.093-1.741.345-2.226.756-.476.401-.714.985-.714 1.75zm16.523 5.096c-1.018 0-1.937-.22-2.758-.658a4.96 4.96 0 01-1.918-1.806c-.458-.775-.686-1.643-.686-2.604 0-.961.228-1.825.686-2.59a4.926 4.926 0 011.918-1.82c.821-.439 1.74-.658 2.758-.658 1.017 0 1.932.22 2.744.658a4.933 4.933 0 011.918 1.82c.466.765.7 1.629.7 2.59 0 .961-.234 1.83-.7 2.604a4.966 4.966 0 01-1.918 1.806c-.812.439-1.727.658-2.744.658zm0-1.932a3.15 3.15 0 001.568-.392c.466-.27.83-.644 1.092-1.12.27-.476.406-1.017.406-1.624 0-.607-.136-1.148-.406-1.624a2.776 2.776 0 00-1.092-1.106 3.07 3.07 0 00-1.568-.406c-.579 0-1.102.135-1.568.406-.467.261-.836.63-1.106 1.106-.262.476-.392 1.017-.392 1.624 0 .607.13 1.148.392 1.624.27.476.639.85 1.106 1.12.466.261.989.392 1.568.392zm11.351-8.036c.868 0 1.619.145 2.254.434.644.29 1.139.7 1.484 1.232s.518 1.162.518 1.89c0 .719-.173 1.349-.518 1.89-.345.532-.84.943-1.484 1.232-.635.28-1.386.42-2.254.42h-1.974V26h-2.268v-9.8h4.242zm-.126 5.25c.681 0 1.199-.145 1.554-.434.355-.299.532-.719.532-1.26 0-.55-.177-.97-.532-1.26-.355-.299-.873-.448-1.554-.448h-1.848v3.402h1.848zM134.784 39l-.014-5.866-2.884 4.83h-1.008l-2.884-4.718V39h-2.128v-9.8h1.876l3.668 6.09 3.612-6.09h1.876l.014 9.8h-2.128zm11.199-2.1h-4.55l-.868 2.1h-2.324l4.368-9.8h2.24l4.382 9.8h-2.38l-.868-2.1zm-.714-1.722l-1.554-3.752-1.554 3.752h3.108zm15.538 1.974v3.92h-2.086V39h-8.19v-9.8h2.254v7.952h4.368V29.2h2.254v7.952h1.4zm1.495-7.952h2.254V39h-2.254v-9.8zm4.633 0h2.268V39h-2.268v-9.8zm-.28-.868a.977.977 0 01-.7-.266.952.952 0 01-.28-.7c0-.28.094-.509.28-.686a.95.95 0 01.7-.28c.28 0 .509.093.686.28.187.177.28.406.28.686s-.093.513-.28.7a.928.928 0 01-.686.266zm2.828 0a.977.977 0 01-.7-.266.978.978 0 01-.266-.7.93.93 0 01.266-.686.95.95 0 01.7-.28c.28 0 .514.093.7.28.187.177.28.406.28.686s-.093.513-.28.7a.975.975 0 01-.7.266z" fill="#000"/></svg>