<svg width="275" height="276" viewBox="0 0 275 276" fill="none" xmlns="http://www.w3.org/2000/svg"><g filter="url(#filter0_f)"><circle cx="137.5" cy="137.76" r="67.5" fill="url(#paint0_linear)"/></g><path d="M155.239 165.26h-34.931v-7.349l12.544-12.68c3.714-3.806 6.141-6.437 7.28-7.896 1.139-1.481 1.959-2.848 2.461-4.101.501-1.254.752-2.552.752-3.897 0-2.005-.559-3.498-1.675-4.477-1.094-.98-2.564-1.47-4.409-1.47-1.937 0-3.817.444-5.64 1.333-1.823.889-3.725 2.153-5.708 3.794l-5.742-6.802c2.461-2.096 4.5-3.577 6.118-4.443 1.618-.866 3.384-1.527 5.298-1.983 1.914-.478 4.056-.717 6.426-.717 3.121 0 5.879.569 8.271 1.709 2.393 1.139 4.25 2.734 5.571 4.785 1.322 2.05 1.983 4.397 1.983 7.041 0 2.301-.41 4.466-1.231 6.494-.797 2.005-2.05 4.067-3.759 6.186-1.687 2.119-4.672 5.139-8.955 9.058l-6.426 6.05v.478h21.772v8.887z" fill="#000B70"/><defs><linearGradient id="paint0_linear" x1="70" y1="188.838" x2="205" y2="96.7628" gradientUnits="userSpaceOnUse"><stop stop-color="#05C02E"/><stop offset="1" stop-color="#FFF504"/></linearGradient><filter id="filter0_f" x="0" y=".26001" width="275" height="275" filterUnits="userSpaceOnUse" color-interpolation-filters="sRGB"><feFlood flood-opacity="0" result="BackgroundImageFix"/><feBlend in="SourceGraphic" in2="BackgroundImageFix" result="shape"/><feGaussianBlur stdDeviation="35" result="effect1_foregroundBlur"/></filter></defs></svg>