<svg width="276" height="276" viewBox="0 0 276 276" fill="none" xmlns="http://www.w3.org/2000/svg"><g filter="url(#filter0_f)"><circle cx="137.897" cy="137.685" r="67.5" fill="url(#paint0_linear)"/></g><path d="M147.575 126.391c0 3.122-.945 5.777-2.836 7.964-1.892 2.188-4.546 3.692-7.964 4.512v.205c4.033.501 7.086 1.732 9.16 3.691 2.073 1.937 3.11 4.558 3.11 7.862 0 4.808-1.743 8.556-5.229 11.245-3.487 2.666-8.465 3.999-14.937 3.999-5.423 0-10.231-.9-14.424-2.7v-8.99c1.937.98 4.068 1.778 6.392 2.393 2.324.615 4.626.923 6.904.923 3.487 0 6.061-.593 7.725-1.777 1.663-1.185 2.495-3.088 2.495-5.708 0-2.347-.957-4.011-2.871-4.991-1.914-.98-4.968-1.469-9.16-1.469h-3.794v-8.101h3.862c3.874 0 6.699-.501 8.477-1.504 1.8-1.025 2.7-2.768 2.7-5.229 0-3.783-2.37-5.674-7.11-5.674-1.64 0-3.315.273-5.024.82-1.686.547-3.566 1.493-5.64 2.837l-4.887-7.28c4.557-3.282 9.992-4.922 16.303-4.922 5.173 0 9.252 1.048 12.237 3.144 3.008 2.097 4.511 5.013 4.511 8.75z" fill="#000B70"/><defs><linearGradient id="paint0_linear" x1="70.3974" y1="188.763" x2="205.397" y2="96.6881" gradientUnits="userSpaceOnUse"><stop stop-color="#05C02E"/><stop offset="1" stop-color="#FFF504"/></linearGradient><filter id="filter0_f" x=".3974" y=".185303" width="275" height="275" filterUnits="userSpaceOnUse" color-interpolation-filters="sRGB"><feFlood flood-opacity="0" result="BackgroundImageFix"/><feBlend in="SourceGraphic" in2="BackgroundImageFix" result="shape"/><feGaussianBlur stdDeviation="35" result="effect1_foregroundBlur"/></filter></defs></svg>