<svg width="330" height="250" fill="none" xmlns="http://www.w3.org/2000/svg"><path fill-rule="evenodd" clip-rule="evenodd" d="M33.856 129.691a305.127 305.127 0 00-31.998 4.834l-.88.601-.2 1.059.595.876 1.038.202c14.03-2.934 28.294-4.68 42.683-5.947 26.75-2.359 53.33-3.908 80.524-2.761 8.603.361 17.228 1.167 25.594 3.197 0 0 1.575 1.145 2.714.77 0 0 .144-.381.109-.643l-.772-1.031c-.308-.131.403.223-.879-.488 0 0-4.293-1.22-7.657-1.857-13.603-2.573-27.523-2.692-41.598-2.595-23.14.162-46.358 1.59-69.273 3.783z" fill="#fff"/><path fill-rule="evenodd" clip-rule="evenodd" d="M85.509 107.376s.96.164.99.171c1.071.284.586.095 1.383.551.653.374.142.067.489.339 0 0 .778.84.749.797.21.301.034-.008.32.522.135.243-.153-.658.486 1.088 1.566 4.242-1.594 8.936-5.5 12.442 0 0-1.313 1.642-2.428 2.898l-.188.816.837.095c1.034-.42.776-.285 1.64-.699a56.334 56.334 0 001.888-.989c4.695-3.807 8.948-9.775 6.572-15.827-.426-1.094-1.513-2.481-1.513-2.481-.817-.885-1.878-1.642-1.96-1.499-5.16-2.623-10.74.34-15.208 1.421-.736.185-1.476.477-1.991 1.174l-.148.446s1.189.308 1.41.256c.402-.098.146-.044.407-.094 2.282-.444 4.599-.992 9.12-1.42.816-.078 1.425-.116 2.427-.031.126.013.136.012.218.024z" fill="#fff"/><path fill-rule="evenodd" clip-rule="evenodd" d="M60.826 111.701s.7-1.126.723-1.154c.461-.526.219-.277.699-.669.172-.142 1.08-.721 1.08-.721.6-.328.602-.318.832-.426 3.444-1.624 7.409-1.893 11.058-1.896.12.004.15.001.15.001 2.265.064 4.174.494 5.833-.102l.227-.413-1.118-.139c-.56.019-.139.018-.699-.013 0 0-1.864-.279-3.307-.567-.619-.122-.649-.119-.909-.159-6.14-.863-13.321-.372-16.495 3.762-.611.796-1.038 1.891-1.038 1.891-1.606 4.777 2.13 9.935 5.068 13.359 1.124 1.307 2.347 2.551 3.817 3.439l.648-.102s-.378-.857-.276-.782c-.439-.39-.218-.185-.474-.446-3.026-3.089-5.124-7.175-6.05-11.036l-.17-.988c-.04-.373-.001.095-.028-.344l.013-.864c.045-.466-.015-.044.074-.534l.282-.991c.03-.043.03-.043.06-.106z" fill="#fff"/><path fill-rule="evenodd" clip-rule="evenodd" d="M35.003 82.193c-7.627 3.39-11.83 12.642-16.527 20.48-1.463 2.439-2.743 5.166-2.518 8.096.296 3.932 3.021 7.23 5.688 9.715 2.872 2.677 6.02 5.106 9.452 6.981 2.992 1.632 6.231 2.903 9.633 3.26l.47-.341-.35-.459c-1.008-.194-1.277-.279-1.897-.466-6.75-2.029-12.569-6.868-17.006-12.321-1.03-1.267-2.01-2.589-2.65-4.103 0 0-.196-.514-.181-.47-.2-.573.012.134-.196-.624l-.154-.718c-.05-.306.006.115-.05-.372 0 0-.031-.795-.029-.82.02-.579-.037-.082.075-.845.017-.087.293-1.238.293-1.238l.07-.213c.11-.321.075-.218.123-.348.796-2.059 2.108-3.881 3.275-5.744 3.823-6.148 6.922-13.05 13.231-16.731.11-.06.892-.387.916-.394 1.661-.475 1.105-.251 2.028-.159 0 0 .877.142.83.132 6.403 1.39 12.346 5.383 17.478 8.868 4.44 3.013 8.544 6.51 12.34 10.308 1.428 1.43 1.657 1.779 1.657 1.779l1.906.777c.616-.486-.66-.811.036-.626l-.333-1.273c-7.8-8.655-17.208-15.907-28.155-20.887-.336-.154-.671-.302-1.007-.451-2.371-1.023-5.015-1.844-7.618-1.093l-.637.221c-.102.04-.102.04-.193.08z" fill="#fff"/><path fill-rule="evenodd" clip-rule="evenodd" d="M38.733 103.395c-4.32.488-8.906 2.448-10.532 6.855l.114.567s.553-.575.512-.481c.27-.633.054-.171.36-.752l.411-.682c.364-.547.108-.186.462-.632l.507-.57c.444-.454.126-.153.557-.525l.593-.469c.517-.37.168-.131.637-.427l.666-.375c8.022-4.08 18.938-.798 25.82 4.185.161.12-.162-.11.335.47 0 0 .882.297 1.026-.189 0 0-.014-1.037.143-.867-.157-.175.752.199-1.106-1.018-6.017-3.917-13.486-5.812-20.505-5.09z" fill="#fff"/><path fill-rule="evenodd" clip-rule="evenodd" d="M38.61 110.077s-.417-2.57-.418-2.585c-.036-.845-.063-.134.017-1.136.013-.172.22-1.055.22-1.055.576-1.43.164-.493.542-.74l.34-.534s-.374-.291-.805-.018c-2.056 1.326-1.434 4.95-.808 7.079.15.518.333 1.017.546 1.514 2.076 4.851 6.939 8.15 12.087 9.439a59.29 59.29 0 004.464.908s1.745.144 1.897.155c1.1.065 2.554.047 2.784.04.316-.005.626-.02.941-.03.989-.055 1.942-.266 1.942-.266.391-.058.183-.028.183-.028s.53.135.487-.368c0 0-.155-.366-1.396-.423-1.215-.055 2.176.605-3.787-.762-2.259-.527-3.13-.614-4.343-.804-6.183-.98-12.636-3.685-14.8-10.094-.077-.228-.077-.228-.093-.292zm23.81 12.243s-.192.626-.063.086c.005-.005.113-.136.062-.086zm58.196-43.938c-5.829.664-11.126 3.8-16.136 7.04A325.766 325.766 0 0096.144 91l-.358.25c-6.226 4.541-12.643 8.875-18.083 14.018l-.318.302-.047.923.922.042c5.79-4.906 12.503-8.826 18.989-13.06 6.624-4.314 12.962-9.478 20.328-11.654 2.421-.718 5.092-1.184 7.307-.383 3.094 1.125 4.879 4.207 6.615 6.761 3.79 5.565 7.622 11.513 8.362 18.048.347 3.048-.907 6.095-3.518 8.287-4.99 4.187-11.648 5.798-18.003 7.42 0 0-2.396.716-4.058 1.176-5.329 1.439-10.883 2.041-16.193 3.302-.255.059-.522.105-.74.231l-.139.45s.914.048.8.069c2.996-.432 6.049-.523 9.082-.718 1.007-.072 1.124-.108 1.635-.172 2.916-.364 5.818-.888 8.687-1.484l1.418-.291c7.96-1.941 16.516-3.91 21.641-10.197 4.204-5.166 1.554-13.195-1.323-18.913-2.046-4.07-4.54-7.902-7.267-11.536-2.421-3.217-5.685-5.901-10.734-5.529-.185.003-.36.02-.533.041z" fill="#fff"/><path fill-rule="evenodd" clip-rule="evenodd" d="M123.631 96.877s-.453 1.619-.455 1.644c-.083.5.324-.914-.318 1.456 0 0-.725 6.274-3.715 9.692-.729.828-1.168 1.171-1.785 1.646-2.446 1.881-5.389 3.016-8.309 4.078-6.043 2.2-12.486 3.695-18.83 2.866l-.721.536.536.722c7.9 1.302 16.104-.718 23.491-3.719 6.03-2.449 10.412-7.637 11.765-15.115l-.221-3.879c-.749-.59.086-.891-1.07-.64 0 0-.353.194-.244.445 0 0 1.014.36.436.515-.01.001-.503-.117-.56-.247z" fill="#fff"/><path fill-rule="evenodd" clip-rule="evenodd" d="M119.122 95.767c-8.5.924-16.524 4.618-24.098 8.811a176.23 176.23 0 00-4.774 3.298l-.334.238-.282 1.141 1.148.247c9.183-4.854 18.148-10.195 28.592-11.52 3.844-.484 8.085.14 11.048 2.677 1.143.975 2.363 2.394 2.363 2.394.448.389.888.783 1.336 1.172a30.35 30.35 0 002.233 1.769l.47-.02s-1.248-2.074-2.494-3.978c0 0-2.394-3.244-5.542-4.825-2.821-1.417-6.071-1.713-9.238-1.445l-.428.041zm-18.107 31.764l-.182.093-.044-.468s-.8-.064-.57.552c.224.606 1.086.704 1.086.704.349.177.113.024.23.144 5.583 5.684 8.401 14.038 10.152 21.796a82.338 82.338 0 011.173 6.388c.603 4.144 1.145 8.338 1.299 12.465l.008.245c-2.475-3.101-5.175-5.93-8.284-8.463-1.315-1.054-3.333-1.524-4.901-.074 0 0-4.828 6.461-7.2 9.684 0 0-.09-3.941-.28-6.759-.66-9.895-1.846-19.761-3.486-29.507-.037-.232-.08-.459-.117-.692-.414-2.339-1.214-4.506-2.136-6.637l-.78-.392-.371.789c.366 1.355.437 1.735.595 2.603 2.42 12.794 3.903 26.039 4.326 39.009.074 2.196-.895 5.285 1.036 5.743.227.059.906-.082 1.746-1.211 2.534-3.42 4.75-7.02 7.453-10.351.071-.087.134-.163.207-.245.145-.165.294-.335.46-.491 1.229-1.162 3.138.849 5.037 2.65 2.048 1.942 3.908 4.073 5.666 6.289.782.98.276.988 1.417 1.431.715.283 1.412-.667 1.437-.825.079-.65.073-.705.084-1.012.155-3.413-.572-6.817-1.004-10.279-1.522-11.921-4.458-24.51-13.045-32.678-.396-.359-.745-.386-1.012-.501zm-33.757 2.297s1.862-1.689.657-1.378c0 0-3.035 1.856-5.068 3.953l-.073.077c-7.835 10.603-11.848 23.998-11.908 36.587 0 0-4.232-6.195-5.773-8.758-.63-1.034-1.616-1.994-2.763-1.864-1.962.218-3.343 1.831-4.976 3.181a50.261 50.261 0 00-2.874 2.589 43.494 43.494 0 00-2.69 2.848s1.023-5.313 2.717-9.541c3.336-8.355 8.489-15.881 13.746-23.15 0 0 1.502-2.719 3.386-4.957l.014-.528s-.452-.062-.884.3c-1.39 1.162-2.639 2.481-3.85 3.827 0 0-1.072 1.448-1.813 2.462-6.81 9.245-13.095 18.887-15.311 30.503-.12.634-.276 1.266-.37 1.897-.018.133-.036.26-.05.387-.133 1.227.27 4.22 3.231 1.186 2.785-2.841 5.558-5.656 8.918-8.151 1.224-.896 1.335-.208 1.542.123a237.87 237.87 0 007.527 11.462c.588.842 1.458 1.437 1.458 1.437 2.632.28 1.256-3.077 1.256-3.077-.842-13.206 3.7-26.746 11.201-37.111 0 0 1.574-2.651 2.468-4.006.192-.305.058-.121.282-.298zm.776-.712s-.106.101-.274-.185c.005 0 .364.182.274.185z" fill="#fff"/><path fill-rule="evenodd" clip-rule="evenodd" d="M87.123 128.91l-.114.122s-.607-1.619-.546.639l.003.08c-.19 5.214-.573 10.385-.891 15.555l-.055.899-.25 5.099c-.733 30.884-1.321 61.775-2.272 92.805l-.015.579.36.397.386-.363c1.134-22.826 1.987-45.751 2.87-68.614l.08-2c.254-7.263.504-14.519.747-21.781l.034-.962c.062-7.219.06-14.467-.247-21.615-.078-1.137-.053-.291-.09-.84zM61.1 136.917s-.163 2.224-.236 4.35c-.017.609-.014.633-.005.888 1.43 31.983 2.522 63.807 2.28 95.638-.013 2.009-.047 4.02-.12 6.025l-.025.539.522.573.572-.522c1.454-30.547-.431-61.21-1.298-92.619-.024-.876-.053-1.752-.076-2.628-.1-3.138-.31-6.28-.2-9.373.04-1.263.214-2.545-.82-3.269l-.453-.127c.004-.006-.115.578-.14.525zm91.351-2.442c.188.916.091-.521.019.882-.874 16.672-2.115 33.29-3.154 49.863-.972 15.437-2.345 30.833-4.561 46.178-.919 6.543-.687 13.689-4.558 19.029-.027.037-.516.646-.525.657-.421.477-.092.14-.575.602-1.434 1.372-1.639 1.176-1.639 1.176l-.249.807s.631.351 1.051.12c4.558-2.564 5.858-8.33 6.666-12.945 5.362-30.625 6.785-62.017 9.003-93.289.049-.693.093-1.38.138-2.067.242-3.607.489-7.214.371-10.756-.098-1.547-.561-1.458-.561-1.458-.948-1.721-.382-.37-.382-.37l.334-.448s-1.273-1.449-1.379 1.748c-.005.211-.009.217.001.271zM2.808 136.111l-1.126.303s.88-.455.43-.703c0 0-1.16.311-.813 1.679 0 0 .318 3.061.464 5.376 0 0 .454 5.995.723 10.853.566 10.271.679 20.58.711 30.882l.003.296c.252 17.89 2.436 35.52 3.85 53.917.228 2.959.406 5.919.484 8.883l.415.412.407-.421c-.004-14.937-2.23-29.913-2.724-45.039-.444-13.611.068-27.242-.461-40.91-.315-8.161-.686-16.398-2.004-24.343-.209-1.134-.352-1.161-.36-1.185z" fill="#fff"/><path fill-rule="evenodd" clip-rule="evenodd" d="M.59 249.548s16.028-.812 25.852-1.161c28.343-1.066 56.669-2.521 84.598 1.161 12.075 1.454 23.89 4.068 35.531 7.748l.655-.55s.326.732.772.247l-.179-.765c-.985-1.272-.975-.801-2.339-1.318-10.927-4.184-22.484-6.411-34.116-7.958-27.764-3.688-56.814-1.776-85.002-.404-8.182.371-25.772 3-25.772 3zm146.932 6.773s-.553.465-.131.053c.006.004.158-.085.131-.053zm-37.565-112.509l.68.708c9.75.447 19.356 2.324 28.789 4.327 0 0 4.559.964 7.014 1.492 1.855.4 3.727.758 5.573 1.219.802.199.074-.168.074-.168s.136.63.651-.122c0 0-5.225-2.045-8.734-3.15-10.559-3.286-21.653-4.92-32.837-4.979l-.502-.002c-.234.228-.469.451-.708.675zm-20.45-1.05s1.005-.101.584-.613c-.739-.903-1.204-.156-1.341-.173l-2.096-.236-.777.797.78.799a28.28 28.28 0 002.85-.574zm-32.02-.123s.873.468.753.475c1.219-.117 3.065-.178 3.075-.179 1.028-.013.094-.22.094-.22s.2.614.64-.187c0 0-2.316-.491-4.016-.474 0 0-.343.345-.546.585zm-18.054.688c-1.876.225-2.102.227-2.954.293-11.512.921-23.216 1.037-34.041 4.517l-.421.844.843.421c11.248-3.837 23.686-3.998 35.493-5.238 1.638-.197 1.158-.172 1.576-.217.223-.026.558.123.262-.095l.47-.015c-.005.006.465-.702-1.228-.51zm74.24 26.416l.652.725c11.293.42 22.694 1.377 33.738 3.287.158.025.316.05.47.086.796.179.212.215 1.83.442.692.099.515-.541.515-.541s-.739-.065-.322-.11c.13-.012-4.616-1.029-8.374-1.598-8.939-1.353-17.934-2.355-26.961-2.901l-.833-.051c-.235.223-.475.442-.715.661zm-.732.005c.392-.414-.379-.024-.384-.024-.808.007-.865-.013-1.309-.035-5.923-.317-10.497-.697-15.376-.331l-.408.034-.405.491s.36.412 1.083.353c4.153-.347 8.296-.066 12.453-.002 2.257.035 1.732.632 4.494.117.508-.094.285-.69.285-.69s-.518.2-.433.087zm-28.327-.281s.233.439 1.158.346a66.48 66.48 0 014.009-.278c.44-.017.88-.034 1.32-.041 2.24-.049.972-.078.972-.078s.514.382.412-.522c0 0-4.491-.147-7.462.077l-.409.496zm-81.358 5.416l.747.626c18.757-1.895 37.14-3.769 56.573-5.147 1.122-.082 2.465-.156 2.465-.156.78-.757-1.18-.474-.27-.576.242-.029-3.39.103-6.535.324-5.125.365-10.236.929-15.333 1.382-12.11 1.063-24.259 1.679-36.404 2.741l-.618.054c-.212.251-.418.502-.625.752zm59.396-4.655c-.325-.772-.16-.09 0 0zm21.956 25.817l.825.965c6.004.424 12.01.241 18.091.583 15.261.863 30.519 1.798 45.583 5.165 2.411.542 1.06-.358 1.06-.358-.106-.115-.481-.049-.481-.049s.804.069-.375-.245c-15.349-3.872-31.457-4.981-47.483-6.128-5.342-.382-10.714-.29-15.967-.741l-.284-.023c-.33.278-.65.554-.97.831zm-56.83.946c-7.384.727-14.785 2.068-22.026 3.247-.415.07-.825.139-1.232.234-.584.146-.927.916-.927.916l.834.899s1.038-1.268.868-.635c-.14.531-3.438 1.002 3.443-.159 17.542-2.953 35.173-4.023 53.022-5.073l1.835-.753c.382-.674-.59-.29-.59-.29s.431-.162-.056-.321c-.767-.253-1.03-.333-1.03-.333-11.42.631-22.886 1.186-34.141 2.268zm55.79 25.485l.693.687c18.031.061 36.146 1.841 53.707 5.075 0 0 2.35.322 4.595.388.629.021.427.01 1.04.062l.784.115c.969.219.862.299.862.299l.463-.084s.045-.371-.204-.558c-1.341-.961-3.169-1.022-4.749-1.378-.221-.049-.232-.058-.232-.058-10.308-2.713-21.893-3.547-33.079-4.414-7.61-.586-15.244-.9-22.878-.837-.004.005-.617.315-1.002.703zm-43.232 1.05c-10.174 1.004-20.26 2.657-30.521 3.9-.229.027-.224.021-.214.02-1.063.072-2.15-.01-3.028.516l-.225.9s.943.05 2.078-.058c.064-.007 6.258-.845 10.668-1.548 14.781-2.323 29.754-4.419 44.372-4.407l.335-.328-.328-.335c-7.79-.093-15.438.599-23.137 1.34zM277.737 68.759c15.118.02 30.366.801 44.906 4.797 2.048.68 4.07 1.427 6.063 2.244l.622.582.059.822-.552.59c-1.407.121-1.849-.215-2.506-.395a99.356 99.356 0 00-4.386-1.071s-4.035-1.072-7.342-1.728c-17.336-3.468-35.222-3.23-52.972-2.67-36.027 1.137-71.558 7.06-107.213 15.075a167.43 167.43 0 00-6.776 1.646c-.105.031-.105.035-.152.05-1.255.439-2.561.927-3.82.873-.18-.36-.238-.333-.262-.645 0 0 .551-1.154.321-1.119.301-.09-.102.067.426-.172a17.661 17.661 0 001.505-.754c4.379-1.705 9.012-2.46 13.578-3.53 38.342-8.934 77.285-14.408 116.339-14.587.715-.008 1.438-.008 2.162-.008z" fill="#fff"/><path fill-rule="evenodd" clip-rule="evenodd" d="M143.633 88.96s1.055-.095 1.142.05c.899 1.537 1.079 2.178 1.411 3.132 1.431 4.07 2.389 8.319 3.726 12.467 1.54 4.762 2.783 9.802 5.184 13.934.305.52.856 1.244.856 1.244.141.164-.07-.067.192.215l.68.594c.176.121-.082-.043.227.148l.68.341c.219.09-.055-.012.293.109 4.097 1.365 8.863-.907 13.07-1.802 7.8-1.65 15.689-2.893 23.563-4.187 0 0 1.506-.047 2.698-.012l.899.027 1.056.602-.806.911c-1.251.469-2.924 1.091-2.924 1.091-8.445 1.357-16.905 2.639-25.248 4.426-.946.207-1.079.254-1.58.379-5.078 1.325-11.041 3.495-14.88-1.376-1.595-2.025-2.424-4.563-3.303-7.034a217.4 217.4 0 01-2.495-7.487c-1.716-5.418-2.65-11.224-4.942-16.272-.273-.605-.121-2.197.438-2.029l.274.239c0 .012-.297.305-.211.29z" fill="#fff"/><path fill-rule="evenodd" clip-rule="evenodd" d="M214.948 74.376l-1.005 2.19c-3.62 4.996-6.576 10.673-8.777 16.147-5.794 14.426-6.806 30.256-5.989 45.988l-.505.595-.59-.513c-1.544-15.4-1.56-31.409 3.839-46.04 2.201-5.973 5.204-11.232 9.164-16.232.485-.61 1.064-1.333 1.064-1.333.774-.743 1.935-1.638 1.935-1.638.332-.008.72-.055.935.101 0 .004-.196.755-.071.735z" fill="#fff"/><path fill-rule="evenodd" clip-rule="evenodd" d="M209.143 127.258s-.958 1.478-1.334 1.974c-1.9 2.522-3.765 5.102-5.735 7.538-.11.133.121-.203-.211.305-.505.774-.974 1.58-1.587 2.264l-1.287.129-.332-.149.141-1.223c.262-.309.05-.04.289-.391.618-.911.598-1.177 1.364-2.291 1.83-2.569 3.773-5.067 5.548-7.659 0 0 .763-1.932 1.885-2.937 0 0 .379-.418.766-.582 1.153-.477 2.963.293 2.963.293 1.04.794 1.9 1.818 2.78 2.764.54.583.755.72 1.146 1.071a75.402 75.402 0 0010.509 7.929l.481.637-.075.763-.602.457c-1.044-.09-1.376-.352-1.853-.594-4.062-2.041-7.964-4.387-11.596-7.252-1.72-1.353-1.974-1.873-2.838-2.51.004.004-.321-.43-.422-.536z" fill="#fff"/><path fill-rule="evenodd" clip-rule="evenodd" d="M223.115 74.713s.172-.246.032.407c-2.483 11.885-2.764 24.462-2.088 36.066.407 7.033 1.282 14.078 3.773 20.666.531 1.818 1.106 3.628 1.564 5.466l-.294.876-.692-.356c-.754-1.74-1.626-3.437-2.467-5.149 0 0-1.415-3.581-2.021-6.06-.098-.407-.195-.809-.285-1.216-3.23-14.297-3.214-29.588-1.22-43.604 0 0 .504-2.674.876-4.082a42.58 42.58 0 011.114-3.612l1.196-.051-.301-.2s.372-1.114.735.622c.012.07.047.282.078.227zm21.824-3.683l1.079.688c.305.282-.109-.258.849.962 3.647 4.61 6.454 8.812 9.121 13.304l.109.188c4.981 8.914 7.948 18.888 9.184 29.162.59 4.934.852 9.899.969 14.864l-.418 1.768-.371.512-.407-.485c-.219-.618-.532-1.486-.532-1.486-.031-.539-.062-1.079-.097-1.618-.911-14.138-3.562-28.486-10.826-40.942 0 0-1.458-2.588-2.811-4.785-1.419-2.31-2.882-4.598-4.332-6.881-.297-.466-1.298-1.674-2.084-2.893 0 0-.356-.806-.473-1.724 0 0 .168-.571.485-.77 0-.009.543.222.555.136z" fill="#fff"/><path fill-rule="evenodd" clip-rule="evenodd" d="M278.128 120.291c-4.137-2.784-.978-.442-.978-.442-.836.974-1.474 2.94-1.97 3.785-1.513 2.553-3.3 4.973-5.36 7.068-.598.606-.583.622-.583.622-.84.676-2.189 1.548-2.189 1.548-.622-.082-1.454-.117-1.576-.59 0 0 .286-1.384.641-1.767.071-.075.141-.157.212-.235.359-.406.852-1.024.852-1.024 2.389-2.256 4.617-4.696 6.376-7.511.458-.731.102-.117.298-.516 0 0 .512-.954.95-2.056.097-.25.715-1.685 1.876-2.041 1.764-.543 3.265.504 4.911 1.537 1.528.961 2.6 1.552 3.87 2.341l.168.106c1.799 1.177 3.574 2.389 5.353 3.601l.004.008c.559 1.083.535 1.094 1.02 2.212l-1.583.04-.861-.036a605.109 605.109 0 00-3.467-2.044c-2.592-1.509-4.891-3.019-7.855-4.536-.039-.015-.043-.023-.109-.07z" fill="#fff"/><path fill-rule="evenodd" clip-rule="evenodd" d="M254.674 70.631s1.11.356 2.099.747c0 0 1.162.708 1.951 1.204 12.628 7.952 21.359 22.007 26.648 35.847.946 2.475 1.81 4.977 2.612 7.499 1.13 3.573 2.721 7.033 3.562 10.673l-.391.665-.661-.399c-.848-3.03-2.365-5.786-3.441-8.82-5.023-14.071-11.779-28.153-23.41-37.708-.497-.407-2.983-2.42-5.267-4.043a155.215 155.215 0 00-3.155-2.185s-1.341-.911-2.123-2.033l.118-1.095-.364-.004s-.575-.95 1.427-.579c-.008.004.227.114.395.231z" fill="#fff"/><path fill-rule="evenodd" clip-rule="evenodd" d="M291.944 109.857c.208.004.45.004.45.004 6.627.461 13.215 1.474 20.146 1.958 1.545.102 3.105.176 4.618-.164l1.051-.36c2.139-1.188.86-.332 1.572-1.724 0 0 .927-4.41 1.142-7.96.219-3.362.832-6.693 1.677-9.961.668-2.573 1.638-5.157 2.561-7.726.07-.2.074-.2.148-.399.79-2.091 1.599-4.179 2.381-6.279l.637-.664 1.154-.727.485 1.274c.109.939-.059 1.459-.262 2.12-1.361 4.405-2.843 8.78-3.957 13.233-.977 3.945-1.763 8.035-2.17 12.269-.391 3.948-1.427 8.398-6.111 9.418-2.697.586-5.5.195-8.237.059-5.673-.294-11.373-1.15-16.948-1.455 0 0-3.097-.418-5.779-.285l-.477-.203c-1.204-.528-1.063-.391-1.063-.391l-.34-.137s.614-.884 1.399-1.466c0 0 1.678-.313 2.909-.372a55.04 55.04 0 013.014-.062zm-124.021 14.066s.986 3.976 1.967 7.64c4.766 17.827 10.192 35.628 14.235 54.687 4.089 19.271 6.943 38.917 10.955 58.078l-.473.766s-.505-.324-.759-.493c-4.629-19.098-8.065-38.384-12.358-57.792-2.491-11.779-5.822-23.594-8.715-35.311-2.181-9.012-4.598-18.078-6.501-27.004-.063-.332-.165.313.019-1.232.309-2.611.493-.797.493-.797l-.243-.27s.247-.328.567-.278c.591.094.892 1.033.892 1.033-.008.324-.067.832-.063.813-.012.086-.012.086-.016.16z" fill="#fff"/><path fill-rule="evenodd" clip-rule="evenodd" d="M317.693 115.002a101.465 101.465 0 00-.309 3.264s-.93 4.179-1.587 7.194c-6.142 28.301-8.789 57.346-12.225 86.164l-.055.473a5931.253 5931.253 0 00-3.112 25.416l-.313.599-.61.199-.547-.321-.188-.641a2529.06 2529.06 0 012.08-24.709l.074-.828c.309-3.195.626-6.389.947-9.583l.027-.266c.575-5.11 1.169-10.223 1.783-15.329l.113-.95c.551-4.438 1.126-8.879 1.724-13.313 2.542-18.864 4.434-31.922 7.984-47.435a252.938 252.938 0 011.697-6.924s.778-2.002 1.649-3.714c.9-1.709.254-.899.681-1.271.879-.766.371.579.219 1.689-.012.082.027-.207-.032.286zm.176-1.572s-.281.238 0 .008c0 0 .047-.059 0-.008zm-.461-.196l.051.161c0 .004-.043-.211-.051-.161z" fill="#fff"/><path fill-rule="evenodd" clip-rule="evenodd" d="M299.275 237.181l1.63 1.2c-.058.825-.352 1.482-.352 1.482-1.098.774-2.408 1.157-3.671 1.603-.281.102.075-.047-.805.317-6.052 2.502-12.202 4.601-18.637 5.735-18.254 3.218-37.404.426-55.384-.555-5.602-.313-11.201-.688-16.788-.977l-.438-.024c-2.983-.184-5.954-.387-8.961-.532l-.59-1.075-.023.368s-1.001.156.473-1.071c0 0 2.948-.039 5.301.015 1.646.043 3.894.098 3.894.098 16.17.555 32.509 1.744 48.468 2.021 13.488.239 26.835-1.356 39.866-6.705 1.744-.715 3.659-1.137 5.141-2.127.008 0 .708.243.876.227z" fill="#fff"/><path fill-rule="evenodd" clip-rule="evenodd" d="M225.715 73.106c.11.43-.164-.371.383 1.036.18.473.188 2.807.27 4.727 1.447 33.818 4.098 67.914 7.483 101.967l.121 1.227.305 3.23c1.381 14.27 2.495 28.532 4.129 42.755.684 5.947 1.583 11.878 2.928 17.711l-.074 1.431-.426.864s-.516-.379-.778-.563c-.305-.481-.692-1.103-.692-1.103-3.968-16.319-4.68-33.384-6.326-49.718-.446-4.461-.887-8.922-1.317-13.383l-.094-1.001c-2.741-30.057-4.837-60.314-6.08-89.984-.23-5.782-.363-11.54-.571-17.386-.007-.34-.344-2.424.474-2.392.457.02.265.692.265.582zm17.598-.712s.203 1.138.438 2.334c.015.087.179.872.195 1.048.227 2.592.438 5.18.657 7.769l.031.379c2.659 43.127 8.113 86.246 11.397 129.584.246 3.292.438 6.604.723 9.884.766 8.534 3.081 16.893 3.073 25.487l-.575.582-.582-.579c-.043-8.827-2.6-17.554-3.308-26.409-2.357-30.843-5.829-61.795-9.187-92.838-1.908-17.855-3.171-35.78-4-53.734 0 0-.059-2.686.383-4.257.669-2.354-.133-.32.207-.567.137-.098-.324-.223-.324-.223s.242-.536.641-.219c.512.403.231 1.61.231 1.61v.15z" fill="#fff"/><path fill-rule="evenodd" clip-rule="evenodd" d="M226.837 112.132l.004 1.685-.191.434a24.712 24.712 0 00-1.075-.027c-1.568-.004-3.14.093-4.684.387l-.637.097-.524-.899c.019-.954.093-.598.555-.821 0 0 2.416-.86 4.351-1.11.802-.102 1.994-.18 1.994-.18.07.145.141.289.207.434zm18.735.989l.094-.821s-.32.422-.485.301c-.351-.262.552-.938.56-.938.668.019.312.004.347 0 .802-.137 1.928-.313 1.928-.313a80.91 80.91 0 0115.279-.418l.617.293.235.637-.285.602c-.599.227.422.243-2.119.219-3.476-.023-6.94.114-10.396.399l-3.073.141s-2.635-.082-2.67-.09c-.012-.008-.02-.008-.032-.012zm-20.263-56.076a13.72 13.72 0 00-5.9 2.08c-.238.153.102-.097-.403.282-.152.113.075-.07-.25.2-.262.214-.094.058-.387.351-.113.114-.649.79-.649.79-.176.262.051-.094-.156.242 0 0-.364.708-.379.731-.157.344-.004-.02-.161.387l-.156.485c-.07.262.012-.074-.067.266l-.082.485c-.031.266.004-.07-.027.27 0 0-.008.782-.012.742.024.493-.004.13.043.524l.082.497c.11.485.024.137.137.524l.168.492c.188.47.043.13.227.513 0 0 1.349 2.357 3.284 3.807.305.352 1.001.974.892.911 1.794 1.686.351 1.287.351 1.287s.411-.653.485-.2l-.739.642c-.324.168.262.285-.868-.09-.825-.282-1.517-.583-1.517-.583-3.8-2.592-6.626-7.315-4.511-11.909 2.24-4.867 9.441-6.368 14.153-4.89 3.041.957 5.919 2.552 9.195 2.369l.364.293s-.196.348-.599.399c-3.862.45-7.655-1.619-11.435-1.92a25.257 25.257 0 00-.516-.012c-.376.012.074-.011-.387.02 0 0 .121-.012-.18.015z" fill="#fff"/><path fill-rule="evenodd" clip-rule="evenodd" d="M243.61 70.455c.234-.915.504-2.256.504-2.256.09-.168.18-.34.274-.512.355-.68.696-1.372 1.016-2.072.958-2.08 1.978-4.136 2.522-6.435.023-.094.133-.849.133-.849.023-.496.058 0-.016-.621l-.277-.868c-.2-.36-.012-.047-.211-.332-.173-.247-.646-.68-.673-.704-.571-.458-.102-.153-.88-.583 0 0-7.217-2.33-12.862.301-1.197.556-2.272.864-3.312 1.365-1.204.575-1.18-.031-1.18-.031l-.352.09s.129-1.549.676-1.858c.872-.48 1.81-.832 2.702-1.274.113-.055-.364.195.473-.262 4.117-2.209 9.039-2.987 13.605-1.439 2.604.884 5.016 2.78 5.251 5.614.336 4.086-2.033 7.933-4.414 11.803l-2.041 1.744-.844.211c-.004-.004-.176-.715-.094-1.032z" fill="#fff"/><path fill-rule="evenodd" clip-rule="evenodd" d="M288.449 0c8.996.102 18.293 6.298 18.184 16.983-.078 7.608-4.14 14.81-8.539 21.198-5.985 8.7-13.574 16.272-22.195 22.348-6.056 4.12-12.569 7.55-19.47 9.86l-.07.023c-3.194.723-6.424 1.294-9.614 1.986l-.524.114-.84-.387.426-.821c2.967-1.4 6.001-2.675 8.976-4.074 0 0 2.995-1.11 5.282-2.147 15.51-7.013 29.358-18.598 38.42-33.286 4.051-6.568 7.542-14.454 3.957-21.315-1.869-3.57-5.392-6.181-9.325-7.221-10.571-2.8-22.425 3.26-30.491 10.626-10.079 9.203-17.531 21.194-22.781 33.9a63.93 63.93 0 00-2.01 4.277c-.219.52.313.036-.563.966-.195.196-.543.29-.672.055l-.086-.352s-.387-.997-.004-2.42a74.228 74.228 0 011.005-3.335l.043-.129c5.985-14.587 14.461-28.442 26.988-37.935 6.799-5.149 15.134-8.781 23.391-8.91.172-.004.34-.004.512-.004z" fill="#fff"/><path fill-rule="evenodd" clip-rule="evenodd" d="M243.903 52.757s-.602.617-.63-.102l-.383-.485c.016-.43-.207.387.325-1.58 0 0 3.898-7.216 7.334-11.783 5.024-6.681 10.967-12.866 18.587-16.444 3.354-1.58 6.99-2.62 10.724-2.924 5.743-.47 12.174 1.638 15.318 6.877l-.024.184s-3.151-3.03-6.232-3.968a15.337 15.337 0 00-3.573-.622c-9.962-.587-19.302 4.934-25.311 10.415-5.935 5.419-10.963 11.909-14.786 19.067l-.724.966c-.156.325.09.074-.355.282l-.814-.04c.004 0 .45.028.544.157z" fill="#fff"/><path fill-rule="evenodd" clip-rule="evenodd" d="M281.779 20.553l.239-.074.223.32-.149.767.383-.121.38-.978c.074.063.148.121.219.188 2.384 2.091 3.725 5.258 3.831 8.32.176 5-2.424 9.746-4.985 13.593-4.191 6.29-10.212 11.166-16.229 15.72 0 0-1.775 1.318-3.37 2.437a157.286 157.286 0 01-12.245 7.764c-.308.176-1.888.962-3.37 1.634 0 0-.586-.015-.993-.086l-.32-.594.344-.798.813-.527c.711-.466 1.748-1.162 1.748-1.162 9.875-5.684 19.583-12.057 27.496-20.26a43.383 43.383 0 002.834-3.22c4.227-5.341 8.203-11.995 5.493-18.071-.582-1.31-1.411-2.569-2.467-3.483l-.062-1.185c.094-.137.058-.09.187-.184zM216.02 67.867s.883-.77 1.689-.598c0 0 .32.406.234.649 0 0-.539.958-.383.84-.129.122-.121.122-.121.122-1.693 1.689-4.555 1.61-6.65 1.822a35.665 35.665 0 01-4.88.148 43.394 43.394 0 01-2.013-.121c-8.406-.696-16.964-2.506-24.463-5.622-7.002-2.913-13.042-7.91-16.588-15.08-5.606-11.33-7.952-26.042 2.631-33.423 9.829-6.857 25.354-1.9 35.41 5.27 1.184.84 2.33 1.728 3.448 2.655 2.115 1.755 4.097 3.663 5.982 5.661 2.033 2.15 3.843 4.54 5.625 6.936l.09.117c1.904 2.694 3.711 5.458 5.47 8.25.121.195.121.195.242.386 1.803 2.937 3.554 5.9 5.325 8.852l.454.758.457.755-.055.516-.5-.133c-4.578-5.81-9.043-11.74-13.985-17.328a102.814 102.814 0 00-5.168-5.668s-1.771-1.908-3.359-3.43c-7.795-7.47-17.569-13.8-28.817-13.804-5.728-.004-11.761 2.338-14.521 8.507-2.674 5.97-1.274 12.89.681 18.426 1.978 5.61 4.761 11.053 9.324 14.74 8.558 6.912 20.31 8.726 31.457 10.059 3.761.438 7.522.418 11.373-.148-.008-.004 1.443-.094 1.611-.114z" fill="#fff"/><path fill-rule="evenodd" clip-rule="evenodd" d="M218.06 58.414c-3.311-4.086-8.147-6.744-12.241-9.966a158.825 158.825 0 00-4.206-3.198s-2.929-2.225-5.388-3.792c-6.685-4.254-14.231-7.616-22.328-7.292-1.861.075-3.726.524-5.278 1.54l-1.122.888c-.07.082.016-.027-.074.09-.829 1.06-1.54 2.193-2.373 3.272-.254.31-.469-.156-.469-.156l.266-.246s-.43.461-.028-.196c1.783-2.928 4.117-5.677 7.804-6.396 10.915-2.123 22.335 3.69 30.632 9.52 0 0 1.513 1.138 2.56 1.97 0 0 1.885 1.58 2.737 2.354 3.804 3.456 8.14 6.685 10.724 10.744l-.129 1.118c.004-.004-.934-.063-1.087-.254z" fill="#fff"/><path fill-rule="evenodd" clip-rule="evenodd" d="M179.179 35.143c-.262.638-.133-.891-.281 1.904-.532 9.896 8.487 18.954 16.041 23.067 6.447 3.51 13.781 5.102 20.803 5.13l.594.226.27.547-.211.564c-1.06.547-1.486.387-2.084.433-5.086.407-10.224-.082-15.189-1.774l-.062-.024c-8.359-3.249-15.561-9.837-19.173-18.117-1.611-3.695-2.401-7.839-1.505-11.713.136-.599.656-1.36.609-1.271.345-.649.216-.497.216-.497l-.219-.234s.375-.516.684-.05c.504.758-.575 1.985-.493 1.81zm.09-1.485c.012.003.051.02 0 0z" fill="#fff"/></svg>