<svg width="208" height="404" fill="none" xmlns="http://www.w3.org/2000/svg"><path fill-rule="evenodd" clip-rule="evenodd" d="M46.763 41.182a255.922 255.922 0 00-26.968 3.254l-.755.483-.194.882.478.75.866.196c11.845-2.11 23.856-3.218 35.962-3.92 22.502-1.31 44.842-1.943 67.631-.3 7.209.52 14.425 1.411 21.394 3.325 0 0 1.293 1 2.258.713 0 0 .13-.315.107-.536l-.621-.885c-.256-.117.332.197-.726-.431 0 0-3.571-1.132-6.378-1.75-11.349-2.5-23.025-2.948-34.837-3.22-19.419-.444-38.936.173-58.217 1.439z" fill="#fff"/><path fill-rule="evenodd" clip-rule="evenodd" d="M90.66 23.753s.802.162.827.169c.892.265.49.093 1.147.496.538.33.117.06.402.297 0 0 .631.724.608.687.168.258.029-.006.256.446.106.207-.112-.556.38.925 1.207 3.598-1.561 7.458-4.926 10.302 0 0-1.144 1.344-2.11 2.37l-.178.68.7.101c.878-.326.658-.22 1.393-.545.674-.305 1.609-.782 1.609-.782 4.035-3.077 7.752-7.979 5.91-13.116-.33-.928-1.206-2.119-1.206-2.119-.664-.763-1.535-1.425-1.608-1.307-4.263-2.33-9.019.017-12.796.81-.621.138-1.25.365-1.7.936l-.135.37s.99.289 1.177.251c.34-.072.124-.033.344-.069 1.925-.315 3.883-.717 7.688-.962.686-.045 1.198-.062 2.036.034.106.014.115.014.183.026z" fill="#fff"/><path fill-rule="evenodd" clip-rule="evenodd" d="M69.842 26.763s.616-.927.636-.95c.4-.43.19-.226.603-.543.148-.115.924-.578.924-.578.513-.26.514-.253.71-.337 2.93-1.277 6.263-1.403 9.324-1.314.102.006.127.005.127.005 1.898.11 3.489.519 4.896.06l.2-.34-.933-.145c-.471.001-.117.012-.587-.029 0 0-1.556-.28-2.76-.558-.516-.118-.541-.116-.758-.157-5.131-.877-11.169-.645-13.935 2.744-.533.652-.919 1.56-.919 1.56-1.467 3.968 1.539 8.39 3.918 11.336.91 1.125 1.905 2.199 3.117 2.981l.546-.07s-.296-.728-.212-.662c-.358-.338-.178-.16-.387-.387-2.461-2.667-4.119-6.148-4.8-9.41l-.117-.834c-.025-.313-.003.08-.015-.289l.032-.725c.05-.39-.01-.037.076-.446l.261-.824c.027-.036.027-.036.053-.088z" fill="#fff"/><path fill-rule="evenodd" clip-rule="evenodd" d="M48.915 1.358c-6.483 2.653-10.243 10.31-14.38 16.77-1.288 2.009-2.43 4.265-2.315 6.73.15 3.306 2.354 6.141 4.53 8.293 2.341 2.318 4.922 4.435 7.755 6.094 2.47 1.444 5.155 2.592 8 2.977l.403-.275-.282-.393c-.84-.189-1.064-.267-1.58-.439-5.612-1.872-10.373-6.078-13.96-10.764-.832-1.089-1.62-2.222-2.121-3.51 0 0-.15-.435-.14-.398-.154-.486.008.113-.148-.528l-.111-.607c-.034-.258.002.097-.033-.313 0 0-.006-.668-.004-.689.032-.485-.03-.07.084-.707.017-.073.277-1.031.277-1.031l.064-.177c.1-.267.068-.18.112-.289.72-1.707 1.866-3.203 2.892-4.738 3.362-5.062 6.135-10.776 11.52-13.706.094-.048.758-.302.779-.307 1.405-.357.933-.184 1.705-.083 0 0 .732.141.694.131 5.337 1.327 10.224 4.827 14.442 7.879 3.65 2.64 7.005 5.677 10.096 8.958 1.161 1.235 1.345 1.534 1.345 1.534l1.58.7c.529-.392-.534-.697.045-.525l-.247-1.076c-6.328-7.457-14.04-13.777-23.1-18.23a63.507 63.507 0 00-.833-.404c-1.964-.918-4.162-1.673-6.365-1.108l-.54.17c-.086.03-.086.03-.164.061z" fill="#fff"/><path fill-rule="evenodd" clip-rule="evenodd" d="M51.514 19.24c-3.637.302-7.534 1.832-9.009 5.489l.082.477s.478-.468.441-.39c.243-.524.05-.142.32-.622l.363-.562c.32-.45.095-.153.403-.518l.44-.466c.384-.37.11-.125.481-.427l.51-.378c.442-.298.143-.106.544-.342 0 0 .65-.342.569-.298 6.833-3.223 15.909-.196 21.558 4.158.133.105-.132-.096.27.402 0 0 .733.272.866-.132 0 0 .014-.871.141-.724-.127-.151.626.186-.902-.882-4.95-3.437-11.17-5.214-17.077-4.785z" fill="#fff"/><path fill-rule="evenodd" clip-rule="evenodd" d="M51.243 24.844l-.286-2.18c-.008-.71-.05-.114.043-.952.016-.144.211-.88.211-.88.52-1.186.15-.409.473-.607l.299-.44s-.307-.253-.675-.035c-1.759 1.061-1.327 4.118-.855 5.92.112.438.254.861.42 1.283 1.62 4.122 5.618 7.012 9.905 8.223 1.224.344 2.47.624 3.722.874 0 0 1.461.164 1.588.177.922.083 2.142.103 2.335.103.265.004.526 0 .79-.001a11.503 11.503 0 001.637-.175l.154-.018s.441.126.418-.297c0 0-.122-.311-1.16-.39-1.019-.076 1.81.562-3.16-.734-1.882-.499-2.61-.594-3.624-.784-5.162-.977-10.509-3.408-12.164-8.84-.059-.193-.059-.193-.07-.247zm19.67 10.869s-.176.52-.054.07c.004-.004.098-.11.054-.07zM120.843.306c-4.907.41-9.43 2.91-13.715 5.503a272.805 272.805 0 00-7.134 4.47l-.306.2c-5.338 3.654-10.83 7.13-15.524 11.309l-.274.245-.063.773.773.059c4.98-3.971 10.711-7.092 16.259-10.483 5.667-3.453 11.113-7.627 17.348-9.268 2.049-.542 4.302-.866 6.14-.138 2.568 1.021 3.989 3.651 5.381 5.838 3.041 4.765 6.107 9.85 6.565 15.352.214 2.567-.914 5.092-3.16 6.866-4.292 3.387-9.918 4.572-15.291 5.774 0 0-2.028.54-3.434.885-4.507 1.074-9.183 1.44-13.67 2.365-.215.043-.44.075-.627.175l-.127.374s.765.064.669.078c2.525-.287 5.088-.288 7.638-.375.847-.035.946-.062 1.376-.103 2.457-.233 4.904-.6 7.326-1.027l1.197-.21c6.728-1.429 13.956-2.866 18.414-8.013 3.656-4.229 1.634-11.031-.636-15.9-1.615-3.468-3.612-6.745-5.809-9.863-1.951-2.76-4.622-5.093-8.867-4.907a4.049 4.049 0 00-.449.02z" fill="#fff"/><path fill-rule="evenodd" clip-rule="evenodd" d="M122.909 15.899s-.42 1.347-.423 1.368c-.082.418.295-.759-.303 1.214 0 0-.765 5.245-3.36 8.038-.632.677-1.009.954-1.539 1.337-2.098 1.516-4.596 2.395-7.073 3.213-5.126 1.694-10.569 2.787-15.87 1.933l-.62.432.432.619c6.596 1.29 13.53-.2 19.803-2.532 5.121-1.904 8.928-6.147 10.25-12.387l-.088-3.26c-.614-.515.094-.746-.882-.564 0 0-.301.154-.215.367 0 0 .841.327.353.443-.009 0-.42-.11-.465-.221z" fill="#fff"/><path fill-rule="evenodd" clip-rule="evenodd" d="M119.154 14.855c-7.154.562-13.979 3.46-20.44 6.789-.016.01-2.24 1.395-4.088 2.647l-.286.191-.265.95.957.237c7.826-3.843 15.482-8.1 24.278-8.95 3.238-.31 6.78.32 9.203 2.523.934.847 1.922 2.068 1.922 2.068.367.338.726.68 1.092 1.017a25.81 25.81 0 001.829 1.54l.395-.005s-.995-1.771-1.993-3.4c0 0-1.927-2.782-4.529-4.187-2.331-1.26-5.051-1.59-7.715-1.444l-.36.024zm-15.988 26.197l-.155.073-.026-.393s-.669-.074-.491.448c.172.514.893.618.893.618.288.158.094.023.189.127 4.543 4.91 6.697 11.989 7.972 18.542a69.46 69.46 0 01.825 5.39c.401 3.49.751 7.024.777 10.49l.001.206c-2-2.664-4.194-5.105-6.739-7.309-1.077-.917-2.758-1.361-4.11-.184 0 0-4.213 5.3-6.284 7.945 0 0 .023-3.31-.066-5.679a249.57 249.57 0 00-2.185-24.844c-.026-.196-.055-.388-.08-.584-.29-1.973-.906-3.811-1.626-5.622l-.645-.348-.332.652c.273 1.146.324 1.467.435 2.2 1.709 10.794 2.621 21.944 2.651 32.837.008 1.845-.883 4.413.726 4.845.189.055.762-.046 1.496-.972 2.211-2.806 4.16-5.771 6.512-8.498.062-.071.117-.134.18-.201.126-.134.255-.273.398-.4 1.06-.944 2.612.79 4.16 2.35 1.67 1.68 3.177 3.515 4.597 5.418.631.841.206.836 1.153 1.236.592.255 1.201-.524 1.226-.656.082-.544.079-.59.096-.847.216-2.86-.309-5.734-.585-8.65-.978-10.04-3.127-20.676-10.127-27.745-.323-.31-.615-.342-.836-.445zm-28.381 1.081s1.604-1.37.586-1.14c0 0-2.593 1.482-4.352 3.19l-.063.064c-6.839 8.7-10.542 19.837-10.908 30.399 0 0-3.395-5.305-4.624-7.494-.503-.883-1.306-1.713-2.271-1.633-1.652.134-2.852 1.453-4.255 2.545a41.91 41.91 0 00-2.477 2.1 36.56 36.56 0 00-2.327 2.322s.99-4.432 2.518-7.937c3.008-6.927 7.52-13.112 12.113-19.08 0 0 1.328-2.243 2.965-4.073l.026-.443s-.378-.064-.75.23c-1.195.94-2.276 2.015-3.326 3.114 0 0-.935 1.188-1.583 2.02-5.945 7.587-11.46 15.519-13.61 25.21-.117.528-.264 1.055-.36 1.582-.017.111-.036.217-.05.323-.142 1.027.12 3.548 2.681 1.077 2.408-2.314 4.805-4.607 7.687-6.616 1.05-.72 1.125-.141 1.29.142a199.688 199.688 0 006.029 9.806c.472.72 1.187 1.241 1.187 1.241 2.201.301 1.131-2.55 1.131-2.55-.375-11.1 3.775-22.348 10.328-30.857 0 0 1.386-2.184 2.17-3.299.17-.25.053-.1.245-.243zm.669-.577s-.092.081-.225-.162c.004 0 .3.16.225.162z" fill="#fff"/><path fill-rule="evenodd" clip-rule="evenodd" d="M91.475 41.861l-.098.1s-.469-1.374-.474.522v.068c-.29 4.369-.74 8.698-1.137 13.029l-.069.752-.337 4.272c-1.39 25.895-2.657 51.798-4.232 77.81l-.027.485.292.343.333-.296c1.523-19.123 2.813-38.337 4.128-57.497l.117-1.677c.395-6.087.786-12.17 1.172-18.256l.052-.806c.233-6.055.414-12.136.335-18.142-.037-.956-.037-.245-.055-.706zm-22.034 6.066s-.193 1.862-.307 3.644c-.03.51-.028.531-.027.745.398 26.87.517 53.599-.483 80.301-.061 1.685-.14 3.372-.252 5.052l-.034.452.424.493.493-.423c1.985-25.593 1.172-51.369 1.23-77.744.003-.735 0-1.47.003-2.206-.005-2.636-.103-5.277.068-7.87.065-1.058.242-2.13-.606-2.763l-.378-.118c.004-.004-.111.482-.13.437zm76.707.24c.135.773.09-.435-.006.74-1.151 13.967-2.608 27.879-3.895 41.758-1.203 12.929-2.74 25.811-4.984 38.631-.936 5.467-.92 11.468-4.302 15.851-.023.031-.448.53-.456.539-.365.39-.081.115-.497.491-1.239 1.115-1.405.945-1.405.945l-.229.671s.52.311.878.127c3.889-2.037 5.124-6.843 5.918-10.694 5.266-25.561 7.246-51.865 9.89-78.048.059-.58.114-1.155.169-1.73.293-3.02.591-6.04.58-9.016-.043-1.3-.434-1.237-.434-1.237-.752-1.468-.311-.32-.311-.32l.291-.368s-1.032-1.248-1.2 1.433c-.01.177-.014.181-.007.227zM20.552 45.79l-.952.227s.75-.36.378-.58c0 0-.98.233-.724 1.388 0 0 .19 2.577.255 4.523 0 0 .23 5.041.334 9.124.218 8.632.054 17.285-.177 25.929l-.005.248c-.237 15.017 1.154 29.864 1.88 45.335.116 2.489.191 4.976.182 7.465l.339.356.352-.342c.37-12.533-1.122-25.154-1.157-37.858-.032-11.431.74-22.856.637-34.336-.059-6.856-.164-13.776-1.07-20.475-.147-.957-.267-.983-.272-1.004zm95.504 240.665l-.386.085s-.741 1.515 2.029-.596c.637-.483 1.554-1.233 1.554-1.233 2.32-2.64 4.971-5.912 3.569-9.599-1.839-4.843-9.283-6.187-13.856-3.373-1.471.903-2.793 2.02-4.152 3.093 0 0-1.162 1.19-1.93 1.904-.266.249-.536.489-.814.722l-.174.558.564.139c1.224-.433 1.431-.547 2.232-.953 3.373-1.705 6.017-5.283 10.282-4.794 3.07.353 6.52 2.375 5.825 5.565-.181.827-.044.23-.168.642 0 0-1.216 2.673-2.944 4.774-.158.275-.317.551-.48.822-.42.713-1.061 1.768-1.064 1.776-.968 1.518-.048.483-.087.468z" fill="#fff"/><path fill-rule="evenodd" clip-rule="evenodd" d="M92.672 276.516c.056-.172-.07.16.113-.331.555-1.478 1.796-2.165 1.95-2.259.412-.25.09-.103.686-.361l.964-.294c1-.188.322-.097 1.073-.113 3.56-.069 7.136 1.272 11 .585l1.196-.738c1.265-1.033.257-1.013.257-1.013l-1.086.038c-1.074-.165.203-.165-1.307-.066-4.765.288-9.652-2.708-13.903-.483-4.783 2.5-5.047 10.39.327 16.38l.964.201.101-.88c-1.75-2.66-2.813-5.847-2.674-8.849 0-.063.102-.885.095-.864.07-.404-.052.045.144-.619.09-.3.02-.077.1-.334z" fill="#fff"/><path fill-rule="evenodd" clip-rule="evenodd" d="M173.296 269.887l-.118.697c-.083.341.037-.074-.126.454l-.338.808c-.187.344.006.025-.239.389l-.42.52c-.192.206.091-.09-.212.224-.174.171-.347.342-.521.517-10.324 9.913-26.531 12.864-40.548 12.998-4.625.043-9.248-.208-13.864-.599l-.464.363.375.45c12.351 1.644 25.004 2.108 37.011-.87 4.793-1.193 9.519-3.021 13.714-5.713 3.493-2.239 7.277-5.286 7.906-9.035.964-5.737-2.296-12.047-4.734-16.847a55.86 55.86 0 00-1.987-3.568s-1.115-1.94-2.123-3.463c-1.846-2.775-4.153-5.582-7.121-6.22-1.5-.322-2.202-.12-3.096.014-4.271.638-8.201 2.88-12.155 4.438-2.835 1.124-5.659 2.284-8.435 3.53l-.11.049c-10.119 4.91-18.93 11.805-26.917 19.803-1.019 1.051-1.2 1.89-1.815 2.889-.285.464-.12.218-.365.524l-.556.81s1.021-.063 1.848-.659c.887-.634 1.938-1.531 1.938-1.531.68-.78.499-.533.46-.493 7.869-7.473 16.482-14.124 26.561-18.926.184-.092.362-.184.55-.276 4.342-2.172 8.806-4.096 13.176-6.224 2.526-1.221 5.153-2.435 7.924-2.487l.633.047c.438.068.122.004.482.102 0 0 .684.237.701.244.346.15-.01-.024.477.23.074.037 1.779 1.161 2.811 2.287 5.389 5.888 8.303 13.716 9.501 20.96.166.989.283 1.999.235 3.002-.017.51-.005.24-.039.562zM5.214 146.182l-.005.055c-.072.82-.17 1.877-.17 1.877-.167 2.016-.35 4.033-.52 6.045 0 0-.125 4.182-.142 7.647a5751.67 5751.67 0 00.866 127.99c.033 1.788.066 3.572.116 5.359l.286.633.655.247.625-.28.247-.643c-.855-35.125-.526-70.516-.582-105.559-.02-11.503-.21-22.919.048-34.545l.01-.291c-.07-2.021-.126-4.044-.192-6.069 0 0-.284-3.231-.443-5.398-.003-.05-.003-.815-.003-.815.06-.382.017-.131.017-.131l-.013-.394s-.533-1.075-.72 1.262c-.079.984-.034 1.923-.08 2.947.002.092 0 .071 0 .063z" fill="#fff"/><path fill-rule="evenodd" clip-rule="evenodd" d="M76.717 287.214c-21.141 1.421-42.257 3.043-63.262 5.771-4.083.541-8.182 1.167-12.102 2.417l-.808.683s-.107.999-.09 1.065l.683.804 1.053.091c6.43-2.057 13.24-2.55 19.871-3.41 18.4-2.343 36.865-3.547 55.572-4.796 34.039-2.276 68.372.039 102.129 3.577 7.685.803 15.349 1.657 22.86 3.762l.535.146c4.132 1.099 2.295.9 3.906-.37l-.458-.563c-.55-.695-2.072-1.095-2.072-1.095-.163-.049-.322-.093-.48-.141-9.319-2.818-19.231-3.794-28.896-4.787-31.954-3.274-64.208-5.309-96.222-3.296-.741.045-1.482.093-2.219.142zM16.95 139.082c-3.778.273-7.53.864-11.124 2.024l-.395.758.757.391c10.174-3.16 21.09-1.611 31.38-1.669 23.808-.184 47.61-.696 70.952 3.093 10.095 1.523 19.943 4.013 29.618 7.391l.563-.444s.255.622.641.227l-.13-.647c-.795-1.092-.798-.696-1.93-1.164-9.063-3.785-18.704-5.943-28.425-7.533-23.203-3.789-47.625-2.913-71.31-2.468-6.874.106-13.752-.43-20.597.041zm122.01 11.195s-.476.376-.111.041c.005.004.134-.068.111-.041z" fill="#fff"/><path fill-rule="evenodd" clip-rule="evenodd" d="M54.363 238.591c-6.705.508-11.83 6.447-15.178 11.904-2.442 3.973-4.431 8.185-6.155 12.535-.584 1.471-1.048 3.044-.906 4.641 0 0 .154 1.246.538 2.305 2.536 6.992 10.096 10.615 16.172 13.289a64.74 64.74 0 004.906 1.922c5.552 1.922 11.367 3.104 17.231 3.686l.482.048.576-.445-.453-.576c-11.034-1.663-21.95-5.326-30.915-12.354-3.292-2.579-6.773-5.974-5.705-10.012 1.498-5.676 4.567-11.106 7.667-15.744 2.893-4.338 6.873-8.63 12.353-8.898 4.412-.214 8.694 1.687 12.806 3.695 8.911 4.354 16.872 10.498 23.974 17.517 0 0 2.657 2.512 4.718 4.65 1.655 1.716 3.245 3.524 4.792 5.314.859.99.506-.105.641.096.377.564-2.25-3.345-4.328-5.869a123.222 123.222 0 00-1.514-1.809c-8.734-10.233-19.958-19.155-32.357-24.079-2.965-1.179-6.185-2.027-9.345-1.816zm47.372 33.454c-.734-.044.257.072 0 0z" fill="#fff"/><path fill-rule="evenodd" clip-rule="evenodd" d="M53.259 259.167c-4.535.331-9.024 1.929-12.304 5.099l-.12.475s3.445-2.126 6.255-2.937a20.002 20.002 0 011.77-.423c9.346-1.769 19.077.925 26.617 3.667 5.4 1.965 10.512 4.811 14.66 8.776.588.562 1.064 1.342 1.068 1.346.167.237.15.289.136.151 0 0 .293.49.521.121 0 0-1.004-1.909-2.708-3.47-7.59-6.958-17.99-10.576-27.411-12.202-2.228-.383-4.476-.626-6.735-.667-.005-.008-.87.002-1.749.064zm38.077 16.138c.517-.509.016-.148 0 0z" fill="#fff"/><path fill-rule="evenodd" clip-rule="evenodd" d="M51.978 260.214a12.945 12.945 0 00.293 3.234s.434 1.232 1.038 2.302c3.379 5.953 9.952 9.208 16.077 11.714 6.435 2.634 13.157 4.63 20.079 5.58 1 .136 2.478.232 2.478.232.719-.072-.003-.567-.003-.567l-.237.167s.377-.139-.185-.19c-1.807-.188-2.308-.328-2.98-.447-10.82-1.942-21.986-5.619-29.905-12.664-2.022-1.801-3.78-3.998-4.645-6.597 0 0-.643-1.353-.917-2.84l-.585-.521c-.168.196-.34.397-.508.597zm93.328 1.141c-7.346.536-14.373 3.171-21.296 5.79-2.678 1.012-5.31 2.152-7.845 3.487l-.274.829s.483.435 1.294.045c6.62-3.133 13.694-5.123 20.828-6.957 7.085-1.823 14.856-3.044 21.685.589 2.143 1.142 3.999 2.777 5.547 4.647.483.581.197.251.413.658.388.735.997 1.678.997 1.678l.392.021s-.246-.808-.237-.792c-.174-.341-.101-.199-.18-.37-3.289-7.396-13.209-10.162-21.324-9.625z" fill="#fff"/><path fill-rule="evenodd" clip-rule="evenodd" d="M152.293 265.347c-.323.652.954-1.101-1.337 1.984 0 0-2.272 3.612-4.908 6.295-6.681 6.814-16.69 10.578-26.04 8.358l-.648.379.383.643c12.272 3.44 25.925-3.526 33.124-14.296 0 0 1.214-2.249 1.493-3.452.114-.491.297-1.23.29-1.209.305-1.05-.137-.869-.137-.869s-.181-.455-1.023-.215c0 0-.638 1.295-1.152 2.304-.026.048-.026.048-.045.078zm54.373 33.045l.076-.837c.169-.881.098-.427.143-.627.061-.286-.127.042-.127.042s.45-.249.1-.524c0 0-.139-.386-.662.359-1.955 2.801-1.397 6.375-1.476 9.911-.712 31.6-5.001 62.956-6.97 95.324l-.022.367.468.209 1.818.108.49-.154c1.687-28.596 5.788-56.993 6.466-85.725.116-4.95.165-9.905.218-14.86 0 0-.246-2.148-.508-3.581-.012-.054-.009.059-.014-.012zm-.252-1.665s.297.494.024.108c0 0-.027-.145-.024-.108z" fill="#fff"/><path fill-rule="evenodd" clip-rule="evenodd" d="M6.352 400.04l-.403.85.318.875.838.399c45.255 2.17 90.868-1.434 136.022-1.574 17.465-.053 34.783 1.117 52.246 2.749.346.032.689.06 1.04.092.794.061 1.928.117 1.928.117.902-.215 1.357-.976 1.357-.976.942-2.428-1.286-1.269-1.286-1.269-8.137-.256-16.312-1.531-24.659-2.105-36.009-2.487-72.255.174-108.325.974-19.407.433-38.8.5-58.189-.446-.009-.004-.538.186-.887.314z" fill="#fff"/><path fill-rule="evenodd" clip-rule="evenodd" d="M.431 297.11c1.2 32.101 2.63 64.149 5.205 96.706.176 2.292.348 4.588.503 6.886l.026.41.416.254 1.331-.087.38-.307c-1.994-30.052-4.164-60.295-5.487-90.618l-.018-.47c-.187-3.804-.377-7.608-.577-11.411l-.078-1.445c-.646.008-.213-.049-1.7.082zm204.315-.24c-.532.208-.452-.1-.282.687l-1.481-.777c-.655-.385-1.266-.98-1.948-.868l-1.15-.042c-.279.241-.213.031-.213.031l-.273-.323-.617-.048-.038.44-.476.044s-.167.86.542.712c.068.067.135.139.199.21 2.782 3.062 3.743 7.719 4.926 10.946.633 1.505.798.119.798.119.113-.2-.087-.616.349-.636.712-.034.128-1.58-.251-3.119 0 0 1.019.475.937-.898-.116-1.972-.193-2.884-.07-4.459.065-.551.306-1.244-.297-1.515 0-.008-.265-.584-.655-.504zm-24.102 36.221c-.597.06-1.7.868-.617 1.108 0 0-.447.366.008.189 0 0-.571.449-.087.783 0 0 .42.313.862-.569 1.281-.723 1.928 1.458 2.771 1.293 0 0 .397-.354.262-.744-.572-1.669-1.142-1.644-2.509-1.975-.226-.056-.331-.113-.69-.085zm-.366 1.281c.143.058.257.143.309.295 0 0-.652-.331-.309-.295z" fill="#fff"/><path fill-rule="evenodd" clip-rule="evenodd" d="M181.575 333.383a.513.513 0 00-.39.669s1.511.469 1.52.468c.059.009-.179-.089-.235-.3l.504.362s.575-.395.245-.747c-.263-.282-.846-.265-.863-.272-.608-.229-.556-.207-.781-.18zm.433.388c.056.219-.223.452-.223.452s.201-.526.223-.452zM67.483 348.754c-.989-.465-.58-.374-.648-.47-.609-.814-2.177.008-1.907.852.267.815.35.338.576.525.45.379 1.096-.084 1.517.182 0 0 .158-.149-.155.326l.12.606s.812-.234.538-.057c-.181.117.984-.186.793-.85-.385-1.32-.13-.757-.834-1.114zm56.067-60.378c-.198.059-.211.182-.246.344a605.352 605.352 0 00-1.187 5.16s-.108.852-.174 1.453c-2.239 20.255-3.751 40.757-5.473 61.209l-.27 3.254c-1.009 12.416-2.056 24.829-2.901 37.242 0 0 .107 1.7.201 2.875l.452.554.514-.496c.087-.413.173-.827.264-1.24.442-2.03.402-2.456.479-3.449 2.121-25.06 4.585-49.823 6.876-74.676l.07-.778c.684-8.599 1.212-17.204 1.892-25.676-.057-1.765-.11-3.536-.158-5.285-.011-.483-.128-.089-.128-.089s.189-.453-.211-.402zm-35.248-.96c-.463 1.405-.36 2.961-.439 4.455l.118 3.531c.043 1.418.09 2.84.137 4.257.56 17.037 1.581 34.14 2.475 51.222l.122 2.304c.838 15.518 1.655 31.163 2.61 46.551l.038.565.75.666.665-.75c-2.063-36.033-4.132-72.23-5.162-107.705-.027-.797.066-.21-.127-1.093-.215-.982-.468-1.949-.596-2.945-.072-.571-.043-.203-.046-.699-.005-.004.127-.811-.545-.359zm50.559-137.044c-.796.17-.184.848-.175.726-.109 1.095-.114.121-.246 2.66-.434 7.594-1.569 15.02-2.45 22.862-.511 4.758-1.018 9.52-1.53 14.282l-.093.889a1647.614 1647.614 0 00-2.372 25.526l-.032.402c-.81 10.712-1.631 21.455-2.031 32.191l.391 2.509.486.808.455-.496c.252-1.025.65-2.468.65-2.468 1.489-23.476 4.033-46.891 5.652-70.388l.213-3.091c.519-8.041 1.489-16.057 1.374-24.082-.003-.109.627-2.42-.292-2.33zm.095.557c.079-.022-.212.03 0 0zm-9.509 115.283c-.408 5.449-.62 10.927-1.264 16.358l.558.812.724-.568c.713-5.465.94-10.965 1.327-16.463l-.364-.434c0 .004-.474-.104-.981.295zM86.054 140.548l-.352.018.365-.145s-.64-1.82-1.25.947c0 0 .199 1.097.186 1.67-.566 25.117-2.513 50.654-3.953 75.656a10968.48 10968.48 0 01-1.84 31.448l-.03.557.762.866.87-.768c2.167-34.667 4.461-69.259 5.753-104.205.064-1.829.317-3.611-.1-5.483.005.004-.348-.444-.41-.561zm-28.886-.988l-.398.014.36-.158s-.67-1.747-1.24.901c0 0 .274 1.171.288 1.763.489 24.679-.114 49.362-.312 74.401-.063 7.49-.116 14.933-.247 22.482l-.01.501.804.834.834-.803c.617-31.132.818-62.446.64-93.925-.01-1.882.118-3.753-.353-5.563.004-.004-.3-.346-.366-.447zm21.044 126.951l-.225.158c-.04.532-.08 1.069-.122 1.601-.298 3.714-.807 7.421-1.054 11.157l.622.821.753-.629c.196-1.686.426-3.366.669-5.046l.067-.454a210.8 210.8 0 00.857-7.303l-.722-.814.08-.384s-.543-.267-.894.849c-.004-.004-.024.082-.03.044zm-22.739-6.342l-.303.449c.167 2.103.184 4.658.444 7.272l.4.394s.384-4.195.345-6.462c-.02-1.142.254-.551-.07-1.95 0 0-.352-.242-.556-.216.004-.004-.142.585-.26.513zm.127 29.091c-.118-1.602.14-3.246-.156-4.807-.04-.233.064-.046-.098.107 0 0-.614-1.287-.428.264.019.158.01.159.01.159l-.018.875c-.037 1.226-.226 2.441-.197 3.653l.482.423.426-.478c-.014-.096-.014-.096-.02-.196zm54.66-234.324l.553.611c8.17.62 16.183 2.435 24.047 4.352 0 0 3.801.924 5.848 1.428 1.546.382 3.108.73 4.645 1.162.668.188.066-.139.066-.139s.098.532.55-.086c0 0-4.333-1.847-7.25-2.862-8.777-3.022-18.044-4.67-27.426-5l-.421-.014a35.62 35.62 0 01-.612.548zm-17.13-1.393s.844-.06.504-.5c-.597-.776-1.006-.16-1.121-.178l-1.752-.251-.672.65.633.69a23.797 23.797 0 002.407-.411zm-26.864-.906s.72.416.62.418a53.153 53.153 0 012.584-.073c.863.015.085-.182.085-.182s.152.52.541-.14c0 0-1.93-.47-3.357-.5 0 0-.297.28-.473.477zm-15.166.126c-1.58.141-1.769.137-2.485.172-9.682.484-19.505.288-28.675 2.937l-.375.697.697.374c9.534-2.937 19.974-2.76 29.912-3.506 1.379-.124.976-.114 1.327-.141.188-.017.466.116.222-.074h.395c-.004.004.408-.578-1.018-.46zm61.629 24.023l.528.626c9.466.635 19.007 1.724 28.226 3.602.132.026.264.05.392.084.663.17.172.186 1.524.417.578.1.446-.441.446-.441s-.619-.073-.267-.1c.109-.007-3.847-.98-6.987-1.55-7.466-1.36-14.988-2.426-22.548-3.11l-.698-.064a35.28 35.28 0 01-.616.536zm-.615-.014c.339-.337-.317-.03-.321-.03-.678-.014-.725-.032-1.097-.062-4.962-.414-8.79-.848-12.893-.662l-.343.018-.352.401s.292.355.9.324c3.493-.187 6.961.152 10.448.31 1.893.086 1.437.574 3.767.21.429-.065.257-.57.257-.57s-.44.154-.366.061zm-23.76-.945s.185.374.963.319a56.495 56.495 0 013.37-.133c.37-.003.74-.007 1.11-.001 1.88.015.817-.041.817-.041s.421.334.359-.427c0 0-3.765-.237-6.263-.123l-.356.406zm-68.398 2.506l.611.544c15.786-1.12 31.256-2.233 47.596-2.902.943-.04 2.072-.069 2.072-.069.674-.615-.978-.427-.213-.49.205-.018-2.845.002-5.49.108-4.31.178-8.612.524-12.9.776-10.187.588-20.396.8-30.613 1.387l-.52.03c-.183.205-.363.41-.543.616zm49.952-2.418c-.253-.656-.131-.08 0 0zm17.775 22.212l.668.83c5.027.507 10.07.504 15.164.943 12.783 1.106 25.562 2.272 38.117 5.475 2.009.515.898-.273.898-.273-.086-.1-.402-.054-.402-.054s.673.078-.309-.215c-12.781-3.633-26.268-4.967-39.686-6.33-4.472-.455-8.982-.512-13.379-1.022l-.237-.027c-.283.225-.559.449-.834.673zm-47.706-.63c-6.214.424-12.457 1.364-18.562 2.172-.35.048-.695.096-1.04.165-.493.108-.8.746-.8.746l.678.775s.902-1.038.744-.511c-.131.442-2.91.754 2.892-.047 14.792-2.038 29.612-2.494 44.614-2.928l1.56-.586c.337-.556-.489-.258-.489-.258s.366-.125-.038-.27a47.667 47.667 0 00-.857-.306c-9.596.243-19.231.422-28.702 1.048zm46.172 22.78l.564.594c15.127.503 30.281 2.451 44.935 5.604 0 0 1.963.329 3.845.441.528.032.359.018.871.077l.655.117c.808.207.716.272.716.272l.391-.059s.047-.31-.157-.473c-1.102-.84-2.634-.937-3.951-1.275a1.538 1.538 0 01-.193-.054c-8.581-2.535-18.28-3.525-27.643-4.533-6.371-.683-12.769-1.137-19.175-1.275-.004.004-.526.248-.858.564zm-36.3-.202c-8.561.588-17.066 1.722-25.706 2.508-.192.016-.189.012-.18.011-.893.034-1.803-.062-2.553.357l-.212.75s.79.065 1.745.003a449.49 449.49 0 008.99-1.032c12.46-1.578 25.075-2.961 37.34-2.585l.289-.267-.267-.29c-6.533-.273-12.968.116-19.446.545z" fill="#fff"/><path fill-rule="evenodd" clip-rule="evenodd" d="M85.26 151.192l-.256.63.26.622c11.354 11.305 23.95 20.89 36.778 30.425.344.243.692.493 1.036.739a799.65 799.65 0 019.187 6.698c.283.209 2.584 2.676 3.544 2.643l.308-.311-.777-.634c-.241-.211-.233-.211-.21-.188-3.287-3.062-5.651-5.396-8.352-7.681l-.213-.18c-13.152-10.758-27.555-20.59-40.056-32.761l-.63-.253c-.209.081-.414.166-.618.251zm-2.487 52.707c6.392 5.814 13.468 10.704 20.24 16.157 0 0 3.501 2.754 6.355 4.992l.656.512c6.314 4.882 12.845 9.476 19.308 14.39a24.9 24.9 0 011.282 1.025c1.172 1.003.579.618.68.367 0 0-.272.468.474.297.332-.513-.064-.462-.651-1.016-6.093-5.733-13.058-10.471-19.617-15.887l-.493-.405a3482.328 3482.328 0 01-6.334-5.174l-.395-.319a503.586 503.586 0 00-4.235-3.307c-5.469-4.227-11.346-7.965-16.608-12.377l-.708.042c.011.231.03.469.046.703zM5.572 142.994c10.434 9.377 21.085 18.589 31.532 27.659 0 0 3.941 3.369 6.99 6.014 4.132 3.587 8.208 7.225 12.309 10.843l.25.219.394-.013-.014-.394c-5.985-6.021-12.007-12.019-18.364-17.68l-.192-.172a617.634 617.634 0 00-5.623-4.78c-8.71-7.326-17.621-14.82-25.964-22.111l-.54-.465-.828.051c.01.272.027.548.05.829zM121.5 276.158l.081 1.112c1.449 1.267 3.265 2.026 4.955 2.928.514.282-.354.183 1.613.697.36.098-.116-.034.491.119l.256-.08.271.289s.918.155-.292-1.182c-.308-.342-1.116-.869-1.116-.869-1.705-1.052-3.619-1.784-5.111-3.073 0 0-.684.024-1.148.059zm-41.988-14.314a328.568 328.568 0 008.313 7.34l.49.421a1281.57 1281.57 0 009.633 7.611l1.135.892c3.1 2.407 6.193 4.831 9.289 7.246 1.999 1.512.931.611 1.407 1l.498.48s.828-.058-.111-.925c-.618-.569-1.358-1.084-1.358-1.084-2.858-2.498-5.704-5.006-8.566-7.495l-.303-.262a1671.67 1671.67 0 01-10.16-8.782s-4.623-3.836-7.796-6.461a334.74 334.74 0 01-1.419-1.181l-1.134.067c.028.376.053.757.082 1.133zm-23.215-36.687s-.935-1.187-1.605-1.786c-4.491-4.005-9.128-7.79-13.81-11.703l-2.3-1.871c-10.778-8.779-21.554-17.596-32.124-26.734l-.25-.214-.904.059.064.904c4.419 3.921 8.932 7.744 13.437 11.58l.423.359c6.656 5.612 13.337 11.2 20.084 16.722 0 0 1.782 1.413 3.093 2.432 4.124 3.206 8.367 6.311 12.533 9.593.12.097 1.315 2.032 1.727.95l-.15-.364c-.004 0-.182.108-.218.073zm-50.91 1.778c.284.621.608 1.318.608 1.318 9.945 10.124 21.527 19.061 31.498 27.775.99.86.83-.021.83-.021l-.39-.05s.543.2.198-.135c-.665-.649-1.588-1.577-1.588-1.577-3.275-3.147-6.51-6.323-9.775-9.458l-.377-.358c-3.608-3.428-7.245-6.834-10.837-10.272 0 0-3.718-3.417-6.08-5.531-.853-.768-2.047-1.854-2.047-1.854-.76-.316-1.331-.56-1.331-.56l-.862-.132c.052.282.1.569.153.855zm.358 39.071l.073.987c4.845 4.394 9.797 8.818 14.966 12.964l.19.156a347.987 347.987 0 005.554 4.246l3.216 2.248c1.077.711 2.157 1.418 3.237 2.12 0 0 1.359.848 2.317 1.424.674.406 1.217.795 2.217 1.183.078.028.927.666.905.016-.015-.55-1.01-.85-1.01-.854-.415-.246-.277-.184-.277-.184-1.968-1.615-3.9-3.262-5.85-4.903l-3.376-2.708c-7.181-5.287-14.13-10.888-21.023-16.631 0 0-.658-.096-1.139-.064zm32.194 25.186c.155-.077-.327.404-.028.019 0-.004.044-.028.028-.019zm22.749-.942c-.145-.087.175.291.219.452.097.385.164.775.21 1.167.15 1.184.139 2.421-.066 3.598-.527 3.049-3.106 4.857-5.923 5.685-5.611 1.663-11.398-.437-13.426-6.108-.459-1.286-.957-3.174-.441-4.536l19.427-.258z" fill="#fff"/><path fill-rule="evenodd" clip-rule="evenodd" d="M61.33 289.905l-.247.916-.65-.037.208-1.25c-.667.019-.339-.041-.605.33l-.044.789c.063.706.01.213.102.666 0 0 .365 2.292.065 4.064a32.6 32.6 0 01-.208.804c-.138.391 0 .067-.225.544-.037.074-.384.669-.392.686-.23.33-.017.056-.352.46-.047.054-.547.566-.559.579-.31.281-.102.108-.462.383l-.591.413c-.69.432-.802.456-1.157.618-3.402 1.523-7.573 1.494-10.698-.781 0 0-.368-.287-.35-.271-.658-.55-.355-.28-.838-.786-1.5-1.583-1.927-2.908-2.33-4.433 0 0-.137-.625-.136-.613-.116-.614-.072-.331-.11-.825l.156-1.414-.406-.873-.873.411c-1.725 4.644 2.927 10.458 7.515 11.775 6.674 1.912 15.192-1.905 13.828-10.768-.089-.583-.425-1.351-.425-1.351-.343-.103-.088.002-.216-.036zm-35.376 23.868c-.198-.075.431-.028.633.03.407.116.774.336 1.121.569 1.082.724 1.695 1.936 1.871 3.206.372 2.649-2.015 5.227-4.74 4.687-1.252-.25-2.056-1.294-2.394-2.47-.468-1.612-.292-3.553.796-4.894 1.65-2.025 4.413-1.547 5.643.546l-2.93-1.674z" fill="#fff"/><path fill-rule="evenodd" clip-rule="evenodd" d="M25.524 312.977c-4.5.401-5.752 10.541.437 9.988.28-.027.562-.079.834-.16 2.912-.851 4.38-4.659 2.646-7.525 0 0-.35-.734-.79-1.155-.84-.802-1.88-1.238-3.127-1.148zm.018 1.298c.294.191.829.08.46.1-.293.015 3.5.939 2.932 4.318-.333 1.972-2.56 3.845-4.58 2.709-2.536-1.423-1.892-6.719 1.162-7.138-.004.004.012-.001.026.011zm-7.682 25.387c-.281-.124.617.115.887.262a6.9 6.9 0 011.389 1.043c1.291 1.231 2.321 2.773 3.037 4.399 1.822 4.126.86 10.523-4.53 11.075-6.898.705-10.808-9.362-7.48-14.565 2.725-4.26 8.033-2.86 10.189.907l-3.492-3.121z" fill="#fff"/><path fill-rule="evenodd" clip-rule="evenodd" d="M18.803 339.113c-.632-.35-.721-.361-1.04-.474-1.7-.624-3.658-.542-5.252.336-.698.382-2.855 2.356-3.452 5.107-1.37 6.285 3.286 14.142 9.698 13.473 6.191-.65 8.289-10.056 3.136-16.19-.797-.948-1.744-1.794-2.896-2.252 0-.005-.002-.021-.194 0zm2.408 15.095l-.58.446c-.412.262-.108.087-.454.253l-.752.276c-.52.139-.122.05-.584.122 0 0-1.516.15-2.617-.236-5.15-1.814-7.373-10.637-2.594-14.087.044-.028.592-.333.62-.347 1.014-.441.563-.272 1.416-.329.08-.005.704.022.725.024.627.077.136-.034.925.2.06.017.72.281.742.288.508.248.031-.036.738.418.066.042.829.656.802.628 3.983 3.753 4.545 9.176 1.853 12.093-.29.318-.05.066-.24.251zm43.183-5.966c-.165-.01.307-.121.469-.157.34-.073.698-.054 1.04-.026.947.072 1.898.346 2.782.687 2.703 1.033 5.419 3.726 5.791 6.715.73 5.921-7.599 9.994-12.542 8.574-5.03-1.443-6.444-8.256-3.76-12.329 2.4-3.65 9.137-4.929 12.505-1.851l-6.285-1.613z" fill="#fff"/><path fill-rule="evenodd" clip-rule="evenodd" d="M64.222 347.745c-4.043.387-7.755 3.312-8.294 7.66-.627 5.111 3.24 10.476 9.014 10.022 5.725-.448 11.93-4.919 10.393-10.905-.514-2.013-1.874-3.765-3.54-5.063 0 0-2.733-1.498-4.523-1.75-1.035-.147-1.503-.095-3.05.036zm2.227.883s1.06.313 2.046.808c.612.304.171.056.777.445 1.177.763 2.085 1.607 2.853 2.607.189.249-.016-.049.306.43.022.028.325.534.33.546.205.377.023-.023.281.574.03.07.27.773.28.793.095.372.02.003.102.477l.065.676c.014.537.035.204-.04.78-.023.174-.215.91-.221.931-.15.418.008.071-.259.61-.037.078-.373.646-.385.664-.15.22.121-.134-.273.38-.229.296.044-.02-.379.449 0 0-.441.449-.644.631-2.21 1.918-5.187 2.997-8.069 2.698-.19-.017.098.023-.318-.042a42.267 42.267 0 01-.979-.243c-.469-.166-.136-.033-.552-.228l-.956-.593c-.425-.334.22.734-1.207-1.291a14.49 14.49 0 01-.3-.481c-.31-.555.041.187-.442-.908-.015-.028-.204-.541-.21-.554-.214-.645-.053.016-.267-1.012a146.37 146.37 0 01-.156-1.864c.018-.611-.04.04.066-.845.003-.026.096-.591.099-.608.125-.588-.055.059.216-.812.163-.52-.031-.02.285-.772.011-.026.256-.521.263-.538.328-.585-.03-.07.512-.778.035-.044.616-.671.628-.684.404-.375-.05-.001.61-.507.496-.377.32-.235.672-.451.287-.179.17-.1.174-.1a10.045 10.045 0 014.628-1.287c-.009-.004.204.032.464.099zm-.957 52.587c-.08-.083-.302-1.788-.444-2.098a11.329 11.329 0 00-3.445-4.263c-6.228-4.648-12.996.517-15.395 6.546l19.284-.185z" fill="#fff"/><path fill-rule="evenodd" clip-rule="evenodd" d="M56.879 393.769s.775.092.788.091c2.663.485 1.455.333 2.407.88 1.83 1.048 3.335 2.597 4.457 4.44.315.517-.012-.302.304.787.143.516.236 1.166.446 1.421l.39.046s-.064-2.699-1.045-4.32c-1.688-2.802-2.533-2.931-3.677-3.579-5.276-2.962-12.432.719-15.142 7.534l.216.789.642-.274c1.21-2.836 3.065-5.051 5.51-6.548.703-.429 1.584-.773 1.592-.777 3.032-1.12 1.491-.527 2.846-.502.13.004.127.004.266.012zm77.247-6.652c-.029-.115.899-1.601.967-1.845.454-1.611.527-3.368.122-4.993-1.234-4.909-7.531-6.45-9.709-1.343-1.577 3.698 1.718 11.635 6.649 9.857 1.179-.426 2.463-1.351 2.684-2.656.094-.552-.017-1.991.362-2.428l-1.075 3.408z" fill="#fff"/><path fill-rule="evenodd" clip-rule="evenodd" d="M129.469 374.893c-4.597.411-6.718 7.221-3.218 12.123 1.657 2.325 4.914 3.398 7.425 1.636.916-.645 1.647-1.613 1.707-2.803 0 0 1.128-2.478.914-5.04-.266-3.211-3.479-6.182-6.828-5.916zm.315 1.783c1.668-.005 3.218 1.075 4.027 2.573.307.572.098.149.271.604 0 0 .238.816.233.792.06.273-.004-.051.06.281.16.835.074.16.211.966.115.673.123 1.69.123 1.69-.43.751-.35 2.162-.35 2.162-1.003 2.391-.334 1.123-.76 1.538l-.508.403c-.338.224-.019.031-.388.232-.049.024-.682.301-.695.306-.312.109.006.021-.408.123l-.7.093c-.772.017-.306.011-.671-.053 0 0-1.064-.392-1.245-.515-.33-.222-.016.014-.38-.282 0 0-.783-.793-.76-.765-.375-.459-.013.063-.5-.691-.322-.487-.043.108-.573-1.059a9.914 9.914 0 01-.817-2.893l-.054-.824c0-.648-.074.026.058-.979.008-.072.193-.828.193-.828.145-.418.016-.085.19-.45.044-.091.46-.795.472-.809.235-.322.055-.112.362-.444 1.424-1.547 1.006-.805 1.408-.954-.008.001 1.15-.214 1.201-.217zm68.698 25.694c-.178.294.111-2.596.08-2.939-.057-.689-.24-1.363-.48-2.007-.728-1.936-2.114-3.257-4.142-3.733-4.581-1.083-9.799 2.854-9.485 7.642l14.027 1.037z" fill="#fff"/><path fill-rule="evenodd" clip-rule="evenodd" d="M191.707 392.71c-4.241.384-8.246 4.043-7.917 8.603l.709.681.622-.701c-.011-.235-.006.097-.008-.306 0 0 .064-.753.063-.77.09-.552-.067.068.173-.767.006-.026.18-.521.187-.534.215-.514-.065.029.337-.707.011-.022.288-.473.295-.486.258-.37-.133.147.352-.477 0 0 .5-.571.516-.581.395-.395-.094.032.591-.543.016-.013.452-.345.469-.354.462-.32-.104.019.682-.427.053-.029 1.906-.933 3.742-1.003.026.003.547.015.565.018.562.047-.033-.048.767.109.052.01.767.219.784.222.505.194.031-.044.724.339.044.023.608.414.621.426.396.327.008-.068.565.543.028.032.47.621.479.633.239.375-.065-.156.337.595.139.252-.001-.088.335.735.04.098.294.905.299.913.098.402.043.141.115.594.189 1.152-.191 1.891.036 2.927.103.481.441.316.559.127 0 0 .38-2.471.255-3.61-.34-3.202-2.928-5.928-6.174-6.206a6.605 6.605 0 00-1.08.007zm-12.08-59.426c-.235.074.438-.23.679-.28.502-.104.978-.026 1.458.127 1.396.455 2.489 1.543 2.861 2.982.789 3.058-1.409 7.347-4.975 6.997-.825-.081-1.621-.356-2.288-.855-2.732-2.035-1.82-6.979.84-8.709 1.907-1.235 4.886-.355 5.906 1.605l-4.481-1.867z" fill="#fff"/><path fill-rule="evenodd" clip-rule="evenodd" d="M179.602 332.458c-3.327.29-5.665 4.491-4.584 8.035 0 0 .447 1.299 1.33 2.136 3.239 3.049 10.075-.006 8.948-6.085-.084-.449.112-.159-.386-1.219-.656-1.403-2.043-2.43-3.576-2.666 0-.004-1.021-.256-1.732-.201zm3.019 1.554c.314.232.083.045.378.312l.463.524c.235.321.071.067.257.404l.274.642c.239.757.1.304.154.75l.024.806c-.023.422.016.053-.056.562l-.115.546c-.107.419.007.054-.17.553 0 0-.406.918-.34.771-.198.387-.013.068-.283.493l-.488.638c-.278.304-.037.069-.379.373l-.497.369c-1.042.645-.433.252-.837.375l-1.073.108c-.326-.029-.114-.009-.348-.044l-.589-.134c-.897-.282-.417-.141-.744-.321 0 0-.566-.425-.601-.461-.19-.193.037.065-.209-.23 0 0-.582-1.126-.566-1.068-.236-.771-.038-.073-.154-.621l-.094-1.044c.028-1.166.026-.628.128-1.118l.233-.806c.269-.707.101-.322.332-.778l.417-.683c.317-.42.036-.099.386-.459 0 0 .934-.691 1.139-.768.497-.18.168-.074.529-.148l1.177-.06c1.164.121.695.088 1.209.294.008 0 .46.235.443.223zm-41.081-23.027c-.362-.136.741.271 1.015.535.556.535 1.003 1.195 1.395 1.859 1.191 2.006 1.857 4.716.791 6.925-2.231 4.623-9.935 4.75-12.999.988-.736-.91-1.147-1.989-1.29-3.144-.324-2.559.868-5.731 3.223-6.991 3.8-2.036 10.328-.11 11.277 4.48l-3.412-4.652z" fill="#fff"/><path fill-rule="evenodd" clip-rule="evenodd" d="M136.277 309.435c-5.306.428-9.248 7.475-5.476 12.373 3.63 4.717 13.412 4.028 14.918-2.169.555-2.294-.313-4.893-1.01-6.487 0 0-.275-.402-.498-.665-1.952-2.263-4.854-3.262-7.934-3.052zm8.16 6.366s.159.826.16.839c.099.796.072.445.065 1.055-.006.61.009.188-.044.612 0 0-.134.698-.127.681-.226.843-.011.282-.4 1.014-.038.07-.493.755-.505.765-.213.266.022.011-.336.383a31.96 31.96 0 01-.676.582c-.422.306-.083.082-.517.333 0 0-.667.334-.635.315-.568.243.02.04-.8.288-.025.005-.592.148-.608.149-.577.113.219.006-.866.132-.058.008-1.488.132-2.827-.159-.025-.007-.59-.159-.611-.161-.661-.209.061.101-.992-.381-.026-.015-.509-.265-.527-.276-.441-.261.41.418-.822-.556-1.375-1.086-2.012-2.919-1.887-4.668l.15-.98c.137-.602-.002-.089.179-.659l.385-.925c.265-.518.103-.221.332-.581 0 0 .429-.579.445-.592.328-.375.091-.145.52-.518.172-.146.843-.547.794-.523.403-.199.13-.076.486-.221.065-.029.819-.264.84-.269.604-.141-.041-.048.939-.159.025-.001.553-.036.57-.033.558-.011-.133-.042.803.015.785.049 1.945.36 1.966.366.546.175-.084-.065.762.278.022.007.516.24.529.243.505.265-.025-.057.686.396l.459.328c.483.384-.011-.101.697.639.032.031.473.545.473.545.624.602.206.125.612.678l.272.806.056.219zm61.016-6.825c.364-.028-.636.369-.987.468-.747.209-1.531.298-2.31.337-2.301.104-4.73-.783-6.207-2.598-1.797-2.211-2.768-5.611-2.103-8.42.493-2.088 2.685-4.047 4.967-3.731l6.64 13.944z" fill="#fff"/><path fill-rule="evenodd" clip-rule="evenodd" d="M193.141 297.767c-1.955 4.659 1.101 11.39 6.424 12.629 1.963.455 4.113.23 5.907-.61.771-1.388.571-.786.284-1.061 0 0-.193-.118-.317-.026 0 0-.871-.01-.85-.016-.536.17.068.017-.575.143l-.925.124c-1.359.106-.838.047-1.263.032 0 0-.753-.068-.77-.071-.556-.085.054.055-.779-.155-.522-.129-.006.034-.746-.22-.026-.011-.514-.201-.527-.209-.589-.272-.056.037-.853-.457-.053-.03-.721-.537-.739-.556-.487-.439-.092.006-.654-.68a42.422 42.422 0 01-.365-.502c-.377-.559-.237-.35-.548-.926a10.245 10.245 0 01-1.136-3.465c-.707-5.203-.178-2.46.432-3.664l.578-.862c.567-.651.254-.298.581-.564l.604-.405c.975-.514.386-.21.791-.312 0 0 1.222-.589 1.031-.614.812-.508.075-.585.075-.585-1.094-1.051-2.016-.431-2.91.039-.017.001-2.045 1.366-2.75 2.993zm12.34 11.514l-.3-.279c0-.004.367.274.3.279z" fill="#fff"/></svg>