<svg width="78" height="79" viewBox="0 0 78 79" fill="none" xmlns="http://www.w3.org/2000/svg">
<g filter="url(#filter0_f)">
<ellipse cx="38.7706" cy="39.6553" rx="18.42" ry="18.8396" fill="url(#paint0_linear)"/>
</g>
<path d="M42.7762 34.5149C42.7762 35.5852 42.452 36.4954 41.8035 37.2454C41.1551 37.9954 40.2449 38.511 39.0731 38.7922V38.8625C40.4559 39.0344 41.5028 39.4563 42.2137 40.1282C42.9246 40.7922 43.2801 41.6907 43.2801 42.8235C43.2801 44.4719 42.6824 45.7571 41.4871 46.679C40.2918 47.593 38.5848 48.05 36.366 48.05C34.5067 48.05 32.8582 47.7415 31.4207 47.1243V44.0422C32.0848 44.3782 32.8153 44.6516 33.6121 44.8625C34.409 45.0735 35.1981 45.179 35.9793 45.179C37.1746 45.179 38.0574 44.9758 38.6278 44.5696C39.1981 44.1633 39.4832 43.511 39.4832 42.6125C39.4832 41.8079 39.1551 41.2375 38.4988 40.9016C37.8426 40.5657 36.7957 40.3977 35.3582 40.3977H34.0574V37.6204H35.3817C36.7098 37.6204 37.6785 37.4485 38.2879 37.1047C38.9051 36.7532 39.2137 36.1555 39.2137 35.3118C39.2137 34.0149 38.4012 33.3665 36.7762 33.3665C36.2137 33.3665 35.6395 33.4602 35.0535 33.6477C34.4754 33.8352 33.8309 34.1594 33.1199 34.6204L31.4442 32.1243C33.0067 30.9993 34.8699 30.4368 37.034 30.4368C38.8074 30.4368 40.2059 30.7961 41.2293 31.5149C42.2606 32.2336 42.7762 33.2336 42.7762 34.5149Z" fill="#000B70"/>
<defs>
<filter id="filter0_f" x="0.350586" y="0.815674" width="76.84" height="77.6791" filterUnits="userSpaceOnUse" color-interpolation-filters="sRGB">
<feFlood flood-opacity="0" result="BackgroundImageFix"/>
<feBlend mode="normal" in="SourceGraphic" in2="BackgroundImageFix" result="shape"/>
<feGaussianBlur stdDeviation="10" result="effect1_foregroundBlur"/>
</filter>
<linearGradient id="paint0_linear" x1="20.3506" y1="53.9113" x2="57.7131" y2="28.9962" gradientUnits="userSpaceOnUse">
<stop stop-color="#05C02E"/>
<stop offset="1" stop-color="#FFF504"/>
</linearGradient>
</defs>
</svg>
