<svg width="77" height="79" viewBox="0 0 77 79" fill="none" xmlns="http://www.w3.org/2000/svg">
<g filter="url(#filter0_f)">
<ellipse cx="38.5606" cy="39.216" rx="18.42" ry="18.8396" fill="url(#paint0_linear)"/>
</g>
<path d="M42.5662 34.0757C42.5662 35.146 42.242 36.0562 41.5936 36.8062C40.9451 37.5562 40.035 38.0718 38.8631 38.353V38.4233C40.2459 38.5952 41.2928 39.0171 42.0037 39.689C42.7147 40.353 43.0701 41.2515 43.0701 42.3843C43.0701 44.0327 42.4725 45.3179 41.2772 46.2397C40.0819 47.1538 38.3748 47.6108 36.1561 47.6108C34.2967 47.6108 32.6483 47.3022 31.2108 46.6851V43.603C31.8748 43.939 32.6053 44.2124 33.4022 44.4233C34.199 44.6343 34.9881 44.7397 35.7694 44.7397C36.9647 44.7397 37.8475 44.5366 38.4178 44.1304C38.9881 43.7241 39.2733 43.0718 39.2733 42.1733C39.2733 41.3687 38.9451 40.7983 38.2889 40.4624C37.6326 40.1265 36.5858 39.9585 35.1483 39.9585H33.8475V37.1812H35.1717C36.4998 37.1812 37.4686 37.0093 38.0779 36.6655C38.6951 36.314 39.0037 35.7163 39.0037 34.8726C39.0037 33.5757 38.1912 32.9272 36.5662 32.9272C36.0037 32.9272 35.4295 33.021 34.8436 33.2085C34.2654 33.396 33.6209 33.7202 32.91 34.1812L31.2342 31.6851C32.7967 30.5601 34.66 29.9976 36.824 29.9976C38.5975 29.9976 39.9959 30.3569 41.0194 31.0757C42.0506 31.7944 42.5662 32.7944 42.5662 34.0757Z" fill="#F4F4F4"/>
<defs>
<filter id="filter0_f" x="0.140625" y="0.376465" width="76.84" height="77.6791" filterUnits="userSpaceOnUse" color-interpolation-filters="sRGB">
<feFlood flood-opacity="0" result="BackgroundImageFix"/>
<feBlend mode="normal" in="SourceGraphic" in2="BackgroundImageFix" result="shape"/>
<feGaussianBlur stdDeviation="10" result="effect1_foregroundBlur"/>
</filter>
<linearGradient id="paint0_linear" x1="20.1406" y1="53.4721" x2="57.5031" y2="28.557" gradientUnits="userSpaceOnUse">
<stop stop-color="#C1C1C1"/>
<stop offset="1" stop-color="#FEFEFD"/>
</linearGradient>
</defs>
</svg>
