<svg width="78" height="79" viewBox="0 0 78 79" fill="none" xmlns="http://www.w3.org/2000/svg">
<g filter="url(#filter0_f)">
<ellipse cx="38.7198" cy="39.216" rx="18.42" ry="18.8396" fill="url(#paint0_linear)"/>
</g>
<path d="M31.2996 40.0991C31.2996 36.7085 32.0145 34.1851 33.4442 32.5288C34.8817 30.8726 37.0301 30.0444 39.8895 30.0444C40.866 30.0444 41.6317 30.103 42.1863 30.2202V33.1147C41.491 32.9585 40.8035 32.8804 40.1238 32.8804C38.8817 32.8804 37.866 33.0679 37.077 33.4429C36.2957 33.8179 35.7098 34.3726 35.3192 35.1069C34.9285 35.8413 34.6981 36.8843 34.6278 38.2358H34.7801C35.5535 36.9077 36.7918 36.2437 38.4949 36.2437C40.0262 36.2437 41.2254 36.7241 42.0926 37.6851C42.9598 38.646 43.3934 39.9741 43.3934 41.6694C43.3934 43.4976 42.8778 44.9468 41.8465 46.0171C40.8153 47.0796 39.3856 47.6108 37.5574 47.6108C36.2918 47.6108 35.1863 47.3179 34.241 46.7319C33.3035 46.146 32.577 45.2905 32.0613 44.1655C31.5535 43.0405 31.2996 41.6851 31.2996 40.0991ZM37.4871 44.7163C38.2606 44.7163 38.8543 44.4585 39.2684 43.9429C39.6824 43.4194 39.8895 42.6772 39.8895 41.7163C39.8895 40.8804 39.6942 40.2241 39.3035 39.7476C38.9207 39.2632 38.3387 39.021 37.5574 39.021C36.8231 39.021 36.1942 39.2593 35.6707 39.7358C35.1551 40.2124 34.8973 40.7671 34.8973 41.3999C34.8973 42.3296 35.1395 43.1147 35.6238 43.7554C36.116 44.396 36.7371 44.7163 37.4871 44.7163Z" fill="#F4F4F4"/>
<defs>
<filter id="filter0_f" x="0.299805" y="0.376465" width="76.84" height="77.6791" filterUnits="userSpaceOnUse" color-interpolation-filters="sRGB">
<feFlood flood-opacity="0" result="BackgroundImageFix"/>
<feBlend mode="normal" in="SourceGraphic" in2="BackgroundImageFix" result="shape"/>
<feGaussianBlur stdDeviation="10" result="effect1_foregroundBlur"/>
</filter>
<linearGradient id="paint0_linear" x1="20.2998" y1="53.4721" x2="57.6623" y2="28.557" gradientUnits="userSpaceOnUse">
<stop stop-color="#C1C1C1"/>
<stop offset="1" stop-color="#FEFEFD"/>
</linearGradient>
</defs>
</svg>
