<svg width="78" height="79" viewBox="0 0 78 79" fill="none" xmlns="http://www.w3.org/2000/svg">
<g filter="url(#filter0_f)">
<ellipse cx="39.1593" cy="39.216" rx="18.42" ry="18.8396" fill="url(#paint0_linear)"/>
</g>
<path d="M37.7625 30.021C39.4031 30.021 40.7235 30.396 41.7235 31.146C42.7313 31.8882 43.2352 32.8921 43.2352 34.1577C43.2352 35.0327 42.993 35.814 42.5086 36.5015C42.0242 37.1812 41.243 37.7905 40.1649 38.3296C41.4461 39.0171 42.3641 39.7358 42.9188 40.4858C43.4813 41.228 43.7625 42.0444 43.7625 42.9351C43.7625 44.3413 43.2117 45.4741 42.1102 46.3335C41.0086 47.1851 39.5594 47.6108 37.7625 47.6108C35.8875 47.6108 34.4149 47.2124 33.3446 46.4155C32.2742 45.6187 31.7391 44.4897 31.7391 43.0288C31.7391 42.0522 31.9969 41.1851 32.5125 40.4272C33.036 39.6694 33.8719 39.0015 35.0203 38.4233C34.0438 37.8062 33.3406 37.146 32.911 36.4429C32.4813 35.7397 32.2664 34.9702 32.2664 34.1343C32.2664 32.9077 32.7742 31.9155 33.7899 31.1577C34.8055 30.3999 36.1297 30.021 37.7625 30.021ZM35.0906 42.8179C35.0906 43.4897 35.325 44.0132 35.7938 44.3882C36.2625 44.7632 36.9031 44.9507 37.7156 44.9507C38.6141 44.9507 39.286 44.7593 39.7313 44.3765C40.1766 43.9858 40.3992 43.4741 40.3992 42.8413C40.3992 42.3179 40.1766 41.8296 39.7313 41.3765C39.2938 40.9155 38.5789 40.4272 37.5867 39.9116C35.9227 40.6772 35.0906 41.646 35.0906 42.8179ZM37.7391 32.6694C37.1219 32.6694 36.6219 32.8296 36.2391 33.1499C35.8641 33.4624 35.6766 33.8843 35.6766 34.4155C35.6766 34.8843 35.825 35.3062 36.1219 35.6812C36.4266 36.0483 36.9735 36.4272 37.7625 36.8179C38.5281 36.4585 39.0633 36.0913 39.368 35.7163C39.6727 35.3413 39.825 34.9077 39.825 34.4155C39.825 33.8765 39.6297 33.4507 39.2391 33.1382C38.8485 32.8257 38.3485 32.6694 37.7391 32.6694Z" fill="#F4F4F4"/>
<defs>
<filter id="filter0_f" x="0.739258" y="0.376465" width="76.84" height="77.6791" filterUnits="userSpaceOnUse" color-interpolation-filters="sRGB">
<feFlood flood-opacity="0" result="BackgroundImageFix"/>
<feBlend mode="normal" in="SourceGraphic" in2="BackgroundImageFix" result="shape"/>
<feGaussianBlur stdDeviation="10" result="effect1_foregroundBlur"/>
</filter>
<linearGradient id="paint0_linear" x1="20.7393" y1="53.4721" x2="58.1017" y2="28.557" gradientUnits="userSpaceOnUse">
<stop stop-color="#C1C1C1"/>
<stop offset="1" stop-color="#FEFEFD"/>
</linearGradient>
</defs>
</svg>
