<svg width="78" height="79" viewBox="0 0 78 79" fill="none" xmlns="http://www.w3.org/2000/svg">
<g filter="url(#filter0_f)">
<ellipse cx="38.879" cy="39.216" rx="18.42" ry="18.8396" fill="url(#paint0_linear)"/>
</g>
<path d="M43.4822 37.5562C43.4822 40.9312 42.7713 43.4507 41.3494 45.1147C39.9276 46.7788 37.7752 47.6108 34.8924 47.6108C33.8768 47.6108 33.1072 47.5562 32.5838 47.4468V44.5405C33.2401 44.7046 33.9276 44.7866 34.6463 44.7866C35.8572 44.7866 36.8533 44.6108 37.6346 44.2593C38.4158 43.8999 39.0135 43.3413 39.4276 42.5835C39.8416 41.8179 40.0799 40.7671 40.1424 39.4312H40.0018C39.5487 40.1655 39.0252 40.6812 38.4315 40.978C37.8377 41.2749 37.0955 41.4233 36.2049 41.4233C34.7127 41.4233 33.5369 40.9468 32.6776 39.9937C31.8182 39.0327 31.3885 37.7007 31.3885 35.9976C31.3885 34.1616 31.908 32.7124 32.9471 31.6499C33.994 30.5796 35.4158 30.0444 37.2127 30.0444C38.4783 30.0444 39.5838 30.3413 40.5291 30.9351C41.4822 31.5288 42.2127 32.3921 42.7205 33.5249C43.2283 34.6499 43.4822 35.9937 43.4822 37.5562ZM37.283 32.9507C36.533 32.9507 35.9471 33.2085 35.5252 33.7241C35.1033 34.2397 34.8924 34.9819 34.8924 35.9507C34.8924 36.7788 35.0838 37.4351 35.4666 37.9194C35.8494 38.4038 36.4315 38.646 37.2127 38.646C37.9471 38.646 38.576 38.4077 39.0994 37.9312C39.6229 37.4468 39.8846 36.8921 39.8846 36.2671C39.8846 35.3374 39.6385 34.5522 39.1463 33.9116C38.6619 33.271 38.0408 32.9507 37.283 32.9507Z" fill="#000B70"/>
<defs>
<filter id="filter0_f" x="0.458984" y="0.376465" width="76.84" height="77.6791" filterUnits="userSpaceOnUse" color-interpolation-filters="sRGB">
<feFlood flood-opacity="0" result="BackgroundImageFix"/>
<feBlend mode="normal" in="SourceGraphic" in2="BackgroundImageFix" result="shape"/>
<feGaussianBlur stdDeviation="10" result="effect1_foregroundBlur"/>
</filter>
<linearGradient id="paint0_linear" x1="20.459" y1="53.4721" x2="57.8215" y2="28.557" gradientUnits="userSpaceOnUse">
<stop stop-color="#05C02E"/>
<stop offset="1" stop-color="#FFF504"/>
</linearGradient>
</defs>
</svg>
