<svg width="142" height="150" fill="none" xmlns="http://www.w3.org/2000/svg"><path d="M93.475 141.472l1.008-.389-1.165-3.023 3.694-1.424 1.166 3.023 1.008-.389-2.59-6.718-1.008.389 1.036 2.687-3.695 1.424-1.036-2.687-1.008.389 2.59 6.718zm-14.776-1.133c-.159-1.068.75-2.296 1.997-2.481 1.157-.173 1.77.282 1.876.994.106.712-.348 1.326-1.683 1.525-1.069.159-2.163.14-2.163.14l-.027-.178zm2.648 4.337c1.78-.265 2.383-1.72 2.383-1.72l-.894-.503s-.58.996-1.648 1.155a1.998 1.998 0 01-2.25-1.667l-.067-.445s.93.134 2.177-.051c1.958-.292 2.867-1.519 2.682-2.765-.186-1.247-1.413-2.156-3.016-1.917-1.602.239-2.191 1.782-2.191 1.782l-.089.013-.159-1.068-1.068.159.663 4.451a3.034 3.034 0 003.477 2.576zm-13.066-4.497l-.351 4.847 1.077.078.533-7.361-.179-.013-5.122 4.683-.09-.007.351-4.847-1.077-.078-.533 7.361.18.013 5.121-4.683.09.007zm-2.713 7.564c.628.045 1.211.719 1.159 1.437l.897.065c.098-1.346-.735-2.309-1.991-2.4-1.257-.091-2.22.742-2.317 2.088l.897.065c.052-.718.726-1.301 1.355-1.255zm-11.109-5.714l-2.334-.678 1.709-5.877-1.038-.301-1.708 5.877-2.333-.679-.302 1.037 5.704 1.658.302-1.037zm-12.681-8.702l-2.302 4.281.951.511 3.496-6.5-.159-.085-6.588 2.18-.08-.043 2.302-4.28-.95-.511-3.496 6.499.159.086 6.588-2.18.079.042zm-17.276-15.889l-2.097-2.469c-1.05-1.235-2.445-1.349-3.2-.708-1.165.991-.322 2.4-.322 2.4l-.069.059s-1.032-.659-1.923.098c-.686.583-.79 1.852.2 3.018l1.924 2.263 5.487-4.661zm-1.522-.124l-1.646 1.398-1.399-1.646c-.582-.686-.52-1.447-.109-1.796.412-.35 1.173-.288 1.755.398l1.399 1.646zm-2.47 2.098l-1.371 1.165-1.224-1.44c-.524-.618-.473-1.252-.13-1.543.343-.292.977-.24 1.502.377l1.224 1.441zm-8.57-15.245c.95-.512 2.414-.072 3.01 1.037.555 1.031.335 1.762-.299 2.103-.634.341-1.365.122-2.005-1.067a15.047 15.047 0 01-.865-1.988l.159-.085zm-3.183 3.961c.852 1.585 2.425 1.659 2.425 1.659l.171-1.012s-1.134-.208-1.645-1.159a1.996 1.996 0 01.805-2.681l.396-.214s.19.921.786 2.03c.938 1.744 2.401 2.183 3.51 1.586 1.11-.597 1.55-2.059.782-3.486s-2.42-1.458-2.42-1.458l-.042-.079.951-.512-.512-.951-3.963 2.132a3.035 3.035 0 00-1.244 4.145zM3.904 95.652l.302 1.037 6.913-2.011-.302-1.037-6.913 2.011zm-1.232-4.234l.352 1.209 3.963 1.379 2.875-3.649-.352-1.21-2.875 3.649-3.963-1.378zm2.407-13.987c1.077-.078 2.232.921 2.324 2.178.084 1.167-.415 1.744-1.133 1.796-.718.053-1.296-.447-1.394-1.793a15.117 15.117 0 01.023-2.168l.18-.013zM.554 79.745c.13 1.796 1.536 2.506 1.536 2.506l.57-.854s-.95-.653-1.028-1.73a1.997 1.997 0 011.83-2.118l.45-.033s-.204.917-.113 2.174c.143 1.975 1.299 2.974 2.555 2.882 1.257-.091 2.256-1.246 2.139-2.862-.118-1.616-1.613-2.319-1.613-2.319l-.006-.09 1.077-.078-.078-1.078-4.488.327a3.034 3.034 0 00-2.83 3.273zm1.402-18.39l-.16 1.068 3.206.477-.583 3.917-3.204-.477-.16 1.068 7.122 1.059.16-1.068-2.85-.424.583-3.916 2.849.423.158-1.068-7.121-1.059zm9.768-10.177c-.485 1.26-2.114 1.983-3.626 1.4-1.512-.582-2.234-2.21-1.75-3.47.55-1.428 2.07-1.615 2.07-1.615l-.18-1.034s-2.088.16-2.897 2.26c-.712 1.848.321 4.175 2.337 4.951 2.015.777 4.342-.256 5.054-2.104.873-2.267-.735-3.851-.735-3.851l-.827.645s1.169 1.222.554 2.818zm3.777-11.106l-4.044-2.695-.599.9 6.141 4.092.1-.15-1.549-6.764.05-.075 4.044 2.695.6-.899-6.142-4.093-.1.15 1.55 6.765-.05.075zm14.785-13.069c1.47-1.326 1.587-3.614.02-5.352-1.568-1.737-3.856-1.854-5.326-.528-1.403 1.267-1.508 3.3-.381 4.951l-1.003.904-2.05-2.271-.802.723 4.824 5.346.802-.724-2.05-2.272 1.002-.904c1.527 1.289 3.56 1.393 4.964.127zm-.724-.802c-.948.857-2.587.76-3.733-.51s-1.06-2.922-.125-3.766c.935-.844 2.587-.76 3.733.51s1.06 2.922.125 3.766zm21.48-18.937l-1.02.352 1.056 3.063-3.744 1.292-1.056-3.063-1.021.352 2.348 6.806 1.02-.352-.938-2.722L51.43 11.7l.94 2.723 1.02-.352-2.348-6.807zm14.726 1.66c.121 1.074-.831 2.268-2.083 2.409-1.163.13-1.76-.346-1.84-1.061-.081-.716.395-1.313 1.737-1.464 1.073-.12 2.166-.062 2.166-.062l.02.178zm-2.491-4.429c-1.788.202-2.442 1.634-2.442 1.634l.875.535s.615-.975 1.688-1.095a1.998 1.998 0 012.189 1.746l.051.447s-.925-.168-2.177-.027c-1.968.222-2.92 1.416-2.779 2.668.141 1.252 1.335 2.204 2.945 2.023 1.609-.181 2.253-1.703 2.253-1.703l.09-.01.121 1.073 1.073-.12-.504-4.472a3.034 3.034 0 00-3.383-2.699zm12.897 4.962l.524-4.832-1.073-.116-.796 7.337.179.019 5.285-4.496.09.01-.524 4.831 1.073.117.796-7.337-.179-.02-5.285 4.496-.09-.01zm2.982-7.462c-.626-.068-1.184-.762-1.107-1.478L77.154.42c-.145 1.342.653 2.334 1.905 2.47 1.253.135 2.245-.662 2.39-2.004l-.895-.098c-.077.716-.771 1.275-1.398 1.207zm10.898 6.107l2.307.761-1.917 5.812 1.026.338 1.917-5.812 2.308.761.338-1.025-5.641-1.86-.338 1.025zm12.361 9.149l2.454-4.195-.933-.545-3.725 6.37.156.091 6.661-1.943.078.046-2.453 4.195.932.545 3.725-6.37-.155-.091-6.662 1.943-.078-.046zm16.697 16.497l2.008 2.542c1.004 1.272 2.395 1.435 3.172.822 1.2-.949.408-2.387.408-2.387l.071-.056s1.008.695 1.926-.03c.706-.558.855-1.822-.094-3.023l-1.84-2.33-5.651 4.462zm1.517.178l1.695-1.339 1.339 1.695c.558.707.469 1.465.045 1.8-.424.334-1.182.245-1.74-.461l-1.339-1.695zm2.543-2.008l1.413-1.116 1.171 1.484c.502.635.428 1.267.074 1.546-.353.28-.985.205-1.487-.43l-1.171-1.484zm8.02 15.542c-.969.477-2.415-.015-2.972-1.145-.517-1.05-.271-1.772.375-2.09.646-.319 1.369-.073 1.965 1.138.478.968.794 2.017.794 2.017l-.162.08zm3.323-3.846c-.796-1.614-2.365-1.744-2.365-1.744l-.207 1.005s1.126.248 1.603 1.217a1.997 1.997 0 01-.901 2.651l-.403.2s-.156-.927-.713-2.058c-.875-1.776-2.321-2.267-3.452-1.71-1.13.557-1.621 2.003-.905 3.456.716 1.453 2.366 1.543 2.366 1.543l.04.081-.969.477.477.97 4.037-1.99a3.035 3.035 0 001.392-4.098zm4.404 12.642l-.265-1.047-6.981 1.762.265 1.048 6.981-1.763zm1.079 4.276l-.308-1.222-3.911-1.519-3.004 3.544.308 1.221 3.004-3.543 3.911 1.519zm-2.905 13.891c-1.079.04-2.198-1-2.244-2.259-.043-1.169.477-1.729 1.196-1.755.72-.027 1.279.493 1.329 1.842a15.123 15.123 0 01-.101 2.165l-.18.007zm4.604-2.15c-.066-1.799-1.445-2.559-1.445-2.559l-.599.832s.925.687.965 1.766a1.998 1.998 0 01-1.906 2.052l-.449.016s.236-.909.19-2.168c-.073-1.979-1.192-3.019-2.451-2.972-1.259.046-2.299 1.165-2.239 2.784.059 1.62 1.528 2.375 1.528 2.375l.004.09-1.08.04.04 1.08 4.497-.166a3.035 3.035 0 002.945-3.17zm-2.057 18.328l.197-1.062-3.186-.591.722-3.893 3.185.59.197-1.061-7.079-1.313-.197 1.062 2.832.525-.722 3.894-2.832-.526-.197 1.062 7.08 1.313zm-10.126 9.821c.53-1.241 2.184-1.906 3.673-1.27 1.49.636 2.155 2.29 1.625 3.532-.601 1.407-2.125 1.539-2.125 1.539l.143 1.04s2.091-.086 2.975-2.155c.777-1.821-.172-4.184-2.158-5.032-1.987-.848-4.349.101-5.126 1.922-.954 2.235.596 3.876.596 3.876l.85-.616s-1.124-1.263-.453-2.836zm-4.172 10.964l3.946 2.838.63-.877-5.991-4.31-.105.146 1.306 6.816-.052.073-3.946-2.838-.63.877 5.991 4.309.105-.146-1.306-6.815.052-.073zM110.1 123.918c-1.517 1.273-1.716 3.556-.211 5.348 1.504 1.792 3.787 1.991 5.303.718 1.448-1.215 1.625-3.244.558-4.934l1.034-.868 1.968 2.343.827-.694-4.63-5.514-.827.694 1.968 2.344-1.034.868c-1.48-1.343-3.509-1.52-4.956-.305zm.694.827c.979-.821 2.613-.666 3.713.644 1.099 1.309.956 2.958-.009 3.768-.965.81-2.614.666-3.713-.644-1.1-1.309-.956-2.958.009-3.768z" fill="#fff"/></svg>