<svg width="44" height="34" fill="none" xmlns="http://www.w3.org/2000/svg"><path d="M4.414.092a.855.855 0 00-.457.242l-.86.86a.86.86 0 00-.053 1.156l.671.806v9.836c0 .474.387.86.86.86.487 0 .86.373.86.86s-.372.86-.86.86a.845.845 0 01-.86-.86h-1.72a2.594 2.594 0 002.58 2.58 2.594 2.594 0 002.58-2.58c0-1.082-.766-1.85-1.72-2.23v-7.23l9.46 11.503v3.977H.275v6.02a2.594 2.594 0 002.58 2.58h3.521a5.159 5.159 0 005.08 4.3 5.158 5.158 0 005.079-4.3h12.201a5.159 5.159 0 005.08 4.3 5.158 5.158 0 005.079-4.3h1.8a2.594 2.594 0 002.58-2.58v-8.277c0-1.969-1.37-3.71-1.37-3.71h-.027l-3.548-4.73v-.026l-.026-.027c-.793-.957-1.983-2.15-3.629-2.15h-6.88a2.594 2.594 0 00-2.58 2.58v10.32h-1.72v-4.3a.848.848 0 00-.295-.645L5.14.307a.855.855 0 00-.645-.215h-.08zm1.774 3.386l15.587 13.357v3.897h-5.16v-4.3a.865.865 0 00-.188-.537L6.187 3.478zm21.607 6.074h6.88c.676 0 1.63.726 2.285 1.505.007.01.02.017.027.027l.134.188h-4.166c-1.37 0-2.58 1.109-2.58 2.58v3.44c0 .716.323 1.344.78 1.8.457.458 1.085.78 1.8.78h8.6v6.88c0 .477-.383.86-.86.86h-1.8a5.159 5.159 0 00-5.08-4.3 5.159 5.159 0 00-5.079 4.3h-1.8v-17.2c0-.477.382-.86.86-.86zm5.16 3.44h5.456l2.096 2.795s.78 1.334.94 2.365h-8.492c-.144 0-.376-.107-.564-.296-.188-.188-.296-.42-.296-.564v-3.44c0-.433.511-.86.86-.86zm-30.96 9.46h23.22v5.16h-8.68a5.159 5.159 0 00-5.08-4.3 5.159 5.159 0 00-5.079 4.3h-3.52a.862.862 0 01-.86-.86v-4.3zm9.46 2.58a3.425 3.425 0 013.44 3.44 3.425 3.425 0 01-3.44 3.44 3.425 3.425 0 01-3.44-3.44 3.425 3.425 0 013.44-3.44zm22.36 0a3.425 3.425 0 013.44 3.44 3.425 3.425 0 01-3.44 3.44 3.425 3.425 0 01-3.44-3.44 3.425 3.425 0 013.44-3.44z" fill="#000"/></svg>