<svg width="29" height="35" fill="none" xmlns="http://www.w3.org/2000/svg"><path d="M8.115.075a3.715 3.715 0 00-3.7 3.7H2.126c-.856 0-1.555.784-1.387 1.619v.07l.023.069c.985 2.532 3.09 4.66 3.653 5.203v2.66H2.057c-.428 0-.85.181-1.11.508-.26.327-.353.827-.185 1.249.985 2.532 3.09 4.66 3.653 5.203v2.66H2.057c-.428 0-.85.181-1.11.508-.26.327-.353.827-.185 1.249.985 2.532 3.09 4.66 3.653 5.203v.44c0 2.031 1.668 3.7 3.7 3.7h13.32c2.033 0 3.7-1.669 3.7-3.7v-.44c.564-.544 2.668-2.671 3.654-5.203a1.297 1.297 0 00-.185-1.25c-.26-.326-.682-.508-1.11-.508h-2.359v-2.66c.564-.543 2.668-2.67 3.654-5.202a1.297 1.297 0 00-.185-1.25c-.26-.326-.682-.508-1.11-.508h-2.359v-2.66c.564-.543 2.668-2.67 3.654-5.202a1.296 1.296 0 00-.185-1.25c-.26-.326-.682-.508-1.11-.508h-2.359c0-2.032-1.668-3.7-3.7-3.7H8.115zm0 1.48h13.32a2.22 2.22 0 012.22 2.22v26.64a2.22 2.22 0 01-2.22 2.22H8.115a2.22 2.22 0 01-2.22-2.22V3.775a2.22 2.22 0 012.22-2.22zm6.66 2.22a3.71 3.71 0 00-3.7 3.7 3.71 3.71 0 003.7 3.7 3.71 3.71 0 003.7-3.7 3.71 3.71 0 00-3.7-3.7zM2.311 5.255h2.104v3.238c-.72-.88-1.58-2.053-2.104-3.238zm12.464 0a2.21 2.21 0 012.22 2.22 2.21 2.21 0 01-2.22 2.22 2.21 2.21 0 01-2.22-2.22 2.21 2.21 0 012.22-2.22zm10.36 0h2.105c-.523 1.185-1.385 2.359-2.105 3.238V5.255zm-10.36 8.14a3.71 3.71 0 00-3.7 3.7 3.71 3.71 0 003.7 3.7 3.71 3.71 0 003.7-3.7 3.71 3.71 0 00-3.7-3.7zm-12.464 1.48h2.104v3.238c-.72-.88-1.58-2.053-2.104-3.238zm12.464 0a2.21 2.21 0 012.22 2.22 2.21 2.21 0 01-2.22 2.22 2.21 2.21 0 01-2.22-2.22 2.21 2.21 0 012.22-2.22zm10.36 0h2.105c-.523 1.185-1.385 2.359-2.105 3.238v-3.238zm-10.36 8.14a3.71 3.71 0 00-3.7 3.7 3.71 3.71 0 003.7 3.7 3.71 3.71 0 003.7-3.7 3.71 3.71 0 00-3.7-3.7zm-12.464 1.48h2.104v3.238c-.72-.88-1.58-2.053-2.104-3.238zm12.464 0a2.21 2.21 0 012.22 2.22 2.21 2.21 0 01-2.22 2.22 2.21 2.21 0 01-2.22-2.22 2.21 2.21 0 012.22-2.22zm10.36 0h2.105c-.523 1.185-1.385 2.359-2.105 3.238v-3.238z" fill="#000"/></svg>