<svg width="134" height="51" fill="none" xmlns="http://www.w3.org/2000/svg"><path d="M63.722 17.316h-2.16v3.72h-3.96v-14h6.4c1.266 0 2.366.214 3.3.64.933.414 1.653 1.014 2.16 1.8.506.774.76 1.687.76 2.74 0 1.014-.24 1.9-.72 2.66-.467.747-1.14 1.334-2.02 1.76l3.02 4.4h-4.24l-2.54-3.72zm2.5-5.1c0-.653-.207-1.16-.62-1.52-.414-.36-1.027-.54-1.84-.54h-2.2v4.1h2.2c.813 0 1.426-.173 1.84-.52.413-.36.62-.866.62-1.52zm15.564 6.1h-5.92l-1.1 2.72h-4.04l6.18-14h3.9l6.2 14h-4.12l-1.1-2.72zm-1.16-2.92l-1.8-4.48-1.8 4.48h3.6zm7.503-8.36h6.62c1.533 0 2.893.287 4.08.86 1.187.574 2.107 1.387 2.76 2.44.653 1.054.98 2.287.98 3.7 0 1.414-.327 2.647-.98 3.7-.653 1.054-1.573 1.867-2.76 2.44-1.187.574-2.547.86-4.08.86h-6.62v-14zm6.46 10.84c1.2 0 2.16-.34 2.88-1.02.733-.68 1.1-1.62 1.1-2.82 0-1.2-.367-2.14-1.1-2.82-.72-.68-1.68-1.02-2.88-1.02h-2.5v7.68h2.5zm19.248.44h-5.92l-1.1 2.72h-4.04l6.18-14h3.9l6.2 14h-4.12l-1.1-2.72zm-1.16-2.92l-1.8-4.48-1.8 4.48h3.6zm13.623 1.92h-2.16v3.72h-3.96v-14h6.4c1.266 0 2.366.214 3.3.64.933.414 1.653 1.014 2.16 1.8.506.774.76 1.687.76 2.74 0 1.014-.24 1.9-.72 2.66-.467.747-1.14 1.334-2.02 1.76l3.02 4.4h-4.24l-2.54-3.72zm2.5-5.1c0-.653-.207-1.16-.62-1.52-.414-.36-1.027-.54-1.84-.54h-2.2v4.1h2.2c.813 0 1.426-.173 1.84-.52.413-.36.62-.866.62-1.52zM63.425 30.617h-5.04v-.92h11.1v.92h-5.04v13.08h-1.02v-13.08zm18.25 12.16v.92h-9.66v-14h9.36v.92h-8.34v5.52h7.46v.9h-7.46v5.74h8.64zm9.56 1.02c-1.373 0-2.613-.306-3.72-.92a6.89 6.89 0 01-2.6-2.54c-.626-1.08-.94-2.293-.94-3.64 0-1.346.314-2.56.94-3.64a6.89 6.89 0 012.6-2.54c1.107-.613 2.347-.92 3.72-.92 1.014 0 1.947.167 2.8.5.854.32 1.58.8 2.18 1.44l-.64.66c-1.12-1.106-2.553-1.66-4.3-1.66-1.173 0-2.24.267-3.2.8a5.833 5.833 0 00-2.26 2.22c-.546.934-.82 1.98-.82 3.14 0 1.16.274 2.214.82 3.16a5.875 5.875 0 002.26 2.2c.96.534 2.027.8 3.2.8 1.734 0 3.167-.56 4.3-1.68l.64.66a5.84 5.84 0 01-2.2 1.46c-.853.334-1.78.5-2.78.5zm19.797-14.1v14h-1.02v-6.66h-9.36v6.66h-1.02v-14h1.02v6.44h9.36v-6.44h1.02z" fill="#000"/><circle cx="23.192" cy="26.612" r="19.085" stroke="#000" stroke-width="8"/><path stroke="#fff" stroke-width="3" d="M6.006 43.21L40.475 8.741"/></svg>