<svg width="73" height="57" viewBox="0 0 73 57" fill="none" xmlns="http://www.w3.org/2000/svg">
<path d="M35.8974 14.7538L12.8974 33.7538L12.8974 54.1288C12.8974 55.2538 13.7724 56.1288 14.8974 56.1288H28.8974C29.8974 56.1288 30.7724 55.2538 30.7724 54.1288V42.1288C30.7724 41.1288 31.7724 40.1288 32.7724 40.1288H40.7724C41.8974 40.1288 42.7724 41.1288 42.7724 42.1288V54.1288C42.7724 55.2538 43.7724 56.1288 44.7724 56.1288H58.8974C59.8974 56.1288 60.8974 55.2538 60.8974 54.1288V33.6288L37.7724 14.7538C37.5224 14.5038 37.1474 14.3788 36.8974 14.3788C36.5224 14.3788 36.1474 14.5038 35.8974 14.7538ZM72.2724 27.6288L61.8974 19.0038V1.75378C61.8974 0.878784 61.1474 0.253784 60.3974 0.253784H53.3974C52.5224 0.253784 51.8974 0.878784 51.8974 1.75378V10.7538L40.6474 1.50378C39.7724 0.753784 38.0224 0.253784 36.7724 0.253784C35.6474 0.253784 33.8974 0.753784 33.0224 1.50378L1.39745 27.6288C1.02245 27.8788 0.772446 28.3788 0.772446 28.7538C0.772446 29.1288 1.02245 29.5038 1.14745 29.7538L4.39745 33.6288C4.64745 33.8788 5.14745 34.1288 5.52245 34.1288C5.77245 34.1288 6.27245 34.0038 6.52245 33.7538L35.8974 9.62878C36.1474 9.37878 36.5224 9.25378 36.8974 9.25378C37.1474 9.25378 37.5224 9.37878 37.7724 9.62878L67.1474 33.7538C67.3974 34.0038 67.8974 34.1288 68.1474 34.1288C68.5224 34.1288 69.0224 33.8788 69.2724 33.6288L72.5224 29.7538C72.6474 29.5038 72.8974 29.1288 72.8974 28.7538C72.8974 28.3788 72.6474 27.8788 72.2724 27.6288Z" fill="#FFF504"/>
<path d="M35.8974 14.7538L12.8974 33.7538L12.8974 54.1288C12.8974 55.2538 13.7724 56.1288 14.8974 56.1288H28.8974C29.8974 56.1288 30.7724 55.2538 30.7724 54.1288V42.1288C30.7724 41.1288 31.7724 40.1288 32.7724 40.1288H40.7724C41.8974 40.1288 42.7724 41.1288 42.7724 42.1288V54.1288C42.7724 55.2538 43.7724 56.1288 44.7724 56.1288H58.8974C59.8974 56.1288 60.8974 55.2538 60.8974 54.1288V33.6288L37.7724 14.7538C37.5224 14.5038 37.1474 14.3788 36.8974 14.3788C36.5224 14.3788 36.1474 14.5038 35.8974 14.7538ZM72.2724 27.6288L61.8974 19.0038V1.75378C61.8974 0.878784 61.1474 0.253784 60.3974 0.253784H53.3974C52.5224 0.253784 51.8974 0.878784 51.8974 1.75378V10.7538L40.6474 1.50378C39.7724 0.753784 38.0224 0.253784 36.7724 0.253784C35.6474 0.253784 33.8974 0.753784 33.0224 1.50378L1.39745 27.6288C1.02245 27.8788 0.772446 28.3788 0.772446 28.7538C0.772446 29.1288 1.02245 29.5038 1.14745 29.7538L4.39745 33.6288C4.64745 33.8788 5.14745 34.1288 5.52245 34.1288C5.77245 34.1288 6.27245 34.0038 6.52245 33.7538L35.8974 9.62878C36.1474 9.37878 36.5224 9.25378 36.8974 9.25378C37.1474 9.25378 37.5224 9.37878 37.7724 9.62878L67.1474 33.7538C67.3974 34.0038 67.8974 34.1288 68.1474 34.1288C68.5224 34.1288 69.0224 33.8788 69.2724 33.6288L72.5224 29.7538C72.6474 29.5038 72.8974 29.1288 72.8974 28.7538C72.8974 28.3788 72.6474 27.8788 72.2724 27.6288Z" fill="url(#paint0_linear)"/>
<defs>
<linearGradient id="paint0_linear" x1="10.9311" y1="55.7859" x2="69.4386" y2="-8.87122" gradientUnits="userSpaceOnUse">
<stop stop-color="#05C02E"/>
<stop offset="1" stop-color="#2178FB" stop-opacity="0"/>
</linearGradient>
</defs>
</svg>
