<svg width="57" height="65" viewBox="0 0 57 65" fill="none" xmlns="http://www.w3.org/2000/svg">
<path d="M54.7057 50.6288L40.0807 27.0038V8.12878H41.0807C42.7057 8.12878 44.0807 6.87878 44.0807 5.12878V3.12878C44.0807 1.50378 42.7057 0.128784 41.0807 0.128784H15.0807C13.3307 0.128784 12.0807 1.50378 12.0807 3.12878V5.12878C12.0807 6.87878 13.3307 8.12878 15.0807 8.12878H16.0807V27.0038L1.33069 50.6288C-2.29431 56.5038 1.95569 64.1288 8.83069 64.1288H47.2057C54.0807 64.1288 58.3307 56.5038 54.7057 50.6288ZM17.2057 40.1288L23.3307 30.5038C23.7057 29.8788 23.9557 29.0038 23.9557 28.1288V8.12878H31.9557V28.1288C31.9557 29.0038 32.3307 29.8788 32.7057 30.5038L38.7057 40.1288H17.2057Z" fill="#FFF504"/>
<path d="M54.7057 50.6288L40.0807 27.0038V8.12878H41.0807C42.7057 8.12878 44.0807 6.87878 44.0807 5.12878V3.12878C44.0807 1.50378 42.7057 0.128784 41.0807 0.128784H15.0807C13.3307 0.128784 12.0807 1.50378 12.0807 3.12878V5.12878C12.0807 6.87878 13.3307 8.12878 15.0807 8.12878H16.0807V27.0038L1.33069 50.6288C-2.29431 56.5038 1.95569 64.1288 8.83069 64.1288H47.2057C54.0807 64.1288 58.3307 56.5038 54.7057 50.6288ZM17.2057 40.1288L23.3307 30.5038C23.7057 29.8788 23.9557 29.0038 23.9557 28.1288V8.12878H31.9557V28.1288C31.9557 29.0038 32.3307 29.8788 32.7057 30.5038L38.7057 40.1288H17.2057Z" fill="url(#paint0_linear)"/>
<defs>
<linearGradient id="paint0_linear" x1="-6.599" y1="69.1288" x2="64.308" y2="-4.87121" gradientUnits="userSpaceOnUse">
<stop stop-color="#05C02E"/>
<stop offset="1" stop-color="#05C02E" stop-opacity="0"/>
</linearGradient>
</defs>
</svg>
