<svg width="65" height="65" viewBox="0 0 65 65" fill="none" xmlns="http://www.w3.org/2000/svg">
<path d="M0.5 50.8788V56.1288C0.5 60.6288 11.25 64.1288 24.5 64.1288C37.75 64.1288 48.5 60.6288 48.5 56.1288V50.8788C43.25 54.5038 33.875 56.1288 24.5 56.1288C15 56.1288 5.625 54.5038 0.5 50.8788ZM40.5 16.1288C53.75 16.1288 64.5 12.6288 64.5 8.12878C64.5 3.75378 53.75 0.128784 40.5 0.128784C27.25 0.128784 16.5 3.75378 16.5 8.12878C16.5 12.6288 27.25 16.1288 40.5 16.1288ZM0.5 37.7538V44.1288C0.5 48.6288 11.25 52.1288 24.5 52.1288C37.75 52.1288 48.5 48.6288 48.5 44.1288V37.7538C43.25 42.0038 33.875 44.1288 24.5 44.1288C15 44.1288 5.625 42.0038 0.5 37.7538ZM52.5 39.1288C59.625 37.7538 64.5 35.1288 64.5 32.1288V26.8788C61.5 28.8788 57.25 30.2538 52.5 31.1288V39.1288ZM24.5 20.1288C11.25 20.1288 0.5 24.6288 0.5 30.1288C0.5 35.7538 11.25 40.1288 24.5 40.1288C37.75 40.1288 48.5 35.7538 48.5 30.1288C48.5 24.6288 37.75 20.1288 24.5 20.1288ZM51.875 27.2538C59.375 25.8788 64.5 23.2538 64.5 20.1288V14.8788C60 18.0038 52.375 19.6288 44.375 20.1288C48 21.8788 50.75 24.2538 51.875 27.2538Z" fill="#FFF504"/>
<path d="M0.5 50.8788V56.1288C0.5 60.6288 11.25 64.1288 24.5 64.1288C37.75 64.1288 48.5 60.6288 48.5 56.1288V50.8788C43.25 54.5038 33.875 56.1288 24.5 56.1288C15 56.1288 5.625 54.5038 0.5 50.8788ZM40.5 16.1288C53.75 16.1288 64.5 12.6288 64.5 8.12878C64.5 3.75378 53.75 0.128784 40.5 0.128784C27.25 0.128784 16.5 3.75378 16.5 8.12878C16.5 12.6288 27.25 16.1288 40.5 16.1288ZM0.5 37.7538V44.1288C0.5 48.6288 11.25 52.1288 24.5 52.1288C37.75 52.1288 48.5 48.6288 48.5 44.1288V37.7538C43.25 42.0038 33.875 44.1288 24.5 44.1288C15 44.1288 5.625 42.0038 0.5 37.7538ZM52.5 39.1288C59.625 37.7538 64.5 35.1288 64.5 32.1288V26.8788C61.5 28.8788 57.25 30.2538 52.5 31.1288V39.1288ZM24.5 20.1288C11.25 20.1288 0.5 24.6288 0.5 30.1288C0.5 35.7538 11.25 40.1288 24.5 40.1288C37.75 40.1288 48.5 35.7538 48.5 30.1288C48.5 24.6288 37.75 20.1288 24.5 20.1288ZM51.875 27.2538C59.375 25.8788 64.5 23.2538 64.5 20.1288V14.8788C60 18.0038 52.375 19.6288 44.375 20.1288C48 21.8788 50.75 24.2538 51.875 27.2538Z" fill="url(#paint0_linear)"/>
<defs>
<linearGradient id="paint0_linear" x1="-1.15707" y1="69.1288" x2="66.4914" y2="-11.7177" gradientUnits="userSpaceOnUse">
<stop stop-color="#05C02E"/>
<stop offset="1" stop-color="#05C02E" stop-opacity="0"/>
</linearGradient>
</defs>
</svg>
