<svg width="63" height="56" fill="none" xmlns="http://www.w3.org/2000/svg"><path d="M.343 55.044v.25h61.572V4.965c0-2.147-1.767-3.914-3.914-3.914H4.258C2.11 1.05.343 2.818.343 4.965v50.079zm35.528-39.372h-.008l-.007.002a1.642 1.642 0 00-.172.042c-.476.11-.874.452-1.047.914L23.646 43.498l-.001.003a1.48 1.48 0 00.827 1.927 1.48 1.48 0 001.927-.825v-.001L37.39 17.736a1.47 1.47 0 00-.157-1.472 1.464 1.464 0 00-1.362-.592zm-15.855 7.33l-.008.002-.009.002c-.043.01-.086.026-.119.038-.17.03-.333.092-.48.18l-8.546 4.883h-.001a1.476 1.476 0 00-.757 1.287 1.476 1.476 0 00.758 1.287l8.547 4.884a1.48 1.48 0 002.021-.55 1.479 1.479 0 00-.55-2.021h0l-6.3-3.6 6.287-3.593a1.472 1.472 0 00-.843-2.798zm21.376 2.794l6.295 3.598-6.3 3.6h0a1.479 1.479 0 00-.55 2.02 1.477 1.477 0 002.02.551l8.547-4.884h.002a1.48 1.48 0 00.757-1.287 1.476 1.476 0 00-.758-1.287l-8.546-4.883v-.001a1.48 1.48 0 00-1.007-.183 1.476 1.476 0 00-1.226 1.213 1.474 1.474 0 00.766 1.543zM4.258 3.994H58a.95.95 0 01.971.971v3.414H3.286V4.965a.95.95 0 01.972-.971zm-.972 7.328h55.686v41.03H3.286v-41.03z" fill="#000" stroke="#000" stroke-width=".5"/></svg>