<svg width="120" height="66" fill="none" xmlns="http://www.w3.org/2000/svg"><path d="M16.55 20.75c-1.18 0-2.31.47-3.085 1.219-.761.749-1.231 1.65-1.637 2.64l.038-.101-4.647 9.66c-.368.191-.85.47-1.358.852-.978.698-2.298 1.726-2.298 3.605V53.25c0 1.79 1.46 3.25 3.25 3.25h3.25v-3.25h32.5v3.25h3.25c1.79 0 3.25-1.46 3.25-3.25V38.625c0-1.879-1.32-2.907-2.298-3.605a9.491 9.491 0 00-1.358-.838l-4.647-9.674c-.393-.8-.838-1.65-1.561-2.4-.737-.749-1.854-1.358-3.123-1.358H16.55zm0 3.25h19.526c.368 0 .495.064.787.368.292.305.635.876.977 1.562l3.758 7.82h-30.57l3.783-7.871.025-.026c.318-.787.635-1.307.89-1.548.253-.241.367-.305.824-.305zM8.87 37h34.899c.178.089.559.254 1.092.635.647.482.952 1.079.952.99V50h-39V38.625c0 .089.305-.508.952-.99.533-.381.914-.546 1.105-.635zm2.818 3.25a1.62 1.62 0 00-1.625 1.625 1.62 1.62 0 001.625 1.625 1.62 1.62 0 001.625-1.625 1.62 1.62 0 00-1.625-1.625zm29.25 0a1.62 1.62 0 00-1.625 1.625 1.62 1.62 0 001.625 1.625 1.62 1.62 0 001.625-1.625 1.62 1.62 0 00-1.625-1.625zM16.563 43.5v3.25h19.5V43.5h-19.5z" fill="#000"/><g clip-path="url(#clip0)"><path d="M71.157 4.125c-5.758 0-10.469 4.64-10.469 10.313v14.824c-2.425.86-4.188 3.132-4.188 5.8v18.563c0 2.277 1.877 4.125 4.188 4.125h4.188v-4.125h37.687v4.125h4.187c2.312 0 4.188-1.848 4.188-4.125V35.062c0-2.668-1.763-4.94-4.188-5.8V14.437c0-5.671-4.711-10.312-10.468-10.312H71.157zm0 4.125h25.125c2.756 0 5.048 1.716 5.905 4.125H65.252c.856-2.409 3.148-4.125 5.905-4.125zm-6.281 8.25h16.75v8.25h-6.282c-2.63 0-4.477 1.843-5.406 4.125h-5.063V16.5zm20.937 0h16.75v12.375H97.5c-.928-2.282-2.775-4.125-5.406-4.125h-6.281V16.5zm-33.5 4.125v8.25h4.188v-8.25h-4.188zm58.625 0v8.25h4.187v-8.25h-4.187zm-35.594 8.25h16.75c1.179 0 2.094.901 2.094 2.063V49.5H73.25V30.937c0-1.16.916-2.062 2.094-2.062zM62.782 33h6.281v16.5h-8.375V35.062c0-1.16.915-2.062 2.094-2.062zm6.281 6.188c0-.547-.22-1.072-.613-1.459a2.11 2.11 0 00-1.48-.604 2.11 2.11 0 00-1.481.604 2.047 2.047 0 00-.614 1.459c0 .546.221 1.071.614 1.458a2.11 2.11 0 001.48.604 2.11 2.11 0 001.48-.604c.393-.387.614-.912.614-1.459zM77.438 33v4.125h12.563V33H77.438zm20.938 0h6.281c1.178 0 2.093.901 2.093 2.063V49.5h-8.374V33zm0 6.188c0 .546.22 1.071.613 1.458a2.11 2.11 0 001.48.604 2.11 2.11 0 001.481-.604 2.05 2.05 0 00.613-1.459 2.05 2.05 0 00-.613-1.458 2.11 2.11 0 00-1.481-.604 2.11 2.11 0 00-1.48.604 2.047 2.047 0 00-.614 1.459zM77.438 41.25v4.125h12.563V41.25H77.438z" fill="#000"/></g><defs><clipPath id="clip0"><path fill="#fff" transform="translate(52.313)" d="M0 0h67v66H0z"/></clipPath></defs></svg>