<svg width="67" height="47" fill="none" xmlns="http://www.w3.org/2000/svg"><path d="M42.519.8a2.2 2.2 0 00-2.072 2.94l2.88 8.06H23.628l-1.362-2.2h2.652a2.2 2.2 0 100-4.4h-6.287a2.2 2.2 0 00-.262-.026 2.2 2.2 0 00-.404.026h-1.848a2.2 2.2 0 100 4.4h.976l3.012 4.864-2.918 6.566c-1.048-.27-2.14-.43-3.27-.43-7.264 0-13.2 5.936-13.2 13.2 0 7.264 5.936 13.2 13.2 13.2 6.513 0 11.942-4.778 12.999-11h7.773c.141 0 .282-.015.42-.043l.026-.008a2.212 2.212 0 00.392-.12l.021-.01a2.23 2.23 0 00.176-.09 2.176 2.176 0 00.16-.094c.121-.08.235-.172.339-.275l.025-.026.035-.043a2.193 2.193 0 00.22-.27c0-.002.002-.003.003-.005a2.192 2.192 0 00.142-.25l8.594-17.595 1.83 5.126c-4.022 2.268-6.755 6.577-6.755 11.503 0 7.264 5.936 13.2 13.2 13.2 7.265 0 13.2-5.936 13.2-13.2 0-7.264-5.935-13.2-13.2-13.2-.786 0-1.553.081-2.303.215L45.638 5.2h3.48a2.2 2.2 0 100-4.4h-6.6zM26.358 16.2h14.459l-6.372 13.054L26.358 16.2zm-3.45 2.789L30.719 31.6h-3.802a13.242 13.242 0 00-5.707-8.787l1.698-3.824zM13.918 25c.495 0 .969.065 1.44.142l-3.45 7.764A2.2 2.2 0 0013.918 36h8.495c-.973 3.803-4.374 6.6-8.495 6.6a8.767 8.767 0 01-8.8-8.8c0-4.886 3.914-8.8 8.8-8.8zm39.6 0c4.887 0 8.8 3.914 8.8 8.8 0 4.886-3.913 8.8-8.8 8.8a8.767 8.767 0 01-8.8-8.8c0-3.05 1.525-5.72 3.86-7.296l2.87 8.035a2.2 2.2 0 104.142-1.478l-2.854-7.984c.263-.023.514-.077.783-.077zM19.38 26.934a8.707 8.707 0 013.033 4.666h-5.109l2.076-4.666z" fill="#000"/></svg>