<svg width="74" height="65" fill="none" xmlns="http://www.w3.org/2000/svg"><path d="M72.493 30.393l-7.347-6.434V6.04a2.008 2.008 0 00-2.009-2.008H51.086a2.008 2.008 0 00-2.009 2.008V9.9L38.347.516a2.009 2.009 0 00-2.643 0L1.558 30.393a2.009 2.009 0 102.645 3.024l4.703-4.12v28.965a6.032 6.032 0 006.025 6.026H59.12a6.032 6.032 0 006.026-6.026V29.297l4.702 4.116a2.008 2.008 0 002.645-3.02zM61.128 58.262a2.009 2.009 0 01-2.008 2.008H14.932a2.008 2.008 0 01-2.009-2.008v-32.48l24.103-21.09 24.102 21.09v32.48zm0-37.818l-8.034-7.03V8.048h8.034v12.396zm-34.145 7.02v13.391a3.358 3.358 0 003.347 3.347h13.387a3.36 3.36 0 003.352-3.347v-13.39a3.357 3.357 0 00-3.352-3.349H30.33a3.357 3.357 0 00-3.347 3.348zm4.017.67h12.051v12.05H31v-12.05z" fill="#000"/></svg>