<svg width="61" height="61" fill="none" xmlns="http://www.w3.org/2000/svg"><path d="M28.126.875a2.47 2.47 0 00-2.469 2.469v7.406H8.376a2.469 2.469 0 00-2.469 2.469V30.5H3.438A2.47 2.47 0 00.97 32.969v27.156h4.938V35.437h19.75v24.688h4.938V5.812h24.687v54.313h4.938V3.344A2.47 2.47 0 0057.75.875H28.127zm7.406 9.875v4.938h4.938V10.75h-4.938zm9.875 0v4.938h4.938V10.75h-4.938zm-34.563 4.938h14.813V30.5H10.844V15.687zm4.938 4.937v4.938h4.938v-4.938h-4.938zm19.75 0v4.938h4.938v-4.938h-4.938zm9.875 0v4.938h4.938v-4.938h-4.938zM35.532 30.5v4.938h4.938V30.5h-4.938zm9.875 0v4.938h4.938V30.5h-4.938zm-34.563 9.875v4.938h9.876v-4.938h-9.875zm24.688 0v4.938h4.938v-4.938h-4.938zm9.875 0v4.938h4.938v-4.938h-4.938zM10.844 50.25v4.938h9.876V50.25h-9.875zm24.688 0v4.938h4.938V50.25h-4.938zm9.875 0v4.938h4.938V50.25h-4.938z" fill="#000"/></svg>