<svg width="62" height="61" fill="none" xmlns="http://www.w3.org/2000/svg"><path d="M12.42.401l-1.28 1.202S.89 10.942.89 22.823c0 13.544 12.091 19.46 12.091 19.46l2.803 1.36.801-3.042s.66-2.763 3.203-5.686c2.543-2.923 6.747-5.845 14.414-5.845 11.421 0 19.39 6.135 21.861 8.167C54.093 40 46.744 49.57 34.203 49.57c-5.716 0-9.54-1.24-11.852-2.242 3.303-2.582 6.726-4.044 9.85-4.884 6.586-1.772 11.69-.641 11.69-.641l1.122-4.965s-1.602-.39-4.164-.48a34.47 34.47 0 00-10.01 1.12c-7.788 2.093-17.157 7.878-23.223 21.301l4.645 2.083c1.832-4.064 3.934-7.238 6.166-9.77 2.442 1.241 7.968 3.603 15.775 3.603 17.657 0 27.787-16.576 27.787-16.576l1.121-1.761-1.521-1.442s-11.631-10.97-27.387-10.97c-2.823 0-5.225.42-7.447 1.04.37-2.242.55-4.874-.16-8.168C24.242 5.827 14.023 1.122 14.023 1.122L12.42.402zm.962 6.487c2.012 1.171 6.726 4.224 8.168 10.97.72 3.374.46 6.016 0 7.768-.46 1.752-.961 2.402-.961 2.402-1.712 1.132-3.524 2.243-4.645 3.524-.27.31-.49.65-.72.96-.15-1.51-.26-3.032-.24-4.484.04-3.733.4-6.726.4-6.726l-5.045-.72s-.43 3.282-.48 7.366c-.02 1.772.05 3.744.24 5.686-2.092-2.122-4.084-5.445-4.084-10.81 0-7.458 5.505-13.894 7.367-15.936z" fill="#000"/></svg>