<svg width="69" height="63" fill="none" xmlns="http://www.w3.org/2000/svg"><path d="M18.938.071L.78 9.149v53.476h67.44V15.937H37.094V9.15L18.937.071zm0 5.795l12.968 6.485v45.087H5.97V12.35l12.968-6.485zm-7.782 10.072v5.187h5.188v-5.188h-5.188zm10.375 0v5.187h5.188v-5.188H21.53zm15.563 5.187H63.03v36.313H37.094V21.124zm-25.938 5.188V31.5h5.188v-5.188h-5.188zm10.375 0V31.5h5.188v-5.188H21.53zm20.75 0V31.5h5.188v-5.188H42.28zm10.375 0V31.5h5.188v-5.188h-5.188zm-41.5 10.375v5.187h5.188v-5.188h-5.188zm10.375 0v5.187h5.188v-5.188H21.53zm20.75 0v5.187h5.188v-5.188H42.28zm10.375 0v5.187h5.188v-5.188h-5.188zm-41.5 10.374v5.188h5.188v-5.188h-5.188zm10.375 0v5.188h5.188v-5.188H21.53zm20.75 0v5.188h5.188v-5.188H42.28zm10.375 0v5.188h5.188v-5.188h-5.188z" fill="#000"/></svg>