<svg width="51" height="68" fill="none" xmlns="http://www.w3.org/2000/svg"><path d="M48.933 13.552l-10.96-10.96A6.27 6.27 0 0033.545.75H6.873C3.412.764.603 3.573.603 7.034v54.343a6.272 6.272 0 006.27 6.27h37.632a6.272 6.272 0 006.27-6.27V17.994a6.301 6.301 0 00-1.842-4.442zM34.055 5.01c.366.091.693.274.967.548l10.96 10.96c.274.274.457.601.548.967H34.055V5.009zm2.087 58.459H15.236v-4.07c0-2.402 1.705-4.294 4.345-4.294 1.626 0 2.717.914 6.108.914 3.332 0 4.515-.914 6.108-.914 2.634 0 4.345 1.886 4.345 4.294v4.07zm10.454-2.09c0 1.15-.941 2.09-2.091 2.09h-4.182v-4.07c0-1.814-.55-3.498-1.491-4.897-1.578-2.344-4.269-3.578-7.035-3.578-2.542 0-3.183.914-6.108.914-2.928 0-3.562-.914-6.108-.914-2.766 0-5.457 1.234-7.034 3.578a8.735 8.735 0 00-1.492 4.897v4.07H6.873c-1.15 0-2.09-.94-2.09-2.09V7.033c0-1.15.94-2.102 2.09-2.102h23v13.597a3.12 3.12 0 003.137 3.127h13.586v39.721zM15.236 38.38c0 5.773 4.68 10.453 10.453 10.453 5.772 0 10.453-4.68 10.453-10.453 0-5.774-4.68-10.453-10.453-10.453s-10.453 4.68-10.453 10.453zm16.724 0a6.278 6.278 0 01-6.271 6.272 6.278 6.278 0 01-6.272-6.272 6.278 6.278 0 016.272-6.272 6.278 6.278 0 016.271 6.272z" fill="#000"/></svg>