<svg width="17" height="17" fill="none" xmlns="http://www.w3.org/2000/svg"><path d="M7.707 2.442C5.402 4.684 4.318 6.32 4.455 7.352l3.252-4.91zm2.21 11.328c1.83-.697 3.501-2.519 5.011-5.467.331-.749.333-1.381.007-1.898-1.601 2.104-3.274 4.559-5.018 7.365zm1.354-5.198l-2.967 4.067-.213.492-.212.421c-.048.14-.001.281.139.422l.28.142c.094 0 .165-.023.212-.07.141-.187.4-.397.775-.63l.423-.21.283-.35 4.594-6.945c.33-.514.215-1.03-.346-1.548l-2.968 4.209zm-6.12 1.033l.424-.913c.285-.796.474-1.428.57-1.896l.212-.351.212-.28.777-1.052.707-1.053c.612-.888 1.154-1.566 1.624-2.033l.212-.35a.473.473 0 00-.21-.423.352.352 0 00-.421-.002l-.282.28C6.997 4.244 5.372 6.63 4.099 8.687c-.519.842-.545 1.639-.079 2.39l.846-.63c0 .235-.048.446-.143.633l-.353.561c-.189.28-.213.539-.073.773l.21.282.28.212c.187.095.351.095.492.002l.142-.21.141-.21.283-.351.282-.351.566-.842.565-.841c.471-.702.918-1.216 1.341-1.543a.65.65 0 01-.001.422l-.213.421-1.84 3.369-.141.35c0 .141.093.259.28.353.14.048.257.025.351-.069l.212-.28.283-.491.213-.562c.236-.421.518-.701.847-.84.282-.187.54-.42.776-.701l.565-.772 1.202-1.894 1.837-2.525c.377-.514.59-1.006.638-1.474.048-.375-.115-.657-.49-.846-.14-.047-.257-.024-.351.07l-.141.21-.141.14c-.8.794-1.6 1.8-2.402 3.015l-.707 1.123c-.282.42-.542.771-.777 1.052 0-.235.072-.469.214-.703l.424-.631 2.687-4.28c.235-.374.19-.655-.138-.844-.374-.236-.679-.237-.914-.003l-.424.49-.423.491-2.19 3.086-2.121 3.157-.354.631c-.142.234-.33.398-.564.49l.354-.912zm11.25-.312c-.005 1.5-.384 2.74-1.137 3.722-1.649 2.198-3.856 3.432-6.623 3.704-2.157.226-4.03-.366-5.619-1.778C1.48 13.53.76 11.793.861 9.731l.006-1.829c-.086-2.25.93-4.356 3.046-6.317.47-.373 1.315-.628 2.534-.765A6.495 6.495 0 017.854.685L9.33.69l.563.002a5.227 5.227 0 011.475.357c1.264.379 2.433 1.156 3.507 2.332.374.376.7 1.01.978 1.902.325.845.487 1.502.485 1.97l-.003 1.055.066.985z" fill="#FFDF4F"/></svg>