<svg width="213" height="64" fill="none" xmlns="http://www.w3.org/2000/svg"><path d="M79.406 25.86c-.713 0-1.425-.06-2.128-.181l-1.188-.207V1.252l1.271-.115.449-.045c.523-.067 1.05-.1 1.577-.1 7.04.014 12.757 5.262 12.757 12.43 0 7.17-5.716 12.438-12.738 12.438zm0-23.842h-.473v22.8h.493c5.45 0 9.89-4.719 9.89-11.405 0-6.686-4.46-11.4-9.91-11.4v.005zm37.237 23.696V1.132h3.297a6.137 6.137 0 013.237.917 6.316 6.316 0 012.302 2.5 6.474 6.474 0 01.698 3.356 6.449 6.449 0 01-1.108 3.239l-.133.196.222.075c3.217 1.112 5.381 3.472 5.381 6.933 0 4.458-3.548 7.366-7.914 7.366h-5.982zm5.982-12.633a6.243 6.243 0 00-3.139 1.101v10.53h3.139c2.794 0 5.071-2.098 5.071-5.81 0-3.713-2.277-5.821-5.071-5.821zm-3.139-.217c1.311-.543 3.854-2.41 3.854-5.363 0-2.953-1.528-5.353-3.4-5.353h-.454v10.716zm-81.17 12.85V1.132h12.151l.31 1.746-9.618-.715v11.622l6.263-.357v1.7l-6.263-.357v9.956l10.846-.714-.31 1.7h-13.38zM0 25.754V1.132h3.553c5.42 0 9.855 3.803 9.855 9.358 0 3.396-1.67 5.83-4.474 7.707l-.183.12 7.47 7.397h-4.075L5.913 19.54h-.094c-.74.183-1.5.278-2.261.281h-.715v5.932H0zm2.843-6.943h.71c3.868 0 7.016-3.225 7.016-8.321 0-5.097-3.148-8.327-7.016-8.327h-.71v16.648zm166.815 6.903L162.341 5.79l-6.717 19.923h-1.769L163.41 0l9.416 25.714h-3.168zm27.116.04V1.132h3.553c5.42 0 9.854 3.803 9.854 9.358 0 3.396-1.67 5.83-4.474 7.707l-.182.12 7.47 7.397h-4.07l-6.243-6.173h-.094a9.556 9.556 0 01-2.261.281h-.71v5.932h-2.843zm2.843-6.938h.71c3.868 0 7.016-3.23 7.016-8.326 0-5.097-3.148-8.332-7.016-8.332h-.71v16.658zM27.052 41.079h3.006v.835h-2.12v1.635h1.528v.835H27.94v1.861h-.887V41.08zm15.073-.151a2.641 2.641 0 011.5.441c.446.296.795.72 1.004 1.22.21.5.268 1.05.17 1.584a2.756 2.756 0 01-.725 1.412 2.663 2.663 0 01-1.372.76 2.63 2.63 0 01-1.554-.148 2.693 2.693 0 01-1.21-1.008 2.779 2.779 0 01-.454-1.525 2.74 2.74 0 01.765-1.927 2.66 2.66 0 01.86-.595 2.616 2.616 0 011.016-.215zm0 .835a1.837 1.837 0 00-1.073.25c-.325.193-.585.48-.748.825a1.943 1.943 0 00.314 2.124c.256.28.588.476.954.561a1.83 1.83 0 001.097-.084c.35-.14.65-.384.861-.7a1.94 1.94 0 00.325-1.075 1.879 1.879 0 00-.484-1.314 1.803 1.803 0 00-1.246-.592v.005zm15.225 2.395l1.154 2.087h-.986l-1.04-1.896h-.985v1.897h-.892v-5.167h1.715c1.114 0 1.858.76 1.858 1.635-.01.285-.093.562-.243.803-.15.24-.36.436-.61.565l.03.076zm-.985-.65a.777.777 0 00.649-.176.808.808 0 00.284-.62.824.824 0 00-.284-.622.788.788 0 00-.649-.176h-.823v1.595h.823zm23.243-.241h-.074v2.963h-.896v-5.303h.152l2.267 2.843 2.272-2.848h.147v5.323h-.891v-2.978h-.074l-1.454 1.826-1.449-1.826zm14.068-2.188h2.957v.835h-2.05v1.293h1.478v.835h-1.478v1.368h2.124v.836H93.69l-.015-5.167zm15.783 3.038V41.1h.916v5.298h-.147l-2.681-3.19h-.074v3.018h-.892v-5.297h.148l2.661 3.19h.069zm21.701 2.928v.836h-1.636v-7.104h1.636v.835h-.745v5.433h.745zm6.809-6.117a2.641 2.641 0 011.5.441c.446.296.796.72 1.005 1.22.209.5.268 1.05.169 1.584a2.752 2.752 0 01-.725 1.412 2.664 2.664 0 01-1.372.76 2.629 2.629 0 01-1.554-.148 2.69 2.69 0 01-1.209-1.008 2.78 2.78 0 01-.455-1.525 2.752 2.752 0 01.767-1.925 2.64 2.64 0 011.874-.811zm0 .83a1.836 1.836 0 00-1.076.243c-.327.19-.59.476-.754.82a1.936 1.936 0 00.304 2.129 1.84 1.84 0 002.052.485c.35-.14.651-.384.863-.7.212-.317.326-.692.326-1.076a1.88 1.88 0 00-.48-1.305 1.803 1.803 0 00-1.235-.596zm15.413 2.359V41.1h.892v5.298h-.148l-2.68-3.19h-.074v3.018h-.892v-5.297h.148l2.681 3.19h.073zm13.955 1.293v.836h-2.863v-5.167h.892v4.331h1.971zm8.86-4.331h.985l1.064 2.188h.074l1.04-2.188h.986l-1.636 3.345v1.822h-.892v-1.822l-1.621-3.345zm8.859 5.966v-5.433h-.744v-.835h1.636v7.104h-1.636v-.836h.744zm-98.48 12.447c.31-.12.606-.273.887-.453.079-.06.098-.07.123-.07a.266.266 0 01.182.125v.504a.074.074 0 00.08.075.073.073 0 00.038-.015 3.031 3.031 0 011.582-.599c.237-.01.473.043.684.154.21.111.39.277.519.48a.156.156 0 00.147.03 5.38 5.38 0 01.853-.503c.247-.114.517-.169.788-.16 1.01 0 1.39.96 1.424 1.765.035.805.079 2.013.079 2.32 0 .2.242.337.434.407.192.07.266.12.266.236 0 .116-.148.187-.252.187h-1.734c-.182 0-.32-.106-.32-.197 0-.09.059-.176.276-.236a.448.448 0 00.28-.178.465.465 0 00.084-.325v-1.982a1.5 1.5 0 00-.182-.866.968.968 0 00-.838-.387 1.93 1.93 0 00-.985.297.674.674 0 00-.114.362c0 1.836 0 2.269.035 2.515a.51.51 0 00.11.326.491.491 0 00.289.178c.232.08.3.15.3.281 0 .131-.137.197-.275.197h-1.779c-.256 0-.34-.116-.34-.212 0-.095.103-.16.286-.231.31-.116.448-.186.458-.644l.034-2.249a1.167 1.167 0 00-.172-.503 1.043 1.043 0 00-.882-.362 1.637 1.637 0 00-.986.312 1.39 1.39 0 00-.128.306c0 2.058 0 2.33.025 2.632a.542.542 0 00.374.503c.222.115.257.176.257.256 0 .08-.119.197-.286.197-.276 0-.656-.03-.986-.03-.26 0-.492.055-.778.055-.286 0-.32-.09-.32-.197 0-.105.103-.176.275-.246.444-.191.493-.282.493-.66 0-.376.045-1.378.045-2.454a.54.54 0 00-.252-.423c-.207-.166-.251-.211-.251-.246a.424.424 0 01.153-.272zm11.422 0a5.19 5.19 0 00.882-.453c.078-.06.103-.07.123-.07a.269.269 0 01.187.125v.504a.07.07 0 00.037.07.067.067 0 00.076-.01 3.03 3.03 0 011.582-.599 1.347 1.347 0 011.202.634.168.168 0 00.153.03 5.05 5.05 0 01.848-.503 1.75 1.75 0 01.788-.16c1.01 0 1.39.96 1.424 1.765.035.805.079 2.013.079 2.32 0 .2.241.337.438.407.198.07.262.12.262.236 0 .116-.148.187-.252.187h-1.734c-.182 0-.32-.106-.32-.197 0-.09.059-.176.275-.236a.453.453 0 00.282-.178c.068-.093.1-.21.088-.325v-1.982a1.499 1.499 0 00-.182-.866.969.969 0 00-.838-.387 1.94 1.94 0 00-1.01.297.667.667 0 00-.113.362c0 1.836 0 2.269.034 2.515a.51.51 0 00.112.328.49.49 0 00.292.176c.227.08.296.15.296.281 0 .131-.138.197-.276.197h-1.799c-.251 0-.345-.116-.345-.212 0-.095.104-.16.286-.231.311-.116.449-.186.458-.644l.035-2.249a1.156 1.156 0 00-.173-.503 1.042 1.042 0 00-.882-.362 1.636 1.636 0 00-.985.312c-.055.096-.098.2-.128.306v2.632a.54.54 0 00.108.315c.068.09.164.157.271.188.217.115.252.176.252.256 0 .08-.114.197-.286.197-.276 0-.656-.03-.986-.03-.26 0-.517.055-.778.055s-.32-.09-.32-.197c0-.105.103-.176.275-.246.444-.191.493-.282.493-.66 0-.376.044-1.378.044-2.454a.54.54 0 00-.25-.423c-.208-.166-.252-.211-.252-.246a.414.414 0 01.227-.272zm11.392-.352c.138 0 .562 0 .985.035h.779c.089 0 .217.07.217.176 0 .106-.114.187-.217.222-.104.035-.182.08-.094.292.17.345.357.681.562 1.006a.065.065 0 00.052.027.06.06 0 00.029-.008.055.055 0 00.022-.02c.06-.09.493-.749.577-.945.084-.196.064-.272-.241-.362a.243.243 0 01-.188-.226c0-.106.128-.162.291-.162h.399c.335 0 .675-.05 1.099-.05.128 0 .291.06.291.191s-.104.161-.311.232a1.53 1.53 0 00-.847.538c-.242.282-.493.644-.863 1.182-.024.035 0 .096 0 .156.129.196.818 1.379.942 1.58a1.055 1.055 0 00.758.503c.193.035.311.156.311.247 0 .09-.187.186-.335.186-.148 0-.631-.03-1.079-.03h-.799c-.197 0-.276-.081-.276-.177 0-.095.114-.196.375-.266.118-.06.187-.186.128-.282-.059-.096-.379-.714-.631-1.122 0 0-.078-.06-.128 0a7.888 7.888 0 00-.626 1.077c-.049.14-.039.246.296.387.059.025.163.116.163.166 0 .151-.173.222-.257.222h-.744c-.182 0-.699.055-.813.055-.197 0-.31-.09-.31-.176s.103-.196.345-.282c.308-.097.582-.284.788-.538a10 10 0 00.907-1.228.236.236 0 00.036-.103.235.235 0 00-.011-.108 29.924 29.924 0 00-.882-1.545 1.136 1.136 0 00-.749-.458c-.202-.045-.306-.105-.321-.246-.014-.14.173-.146.37-.146zm7.672 0c.138 0 .562 0 .985.035h.779c.094 0 .222.07.222.176 0 .106-.119.187-.222.222-.103.035-.182.08-.089.292.168.346.355.682.562 1.006a.065.065 0 00.052.027.06.06 0 00.029-.008.065.065 0 00.023-.02c.054-.09.468-.749.571-.945.104-.196.069-.272-.241-.362-.124-.05-.173-.106-.183-.227-.01-.12.128-.16.286-.16h.394c.33 0 .675-.051 1.099-.051.128 0 .286.06.286.191s-.104.161-.31.232a1.546 1.546 0 00-.848.538c-.241.282-.493.644-.857 1.182a.176.176 0 000 .156c.128.196.813 1.379.941 1.58a1.039 1.039 0 00.754.503c.197.035.31.156.31.247 0 .09-.182.186-.33.186-.148 0-.631-.03-1.079-.03h-.803c-.197 0-.276-.081-.276-.177 0-.095.113-.196.379-.266.113-.06.182-.186.128-.282-.054-.096-.379-.714-.63-1.122 0 0-.084-.06-.129 0a8.66 8.66 0 00-.63 1.077c-.045.14-.035.246.295.387.059.025.163.116.163.166 0 .151-.172.222-.251.222h-.744c-.188 0-.7.055-.818.055-.119 0-.306-.09-.306-.176s.104-.196.34-.282c.31-.097.586-.284.793-.538.33-.388.633-.798.907-1.228a.228.228 0 00.025-.105.228.228 0 00-.025-.106 26.072 26.072 0 00-.882-1.545 1.13 1.13 0 00-.744-.458c-.207-.045-.31-.105-.32-.246-.01-.14.187-.146.394-.146zm7.731.282a5.878 5.878 0 011.242-.383c.044 0 .113.151.113.187v2.153c0 1.51.035 1.756.045 1.861.01.106.059.207.492.327.158.046.271.151.271.267 0 .116-.182.15-.33.15-.241 0-.709-.03-.985-.03-.582 0-.798.03-.961.03-.163 0-.345-.065-.345-.17 0-.106.113-.191.276-.237.493-.13.527-.221.572-.704 0-.241.049-1.041.049-1.706v-.915c0-.07-.114-.221-.444-.443a.333.333 0 01-.128-.236c.005-.066.064-.126.133-.151zm1.208-2.657a.876.876 0 01.192.504.666.666 0 01-.172.458.639.639 0 01-.434.21.698.698 0 01-.493-.266.616.616 0 01-.113-.352.634.634 0 01.66-.67.519.519 0 01.36.116z" fill="#fff"/></svg>